<svg xmlns="http://www.w3.org/2000/svg" width="100" height="100" viewBox="0 0 100 100">
  <g id="Grupo_1106216" data-name="Grupo 1106216" transform="translate(10217 9469)">
    <path id="Trazado_895308" data-name="Trazado 895308" d="M50,0h0a50,50,0,1,1,0,100h0A50,50,0,0,1,50,0Z" transform="translate(-10217 -9469)" fill="#ecdb9f"/>
    <g id="Page-1" transform="translate(-10193.807 -9442.232)">
      <g id="_008---Certificate" data-name="008---Certificate">
        <path id="Shape" d="M49.146,0H4.468A4.473,4.473,0,0,0,0,4.468V36.636A4.473,4.473,0,0,0,4.468,41.1H31.274v4.468A.894.894,0,0,0,32.8,46.2l2.942-2.942L38.685,46.2a.894.894,0,0,0,1.525-.632V41.1h8.936a4.473,4.473,0,0,0,4.468-4.468V4.468A4.473,4.473,0,0,0,49.146,0ZM28.871,17.482a.475.475,0,0,1-.15-.754,2.271,2.271,0,0,0,0-3.075.475.475,0,0,1,.151-.755,2.273,2.273,0,0,0,1.176-2.842.475.475,0,0,1,.427-.64A2.272,2.272,0,0,0,32.65,7.242a.475.475,0,0,1,.641-.427,2.278,2.278,0,0,0,2.842-1.177.474.474,0,0,1,.753-.15,2.271,2.271,0,0,0,3.076,0,.474.474,0,0,1,.754.151,2.274,2.274,0,0,0,2.841,1.176.475.475,0,0,1,.641.427,2.274,2.274,0,0,0,2.179,2.176.474.474,0,0,1,.427.639A2.272,2.272,0,0,0,47.979,12.9a.475.475,0,0,1,.15.754,2.271,2.271,0,0,0,0,3.075.475.475,0,0,1-.151.755A2.273,2.273,0,0,0,46.8,20.324a.475.475,0,0,1-.427.64A2.272,2.272,0,0,0,44.2,23.143a.475.475,0,0,1-.641.427,2.277,2.277,0,0,0-2.842,1.177.459.459,0,0,1-.337.268.468.468,0,0,1-.416-.117,2.272,2.272,0,0,0-3.076,0,.469.469,0,0,1-.416.117.461.461,0,0,1-.338-.268,2.273,2.273,0,0,0-2.841-1.176.475.475,0,0,1-.641-.427,2.274,2.274,0,0,0-2.179-2.181.474.474,0,0,1-.427-.639,2.272,2.272,0,0,0-1.172-2.842Zm9.815,16.734-.263.263v-8.4a.473.473,0,0,1,.323.126,2.234,2.234,0,0,0,1.528.6,2.357,2.357,0,0,0,.452-.045,2.234,2.234,0,0,0,1.608-1.274.477.477,0,0,1,.6-.247,2.26,2.26,0,0,0,.848.128v9.107L41.731,32.43a.894.894,0,0,0-1.263,0Zm-.263,9.2-2.049-2.049a.894.894,0,0,0-1.263,0l-2.049,2.049V25.37a2.257,2.257,0,0,0,.848-.128.475.475,0,0,1,.6.246,2.234,2.234,0,0,0,1.614,1.275,2.344,2.344,0,0,0,.516.044v9.829a.894.894,0,0,0,1.525.632l.262-.262Zm13.4-6.779a2.681,2.681,0,0,1-2.681,2.681H40.21v-4.1l.894-.894,2.942,2.942a.894.894,0,0,0,1.525-.632V24.4a2.222,2.222,0,0,0,.41-1.195.478.478,0,0,1,.458-.457A2.262,2.262,0,0,0,48.474,19.7a.476.476,0,0,1,.247-.6,2.262,2.262,0,0,0,.715-3.594.477.477,0,0,1,0-.646,2.262,2.262,0,0,0-.715-3.593.475.475,0,0,1-.248-.6,2.262,2.262,0,0,0-2.035-3.046.478.478,0,0,1-.458-.457,2.262,2.262,0,0,0-3.045-2.036.473.473,0,0,1-.6-.246,2.262,2.262,0,0,0-3.594-.715.476.476,0,0,1-.645,0,2.262,2.262,0,0,0-3.593.715.474.474,0,0,1-.6.247,2.262,2.262,0,0,0-3.045,2.036.478.478,0,0,1-.458.457,2.262,2.262,0,0,0-2.035,3.046.476.476,0,0,1-.247.6,2.262,2.262,0,0,0-.715,3.594.477.477,0,0,1,0,.646,2.262,2.262,0,0,0,.715,3.593.475.475,0,0,1,.248.6,2.262,2.262,0,0,0,2.035,3.046.478.478,0,0,1,.458.457,2.222,2.222,0,0,0,.41,1.194V39.316H4.468a2.681,2.681,0,0,1-2.681-2.681V4.468A2.681,2.681,0,0,1,4.468,1.787H49.146a2.681,2.681,0,0,1,2.681,2.681Z" fill="#65802c"/>
        <path id="Shape-2" data-name="Shape" d="M10.468,33.02a2.681,2.681,0,0,1-2.681-2.681V12.468a2.681,2.681,0,0,1,2.681-2.681H26.552a.894.894,0,0,0,0-1.787H10.468A4.473,4.473,0,0,0,6,12.468V30.339a4.473,4.473,0,0,0,4.468,4.468H27.445a.894.894,0,0,0,0-1.787Z" transform="translate(-0.639 -0.852)" fill="#65802c"/>
        <path id="Shape-3" data-name="Shape" d="M11.894,23.787H24.4A.894.894,0,1,0,24.4,22H11.894a.894.894,0,0,0,0,1.787Z" transform="translate(-1.171 -2.342)" fill="#65802c"/>
        <path id="Shape-4" data-name="Shape" d="M11.894,19.787H24.4A.894.894,0,1,0,24.4,18H11.894a.894.894,0,0,0,0,1.787Z" transform="translate(-1.171 -1.916)" fill="#65802c"/>
        <path id="Shape-5" data-name="Shape" d="M11.894,15.787H24.4A.894.894,0,1,0,24.4,14H11.894a.894.894,0,0,0,0,1.787Z" transform="translate(-1.171 -1.49)" fill="#65802c"/>
        <path id="Shape-6" data-name="Shape" d="M11.074,32.825a.894.894,0,0,0,.819.536.879.879,0,0,0,.357-.074,6.869,6.869,0,0,0,2.239-1.366,4.2,4.2,0,0,0,.63-.8,4.761,4.761,0,0,0,1.188.965,2.421,2.421,0,0,0,2.1.268,2.011,2.011,0,0,0,.715-.474,4.085,4.085,0,0,0,1.316.532l.676.16a14.041,14.041,0,0,0,4.248.563.894.894,0,0,0-.129-1.783,12.337,12.337,0,0,1-3.7-.518l-.691-.164c-.834-.192-1.048-.528-1.137-.765a.894.894,0,0,0-1.728.376.451.451,0,0,1-.2.4.824.824,0,0,1-.59-.152,3.664,3.664,0,0,1-1.537-1.944.894.894,0,0,0-1.73.365,2.312,2.312,0,0,1-.692,1.7,5.3,5.3,0,0,1-1.689,1,.894.894,0,0,0-.462,1.177Z" transform="translate(-1.171 -2.981)" fill="#65802c"/>
        <path id="Shape-7" data-name="Shape" d="M42.148,23.3A7.148,7.148,0,1,0,35,16.148,7.148,7.148,0,0,0,42.148,23.3Zm0-12.51a5.361,5.361,0,1,1-5.361,5.361A5.361,5.361,0,0,1,42.148,10.787Z" transform="translate(-3.726 -0.958)" fill="#65802c"/>
      </g>
    </g>
  </g>
</svg>
