<svg xmlns="http://www.w3.org/2000/svg" width="100" height="100" viewBox="0 0 100 100">
  <g id="Grupo_1106215" data-name="Grupo 1106215" transform="translate(9980 9469)">
    <path id="Trazado_897599" data-name="Trazado 897599" d="M50,0h0a50,50,0,1,1,0,100h0A50,50,0,0,1,50,0Z" transform="translate(-9980 -9469)" fill="#ecdb9f"/>
    <path id="Trazado_897600" data-name="Trazado 897600" d="M1.416,58.678h.05a84.88,84.88,0,0,0,30.5-6.832.87.87,0,1,0-.685-1.6A83.2,83.2,0,0,1,7.4,56.509c16.68-3.615,31.65-12.014,42.755-24.829a1.253,1.253,0,0,0-.047-1.7l-2.332-2.412h9.87V37.939l-2.187-2.029a1.259,1.259,0,0,0-1.733.019A75.522,75.522,0,0,1,34.972,48.559a.87.87,0,1,0,.761,1.565A78.62,78.62,0,0,0,54.61,37.493l2.663,2.471a1.26,1.26,0,0,0,2.115-.923V27.086a1.261,1.261,0,0,0-1.259-1.259H46.645a1.26,1.26,0,0,0-.905,2.134l2.813,2.911q-2.4,2.739-4.927,5.1V22.733a.87.87,0,0,0-1.74,0V37.548a73.123,73.123,0,0,1-8.551,6.462V2.471a.232.232,0,0,1,.232-.231h8.088a.232.232,0,0,1,.232.231v16.2a.87.87,0,1,0,1.74,0V2.472A1.973,1.973,0,0,0,41.655.5H33.567A1.973,1.973,0,0,0,31.6,2.472v8.959h-8.32A1.973,1.973,0,0,0,21.305,13.4v8.959h-8.32a1.974,1.974,0,0,0-1.971,1.971v8.959H2.7A1.974,1.974,0,0,0,.724,35.264V56.026a1.416,1.416,0,0,0,.693,2.652ZM23.046,13.4a.231.231,0,0,1,.231-.231H31.6V45.1a76.623,76.623,0,0,1-8.551,4.476V13.4ZM12.755,24.333a.232.232,0,0,1,.232-.232h8.32V50.329a81.857,81.857,0,0,1-8.551,3.02V24.333ZM2.464,35.264a.232.232,0,0,1,.232-.232h8.32v18.8a84.73,84.73,0,0,1-8.551,1.831Zm0,0" transform="translate(-9959.403 -9448.835)" fill="#65802c"/>
  </g>
</svg>
