<svg xmlns="http://www.w3.org/2000/svg" width="110" height="110" viewBox="0 0 110 110">
  <g id="Grupo_1106540" data-name="Grupo 1106540" transform="translate(0 0)">
    <rect id="Rectángulo_402591" data-name="Rectángulo 402591" width="110" height="110" rx="55" transform="translate(0 0)" fill="#fff"/>
    <g id="Grupo_1106542" data-name="Grupo 1106542" transform="translate(22.213 22.212)">
      <path id="Trazado_898182" data-name="Trazado 898182" d="M131.751,173.951h47.738V162.016A35.492,35.492,0,0,0,133,172.2Z" transform="translate(-114.877 -137.185)" fill="#8bc727"/>
      <path id="Trazado_898183" data-name="Trazado 898183" d="M146.746,164.615a35.545,35.545,0,0,1,18.359-7.133A35.492,35.492,0,0,0,133,172.2l-1.249,1.748h24.16l-2.732-2.049a62.287,62.287,0,0,0-6.21-4.1,1.919,1.919,0,0,1-.223-3.184Z" transform="translate(-114.877 -137.185)" fill="#81b823"/>
      <path id="Trazado_898184" data-name="Trazado 898184" d="M7.5,287.062H71.153v27.847H7.5Z" transform="translate(-6.541 -250.296)" fill="#dc8758"/>
      <path id="Trazado_898185" data-name="Trazado 898185" d="M230,314.909h-8.953l1.6-27.847H228.4Z" transform="translate(-192.738 -250.296)" fill="#a2e62e"/>
      <path id="Trazado_898186" data-name="Trazado 898186" d="M222.651,287.062l-1.6,27.847h3.2l1.6-27.847Z" transform="translate(-192.738 -250.296)" fill="#97d729"/>
      <path id="Trazado_898187" data-name="Trazado 898187" d="M337.064,314.909h-8.953l-4.81-27.847h5.746Z" transform="translate(-281.896 -250.296)" fill="#8bc727"/>
      <path id="Trazado_898188" data-name="Trazado 898188" d="M323.3,287.062l4.809,27.847h3.2L326.5,287.062Z" transform="translate(-281.896 -250.296)" fill="#81b823"/>
      <path id="Trazado_898189" data-name="Trazado 898189" d="M424.751,314.909l-11.714-27.847h5.746l5.967,11.517Z" transform="translate(-360.139 -250.296)" fill="#a2e62e"/>
      <path id="Trazado_898190" data-name="Trazado 898190" d="M416.239,287.062h-3.2l11.714,27.847V307.3Z" transform="translate(-360.139 -250.296)" fill="#97d729"/>
      <path id="Trazado_898191" data-name="Trazado 898191" d="M90.195,314.909H81.242l8.016-27.847H95Z" transform="translate(-70.837 -250.296)" fill="#8bc727"/>
      <path id="Trazado_898192" data-name="Trazado 898192" d="M89.258,287.062l-8.016,27.847h3.2l8.016-27.847Z" transform="translate(-70.837 -250.296)" fill="#81b823"/>
      <path id="Trazado_898193" data-name="Trazado 898193" d="M7.5,314.909v-16.33l5.967-11.517h5.746Z" transform="translate(-6.541 -250.296)" fill="#a2e62e"/>
      <path id="Trazado_898194" data-name="Trazado 898194" d="M10.063,298.579l5.967-11.517H13.469L7.5,298.579v16.33l2.561-6.089Z" transform="translate(-6.541 -250.296)" fill="#97d729"/>
      <path id="Trazado_898195" data-name="Trazado 898195" d="M43.306,205.81H7.5V193.875A59.672,59.672,0,0,1,43.306,205.81Z" transform="translate(-6.541 -169.043)" fill="#a2e62e"/>
      <path id="Trazado_898196" data-name="Trazado 898196" d="M7.5,193.875V205.81h6.4V194.22A59.668,59.668,0,0,0,7.5,193.875Z" transform="translate(-6.541 -169.043)" fill="#97d729"/>
      <circle id="Elipse_11705" data-name="Elipse 11705" cx="3.978" cy="3.978" r="3.978" transform="translate(12.895 6.93)" fill="#ffe177"/>
      <path id="Trazado_898197" data-name="Trazado 898197" d="M104.531,58.073a3.977,3.977,0,0,1,2.057-3.484,3.978,3.978,0,1,0,0,6.969A3.977,3.977,0,0,1,104.531,58.073Z" transform="translate(-87.794 -47.165)" fill="#ffd15b"/>
      <path id="Trazado_898198" data-name="Trazado 898198" d="M332.736,28.527l-.1,0a4.872,4.872,0,0,0-8.93-1.567,3.9,3.9,0,1,0-1.687,7.409h10.715a2.922,2.922,0,0,0,0-5.845Z" transform="translate(-277.382 -21.475)" fill="#eaf6ff"/>
      <path id="Trazado_898199" data-name="Trazado 898199" d="M327.143,34.37a3.9,3.9,0,1,1,1.688-7.409,4.895,4.895,0,0,1,1.6-1.6,4.873,4.873,0,0,0-6.718,1.6,3.9,3.9,0,1,0-1.687,7.409Z" transform="translate(-277.381 -21.474)" fill="#d8ecfe"/>
      <g id="Grupo_1106541" data-name="Grupo 1106541" transform="translate(0 0.002)">
        <path id="Trazado_898200" data-name="Trazado 898200" d="M65.573,155.926a.961.961,0,0,0-.484-.834,36.756,36.756,0,0,0-41.938,4.079q-2.307-.906-4.679-1.622a.96.96,0,0,0-.554,1.839,58.745,58.745,0,0,1,15.84,7.511H1.921v-10a58.74,58.74,0,0,1,12.012,1.444.961.961,0,1,0,.425-1.873,60.662,60.662,0,0,0-13.4-1.5.961.961,0,0,0-.961.961v39.781a.964.964,0,0,0,.974.961H64.6a.966.966,0,0,0,.975-.961Zm-9.682,38.821-7.463-25.926H52.26l10.906,25.926Zm-17.722,0-.515-8.946a.961.961,0,1,0-1.918.11l.509,8.835H29.328l1.493-25.926h3.932l.743,12.912a.961.961,0,1,0,1.918-.11l-.737-12.8H40.6l4.478,25.926Zm-17.671,0,4.478-25.926H28.9L27.4,194.747Zm-18.091,0,10.906-25.926h3.832L9.682,194.747Zm-.486-25.926H5.349l-3.427,6.615Zm5.591,0h3.716L1.921,190.946V179.611Zm56.139,22.126-9.307-22.126h3.716l5.591,10.791Zm-3.427-22.126h3.427v6.615ZM25.15,160a34.837,34.837,0,0,1,38.5-3.51V166.9H37.083A60.487,60.487,0,0,0,25.15,160ZM11.681,194.747l7.463-25.926h3.883l-4.478,25.926Zm35.343,0-4.478-25.926h3.883l7.463,25.926Z" transform="translate(0 -131.096)"/>
        <path id="Trazado_898201" data-name="Trazado 898201" d="M103.066,51.534a4.939,4.939,0,1,0-4.939,4.939A4.944,4.944,0,0,0,103.066,51.534Zm-4.939,3.018a3.018,3.018,0,1,1,3.018-3.018A3.021,3.021,0,0,1,98.128,54.551Z" transform="translate(-81.254 -40.628)"/>
        <path id="Trazado_898202" data-name="Trazado 898202" d="M125.212,3.912a.961.961,0,0,0,.961-.961V.963a.961.961,0,1,0-1.921,0V2.952A.961.961,0,0,0,125.212,3.912Z" transform="translate(-108.338 -0.002)"/>
        <path id="Trazado_898203" data-name="Trazado 898203" d="M124.251,140.743v1.989a.961.961,0,1,0,1.921,0v-1.989a.961.961,0,0,0-1.921,0Z" transform="translate(-108.338 -121.88)"/>
        <path id="Trazado_898204" data-name="Trazado 898204" d="M86.545,13.568a.961.961,0,1,0,1.664-.961l-.995-1.723a.961.961,0,1,0-1.664.961Z" transform="translate(-74.482 -9.073)"/>
        <path id="Trazado_898205" data-name="Trazado 898205" d="M156.435,134.621a.961.961,0,0,0,1.664-.961l-.994-1.723a.961.961,0,1,0-1.664.961Z" transform="translate(-135.421 -114.622)"/>
        <path id="Trazado_898206" data-name="Trazado 898206" d="M57.478,40.62l1.723.995a.97.97,0,0,0,1.312-.352.961.961,0,0,0-.352-1.312l-1.723-.995a.961.961,0,1,0-.961,1.664Z" transform="translate(-49.698 -33.855)"/>
        <path id="Trazado_898207" data-name="Trazado 898207" d="M178.531,110.51l1.723.995a.97.97,0,0,0,1.312-.352.961.961,0,0,0-.352-1.312l-1.723-.995a.961.961,0,1,0-.961,1.664Z" transform="translate(-155.248 -94.794)"/>
        <path id="Trazado_898208" data-name="Trazado 898208" d="M47.556,79.578h1.989a.961.961,0,1,0,0-1.921H47.556a.961.961,0,1,0,0,1.921Z" transform="translate(-40.628 -67.712)"/>
        <path id="Trazado_898209" data-name="Trazado 898209" d="M186.375,78.618a.961.961,0,0,0,.961.961h1.989a.961.961,0,1,0,0-1.921h-1.989A.961.961,0,0,0,186.375,78.618Z" transform="translate(-162.506 -67.712)"/>
        <path id="Trazado_898210" data-name="Trazado 898210" d="M59.2,108.847l-1.723.995a.961.961,0,0,0,.961,1.664l1.723-.995a.961.961,0,1,0-.961-1.664Z" transform="translate(-49.698 -94.794)"/>
        <path id="Trazado_898211" data-name="Trazado 898211" d="M178.18,41.263a.97.97,0,0,0,1.312.352l1.723-.995a.961.961,0,1,0-.961-1.664l-1.723.995A.961.961,0,0,0,178.18,41.263Z" transform="translate(-155.248 -33.855)"/>
        <path id="Trazado_898212" data-name="Trazado 898212" d="M85.9,134.972a.97.97,0,0,0,1.312-.352l.995-1.723a.961.961,0,1,0-1.664-.961l-.995,1.723A.961.961,0,0,0,85.9,134.972Z" transform="translate(-74.482 -114.622)"/>
        <path id="Trazado_898213" data-name="Trazado 898213" d="M155.793,13.92a.97.97,0,0,0,1.312-.352l.994-1.723a.961.961,0,0,0-1.664-.961l-.994,1.723A.961.961,0,0,0,155.793,13.92Z" transform="translate(-135.421 -9.072)"/>
        <path id="Trazado_898214" data-name="Trazado 898214" d="M315.477,28.791h5.2a.961.961,0,1,0,0-1.921h-5.2a2.936,2.936,0,1,1,1.271-5.584.961.961,0,0,0,1.234-.364,3.911,3.911,0,0,1,7.17,1.256q.381.806,1.039.767a1.962,1.962,0,1,1,0,3.924h-1.326a.961.961,0,1,0,0,1.921h1.326a3.883,3.883,0,0,0,.65-7.712,5.852,5.852,0,0,0-5.52-3.95,5.79,5.79,0,0,0-4.51,2.133,4.858,4.858,0,1,0-1.333,9.529Z" transform="translate(-270.837 -14.936)"/>
      </g>
    </g>
  </g>
</svg>
