<svg xmlns="http://www.w3.org/2000/svg" width="110" height="110" viewBox="0 0 110 110">
  <g id="Grupo_1106543" data-name="Grupo 1106543" transform="translate(0 0)">
    <rect id="Rectángulo_402591" data-name="Rectángulo 402591" width="110" height="110" rx="55" transform="translate(0 0)" fill="#fff"/>
    <g id="Grupo_1106544" data-name="Grupo 1106544" transform="translate(18.218 -8.381)">
      <circle id="Elipse_11706" data-name="Elipse 11706" cx="22.315" cy="22.315" r="22.315" transform="translate(23.393 32.14)" fill="#62dbfb"/>
      <path id="Trazado_898215" data-name="Trazado 898215" d="M16.291,130.853a7.169,7.169,0,0,1,10.428-.307l4.4,4.4,3.156-3.156-4.4-4.4a11.632,11.632,0,0,0-16.919.5A21.6,21.6,0,0,0,7.5,142.238v.9a23.957,23.957,0,0,0,7.017,16.94L24.763,170.32l3.156-3.156L17.673,156.918a19.366,19.366,0,0,1-5.709-13.784v-.9a17.118,17.118,0,0,1,4.328-11.384Z" transform="translate(-6.422 -79.571)" fill="#ffd15b"/>
      <path id="Trazado_898216" data-name="Trazado 898216" d="M221.284,125.145l-6.695,2.231-8.926-2.231,2.99-2.99a5.029,5.029,0,0,0,1.473-3.556v-1.662a.718.718,0,0,1,.718-.718H214.1a7.184,7.184,0,0,1,7.184,7.184v1.742Z" transform="translate(-176.113 -72.922)" fill="#ffe177"/>
      <path id="Trazado_898217" data-name="Trazado 898217" d="M217.536,122.3a7.153,7.153,0,0,1,.874,3.437v1.024a.718.718,0,0,1-.718.718h-9.155l-2.874,2.874,8.926,2.231,6.695-2.231V128.61A7.183,7.183,0,0,0,217.536,122.3Z" transform="translate(-176.113 -78.129)" fill="#ffd15b"/>
      <path id="Trazado_898218" data-name="Trazado 898218" d="M170.013,189.89l-6.874-6.874a.718.718,0,0,0-1.016,0l-1.348,1.348a4.072,4.072,0,0,0-.833,4.553.723.723,0,0,1-.19.856l-11.3,9.413a.718.718,0,0,1-1.174-.477l-2.076-19.723a.718.718,0,0,0-.715-.643H119.007a.718.718,0,0,0-.715.643l-4.145,39.375a2.155,2.155,0,0,0,2.143,2.381h30.916a2.155,2.155,0,0,0,2.143-2.381l-.69-6.55a2.155,2.155,0,0,1,.488-1.605l14.107-16.929a.723.723,0,0,1,.856-.19,4.072,4.072,0,0,0,4.553-.833l1.348-1.348A.719.719,0,0,0,170.013,189.89Z" transform="translate(-97.737 -126.12)" fill="#ffe177"/>
      <path id="Trazado_898219" data-name="Trazado 898219" d="M170.012,243.3l-2.586-2.586a.718.718,0,0,1,0,1.016l-1.348,1.348a4.072,4.072,0,0,1-4.553.833.723.723,0,0,0-.856.19l-14.107,16.929a2.156,2.156,0,0,0-.488,1.605l.69,6.55a2.155,2.155,0,0,1-2.143,2.381H114.169l-.022.205a2.155,2.155,0,0,0,2.143,2.381h30.916a2.155,2.155,0,0,0,2.143-2.381l-.69-6.55a2.155,2.155,0,0,1,.488-1.605l14.107-16.929a.723.723,0,0,1,.856-.19,4.072,4.072,0,0,0,4.553-.833l1.348-1.348A.718.718,0,0,0,170.012,243.3Z" transform="translate(-97.736 -179.527)" fill="#ffd15b"/>
      <path id="Trazado_898220" data-name="Trazado 898220" d="M181,265.249l-1.486-.743a.71.71,0,0,1-.352-.408,9.4,9.4,0,0,0-.452-1.09.71.71,0,0,1-.04-.538l.526-1.577a.7.7,0,0,0-.169-.715l-1.817-1.817a.7.7,0,0,0-.715-.169l-1.577.526a.71.71,0,0,1-.538-.04,9.353,9.353,0,0,0-1.09-.452.711.711,0,0,1-.408-.352l-.743-1.486a.7.7,0,0,0-.624-.386h-2.57a.7.7,0,0,0-.624.386l-.743,1.486a.71.71,0,0,1-.408.352,9.39,9.39,0,0,0-1.09.452.71.71,0,0,1-.538.04l-1.577-.526a.7.7,0,0,0-.715.169l-1.817,1.817a.7.7,0,0,0-.169.715l.526,1.577a.71.71,0,0,1-.04.538,9.382,9.382,0,0,0-.452,1.09.711.711,0,0,1-.352.408l-1.486.743a.7.7,0,0,0-.386.624v2.57a.7.7,0,0,0,.386.624l1.486.743a.71.71,0,0,1,.352.408,9.393,9.393,0,0,0,.452,1.09.711.711,0,0,1,.04.538l-.526,1.577a.7.7,0,0,0,.169.715l1.817,1.817a.7.7,0,0,0,.715.169l1.577-.526a.71.71,0,0,1,.538.04,9.379,9.379,0,0,0,1.09.452.711.711,0,0,1,.408.352l.743,1.486a.7.7,0,0,0,.624.386h2.57a.7.7,0,0,0,.624-.386l.743-1.486a.71.71,0,0,1,.408-.352,9.39,9.39,0,0,0,1.09-.452.71.71,0,0,1,.538-.04l1.577.526a.7.7,0,0,0,.715-.169l1.817-1.817a.7.7,0,0,0,.169-.715l-.526-1.577a.711.711,0,0,1,.04-.538,9.382,9.382,0,0,0,.452-1.09.711.711,0,0,1,.352-.408l1.486-.743a.7.7,0,0,0,.386-.624v-2.57A.7.7,0,0,0,181,265.249Zm-10.772,6.373a4.463,4.463,0,1,1,4.463-4.463A4.463,4.463,0,0,1,170.228,271.622Z" transform="translate(-136.216 -192.62)" fill="#918291"/>
      <path id="Trazado_898221" data-name="Trazado 898221" d="M222.791,307.042,221.3,306.3a.71.71,0,0,1-.352-.408,9.4,9.4,0,0,0-.449-1.084,11.545,11.545,0,0,1,.07,1.272,11.428,11.428,0,0,1-11.428,11.428,11.589,11.589,0,0,1-1.272-.07,9.375,9.375,0,0,0,1.084.449.711.711,0,0,1,.408.352l.743,1.486a.7.7,0,0,0,.624.386h2.57a.7.7,0,0,0,.625-.386l.743-1.486a.71.71,0,0,1,.408-.352,9.378,9.378,0,0,0,1.09-.452.711.711,0,0,1,.538-.04l1.577.526a.7.7,0,0,0,.715-.169l1.817-1.817a.7.7,0,0,0,.169-.715l-.526-1.577a.711.711,0,0,1,.04-.538,9.375,9.375,0,0,0,.452-1.09.711.711,0,0,1,.352-.408l1.486-.743a.7.7,0,0,0,.386-.624v-2.57a.7.7,0,0,0-.386-.625Z" transform="translate(-178.007 -234.412)" fill="#7a6d79"/>
      <path id="Trazado_898222" data-name="Trazado 898222" d="M73.038,63.009l-4.32-4.32a23.412,23.412,0,0,0-23.01-27.627A23.174,23.174,0,0,0,31.457,35.9a23.6,23.6,0,0,0-7.773,10.654A12.711,12.711,0,0,0,5.728,47.6,22.654,22.654,0,0,0,0,62.667v.9a24.87,24.87,0,0,0,7.332,17.7l8.279,8.279-.272,2.585A3.233,3.233,0,0,0,18.554,95.7H49.471a3.233,3.233,0,0,0,3.215-3.571L52,85.578a1.083,1.083,0,0,1,.244-.8L66.177,68.052A5.178,5.178,0,0,0,71.69,66.9l1.348-1.348a1.8,1.8,0,0,0,0-2.54ZM8.856,79.741a22.729,22.729,0,0,1-6.7-16.178v-.9A20.5,20.5,0,0,1,7.339,49.033a10.554,10.554,0,0,1,15.352-.451l2.564,2.564H21.991l-.932-.932a8.247,8.247,0,0,0-12,.353,18.286,18.286,0,0,0-1.815,2.418,1.077,1.077,0,1,0,1.825,1.146A16.107,16.107,0,0,1,10.674,52a6.092,6.092,0,0,1,8.86-.26l.227.227a1.8,1.8,0,0,0-.278.789L16.5,81.076l-4.491-4.491A18.3,18.3,0,0,1,6.618,63.564v-.9a16.073,16.073,0,0,1,.561-4.211,1.078,1.078,0,0,0-2.08-.565,18.226,18.226,0,0,0-.636,4.775v.9a20.437,20.437,0,0,0,6.025,14.546l5.724,5.724L15.9,86.786Zm61.31-14.369a3.009,3.009,0,0,1-3.347.613,1.808,1.808,0,0,0-2.127.482L50.585,83.4a3.25,3.25,0,0,0-.732,2.408l.69,6.55a1.078,1.078,0,0,1-1.072,1.191H18.555a1.077,1.077,0,0,1-1.072-1.19L21.594,53.3H35.2a1.078,1.078,0,0,0,0-2.155H32.151L33.3,49.995a6.067,6.067,0,0,0,1.788-4.318v-1.3h2.9a6.113,6.113,0,0,1,6.106,6.106v.665H40.081a1.078,1.078,0,0,0,0,2.155h6.35l1.023,9.72a1.078,1.078,0,0,0,1.07.965,1.1,1.1,0,0,0,.114-.006,1.078,1.078,0,0,0,.959-1.185L48.541,52.753a1.792,1.792,0,0,0-1.786-1.608h-.507v-.665a8.271,8.271,0,0,0-8.262-8.262H34.731a1.8,1.8,0,0,0-1.8,1.8v1.662a3.925,3.925,0,0,1-1.157,2.794L29.1,51.145h-.8l-2.908-2.908a21.243,21.243,0,0,1,41.424,8.552l-.654-.654a1.8,1.8,0,0,0-2.54,0l-1.348,1.348A5.177,5.177,0,0,0,61.121,63L50.547,71.808l-.423-4.022a1.078,1.078,0,1,0-2.143.226l.494,4.691a1.8,1.8,0,0,0,2.936,1.192l11.3-9.413a1.807,1.807,0,0,0,.483-2.127,3.009,3.009,0,0,1,.613-3.348l1.094-1.094,6.366,6.366Z" transform="translate(0)"/>
      <path id="Trazado_898223" data-name="Trazado 898223" d="M203.7,295.094a5.541,5.541,0,1,0,5.541,5.541A5.547,5.547,0,0,0,203.7,295.094Zm0,8.926a3.385,3.385,0,1,1,3.385-3.385A3.389,3.389,0,0,1,203.7,304.02Z" transform="translate(-169.692 -226.096)"/>
      <path id="Trazado_898224" data-name="Trazado 898224" d="M175.06,257.863l-1.349-.674c-.115-.321-.247-.638-.393-.947l.477-1.431a1.766,1.766,0,0,0-.429-1.817l-1.817-1.817a1.767,1.767,0,0,0-1.817-.429l-1.431.477c-.309-.146-.626-.278-.947-.393l-.674-1.348a1.766,1.766,0,0,0-1.588-.982h-2.57a1.766,1.766,0,0,0-1.588.982l-.674,1.349c-.321.115-.638.247-.947.393l-1.431-.477a1.766,1.766,0,0,0-1.817.429l-1.817,1.817a1.766,1.766,0,0,0-.429,1.817l.477,1.431c-.146.309-.278.626-.393.947l-1.348.674a1.766,1.766,0,0,0-.982,1.588v2.57a1.765,1.765,0,0,0,.982,1.588l1.349.674c.115.321.247.638.393.947l-.477,1.431a1.766,1.766,0,0,0,.429,1.817l1.817,1.817a1.766,1.766,0,0,0,1.817.429l1.431-.477c.309.146.626.278.947.393l.674,1.348a1.766,1.766,0,0,0,1.588.982h2.57a1.766,1.766,0,0,0,1.588-.982l.674-1.349c.321-.115.638-.247.947-.393l1.431.477a1.766,1.766,0,0,0,1.817-.429l1.817-1.817a1.766,1.766,0,0,0,.429-1.817l-.477-1.431c.146-.309.278-.626.393-.947l1.348-.674a1.766,1.766,0,0,0,.982-1.588v-2.57A1.766,1.766,0,0,0,175.06,257.863Zm-1.174,3.924-1.277.638a1.78,1.78,0,0,0-.889,1.023,8.383,8.383,0,0,1-.4.965,1.779,1.779,0,0,0-.1,1.353l.452,1.355-1.486,1.486-1.354-.451a1.777,1.777,0,0,0-1.353.095,8.333,8.333,0,0,1-.965.4,1.778,1.778,0,0,0-1.023.889l-.638,1.277h-2.1l-.639-1.277a1.779,1.779,0,0,0-1.023-.889,8.321,8.321,0,0,1-.965-.4,1.778,1.778,0,0,0-1.353-.1l-1.355.451-1.486-1.486.451-1.354a1.779,1.779,0,0,0-.095-1.354,8.287,8.287,0,0,1-.4-.965,1.779,1.779,0,0,0-.889-1.023l-1.277-.638v-2.1l1.277-.638a1.779,1.779,0,0,0,.889-1.023,8.307,8.307,0,0,1,.4-.965,1.779,1.779,0,0,0,.1-1.353l-.452-1.355,1.486-1.486,1.354.451a1.778,1.778,0,0,0,1.353-.095,8.35,8.35,0,0,1,.966-.4,1.78,1.78,0,0,0,1.023-.889l.638-1.277h2.1l.638,1.276a1.778,1.778,0,0,0,1.023.889,8.328,8.328,0,0,1,.965.4,1.778,1.778,0,0,0,1.353.1l1.355-.451,1.486,1.486-.451,1.354a1.779,1.779,0,0,0,.095,1.353,8.358,8.358,0,0,1,.4.966,1.779,1.779,0,0,0,.889,1.023l1.277.638v2.1Z" transform="translate(-129.793 -186.197)"/>
    </g>
  </g>
</svg>
