<svg xmlns="http://www.w3.org/2000/svg" width="110" height="110" viewBox="0 0 110 110">
  <g id="Grupo_1106556" data-name="Grupo 1106556" transform="translate(0)">
    <rect id="Rectángulo_402591" data-name="Rectángulo 402591" width="110" height="110" rx="55" transform="translate(0 0)" fill="#fff"/>
    <g id="Grupo_1106563" data-name="Grupo 1106563" transform="translate(17.507 13.132)">
      <g id="Grupo_1106561" data-name="Grupo 1106561" transform="translate(1.103 10.275)">
        <g id="Grupo_1106560" data-name="Grupo 1106560" transform="translate(0 0)">
          <g id="XMLID_310_" transform="translate(0.195 27.924)">
            <g id="Grupo_1106558" data-name="Grupo 1106558">
              <path id="Trazado_898259" data-name="Trazado 898259" d="M290.932,276.475l-19.46-11.033-4.918-.774-11.673,6.748-.028,3.45-.074,4.889,13.453,7.762,7.073-1.024,15.633-9.1A.529.529,0,0,0,290.932,276.475Z" transform="translate(-218.616 -256.128)" fill="#e19974"/>
              <path id="Trazado_898260" data-name="Trazado 898260" d="M46.1,263.853,34.4,256.605,28.5,258.6,9.1,269.6a.528.528,0,0,0,0,.916l15.549,9.054h0L32.591,279s12.32-7.518,12.5-7.754a19.086,19.086,0,0,0-.028-3.262Z" transform="translate(-8.83 -249.251)" fill="#e19974"/>
              <path id="Trazado_898261" data-name="Trazado 898261" d="M175.812,215.9l-16.619,9.423-16.563-9.393,16.358-9.275a.525.525,0,0,1,.522,0Z" transform="translate(-122.956 -206.591)" fill="#e8ad8c"/>
              <path id="Trazado_898262" data-name="Trazado 898262" d="M34.138,278.06,32.592,279l-7.947.564h0L9.094,270.514a.528.528,0,0,1,0-.916l19.406-11,5.9-1.991,4.351,2.7-13.063,7.433a3.64,3.64,0,0,0-.053,6.3Z" transform="translate(-8.831 -249.251)" fill="#dc8758"/>
              <path id="Trazado_898263" data-name="Trazado 898263" d="M157.226,345.6l.028.047-20.132,11.721a.527.527,0,0,1-.531,0L116.379,345.6l20.423-11.58Z" transform="translate(-100.566 -315.287)" fill="#e8ad8c"/>
              <g id="Grupo_1106557" data-name="Grupo 1106557" transform="translate(15.813 0)">
                <path id="Trazado_898264" data-name="Trazado 898264" d="M128.175,392.473h0l-5.672-3.3-6.123,3.472,20.213,11.769a.527.527,0,0,0,.531,0l5.778-3.364Z" transform="translate(-116.379 -362.325)" fill="#e19974"/>
                <path id="Trazado_898265" data-name="Trazado 898265" d="M154.425,215.767,165,209.773l-5.488-3.112a.525.525,0,0,0-.522,0l-16.358,9.275,5.748,3.26Z" transform="translate(-138.769 -206.592)" fill="#e19974"/>
              </g>
            </g>
          </g>
          <path id="Trazado_898266" data-name="Trazado 898266" d="M390.041,63.622h-5.25V60.829A10.313,10.313,0,0,1,395.1,50.516h4.457a.794.794,0,0,1,.794.794v2A10.313,10.313,0,0,1,390.041,63.622Z" transform="translate(-329.317 -45.54)" fill="#bbec6c"/>
          <path id="Trazado_898267" data-name="Trazado 898267" d="M315.429,111.09h4.164V107.9a7.389,7.389,0,0,0-7.389-7.389h-3.525a.639.639,0,0,0-.639.639V103.7A7.389,7.389,0,0,0,315.429,111.09Z" transform="translate(-263.851 -88.188)" fill="#bbec6c"/>
          <path id="Trazado_898268" data-name="Trazado 898268" d="M312.231,103.7v-2.545a.638.638,0,0,1,.488-.62c-.171-.012-.342-.02-.516-.02h-3.525a.639.639,0,0,0-.639.639V103.7a7.389,7.389,0,0,0,7.389,7.389h4.164a7.388,7.388,0,0,1-7.362-7.388Z" transform="translate(-263.851 -88.189)" fill="#a2e62e"/>
          <path id="Trazado_898269" data-name="Trazado 898269" d="M390.374,202.939h-3.762V200.69a4.621,4.621,0,0,1,4.621-4.621h2.782a.98.98,0,0,1,.98.98v1.269A4.621,4.621,0,0,1,390.374,202.939Z" transform="translate(-330.87 -169.692)" fill="#bbec6c"/>
          <path id="Trazado_898270" data-name="Trazado 898270" d="M62.471,206.087h-2.6a5.1,5.1,0,0,1-5.1-5.1v-1.67a.934.934,0,0,1,.934-.934h1.67a5.1,5.1,0,0,1,5.1,5.1Z" transform="translate(-47.817 -171.665)" fill="#bbec6c"/>
          <path id="Trazado_898271" data-name="Trazado 898271" d="M57.2,200.987v-1.67a.933.933,0,0,1,.707-.9,5.151,5.151,0,0,0-.542-.029H55.7a.934.934,0,0,0-.934.934v1.67a5.1,5.1,0,0,0,5.1,5.1H62.3A5.1,5.1,0,0,1,57.2,200.987Z" transform="translate(-47.816 -171.666)" fill="#a2e62e"/>
          <g id="Grupo_1106559" data-name="Grupo 1106559" transform="translate(14.654 17.013)">
            <path id="Trazado_898272" data-name="Trazado 898272" d="M109.8,200.047h-2.637v-2.206a3.649,3.649,0,0,1,3.649-3.649h1.722a.915.915,0,0,1,.915.915v1.29A3.649,3.649,0,0,1,109.8,200.047Z" transform="translate(-107.162 -185.104)" fill="#bbec6c"/>
            <path id="Trazado_898273" data-name="Trazado 898273" d="M221.666,395.764h2.675v-2.079a2.572,2.572,0,0,0-2.572-2.572h-1.684a.991.991,0,0,0-.991.991v1.088A2.572,2.572,0,0,0,221.666,395.764Z" transform="translate(-202.636 -353.071)" fill="#bbec6c"/>
            <path id="Trazado_898274" data-name="Trazado 898274" d="M221.666,137.034h2.675v-2.079a2.572,2.572,0,0,0-2.572-2.572h-1.684a.991.991,0,0,0-.991.991v1.088A2.572,2.572,0,0,0,221.666,137.034Z" transform="translate(-202.636 -132.383)" fill="#bbec6c"/>
            <path id="Trazado_898275" data-name="Trazado 898275" d="M257.454,150.881h-2.675V148.8a2.572,2.572,0,0,1,2.572-2.572h1.684a.991.991,0,0,1,.991.991v1.088A2.572,2.572,0,0,1,257.454,150.881Z" transform="translate(-233.074 -144.194)" fill="#bbec6c"/>
            <path id="Trazado_898276" data-name="Trazado 898276" d="M257.278,399.206h-2.5v-1.7a2.36,2.36,0,0,1,2.36-2.36h1.775a.724.724,0,0,1,.724.724v.974A2.36,2.36,0,0,1,257.278,399.206Z" transform="translate(-233.074 -356.513)" fill="#bbec6c"/>
          </g>
          <circle id="Elipse_11708" data-name="Elipse 11708" cx="3.718" cy="3.718" r="3.718" fill="#f37c7c"/>
        </g>
      </g>
      <g id="Grupo_1106562" data-name="Grupo 1106562" transform="translate(0 9.172)">
        <path id="Trazado_898277" data-name="Trazado 898277" d="M75.292,83.348l-16.21-9.191V70.386h2.659a5.73,5.73,0,0,0,5.723-5.724V63.394a2.085,2.085,0,0,0-2.083-2.083H62.6a5.693,5.693,0,0,0-3.518,1.214s-.025-7.489-.069-7.839H63.23a11.322,11.322,0,0,0,4.764-1.042,1.1,1.1,0,0,0-.921-2,9.133,9.133,0,0,1-3.843.84H59.082v-1.69a9.221,9.221,0,0,1,9.21-9.21H72.44v1.69a9.115,9.115,0,0,1-1.96,5.676,1.1,1.1,0,0,0,1.736,1.361,11.3,11.3,0,0,0,2.43-7.037v-2a1.9,1.9,0,0,0-1.9-1.9H68.292A11.429,11.429,0,0,0,56.9,50.078a8.471,8.471,0,0,0-6.31-2.817H47.066A1.744,1.744,0,0,0,45.324,49v2.545a8.5,8.5,0,0,0,8.491,8.491h3.061V72.907L39.7,63.167V60.84H41.27a3.679,3.679,0,0,0,3.674-3.675V56.077a2.1,2.1,0,0,0-2.093-2.093H41.167a3.65,3.65,0,0,0-1.681.409,3.68,3.68,0,0,0-3.462-2.445H34.339a2.1,2.1,0,0,0-2.093,2.094v1.088A3.679,3.679,0,0,0,35.92,58.8h1.572v4.509l-19.5,11.056V69.1h1.534a4.757,4.757,0,0,0,4.752-4.752v-1.29a2.021,2.021,0,0,0-2.018-2.018H20.54a4.756,4.756,0,0,0-4.226,2.582,6.186,6.186,0,0,0-4.524-1.966H10.12a2.039,2.039,0,0,0-2.036,2.036v1.67a6.21,6.21,0,0,0,6.2,6.2h1.5v4.059l-4.3,2.438a1.1,1.1,0,1,0,1.088,1.919l3.212-1.821v7.156a1.1,1.1,0,0,0,2.206,0V76.9l4.112-2.331L36.433,82.7,18.252,93.006,4.114,84.774l4-2.268a1.1,1.1,0,0,0-1.088-1.919l-4.87,2.761a1.631,1.631,0,0,0-.016,2.828L17.7,95.234l0,0L37.9,107a1.634,1.634,0,0,0,1.641,0L65.861,91.677a1.1,1.1,0,0,0-1.11-1.906l-5.609,3.266L40.9,82.7l14.383-8.156,1.588.9v8.326a1.1,1.1,0,1,0,2.206,0V76.692l14.252,8.081L69.162,87.2a1.1,1.1,0,1,0,1.11,1.906l5.037-2.933a1.631,1.631,0,0,0-.016-2.828ZM62.6,63.516h2.659v1.146a3.522,3.522,0,0,1-3.518,3.518H59.082V67.034A3.522,3.522,0,0,1,62.6,63.516Zm-8.785-5.681a6.293,6.293,0,0,1-6.286-6.286V49.467h3.061a6.293,6.293,0,0,1,6.286,6.286v2.082ZM17.993,65.787A2.549,2.549,0,0,1,20.54,63.24h1.534v1.1a2.549,2.549,0,0,1-2.546,2.546H17.993Zm-3.706,3.568a4,4,0,0,1-4-4v-1.5h1.5a4,4,0,0,1,4,4v1.5Zm26.88-13.166H42.74v.977a1.471,1.471,0,0,1-1.469,1.469H39.7v-.977A1.47,1.47,0,0,1,41.167,56.188Zm-6.716-1.06v-.977h1.572a1.471,1.471,0,0,1,1.469,1.469V56.6H35.92A1.47,1.47,0,0,1,34.451,55.129ZM56.936,94.322l-18.211,10.6L20.458,94.29,38.669,83.964ZM38.669,81.429,24.341,73.3l13.152-7.457V73.3a1.1,1.1,0,1,0,2.206,0V65.7l13.354,7.572Z" transform="translate(-1.134 -34.933)"/>
        <path id="Trazado_898278" data-name="Trazado 898278" d="M215.269,390.47h1.572v2.518a1.1,1.1,0,1,0,2.206,0V390.47h1.4a3.466,3.466,0,0,0,3.463-3.463v-.974a1.829,1.829,0,0,0-1.827-1.827H220.3a3.444,3.444,0,0,0-2.115.724,3.668,3.668,0,0,0-2.816-1.317h-1.684a2.1,2.1,0,0,0-2.093,2.094V386.8A3.679,3.679,0,0,0,215.269,390.47Zm5.035-4.058h1.4v.6a1.258,1.258,0,0,1-1.257,1.257h-1.4v-.6A1.258,1.258,0,0,1,220.3,386.412Zm-6.5-.593h1.572a1.471,1.471,0,0,1,1.469,1.469v.977h-1.572A1.47,1.47,0,0,1,213.8,386.8Z" transform="translate(-180.483 -328.558)"/>
        <path id="Trazado_898279" data-name="Trazado 898279" d="M4.821,18.813A4.828,4.828,0,0,0,9.512,15.1H15.3L26.737,26.533a1.1,1.1,0,1,0,1.56-1.56L16.536,13.213a1.1,1.1,0,0,0-.78-.323H9.513a4.82,4.82,0,1,0-4.692,5.923Zm0-7.436a2.615,2.615,0,1,1-2.615,2.615A2.618,2.618,0,0,1,4.821,11.378Z" transform="translate(0 -9.172)"/>
        <path id="Trazado_898280" data-name="Trazado 898280" d="M65.882,90.863H59.869a1.1,1.1,0,0,0,0,2.206h6.013a1.1,1.1,0,1,0,0-2.206Z" transform="translate(-50.125 -78.852)"/>
        <path id="Trazado_898281" data-name="Trazado 898281" d="M27.956,121.984H15.406a1.1,1.1,0,1,0,0,2.206H27.956a1.1,1.1,0,0,0,0-2.206Z" transform="translate(-12.2 -105.397)"/>
        <path id="Trazado_898282" data-name="Trazado 898282" d="M27.956,153.1H15.406a1.1,1.1,0,1,0,0,2.206H27.956a1.1,1.1,0,0,0,0-2.206Z" transform="translate(-12.2 -131.942)"/>
        <path id="Trazado_898283" data-name="Trazado 898283" d="M15.406,93.069h2.561a1.1,1.1,0,1,0,0-2.206H15.406a1.1,1.1,0,1,0,0,2.206Z" transform="translate(-12.2 -78.852)"/>
      </g>
    </g>
  </g>
</svg>
