<svg xmlns="http://www.w3.org/2000/svg" width="110" height="110" viewBox="0 0 110 110">
  <g id="Grupo_1106564" data-name="Grupo 1106564" transform="translate(0)">
    <rect id="Rectángulo_402591" data-name="Rectángulo 402591" width="110" height="110" rx="55" transform="translate(0 0)" fill="#fff"/>
    <g id="Grupo_1106592" data-name="Grupo 1106592" transform="translate(1.043 18.075)">
      <g id="Grupo_1106591" data-name="Grupo 1106591" transform="translate(20.981 1.08)">
        <g id="Grupo_1106567" data-name="Grupo 1106567" transform="translate(13.63 19.899)">
          <g id="Grupo_1106565" data-name="Grupo 1106565" transform="translate(29.279)">
            <path id="Trazado_898284" data-name="Trazado 898284" d="M345.762,145.452c-4.094.078-19.251,1.261-20.9,14.429a.8.8,0,0,0,.775.82c16.708,1.543,20.321-10.943,21-14.384a.8.8,0,0,0-.875-.866Z" transform="translate(-324.862 -145.452)" fill="#b5e245"/>
          </g>
          <g id="Grupo_1106566" data-name="Grupo 1106566">
            <path id="Trazado_898285" data-name="Trazado 898285" d="M122.771,145.452c4.094.078,19.251,1.261,20.9,14.429a.8.8,0,0,1-.775.82c-16.708,1.543-20.321-10.943-21-14.384a.8.8,0,0,1,.875-.866Z" transform="translate(-121.884 -145.452)" fill="#b5e245"/>
          </g>
        </g>
        <g id="Grupo_1106590" data-name="Grupo 1106590">
          <path id="Trazado_898286" data-name="Trazado 898286" d="M267.029,7.771a.577.577,0,0,0-.98,0c-2.141,3.373-10.1,17.519.473,26.672h.035c10.574-9.154,2.613-23.3.473-26.672Z" transform="translate(-227.44 -7.498)" fill="#c6e873"/>
          <g id="Grupo_1106589" data-name="Grupo 1106589" transform="translate(0 42.453)">
            <g id="Grupo_1106588" data-name="Grupo 1106588">
              <path id="Trazado_898287" data-name="Trazado 898287" d="M146.934,307.448l-6.622,5.28,22.811,10.922,22.811-10.922-6.622-5.28A26.051,26.051,0,0,0,146.934,307.448Z" transform="translate(-124.024 -301.806)" fill="#ce9875"/>
              <g id="Grupo_1106568" data-name="Grupo 1106568" transform="translate(24.92 0.001)">
                <path id="Trazado_898288" data-name="Trazado 898288" d="M221.617,311.108l6.622,5.28.5.367,8.4-4.023-6.622-5.28A26.063,26.063,0,0,0,200.156,306,26.027,26.027,0,0,1,221.617,311.108Z" transform="translate(-200.156 -301.812)" fill="#c6865c"/>
              </g>
              <g id="Grupo_1106587" data-name="Grupo 1106587" transform="translate(0 2.715)">
                <g id="Grupo_1106586" data-name="Grupo 1106586" transform="translate(2.79)">
                  <g id="Grupo_1106585" data-name="Grupo 1106585">
                    <g id="Grupo_1106583" data-name="Grupo 1106583" transform="translate(0)">
                      <g id="Grupo_1106582" data-name="Grupo 1106582">
                        <g id="Grupo_1106581" data-name="Grupo 1106581">
                          <g id="Grupo_1106580" data-name="Grupo 1106580">
                            <g id="Grupo_1106579" data-name="Grupo 1106579">
                              <g id="Grupo_1106578" data-name="Grupo 1106578">
                                <g id="Grupo_1106577" data-name="Grupo 1106577">
                                  <g id="Grupo_1106576" data-name="Grupo 1106576">
                                    <g id="Grupo_1106575" data-name="Grupo 1106575">
                                      <g id="Grupo_1106574" data-name="Grupo 1106574">
                                        <g id="Grupo_1106573" data-name="Grupo 1106573">
                                          <g id="Grupo_1106572" data-name="Grupo 1106572">
                                            <g id="Grupo_1106571" data-name="Grupo 1106571">
                                              <g id="Grupo_1106570" data-name="Grupo 1106570">
                                                <g id="Grupo_1106569" data-name="Grupo 1106569">
                                                  <path id="Trazado_898289" data-name="Trazado 898289" d="M105.893,326.8l-7.782,4.091a15.283,15.283,0,0,1-6.584,1.756l.1-1.66a4.277,4.277,0,0,0-3.546-3.9l-8.7-1.056a11.164,11.164,0,0,1-4.758-2.087,34.614,34.614,0,0,0-6.6-2.847A11.659,11.659,0,0,0,59,322.16l-12.26,6.874,9.606,15.319,5.24-4.648a3.174,3.174,0,0,1,3.077-.647l8.774,2.82a6.463,6.463,0,0,0,3.027.417L93.931,340.5a6.561,6.561,0,0,0,3.05-1.129l12.058-8.295a2.82,2.82,0,0,0,.419-3.557A2.494,2.494,0,0,0,105.893,326.8Z" transform="translate(-46.738 -320.628)" fill="#ffddce"/>
                                                </g>
                                              </g>
                                            </g>
                                          </g>
                                        </g>
                                      </g>
                                    </g>
                                  </g>
                                </g>
                              </g>
                            </g>
                          </g>
                        </g>
                      </g>
                    </g>
                    <g id="Grupo_1106584" data-name="Grupo 1106584" transform="translate(0 5.708)">
                      <path id="Trazado_898290" data-name="Trazado 898290" d="M46.783,378.729l-.045.025.091.145Z" transform="translate(-46.738 -376.056)" fill="#ffcbbe"/>
                      <path id="Trazado_898291" data-name="Trazado 898291" d="M155.151,361.385a2.494,2.494,0,0,0-3.565-.726l-5.518,2.9s-.546,1.237-1.154,2.551c-1.129,2.442-3.52,4.1-4.718,4.22l-18.107,1.858a6.7,6.7,0,0,1-3.138-.432l-9.1-2.924a3.29,3.29,0,0,0-3.19.671l-6.531,5.675,1.9,3.036,5.24-4.648a3.174,3.174,0,0,1,3.077-.647l8.774,2.82a6.463,6.463,0,0,0,3.027.417l17.467-1.792a6.56,6.56,0,0,0,3.05-1.129l12.058-8.295a2.82,2.82,0,0,0,.419-3.556Z" transform="translate(-92.432 -360.197)" fill="#ffcbbe"/>
                    </g>
                  </g>
                </g>
                <path id="Trazado_898292" data-name="Trazado 898292" d="M42.14,375.7l-2.52,1.455a2.019,2.019,0,0,1-2.758-.739l-9.194-15.925a2.019,2.019,0,0,1,.739-2.758l2.52-1.455a2.019,2.019,0,0,1,2.758.739l9.194,15.925A2.019,2.019,0,0,1,42.14,375.7Z" transform="translate(-27.396 -350.9)" fill="#dd636e"/>
              </g>
            </g>
          </g>
        </g>
      </g>
      <path id="Trazado_898293" data-name="Trazado 898293" d="M87.4,52.557a3.574,3.574,0,0,0-5.035-1.066l-.877.461-4.543-3.623a27.027,27.027,0,0,0-15.577-5.842,9.917,9.917,0,0,1,2.85-5.246,22.01,22.01,0,0,0,3.205.2,21.18,21.18,0,0,0,9.78-2.159,1.082,1.082,0,1,0-.989-1.925,19.614,19.614,0,0,1-9.745,1.9A123.583,123.583,0,0,1,84.215,23.213a17.685,17.685,0,0,1-4.2,7.35,1.082,1.082,0,1,0,1.543,1.516,20.346,20.346,0,0,0,5.17-10.026A1.881,1.881,0,0,0,84.77,19.9c-10.606.2-20.62,4.738-21.949,15.377a1.692,1.692,0,0,0-.009.312,13.415,13.415,0,0,0-1.651,1.938v-9c4.684-4.264,6.162-9.892,5.005-16.2A34.548,34.548,0,0,0,61.484.772h0a1.659,1.659,0,0,0-2.807,0,34.549,34.549,0,0,0-4.683,11.553c-1.154,6.291.311,11.925,5,16.2v8.819a13.508,13.508,0,0,0-1.521-1.755,1.692,1.692,0,0,0-.009-.312C56.139,24.651,46.12,20.1,35.518,19.9a1.88,1.88,0,0,0-1.957,2.156c1.687,8.6,8.189,15.391,19.261,15.391a22.653,22.653,0,0,0,3.249-.2,9.9,9.9,0,0,1,2.855,5.239,27.013,27.013,0,0,0-12.393,3.588c-.436-.155-.833-.286-1.164-.386A12.793,12.793,0,0,0,35.5,46.836l-7.774,4.359a3.092,3.092,0,0,0-3.758-.51l-2.52,1.455a3.1,3.1,0,0,0-1.135,4.236L29.51,72.3a3.1,3.1,0,0,0,4.236,1.135l2.52-1.455a3.1,3.1,0,0,0,1.172-4.164l1.9-1.683a2.1,2.1,0,0,1,2.028-.426l8.743,2.81a7.586,7.586,0,0,0,3.5.473L71.074,67.2a7.672,7.672,0,0,0,3.553-1.314c12.842-8.839,12.071-8.291,12.184-8.4a3.921,3.921,0,0,0,.589-4.933ZM81.454,22.3a124.287,124.287,0,0,0-16.04,11.023C67.682,25.268,76.1,22.949,81.454,22.3ZM54.878,33.326A124.254,124.254,0,0,0,38.849,22.309C46.064,23.2,52.905,26.293,54.878,33.326ZM36.07,23.211A123.57,123.57,0,0,1,53.82,35.26c-12.45.435-16.489-7.726-17.75-12.049Zm27.968-10.5c.927,5.055-.041,9.314-2.877,12.7V4.572A30.228,30.228,0,0,1,64.038,12.715Zm-7.915,0A30.224,30.224,0,0,1,59,4.576V25.409C56.163,22.027,55.2,17.769,56.123,12.715ZM75.6,50.02l3.8,3.031-4.755,2.5a14.134,14.134,0,0,1-4.926,1.541l.026-.422a1.074,1.074,0,0,0,0-.167,5.346,5.346,0,0,0-4.464-4.865l-.029,0L56.561,50.58c-2.751-.414-3.125-1.62-7.384-3.467A25.007,25.007,0,0,1,75.6,50.02Zm9.788,5.84L73.4,64.1a5.5,5.5,0,0,1-2.547.944L53.386,66.839a5.568,5.568,0,0,1-2.586-.371l-8.774-2.82a4.274,4.274,0,0,0-4.126.868L36.337,65.9l-3.5-6.063a1.082,1.082,0,0,0-1.874,1.082l4.565,7.907a.939.939,0,0,1-.343,1.281l-2.52,1.455a.937.937,0,0,1-1.281-.343L22.189,55.294a.939.939,0,0,1,.343-1.281l2.52-1.455a.937.937,0,0,1,1.281.343l2.1,3.629A1.082,1.082,0,0,0,30.3,55.449l-1.4-2.43,7.661-4.3a10.62,10.62,0,0,1,8.188-.969c6.716,2.011,7.524,4.373,11.509,4.968l.029,0,8.682,1.054a3.183,3.183,0,0,1,2.607,2.848l-.038.619L56.5,57.967a1.082,1.082,0,0,0,.069,2.162l.072,0c11.681-1.055,14.267-.17,19.005-2.661,8.26-4.345,7.795-4.088,7.9-4.165a1.412,1.412,0,0,1,2.031.43,1.736,1.736,0,0,1-.2,2.131Z" transform="translate(0 0)"/>
    </g>
  </g>
</svg>
