<svg id="Grupo_1106228" data-name="Grupo 1106228" xmlns="http://www.w3.org/2000/svg" width="70" height="70" viewBox="0 0 70 70">
  <g id="Grupo_1106219" data-name="Grupo 1106219" transform="translate(19.77 8.875)">
    <g id="Grupo_1106218" data-name="Grupo 1106218">
      <path id="Trazado_897603" data-name="Trazado 897603" d="M174.551,91.895a1.367,1.367,0,0,0-.843-.9,9.721,9.721,0,0,0-1.8-.422,11.617,11.617,0,0,0,2.646-11.4,1.367,1.367,0,0,0-.843-.9,11.766,11.766,0,0,0-7.352.077,12.282,12.282,0,0,0,.341-2.92,11.613,11.613,0,0,0-6.2-10.346,1.367,1.367,0,0,0-1.232-.04,11.57,11.57,0,0,0-6.279,10.387,12.281,12.281,0,0,0,.343,2.926,11.765,11.765,0,0,0-7.368-.082,1.367,1.367,0,0,0-.843.9,11.617,11.617,0,0,0,2.646,11.4,9.721,9.721,0,0,0-1.8.422,1.368,1.368,0,0,0-.843.9,11.613,11.613,0,0,0,2.933,11.7,11.345,11.345,0,0,0,8.206,3.455,12.228,12.228,0,0,0,2.2-.2V115.8a1.367,1.367,0,0,0,2.734,0v-8.949a12.248,12.248,0,0,0,2.22.2,11.345,11.345,0,0,0,8.206-3.455A11.613,11.613,0,0,0,174.551,91.895Zm-16.093,10.693a9.114,9.114,0,0,1-.2,1.517,9.02,9.02,0,0,1-10.71-10.716,9.167,9.167,0,0,1,4.7.222q.2.073.391.138a8.963,8.963,0,0,1,3.177,2.084,8.716,8.716,0,0,1,2.646,5.843Zm0-12.725a9.11,9.11,0,0,1-.2,1.517,9.085,9.085,0,0,1-4.6-.183q-.3-.114-.589-.208a9.028,9.028,0,0,1-3.081-2.053,8.816,8.816,0,0,1-2.437-8.272,8.867,8.867,0,0,1,8.265,2.444l.058.06q.18.2.36.387a8.658,8.658,0,0,1,2.228,5.4ZM159.845,83a9.3,9.3,0,0,1-1.673-1.382c-.064-.07-.129-.14-.2-.21a8.722,8.722,0,0,1-2.255-5.984,8.825,8.825,0,0,1,4.114-7.574,8.816,8.816,0,0,1,4.128,7.574,8.72,8.72,0,0,1-2.046,5.755c-.221.222-.429.446-.624.671A9.181,9.181,0,0,1,159.845,83ZM161.2,89.42a8.655,8.655,0,0,1,2.113-5.724c.2-.2.4-.415.6-.647a8.824,8.824,0,0,1,8.2-2.388,8.816,8.816,0,0,1-2.437,8.274,9.029,9.029,0,0,1-3.075,2.051q-.3.1-.6.212a9.082,9.082,0,0,1-4.6.182,9.177,9.177,0,0,1-.212-1.926C161.2,89.443,161.2,89.432,161.2,89.42Zm8.484,12.241a8.824,8.824,0,0,1-8.27,2.445,8.867,8.867,0,0,1,2.442-8.273,9.027,9.027,0,0,1,3.083-2.054q.292-.094.588-.208a9.088,9.088,0,0,1,4.594-.186A8.816,8.816,0,0,1,169.685,101.661Z" transform="translate(-144.606 -64.913)" fill="#65802c"/>
    </g>
  </g>
  <g id="Grupo_1106221" data-name="Grupo 1106221" transform="translate(0)">
    <g id="Grupo_1106220" data-name="Grupo 1106220">
      <path id="Trazado_897604" data-name="Trazado 897604" d="M42.295.762A35.236,35.236,0,0,0,35,0,35,35,0,0,0,7.4,56.517a5.189,5.189,0,1,0,2.04-1.833A32.28,32.28,0,0,1,41.728,3.437,1.367,1.367,0,1,0,42.295.762ZM10.025,57.589a2.461,2.461,0,1,1-.721,1.74A2.453,2.453,0,0,1,10.025,57.589Z" transform="translate(0)" fill="#65802c"/>
    </g>
  </g>
  <g id="Grupo_1106223" data-name="Grupo 1106223" transform="translate(27.693 5.476)">
    <g id="Grupo_1106222" data-name="Grupo 1106222">
      <path id="Trazado_897605" data-name="Trazado 897605" d="M237.467,48.058a5.189,5.189,0,1,0-2.039,1.833,32.28,32.28,0,0,1-31.264,51.448,1.367,1.367,0,0,0-.48,2.692,35.326,35.326,0,0,0,6.179.544,35,35,0,0,0,27.6-56.517Zm-2.629-1.072a2.461,2.461,0,1,1,.721-1.74A2.444,2.444,0,0,1,234.838,46.986Z" transform="translate(-202.556 -40.051)" fill="#65802c"/>
    </g>
  </g>
  <g id="Grupo_1106225" data-name="Grupo 1106225" transform="translate(21.103 64.854)">
    <g id="Grupo_1106224" data-name="Grupo 1106224">
      <path id="Trazado_897606" data-name="Trazado 897606" d="M156.239,474.462l-.516,1.266.512-1.267A1.367,1.367,0,0,0,155.211,477l.042.017a1.367,1.367,0,0,0,.986-2.55Z" transform="translate(-154.355 -474.36)" fill="#65802c"/>
    </g>
  </g>
  <g id="Grupo_1106227" data-name="Grupo 1106227" transform="translate(46.201 2.427)">
    <g id="Grupo_1106226" data-name="Grupo 1106226">
      <path id="Trazado_897607" data-name="Trazado 897607" d="M339.828,17.862l-.024-.01a1.367,1.367,0,1,0-1.016,2.539l.016.006a1.367,1.367,0,0,0,1.024-2.535Z" transform="translate(-337.929 -17.754)" fill="#65802c"/>
    </g>
  </g>
</svg>
