<svg xmlns="http://www.w3.org/2000/svg" width="80.494" height="87.887" viewBox="0 0 80.494 87.887">
  <g id="Grupo_1106446" data-name="Grupo 1106446" transform="translate(-21.537)">
    <path id="Trazado_897987" data-name="Trazado 897987" d="M107.339,36.276a3.252,3.252,0,0,1-2.565,1.009A43.872,43.872,0,0,1,88.4,32.349c-7.663-4.129-16.91-12.508-17.447-28.976a3.249,3.249,0,0,1,.949-2.4A3.447,3.447,0,0,1,74.5,0h0A35.569,35.569,0,0,1,91.238,5.047a32.964,32.964,0,0,1,10.674,10.234,42.064,42.064,0,0,1,6.3,18.378A3.25,3.25,0,0,1,107.339,36.276Z" transform="translate(-40.936)" fill="#6dc82a"/>
    <path id="Trazado_897988" data-name="Trazado 897988" d="M222.233,89.963A37.582,37.582,0,0,0,218.9,98.5a79.421,79.421,0,0,0-2.809,11.489,41.328,41.328,0,0,0,8.906,1.815,3.25,3.25,0,0,0,3.433-3.624A42.165,42.165,0,0,0,222.233,89.963Z" transform="translate(-161.155 -74.52)" fill="#5eac24"/>
    <path id="Trazado_897989" data-name="Trazado 897989" d="M126.786,51.36l-7-6.828-1.846-9.2a1.346,1.346,0,1,0-2.64.53L116.37,41.2l-3.861-3.765-1.872-9.327a1.346,1.346,0,0,0-2.64.53l1.1,5.468-9.01-8.786A1.346,1.346,0,1,0,98.2,27.25l9.908,9.661-6.911-.118a1.346,1.346,0,0,0-.046,2.692l9.768.167,4.6,4.482-7.017-.12a1.346,1.346,0,0,0-.046,2.692l9.874.169,6.576,6.413a1.347,1.347,0,0,0,1.88-1.928Z" transform="translate(-63.17 -20.659)" fill="#4e901e"/>
    <path id="Trazado_897990" data-name="Trazado 897990" d="M277.45,1.016A3.252,3.252,0,0,0,274.885.007a43.872,43.872,0,0,0-16.371,4.936,31.793,31.793,0,0,0-16.3,20.567c-1.524,4.489-4.883,16.664-4.1,34.995a2.952,2.952,0,0,0,2.947,2.826l.129,0a2.952,2.952,0,0,0,2.823-3.076A106.686,106.686,0,0,1,245.4,37.263a36.273,36.273,0,0,0,15.95-5.019A32.963,32.963,0,0,0,272.022,22.01a42.063,42.063,0,0,0,6.3-18.378A3.25,3.25,0,0,0,277.45,1.016Z" transform="translate(-179.306 0)" fill="#91dc5a"/>
    <path id="Trazado_897991" data-name="Trazado 897991" d="M303.127,25.346a1.346,1.346,0,0,0-1.9-.024l-9.01,8.786,1.1-5.467a1.346,1.346,0,0,0-2.64-.53L288.8,37.437,284.937,41.2l1.072-5.341a1.346,1.346,0,1,0-2.64-.53l-1.846,9.2-7,6.828a1.346,1.346,0,0,0,1.88,1.928l6.576-6.413,9.874-.169a1.346,1.346,0,0,0-.022-2.692h-.023l-7.017.12,4.6-4.482,9.768-.167a1.346,1.346,0,0,0-.022-2.692h-.023l-6.911.118,9.908-9.661A1.346,1.346,0,0,0,303.127,25.346Z" transform="translate(-209.222 -20.659)" fill="#5eac24"/>
    <path id="Trazado_897992" data-name="Trazado 897992" d="M94.947,323.7a7.05,7.05,0,0,0-3.7,1.045,12.723,12.723,0,0,0-14.036-8.859,16.828,16.828,0,0,0-30.845,0,12.723,12.723,0,0,0-14.036,8.859A7.086,7.086,0,1,0,33.9,335.51a12.715,12.715,0,0,0,19.714,1.817,16.826,16.826,0,0,0,16.342,0,12.715,12.715,0,0,0,19.714-1.817A7.085,7.085,0,1,0,94.947,323.7Z" transform="translate(-0.001 -253.3)" fill="#cc7400"/>
    <g id="Grupo_1106402" data-name="Grupo 1106402" transform="translate(21.537 52.49)">
      <path id="Trazado_897993" data-name="Trazado 897993" d="M71.034,312.677a16.823,16.823,0,0,1,4.814.7,16.826,16.826,0,0,0-29.486,2.5,12.724,12.724,0,0,0-14.036,8.859A7.086,7.086,0,1,0,33.9,335.509a12.715,12.715,0,0,0,19.714,1.817,16.768,16.768,0,0,0,3.359,1.417,16.825,16.825,0,0,1,14.062-26.066Z" transform="translate(-21.537 -305.789)" fill="#aa6100"/>
      <circle id="Elipse_11672" data-name="Elipse 11672" cx="3.05" cy="3.05" r="3.05" transform="translate(43.888 16.728)" fill="#aa6100"/>
      <circle id="Elipse_11673" data-name="Elipse 11673" cx="3.05" cy="3.05" r="3.05" transform="translate(56.188 23.912)" fill="#aa6100"/>
      <circle id="Elipse_11674" data-name="Elipse 11674" cx="1.174" cy="1.174" r="1.174" transform="translate(56.188 15.351)" fill="#aa6100"/>
      <circle id="Elipse_11675" data-name="Elipse 11675" cx="1.174" cy="1.174" r="1.174" transform="translate(39.073 26.963)" fill="#aa6100"/>
      <circle id="Elipse_11676" data-name="Elipse 11676" cx="1.174" cy="1.174" r="1.174" transform="translate(42.713 10.964)" fill="#aa6100"/>
      <circle id="Elipse_11677" data-name="Elipse 11677" cx="1.174" cy="1.174" r="1.174" transform="translate(67.971 21.657)" fill="#aa6100"/>
    </g>
    <g id="Grupo_1106403" data-name="Grupo 1106403" transform="translate(80.776 51.401)">
      <circle id="Elipse_11678" data-name="Elipse 11678" cx="3.05" cy="3.05" r="3.05" fill="#cc7400"/>
      <circle id="Elipse_11679" data-name="Elipse 11679" cx="1.174" cy="1.174" r="1.174" transform="translate(8.732 8.698)" fill="#cc7400"/>
      <circle id="Elipse_11680" data-name="Elipse 11680" cx="1.174" cy="1.174" r="1.174" transform="translate(8.732 3.051)" fill="#cc7400"/>
    </g>
    <g id="Grupo_1106404" data-name="Grupo 1106404" transform="translate(30.917 50.324)">
      <circle id="Elipse_11681" data-name="Elipse 11681" cx="3.05" cy="3.05" r="3.05" transform="translate(3.189)" fill="#aa6100"/>
      <circle id="Elipse_11682" data-name="Elipse 11682" cx="1.174" cy="1.174" r="1.174" transform="translate(0 8.601)" fill="#aa6100"/>
    </g>
  </g>
</svg>
