<svg xmlns="http://www.w3.org/2000/svg" width="70" height="65.484" viewBox="0 0 70 65.484">
  <g id="Grupo_1106245" data-name="Grupo 1106245" transform="translate(0 1.168)">
    <path id="Trazado_897626" data-name="Trazado 897626" d="M1.129,27.058H7.392a16.791,16.791,0,0,0,1.59,3.825L4.55,35.315a1.13,1.13,0,0,0,0,1.6L9.339,41.7a1.13,1.13,0,0,0,1.6,0l4.434-4.434a16.78,16.78,0,0,0,3.824,1.59v6.263a1.129,1.129,0,0,0,1.129,1.129H27.1a1.129,1.129,0,0,0,1.129-1.129V38.859a16.78,16.78,0,0,0,3.824-1.59L36.484,41.7a1.162,1.162,0,0,0,1.6,0l4.79-4.791a1.13,1.13,0,0,0,0-1.6l-4.434-4.431a16.791,16.791,0,0,0,1.59-3.825H46.29a1.129,1.129,0,0,0,1.129-1.129V19.155a1.129,1.129,0,0,0-1.129-1.129H40.027a16.8,16.8,0,0,0-1.59-3.825L42.87,9.769a1.13,1.13,0,0,0,0-1.6L38.08,3.381a1.129,1.129,0,0,0-1.6,0L32.05,7.815a16.828,16.828,0,0,0-3.824-1.59V-.039A1.129,1.129,0,0,0,27.1-1.168H20.323A1.129,1.129,0,0,0,19.194-.039V6.225a16.828,16.828,0,0,0-3.824,1.59L10.936,3.381a1.162,1.162,0,0,0-1.6,0L4.549,8.172a1.13,1.13,0,0,0,0,1.6L8.983,14.2a16.8,16.8,0,0,0-1.59,3.825H1.129A1.129,1.129,0,0,0,0,19.155v6.774a1.129,1.129,0,0,0,1.129,1.129Zm1.129-6.774H8.276a1.129,1.129,0,0,0,1.1-.887,14.526,14.526,0,0,1,1.978-4.758,1.129,1.129,0,0,0-.153-1.408L6.944,8.97l3.194-3.194,4.26,4.261a1.129,1.129,0,0,0,1.409.153,14.549,14.549,0,0,1,4.758-1.978,1.13,1.13,0,0,0,.887-1.1V1.09h4.516V7.108a1.13,1.13,0,0,0,.887,1.1,14.549,14.549,0,0,1,4.758,1.978,1.129,1.129,0,0,0,1.409-.153l4.26-4.261L40.475,8.97l-4.26,4.259a1.129,1.129,0,0,0-.153,1.409A14.522,14.522,0,0,1,38.039,19.4a1.13,1.13,0,0,0,1.1.888h6.019V24.8H39.142a1.13,1.13,0,0,0-1.1.887,14.508,14.508,0,0,1-1.977,4.756,1.13,1.13,0,0,0,.153,1.408l4.261,4.26-3.194,3.2-4.26-4.261a1.13,1.13,0,0,0-1.409-.153,14.515,14.515,0,0,1-4.756,1.978,1.129,1.129,0,0,0-.889,1.1v6.018H21.452V37.975a1.129,1.129,0,0,0-.889-1.1,14.515,14.515,0,0,1-4.756-1.978,1.13,1.13,0,0,0-1.409.153l-4.26,4.261L6.944,36.114l4.26-4.26a1.129,1.129,0,0,0,.153-1.409,14.53,14.53,0,0,1-1.978-4.759,1.128,1.128,0,0,0-1.1-.886H2.258Zm0,0" fill="#65802c"/>
    <path id="Trazado_897627" data-name="Trazado 897627" d="M139.032,146.9A9.032,9.032,0,1,0,130,137.864,9.032,9.032,0,0,0,139.032,146.9Zm0-15.806a6.774,6.774,0,1,1-6.774,6.774A6.775,6.775,0,0,1,139.032,131.09Zm0,0" transform="translate(-115.323 -115.323)" fill="#65802c"/>
    <path id="Trazado_897628" data-name="Trazado 897628" d="M112.419,123.671A12.419,12.419,0,1,0,100,111.251,12.419,12.419,0,0,0,112.419,123.671Zm0-22.581a10.161,10.161,0,1,1-10.161,10.161A10.161,10.161,0,0,1,112.419,101.09Zm0,0" transform="translate(-88.71 -88.71)" fill="#65802c"/>
    <path id="Trazado_897629" data-name="Trazado 897629" d="M64.355,299.155v-9.032a1.129,1.129,0,0,0-1.129-1.129H60.968v-9.032a1.129,1.129,0,0,0-1.129-1.129H49.677a1.129,1.129,0,0,0-1.129,1.129v9.032H42.9a1.129,1.129,0,0,0-1.129,1.129v9.032H5.645A5.652,5.652,0,0,0,0,304.8v2.258A5.652,5.652,0,0,0,5.645,312.7h58.71A5.652,5.652,0,0,0,70,307.058V304.8A5.652,5.652,0,0,0,64.355,299.155Zm-2.258,0h-7.9v-7.9h7.9ZM50.806,281.09h7.9v7.9h-7.9Zm-6.774,10.161h7.9v7.9h-7.9Zm23.71,15.806a3.387,3.387,0,0,1-3.387,3.387H5.645a3.387,3.387,0,0,1-3.387-3.387V304.8a3.387,3.387,0,0,1,3.387-3.387h58.71a3.387,3.387,0,0,1,3.387,3.387Zm0,0" transform="translate(0 -248.387)" fill="#65802c"/>
    <path id="Trazado_897630" data-name="Trazado 897630" d="M283.387,488.832a3.387,3.387,0,1,0,3.387,3.387A3.387,3.387,0,0,0,283.387,488.832Zm0,4.516a1.129,1.129,0,1,1,1.129-1.129A1.129,1.129,0,0,1,283.387,493.348Zm0,0" transform="translate(-248.387 -434.677)" fill="#65802c"/>
    <path id="Trazado_897631" data-name="Trazado 897631" d="M183.387,488.832a3.387,3.387,0,1,0,3.387,3.387A3.387,3.387,0,0,0,183.387,488.832Zm0,4.516a1.129,1.129,0,1,1,1.129-1.129A1.129,1.129,0,0,1,183.387,493.348Zm0,0" transform="translate(-159.677 -434.677)" fill="#65802c"/>
    <path id="Trazado_897632" data-name="Trazado 897632" d="M383.387,488.832a3.387,3.387,0,1,0,3.387,3.387A3.387,3.387,0,0,0,383.387,488.832Zm0,4.516a1.129,1.129,0,1,1,1.129-1.129A1.129,1.129,0,0,1,383.387,493.348Zm0,0" transform="translate(-337.097 -434.677)" fill="#65802c"/>
    <path id="Trazado_897633" data-name="Trazado 897633" d="M83.387,488.832a3.387,3.387,0,1,0,3.387,3.387A3.387,3.387,0,0,0,83.387,488.832Zm0,4.516a1.129,1.129,0,1,1,1.129-1.129A1.129,1.129,0,0,1,83.387,493.348Zm0,0" transform="translate(-70.968 -434.677)" fill="#65802c"/>
    <path id="Trazado_897634" data-name="Trazado 897634" d="M483.387,488.832a3.387,3.387,0,1,0,3.387,3.387A3.387,3.387,0,0,0,483.387,488.832Zm0,4.516a1.129,1.129,0,1,1,1.129-1.129A1.129,1.129,0,0,1,483.387,493.348Zm0,0" transform="translate(-425.806 -434.677)" fill="#65802c"/>
  </g>
</svg>
