<svg xmlns="http://www.w3.org/2000/svg" width="70" height="70.004" viewBox="0 0 70 70.004">
  <g id="Grupo_1106249" data-name="Grupo 1106249" transform="translate(-0.012)">
    <g id="Grupo_1106248" data-name="Grupo 1106248" transform="translate(0.012 0)">
      <g id="Grupo_1106247" data-name="Grupo 1106247" transform="translate(0 0)">
        <path id="Trazado_897638" data-name="Trazado 897638" d="M267.8,275.8a7.988,7.988,0,1,0-5.651-2.337A7.967,7.967,0,0,0,267.8,275.8Zm-4.2-12.189a5.942,5.942,0,1,1,0,8.4A5.922,5.922,0,0,1,263.6,263.608Z" transform="translate(-224.306 -224.314)" fill="#65802c"/>
        <path id="Trazado_897639" data-name="Trazado 897639" d="M225.773,225.895a13.1,13.1,0,0,0-2.809,14.449,1.025,1.025,0,1,0,1.887-.8,11.11,11.11,0,1,1,10.291,6.761h-.067a11.038,11.038,0,0,1-7.752-3.154,1.025,1.025,0,1,0-1.431,1.467,13.073,13.073,0,0,0,9.182,3.736h.079a13.156,13.156,0,1,0-9.381-22.459Z" transform="translate(-191.584 -191.702)" fill="#65802c"/>
        <path id="Trazado_897640" data-name="Trazado 897640" d="M68.049,38.893H64.4a21.218,21.218,0,0,0-2.865-6.923l2.577-2.577a1.963,1.963,0,0,0,0-2.776l-3.732-3.732a1.963,1.963,0,0,0-2.776,0l-2.577,2.577A21.215,21.215,0,0,0,48.106,22.6V18.95a1.965,1.965,0,0,0-1.963-1.963H40.865a1.96,1.96,0,0,0-1.516.717h-.67a17.335,17.335,0,0,0-2.223-5.371l1.971-1.971a1.785,1.785,0,0,0,0-2.522L35.412,4.824a1.783,1.783,0,0,0-2.522,0L30.919,6.8a17.335,17.335,0,0,0-5.371-2.223V1.783A1.785,1.785,0,0,0,23.765,0H19.5a1.785,1.785,0,0,0-1.783,1.783v2.79A17.339,17.339,0,0,0,12.345,6.8L10.374,4.824a1.783,1.783,0,0,0-2.522,0L4.836,7.841a1.785,1.785,0,0,0,0,2.522l1.971,1.971A17.336,17.336,0,0,0,4.585,17.7H1.795A1.785,1.785,0,0,0,.012,19.488v4.266a1.785,1.785,0,0,0,1.783,1.783h2.79a17.333,17.333,0,0,0,2.223,5.371L4.836,32.879a1.785,1.785,0,0,0,0,2.522l3.016,3.016a1.785,1.785,0,0,0,2.522,0l1.971-1.971a17.331,17.331,0,0,0,5.371,2.223v.671A1.959,1.959,0,0,0,17,40.857v5.278A1.965,1.965,0,0,0,18.959,48.1h3.647a21.22,21.22,0,0,0,2.865,6.923L22.894,57.6a1.963,1.963,0,0,0,0,2.776l3.732,3.732a1.963,1.963,0,0,0,2.776,0l2.577-2.577A21.213,21.213,0,0,0,38.9,64.394v3.647A1.965,1.965,0,0,0,40.865,70h5.278a1.965,1.965,0,0,0,1.963-1.963V64.393a21.215,21.215,0,0,0,6.923-2.865l2.577,2.577a1.963,1.963,0,0,0,2.776,0l3.732-3.732a1.963,1.963,0,0,0,0-2.776L61.537,55.02A21.219,21.219,0,0,0,64.4,48.1h3.647a1.965,1.965,0,0,0,1.963-1.963V40.856A1.965,1.965,0,0,0,68.049,38.893ZM18.356,36.71a15.3,15.3,0,0,1-5.079-2.1,1.794,1.794,0,0,0-2.229.235L9.113,36.778,6.474,34.139,8.409,32.2a1.8,1.8,0,0,0,.235-2.229,15.3,15.3,0,0,1-2.1-5.079A1.8,1.8,0,0,0,4.8,23.486H2.062V19.754H4.8a1.8,1.8,0,0,0,1.743-1.411,15.3,15.3,0,0,1,2.1-5.079,1.8,1.8,0,0,0-.235-2.229L6.474,9.1,9.113,6.462,11.048,8.4a1.794,1.794,0,0,0,2.229.235,15.3,15.3,0,0,1,5.079-2.1,1.8,1.8,0,0,0,1.41-1.743V2.05H23.5V4.788a1.8,1.8,0,0,0,1.41,1.743,15.3,15.3,0,0,1,5.079,2.1A1.8,1.8,0,0,0,32.217,8.4l1.934-1.935L36.79,9.1l-1.934,1.934a1.794,1.794,0,0,0-.235,2.229,15.3,15.3,0,0,1,2.1,5.079,1.8,1.8,0,0,0,1.743,1.411H38.9V22.6a21.213,21.213,0,0,0-6.923,2.865L29.4,22.885c-.031-.031-.063-.058-.1-.087a7.766,7.766,0,0,0-10.4-8.456,1.025,1.025,0,0,0,.717,1.92,5.714,5.714,0,0,1,7.658,6.187,1.959,1.959,0,0,0-.659.434l-3.732,3.732a1.957,1.957,0,0,0-.435.66,5.739,5.739,0,0,1-.827.062,5.72,5.72,0,0,1-4.99-8.516,1.025,1.025,0,0,0-1.788-1A7.764,7.764,0,0,0,22.8,29.3c.029.033.058.067.089.1l2.577,2.577a21.218,21.218,0,0,0-2.865,6.923h-2.84v-.441a1.8,1.8,0,0,0-1.41-1.743Zm49.606,9.338H64.331A1.976,1.976,0,0,0,62.412,47.6a19.175,19.175,0,0,1-2.633,6.364,1.976,1.976,0,0,0,.259,2.454L62.6,58.985l-3.609,3.609-2.566-2.566a1.976,1.976,0,0,0-2.454-.259A19.176,19.176,0,0,1,47.609,62.4a1.976,1.976,0,0,0-1.553,1.919v3.631h-5.1V64.322A1.976,1.976,0,0,0,39.4,62.4a19.175,19.175,0,0,1-6.364-2.634,1.976,1.976,0,0,0-2.454.259l-2.565,2.566-3.609-3.609,2.565-2.566a1.975,1.975,0,0,0,.259-2.454A19.175,19.175,0,0,1,24.6,47.6a1.976,1.976,0,0,0-1.919-1.553H19.046v-5.1h3.631A1.976,1.976,0,0,0,24.6,39.39a19.175,19.175,0,0,1,2.633-6.364,1.975,1.975,0,0,0-.259-2.454l-2.566-2.566L28.014,24.4l2.565,2.566a1.976,1.976,0,0,0,2.454.259A19.176,19.176,0,0,1,39.4,24.587a1.976,1.976,0,0,0,1.553-1.919V19.037h5.1v3.631a1.976,1.976,0,0,0,1.553,1.919,19.174,19.174,0,0,1,6.365,2.634,1.976,1.976,0,0,0,2.454-.259L58.994,24.4,62.6,28l-2.566,2.566a1.975,1.975,0,0,0-.259,2.454,19.176,19.176,0,0,1,2.634,6.365,1.977,1.977,0,0,0,1.919,1.553h3.631v5.1Z" transform="translate(-0.012 0)" fill="#65802c"/>
      </g>
    </g>
  </g>
</svg>
