<svg xmlns="http://www.w3.org/2000/svg" width="120" height="120" viewBox="0 0 120 120">
  <g id="Grupo_1106447" data-name="Grupo 1106447" transform="translate(-955.333 -164.685)">
    <g id="Trazado_874102" data-name="Trazado 874102" transform="translate(955.333 164.685)" fill="#f3d02c">
      <path d="M 60.00000762939453 117.5000228881836 C 52.2364616394043 117.5000228881836 44.70646286010742 115.9800796508789 37.61917114257812 112.9824066162109 C 34.21260833740234 111.5415496826172 30.92677116394043 109.7580261230469 27.85295295715332 107.6814041137695 C 24.80769920349121 105.6240615844727 21.94397163391113 103.2612609863281 19.34137153625488 100.6586456298828 C 16.7387523651123 98.05604553222656 14.37595272064209 95.19231414794922 12.31862545013428 92.14706420898438 C 10.24198913574219 89.0732421875 8.458479881286621 85.78740692138672 7.017607688903809 82.38082885742188 C 4.01995325088501 75.29355621337891 2.500007629394531 67.7635498046875 2.500007629394531 60.00000762939453 C 2.500007629394531 52.2364616394043 4.01995325088501 44.70646286010742 7.017607688903809 37.61917114257812 C 8.458479881286621 34.21260833740234 10.24198913574219 30.92677116394043 12.31862545013428 27.85295295715332 C 14.37595272064209 24.80769920349121 16.7387523651123 21.94397163391113 19.34137153625488 19.34137153625488 C 21.94397163391113 16.7387523651123 24.80769920349121 14.37595272064209 27.85295295715332 12.31862545013428 C 30.92677116394043 10.24198913574219 34.21260833740234 8.458479881286621 37.61917114257812 7.017607688903809 C 44.70646286010742 4.01995325088501 52.2364616394043 2.500007629394531 60.00000762939453 2.500007629394531 C 67.7635498046875 2.500007629394531 75.29355621337891 4.01995325088501 82.38082885742188 7.017607688903809 C 85.78740692138672 8.458479881286621 89.0732421875 10.24198913574219 92.14706420898438 12.31862545013428 C 95.19231414794922 14.37595272064209 98.05604553222656 16.7387523651123 100.6586456298828 19.34137153625488 C 103.2612609863281 21.94397163391113 105.6240615844727 24.80769920349121 107.6814041137695 27.85295295715332 C 109.7580261230469 30.92677116394043 111.5415496826172 34.21260833740234 112.9824066162109 37.61917114257812 C 115.9800796508789 44.70646286010742 117.5000228881836 52.2364616394043 117.5000228881836 60.00000762939453 C 117.5000228881836 67.7635498046875 115.9800796508789 75.29355621337891 112.9824066162109 82.38082885742188 C 111.5415496826172 85.78740692138672 109.7580261230469 89.0732421875 107.6814041137695 92.14706420898438 C 105.6240615844727 95.19231414794922 103.2612609863281 98.05604553222656 100.6586456298828 100.6586456298828 C 98.05604553222656 103.2612609863281 95.19231414794922 105.6240615844727 92.14706420898438 107.6814041137695 C 89.0732421875 109.7580261230469 85.78740692138672 111.5415496826172 82.38082885742188 112.9824066162109 C 75.29355621337891 115.9800796508789 67.7635498046875 117.5000228881836 60.00000762939453 117.5000228881836 Z" stroke="none"/>
      <path d="M 60.00000762939453 4.999984741210938 C 52.57284545898438 4.999984741210938 45.37050628662109 6.4534912109375 38.59304809570312 9.320106506347656 C 35.33514404296875 10.69808959960938 32.19252777099609 12.40390777587891 29.25246429443359 14.39016723632812 C 26.33905029296875 16.35842895507812 23.59922790527344 18.61901092529297 21.109130859375 21.109130859375 C 18.61901092529297 23.59922790527344 16.35842895507812 26.33905029296875 14.39016723632812 29.25246429443359 C 12.40390777587891 32.19252777099609 10.69808959960938 35.33514404296875 9.320106506347656 38.59304809570312 C 6.4534912109375 45.37050628662109 4.999984741210938 52.57284545898438 4.999984741210938 60.00000762939453 C 4.999984741210938 67.42716979980469 6.4534912109375 74.62950897216797 9.320106506347656 81.40695190429688 C 10.69808959960938 84.66484832763672 12.40388488769531 87.80748748779297 14.39016723632812 90.74754333496094 C 16.35842895507812 93.66096496582031 18.61901092529297 96.40077209472656 21.109130859375 98.89088439941406 C 23.59922790527344 101.380989074707 26.33905029296875 103.6415710449219 29.25246429443359 105.6098251342773 C 32.19252777099609 107.5961074829102 35.33514404296875 109.3019104003906 38.59304809570312 110.6798858642578 C 45.37050628662109 113.5465087890625 52.57284545898438 115.0000076293945 60.00000762939453 115.0000076293945 C 67.42716979980469 115.0000076293945 74.62950897216797 113.5465087890625 81.40695190429688 110.6798858642578 C 84.66484832763672 109.3019104003906 87.80748748779297 107.5961074829102 90.74754333496094 105.6098251342773 C 93.66096496582031 103.6415710449219 96.40077209472656 101.380989074707 98.89088439941406 98.89088439941406 C 101.380989074707 96.40077209472656 103.6415710449219 93.66096496582031 105.6098251342773 90.74754333496094 C 107.5961074829102 87.80748748779297 109.3019104003906 84.66484832763672 110.6798858642578 81.40695190429688 C 113.5465087890625 74.62950897216797 115.0000076293945 67.42716979980469 115.0000076293945 60.00000762939453 C 115.0000076293945 52.57284545898438 113.5465087890625 45.37050628662109 110.6798858642578 38.59304809570312 C 109.3019104003906 35.33514404296875 107.5961074829102 32.19252777099609 105.6098251342773 29.25246429443359 C 103.6415710449219 26.33905029296875 101.380989074707 23.59922790527344 98.89088439941406 21.109130859375 C 96.40077209472656 18.61901092529297 93.66096496582031 16.35842895507812 90.74754333496094 14.39016723632812 C 87.80748748779297 12.40388488769531 84.66484832763672 10.69808959960938 81.40695190429688 9.320106506347656 C 74.62950897216797 6.4534912109375 67.42716979980469 4.999984741210938 60.00000762939453 4.999984741210938 M 60.00000762939453 -1.52587890625e-05 C 93.1370849609375 -1.52587890625e-05 120.0000076293945 26.86290740966797 120.0000076293945 60.00000762939453 C 120.0000076293945 93.1370849609375 93.1370849609375 120.0000076293945 60.00000762939453 120.0000076293945 C 26.86290740966797 120.0000076293945 -1.52587890625e-05 93.1370849609375 -1.52587890625e-05 60.00000762939453 C -1.52587890625e-05 26.86290740966797 26.86290740966797 -1.52587890625e-05 60.00000762939453 -1.52587890625e-05 Z" stroke="none" fill="#fff"/>
    </g>
    <g id="Grupo_1106482" data-name="Grupo 1106482" transform="translate(983.689 196.99)">
      <path id="Trazado_898034" data-name="Trazado 898034" d="M48.565,47V58.6a1.077,1.077,0,0,1-1.743.845l-3.539-2.831-3.539,2.831A1.077,1.077,0,0,1,38,58.6V47Z" transform="translate(2.146 2.654)" fill="#dd5158"/>
      <path id="Trazado_898035" data-name="Trazado 898035" d="M36.529,45.372H2.056A1.06,1.06,0,0,1,1,44.316V2.056A1.06,1.06,0,0,1,2.056,1H61.219a1.06,1.06,0,0,1,1.056,1.056V44.316a1.06,1.06,0,0,1-1.056,1.056h-7" transform="translate(0.056 0.056)" fill="#92c962"/>
      <path id="Trazado_898036" data-name="Trazado 898036" d="M53.313,38.173a5.272,5.272,0,0,1,1.342-1.479,5.194,5.194,0,0,1,2.219-.972,1.132,1.132,0,0,0,.951-1.109V11.307a1.132,1.132,0,0,0-.951-1.109,5.194,5.194,0,0,1-2.219-.972,5.293,5.293,0,0,1-2.028-3.265A1.141,1.141,0,0,0,51.517,5H11.307a1.141,1.141,0,0,0-1.109.961A5.293,5.293,0,0,1,8.169,9.226a5.194,5.194,0,0,1-2.219.972A1.132,1.132,0,0,0,5,11.307V34.613a1.132,1.132,0,0,0,.951,1.109,5.194,5.194,0,0,1,2.219.972A5.293,5.293,0,0,1,10.2,39.959a1.141,1.141,0,0,0,1.109.961H52.542Z" transform="translate(0.282 0.282)" fill="#e2e2e2"/>
      <path id="Trazado_898037" data-name="Trazado 898037" d="M52.591,43.081l0,.007a3.112,3.112,0,0,0-.426,1.592v0a3.113,3.113,0,0,1-1.577,2.728,3.113,3.113,0,0,0-1.171,1.171,3.117,3.117,0,0,1-2.728,1.577h0a3.119,3.119,0,0,0-1.592.426l-.006,0a3.114,3.114,0,0,1-3.145,0l-.007,0a3.112,3.112,0,0,0-1.592-.426h0a3.113,3.113,0,0,1-2.728-1.577,3.113,3.113,0,0,0-1.171-1.171,3.117,3.117,0,0,1-1.577-2.728v0a3.119,3.119,0,0,0-.426-1.592l0-.006a3.114,3.114,0,0,1,0-3.145l0-.007a3.112,3.112,0,0,0,.426-1.592v0a3.113,3.113,0,0,1,1.577-2.728,3.113,3.113,0,0,0,1.171-1.171,3.117,3.117,0,0,1,2.728-1.577h0a3.119,3.119,0,0,0,1.592-.426l.006,0a3.114,3.114,0,0,1,3.145,0l.007,0a3.112,3.112,0,0,0,1.592.426h0a3.113,3.113,0,0,1,2.728,1.577,3.113,3.113,0,0,0,1.171,1.171,3.117,3.117,0,0,1,1.577,2.728v0a3.119,3.119,0,0,0,.426,1.592l0,.006A3.114,3.114,0,0,1,52.591,43.081Z" transform="translate(1.92 1.807)" fill="#e8cb55"/>
      <ellipse id="Elipse_11690" data-name="Elipse 11690" cx="4" cy="4.5" rx="4" ry="4.5" transform="translate(41.694 38.694)" fill="#f4dd7c"/>
      <path id="Trazado_898038" data-name="Trazado 898038" d="M38.575,20.716c-3.834,5.423-12.086,5.553-15.611-.335a7.841,7.841,0,0,1,.83-3.911,7.585,7.585,0,0,1,5.569-3.9,36.767,36.767,0,0,1,5.474-.227,5.766,5.766,0,0,0,4.738-2.214.309.309,0,0,1,.532.054c.671,1.329,2.119,5.381-1.533,10.533Z" transform="translate(1.297 0.565)" fill="#92c962"/>
      <g id="Grupo_1106449" data-name="Grupo 1106449">
        <path id="Trazado_898039" data-name="Trazado 898039" d="M61.276,0H2.113A2.115,2.115,0,0,0,0,2.113V7.4a1.056,1.056,0,0,0,2.113,0V2.113H61.276V44.372h-5.42A4.183,4.183,0,0,0,55.42,41.2a2.053,2.053,0,0,1-.282-1.055,4.149,4.149,0,0,0-.306-1.587,4.164,4.164,0,0,1,.742-.74,4.118,4.118,0,0,1,1.762-.774,2.185,2.185,0,0,0,1.828-2.15V11.59a2.185,2.185,0,0,0-1.821-2.149,4.129,4.129,0,0,1-1.769-.774,4.219,4.219,0,0,1-1.624-2.6A2.191,2.191,0,0,0,51.8,4.227H11.59A2.188,2.188,0,0,0,9.441,6.055,4.225,4.225,0,0,1,7.816,8.665a4.107,4.107,0,0,1-1.762.774,2.185,2.185,0,0,0-1.827,2.15V34.9a2.185,2.185,0,0,0,1.821,2.149,4.124,4.124,0,0,1,1.769.774,4.219,4.219,0,0,1,1.624,2.6,2.191,2.191,0,0,0,2.151,1.838H35a4.187,4.187,0,0,0,0,2.113H2.113V11.621a1.056,1.056,0,1,0-2.113,0V44.372a2.115,2.115,0,0,0,2.113,2.113H35.721a4.177,4.177,0,0,0,2.112,3.653,2.044,2.044,0,0,1,.773.773,4.064,4.064,0,0,0,.484.668v9.673a2.13,2.13,0,0,0,3.46,1.67l2.879-2.3,2.878,2.3a2.134,2.134,0,0,0,3.461-1.669V51.58a4.073,4.073,0,0,0,.484-.669,2.044,2.044,0,0,1,.773-.773,4.18,4.18,0,0,0,2.112-3.653h6.139a2.115,2.115,0,0,0,2.113-2.113V2.113A2.115,2.115,0,0,0,61.276,0ZM11.52,40.051a6.33,6.33,0,0,0-2.432-3.918,6.219,6.219,0,0,0-2.669-1.167s-.078-.069-.08-.069V11.59l.08-.069a6.208,6.208,0,0,0,2.669-1.168,6.336,6.336,0,0,0,2.433-3.928c.01-.053.045-.085.069-.085H51.8c.022,0,.059.032.07.1A6.326,6.326,0,0,0,54.3,10.353a6.222,6.222,0,0,0,2.667,1.167s.079.069.081.069V34.9l-.081.069A6.2,6.2,0,0,0,54.3,36.13a6.128,6.128,0,0,0-.775.7,4.146,4.146,0,0,0-.5-.341,2.044,2.044,0,0,1-.773-.773,4.179,4.179,0,0,0-3.632-2.112h-.041a2.05,2.05,0,0,1-1.043-.286,4.174,4.174,0,0,0-4.219,0,2.051,2.051,0,0,1-1.041.282h-.041a4.176,4.176,0,0,0-3.628,2.112,2.044,2.044,0,0,1-.773.773,4.18,4.18,0,0,0-2.112,3.653H11.59c-.022,0-.059-.032-.07-.1Zm34.569,18.39a1.061,1.061,0,0,0-1.321,0L41.2,61.252V52.889a4.177,4.177,0,0,0,1.035.134h.041a2.05,2.05,0,0,1,1.043.286,4.178,4.178,0,0,0,4.219,0,2.051,2.051,0,0,1,1.041-.282h.041a4.15,4.15,0,0,0,1.026-.132l-.022,8.381-3.539-2.831ZM53.024,46.5a2.059,2.059,0,0,1-1.042,1.8,4.166,4.166,0,0,0-1.569,1.569,2.059,2.059,0,0,1-1.791,1.041H48.61a3.961,3.961,0,0,0-2.141.575,2.058,2.058,0,0,1-2.085,0,4.164,4.164,0,0,0-2.107-.57h-.031a2.153,2.153,0,0,1-1.8-1.042A4.166,4.166,0,0,0,38.875,48.3a2.058,2.058,0,0,1-1.041-1.8,4.178,4.178,0,0,0-.575-2.141,2.063,2.063,0,0,1,0-2.085,4.175,4.175,0,0,0,.57-2.137,2.059,2.059,0,0,1,1.042-1.8,4.166,4.166,0,0,0,1.569-1.569,2.112,2.112,0,0,1,1.8-1.041,3.878,3.878,0,0,0,2.141-.575,2.058,2.058,0,0,1,2.085,0,4.164,4.164,0,0,0,2.107.57h.043a2.059,2.059,0,0,1,1.789,1.042,4.166,4.166,0,0,0,1.569,1.569,2.058,2.058,0,0,1,1.041,1.8,4.178,4.178,0,0,0,.575,2.141,2.06,2.06,0,0,1,0,2.078l0,.007A4.175,4.175,0,0,0,53.024,46.5Z" fill="#1b1b1b"/>
        <path id="Trazado_898040" data-name="Trazado 898040" d="M43.282,36a5.282,5.282,0,1,0,5.282,5.282A5.288,5.288,0,0,0,43.282,36Zm0,8.452a3.169,3.169,0,1,1,3.169-3.169A3.173,3.173,0,0,1,43.282,44.452Z" transform="translate(2.146 2.033)" fill="#1b1b1b"/>
        <path id="Trazado_898041" data-name="Trazado 898041" d="M22.734,21.477A9.909,9.909,0,0,0,30.673,25.9c.136.005.272.007.407.007a10.624,10.624,0,0,0,8.693-4.521c4.053-5.72,2.261-10.34,1.617-11.614A1.39,1.39,0,0,0,40.263,9a1.356,1.356,0,0,0-1.189.538,4.714,4.714,0,0,1-3.875,1.8h-.69a32.465,32.465,0,0,0-4.967.239,8.607,8.607,0,0,0-6.354,4.465,8.786,8.786,0,0,0-.925,3.315c-2.281.034-3.946.561-4.955,1.57A1.056,1.056,0,1,0,18.8,22.426c.635-.636,2.053-.974,3.93-.948Zm2.333-4.46a6.568,6.568,0,0,1,4.792-3.346,30.455,30.455,0,0,1,4.644-.216h.7a6.844,6.844,0,0,0,4.7-1.727c.537,1.71.774,4.715-1.86,8.433a8.559,8.559,0,0,1-7.295,3.622,7.83,7.83,0,0,1-5.3-2.294c2.967-.116,7.389-.769,10.8-3.354a1.056,1.056,0,0,0-1.277-1.683c-3.369,2.556-7.991,2.953-10.6,2.949a6.63,6.63,0,0,1,.682-2.384Z" transform="translate(0.96 0.508)" fill="#1b1b1b"/>
        <path id="Trazado_898042" data-name="Trazado 898042" d="M41.13,29.056A1.056,1.056,0,0,0,40.073,28H21.056a1.056,1.056,0,1,0,0,2.113H40.073A1.056,1.056,0,0,0,41.13,29.056Z" transform="translate(1.13 1.581)" fill="#1b1b1b"/>
        <path id="Trazado_898043" data-name="Trazado 898043" d="M34.452,33.056A1.056,1.056,0,0,0,33.4,32H27.056a1.056,1.056,0,0,0,0,2.113H33.4A1.056,1.056,0,0,0,34.452,33.056Z" transform="translate(1.468 1.807)" fill="#1b1b1b"/>
      </g>
    </g>
  </g>
</svg>
