<svg xmlns="http://www.w3.org/2000/svg" xmlns:xlink="http://www.w3.org/1999/xlink" width="150" height="150" viewBox="0 0 150 150">
  <defs>
    <clipPath id="clip-path">
      <circle id="Elipse_11688" data-name="Elipse 11688" cx="65" cy="65" r="65" fill="#fdc2bd"/>
    </clipPath>
  </defs>
  <g id="Grupo_1106483" data-name="Grupo 1106483" transform="translate(-1257.051 -2627)">
    <circle id="Elipse_11683" data-name="Elipse 11683" cx="75" cy="75" r="75" transform="translate(1257.051 2627)" fill="#dceeb6"/>
    <g id="Enmascarar_grupo_1098807" data-name="Enmascarar grupo 1098807" transform="translate(1267.051 2637)" clip-path="url(#clip-path)">
      <g id="Grupo_1106407" data-name="Grupo 1106407" transform="translate(-36 -48)">
        <circle id="Elipse_11685" data-name="Elipse 11685" cx="72" cy="72" r="72" fill="#fdc2bd"/>
        <circle id="Elipse_11686" data-name="Elipse 11686" cx="26" cy="26" r="26" transform="translate(36 126)" fill="#fdc2bd"/>
        <circle id="Elipse_11689" data-name="Elipse 11689" cx="26" cy="26" r="26" transform="translate(106 158)" fill="#fdc2bd"/>
        <circle id="Elipse_11687" data-name="Elipse 11687" cx="14" cy="14" r="14" transform="translate(147 112)" fill="#fdc2bd"/>
      </g>
    </g>
    <g id="Grupo_1106485" data-name="Grupo 1106485" transform="translate(1295.831 2669.172)">
      <g id="color" transform="translate(2.711 2.699)">
        <path id="Trazado_898108" data-name="Trazado 898108" d="M24.534,13A14.524,14.524,0,1,0,39.067,27.534,14.545,14.545,0,0,0,24.534,13ZM17.267,34.8V29.956a10.2,10.2,0,0,1,.121-1.5,5.652,5.652,0,0,1,.194-.872.033.033,0,0,1,0-.048c0-.024,0-.024.024-.048a3.9,3.9,0,0,1,.218-.7,9.494,9.494,0,0,1,2.35-3.755,6.9,6.9,0,0,1,.63-.557c.242-.194.509-.412.8-.606.242-.145.509-.315.751-.436a9.978,9.978,0,0,1,3.609-1.114c.339-.024.654-.048.993-.048H31.8v4.845a10.2,10.2,0,0,1-.121,1.5c-.048.291-.1.581-.17.872a.085.085,0,0,1-.024.048c0,.024,0,.024-.024.048a3.9,3.9,0,0,1-.218.7,9.495,9.495,0,0,1-2.35,3.755,6.9,6.9,0,0,1-.63.557c-.242.194-.509.412-.8.606-.242.145-.509.315-.751.436A9.975,9.975,0,0,1,23.1,34.752c-.339.024-.654.048-.993.048Z" transform="translate(9.378 13.645)" fill="#80f43d"/>
        <path id="Trazado_898109" data-name="Trazado 898109" d="M27.534,16v4.845a9.686,9.686,0,0,1-9.689,9.689H13V25.689A9.686,9.686,0,0,1,22.689,16Z" transform="translate(13.645 17.912)" fill="#f2f2f2"/>
        <path id="Trazado_898110" data-name="Trazado 898110" d="M27.534,24.19v16.5l-7.267-4.845L13,40.686V24.19a14.438,14.438,0,0,0,14.534,0Z" transform="translate(13.645 29.56)" fill="#43b3ff"/>
        <path id="Trazado_898111" data-name="Trazado 898111" d="M69.824,4.422v43.6A2.43,2.43,0,0,1,67.4,50.446H48.484a14.252,14.252,0,0,0,1.962-7.267h7.267a4.88,4.88,0,0,1,4.845-4.845V14.111a4.88,4.88,0,0,1-4.845-4.845h-43.6a4.88,4.88,0,0,1-4.845,4.845V38.334a4.88,4.88,0,0,1,4.845,4.845h7.267a14.253,14.253,0,0,0,1.962,7.267H4.422A2.43,2.43,0,0,1,2,48.023V4.422A2.43,2.43,0,0,1,4.422,2H67.4a2.43,2.43,0,0,1,2.422,2.422Z" transform="translate(-2 -2)" fill="#ffc943"/>
        <path id="Trazado_898112" data-name="Trazado 898112" d="M58.29,9.845V34.067a4.88,4.88,0,0,0-4.845,4.845H46.179a14.534,14.534,0,1,0-29.067,0H9.845A4.88,4.88,0,0,0,5,34.067V9.845A4.88,4.88,0,0,0,9.845,5h43.6A4.88,4.88,0,0,0,58.29,9.845Z" transform="translate(2.267 2.267)" fill="#f2f2f2"/>
      </g>
      <g id="outline" transform="translate(1.5 1.159)">
        <g id="Grupo_1106484" data-name="Grupo 1106484" transform="translate(0 0)">
          <path id="Trazado_898113" data-name="Trazado 898113" d="M28.245,15.5H23.4A10.912,10.912,0,0,0,12.5,26.4v4.845a1.21,1.21,0,0,0,1.211,1.211h4.845a10.912,10.912,0,0,0,10.9-10.9V16.711A1.21,1.21,0,0,0,28.245,15.5Zm-1.211,6.056a8.488,8.488,0,0,1-8.478,8.478H16.635l2.422-2.422h1.921a1.205,1.205,0,0,0,.417-2.338l2.861-2.861A1.211,1.211,0,1,0,22.544,20.7l-2.861,2.861a1.205,1.205,0,0,0-2.338.417V25.9l-2.422,2.422V26.4A8.488,8.488,0,0,1,23.4,17.922h3.633Z" transform="translate(14.145 18.741)"/>
          <path id="Trazado_898114" data-name="Trazado 898114" d="M25.246,12.5a15.731,15.731,0,0,0-8.478,28.991V57.312A1.211,1.211,0,0,0,18.65,58.32l6.6-4.4,6.6,4.4a1.211,1.211,0,0,0,1.883-1.008V41.491A15.731,15.731,0,0,0,25.246,12.5ZM31.3,55.048,25.917,51.46a1.217,1.217,0,0,0-1.344,0L19.19,55.048V42.775a15.7,15.7,0,0,0,12.111,0ZM25.246,41.567A13.323,13.323,0,1,1,38.568,28.245,13.323,13.323,0,0,1,25.246,41.567Z" transform="translate(9.878 14.474)"/>
          <path id="Trazado_898115" data-name="Trazado 898115" d="M17.245,49.946H5.133a1.214,1.214,0,0,1-1.211-1.211V5.133A1.214,1.214,0,0,1,5.133,3.922H31.778a1.211,1.211,0,0,0,0-2.422H5.133A3.637,3.637,0,0,0,1.5,5.133v43.6a3.637,3.637,0,0,0,3.633,3.633H17.245a1.211,1.211,0,1,0,0-2.422Z" transform="translate(-1.5 -1.171)"/>
          <path id="Trazado_898116" data-name="Trazado 898116" d="M45.356,1.5H18.711a1.211,1.211,0,0,0,0,2.422H45.356a1.214,1.214,0,0,1,1.211,1.211v43.6a1.214,1.214,0,0,1-1.211,1.211H33.245a1.211,1.211,0,0,0,0,2.422H45.356a3.637,3.637,0,0,0,3.633-3.633V5.133A3.637,3.637,0,0,0,45.356,1.5Z" transform="translate(21.256 -1.171)"/>
          <path id="Trazado_898117" data-name="Trazado 898117" d="M12.978,38.412H11.646a6.08,6.08,0,0,0-4.724-4.724V11.646a6.08,6.08,0,0,0,4.724-4.724h41.42a6.08,6.08,0,0,0,4.724,4.724V33.688a6.08,6.08,0,0,0-4.724,4.724H51.734a1.211,1.211,0,1,0,0,2.422h2.422a1.21,1.21,0,0,0,1.211-1.211A3.637,3.637,0,0,1,59,35.99a1.21,1.21,0,0,0,1.211-1.211V10.556A1.21,1.21,0,0,0,59,9.345a3.637,3.637,0,0,1-3.633-3.633A1.21,1.21,0,0,0,54.157,4.5h-43.6A1.21,1.21,0,0,0,9.345,5.711,3.637,3.637,0,0,1,5.711,9.345,1.21,1.21,0,0,0,4.5,10.556V34.778A1.21,1.21,0,0,0,5.711,35.99a3.637,3.637,0,0,1,3.633,3.633,1.21,1.21,0,0,0,1.211,1.211h2.422a1.211,1.211,0,1,0,0-2.422Z" transform="translate(2.767 3.096)"/>
          <path id="Trazado_898118" data-name="Trazado 898118" d="M43.623,7.5H9.711a1.211,1.211,0,1,0,0,2.422H43.623a1.211,1.211,0,1,0,0-2.422Z" transform="translate(8.456 7.363)"/>
          <path id="Trazado_898119" data-name="Trazado 898119" d="M39.778,9.5H10.711a1.211,1.211,0,1,0,0,2.422H39.778a1.211,1.211,0,1,0,0-2.422Z" transform="translate(9.878 10.208)"/>
          <circle id="Elipse_11694" data-name="Elipse 11694" cx="1.447" cy="1.447" r="1.447" transform="translate(33.676)"/>
        </g>
      </g>
    </g>
  </g>
</svg>
