<svg xmlns="http://www.w3.org/2000/svg" width="35" height="46.698" viewBox="0 0 35 46.698">
  <g id="Grupo_1106495" data-name="Grupo 1106495" transform="translate(-64.129)">
    <g id="Grupo_1106493" data-name="Grupo 1106493" transform="translate(64.813 3.609)">
      <g id="Grupo_1106488" data-name="Grupo 1106488" transform="translate(3.656 3.656)">
        <path id="Trazado_898120" data-name="Trazado 898120" d="M112.441,79.645h28.514a.731.731,0,0,1,.731.731v37.288a.731.731,0,0,1-.731.731H112.441a.731.731,0,0,1-.731-.731V80.376A.731.731,0,0,1,112.441,79.645Z" transform="translate(-111.71 -79.645)" fill="#ccf49f"/>
      </g>
      <g id="Grupo_1106489" data-name="Grupo 1106489" transform="translate(0.731 0.731)">
        <path id="Trazado_898121" data-name="Trazado 898121" d="M108.89,47.581H80.376a.731.731,0,0,0-.731.731V85.6a.731.731,0,0,0,.731.731h22.059a1.462,1.462,0,0,0,1.034-.428l5.724-5.723a1.462,1.462,0,0,0,.428-1.034V48.312A.731.731,0,0,0,108.89,47.581Z" transform="translate(-79.645 -47.581)" fill="#eceaec"/>
      </g>
      <g id="Grupo_1106490" data-name="Grupo 1106490" transform="translate(24.127 32.901)">
        <path id="Trazado_898122" data-name="Trazado 898122" d="M336.589,406.442l5.724-5.723a1.456,1.456,0,0,0,.292-.428h-5.713a.731.731,0,0,0-.731.731v5.713A1.456,1.456,0,0,0,336.589,406.442Z" transform="translate(-336.161 -400.29)" fill="#fff"/>
      </g>
      <path id="Trazado_898123" data-name="Trazado 898123" d="M79.645,264.016h2.193v19.009H80.376a.731.731,0,0,1-.731-.731Z" transform="translate(-78.914 -243.544)" fill="#dad8db"/>
      <g id="Grupo_1106491" data-name="Grupo 1106491" transform="translate(0 0)">
        <path id="Trazado_898124" data-name="Trazado 898124" d="M91.37,60.037H72.36a.731.731,0,0,1-.731-.731V40.3a.731.731,0,0,1,.731-.731H91.369a.731.731,0,0,1,.731.731V59.305A.731.731,0,0,1,91.37,60.037Z" transform="translate(-71.629 -39.565)" fill="#ffe07d"/>
      </g>
      <g id="Grupo_1106492" data-name="Grupo 1106492" transform="translate(0)">
        <path id="Trazado_898125" data-name="Trazado 898125" d="M81.186,57.843a7.311,7.311,0,0,1-7.311-7.311V39.565H72.36a.731.731,0,0,0-.731.731V59.305a.731.731,0,0,0,.731.731H91.369a.731.731,0,0,0,.731-.731V57.843H81.186Z" transform="translate(-71.629 -39.565)" fill="#ffd064"/>
      </g>
    </g>
    <g id="Grupo_1106494" data-name="Grupo 1106494" transform="translate(64.129)">
      <path id="Trazado_898126" data-name="Trazado 898126" d="M97.714,6.58H96.2V5.071a1.417,1.417,0,0,0-1.415-1.415h-9a1.416,1.416,0,0,0-1.238-.731H74.2a3.608,3.608,0,0,0-7.085,0H65.544A1.417,1.417,0,0,0,64.129,4.34V23.349a1.416,1.416,0,0,0,.731,1.238V42.359a1.417,1.417,0,0,0,1.415,1.415h1.509v1.509A1.417,1.417,0,0,0,69.2,46.7H97.714a1.417,1.417,0,0,0,1.415-1.415V8A1.417,1.417,0,0,0,97.714,6.58ZM65.5,4.34a.047.047,0,0,1,.047-.047h1.509V10.92a3.609,3.609,0,0,0,7.217,0V8a2.146,2.146,0,0,0-4.293,0V9.458a.684.684,0,0,0,1.368,0V8A.778.778,0,1,1,72.9,8V10.92a2.24,2.24,0,1,1-4.481,0V3.607A2.24,2.24,0,0,1,72.8,2.924H70.662a.684.684,0,1,0,0,1.368H84.554a.047.047,0,0,1,.047.047V23.349a.047.047,0,0,1-.047.047H65.544a.047.047,0,0,1-.047-.047ZM97.761,45.283a.047.047,0,0,1-.047.047H69.2a.047.047,0,0,1-.047-.047V43.774H88.335a2.132,2.132,0,0,0,1.518-.629l5.724-5.723A2.132,2.132,0,0,0,96.2,35.9V11.651a.684.684,0,0,0-1.368,0V35.825H89.672a1.417,1.417,0,0,0-1.415,1.415v5.165H66.275a.047.047,0,0,1-.047-.047V24.764H84.554a1.417,1.417,0,0,0,1.415-1.415V5.024H94.79a.047.047,0,0,1,.047.047V8.727a.684.684,0,0,0,1.368,0V7.948h1.509A.047.047,0,0,1,97.761,8V45.283Zm-8.137-3.845v-4.2a.047.047,0,0,1,.047-.047h4.2Z" transform="translate(-64.129)"/>
      <path id="Trazado_898127" data-name="Trazado 898127" d="M201.087,105.577h3.656a.684.684,0,0,0,0-1.368h-3.656a.684.684,0,0,0,0,1.368Z" transform="translate(-187.974 -94.704)"/>
      <path id="Trazado_898128" data-name="Trazado 898128" d="M201.087,145.659h3.656a.684.684,0,1,0,0-1.368h-3.656a.684.684,0,0,0,0,1.368Z" transform="translate(-187.974 -131.131)"/>
      <path id="Trazado_898129" data-name="Trazado 898129" d="M112.91,185.739h11.7a.684.684,0,0,0,0-1.368h-11.7a.684.684,0,1,0,0,1.368Z" transform="translate(-107.839 -167.555)"/>
      <path id="Trazado_898130" data-name="Trazado 898130" d="M338.823,184.371h-1.462a.684.684,0,1,0,0,1.368h1.462a.684.684,0,1,0,0-1.368Z" transform="translate(-311.819 -167.555)"/>
      <path id="Trazado_898131" data-name="Trazado 898131" d="M338.823,104.209h-1.462a.684.684,0,1,0,0,1.368h1.462a.684.684,0,1,0,0-1.368Z" transform="translate(-311.819 -94.704)"/>
      <path id="Trazado_898132" data-name="Trazado 898132" d="M338.823,144.291h-1.462a.684.684,0,1,0,0,1.368h1.462a.684.684,0,1,0,0-1.368Z" transform="translate(-311.819 -131.131)"/>
      <path id="Trazado_898133" data-name="Trazado 898133" d="M338.823,224.452h-1.462a.684.684,0,1,0,0,1.368h1.462a.684.684,0,1,0,0-1.368Z" transform="translate(-311.819 -203.98)"/>
      <path id="Trazado_898134" data-name="Trazado 898134" d="M122.387,296.6h-1.462a.684.684,0,1,0,0,1.368h1.462a.684.684,0,1,0,0-1.368Z" transform="translate(-115.123 -269.545)"/>
      <path id="Trazado_898135" data-name="Trazado 898135" d="M122.387,376.758h-1.462a.684.684,0,1,0,0,1.368h1.462a.684.684,0,1,0,0-1.368Z" transform="translate(-115.123 -342.395)"/>
      <path id="Trazado_898136" data-name="Trazado 898136" d="M122.387,336.677h-1.462a.684.684,0,1,0,0,1.368h1.462a.684.684,0,1,0,0-1.368Z" transform="translate(-115.123 -305.97)"/>
      <path id="Trazado_898137" data-name="Trazado 898137" d="M193.124,296.6H177.039a.684.684,0,1,0,0,1.368h16.085a.684.684,0,1,0,0-1.368Z" transform="translate(-166.119 -269.545)"/>
      <path id="Trazado_898138" data-name="Trazado 898138" d="M187.275,376.758H177.039a.684.684,0,0,0,0,1.368h10.236a.684.684,0,0,0,0-1.368Z" transform="translate(-166.119 -342.395)"/>
      <path id="Trazado_898139" data-name="Trazado 898139" d="M193.124,336.677H177.039a.684.684,0,0,0,0,1.368h16.085a.684.684,0,1,0,0-1.368Z" transform="translate(-166.119 -305.97)"/>
    </g>
  </g>
</svg>
