<svg xmlns="http://www.w3.org/2000/svg" width="295" height="67.583" viewBox="0 0 295 67.583">
  <g id="Grupo_1106598" data-name="Grupo 1106598" transform="translate(-1125.051 -387)">
    <rect id="Rectángulo_402933" data-name="Rectángulo 402933" width="295" height="45" transform="translate(1125.051 387)" fill="#f7f0d8"/>
    <g id="Grupo_1106597" data-name="Grupo 1106597" transform="translate(17.062 11.606)">
      <path id="Trazado_898295" data-name="Trazado 898295" d="M59.5,30.1a20.774,20.774,0,1,0,6.1,14.7A20.616,20.616,0,0,0,59.5,30.1ZM62.759,52.02a20.621,20.621,0,0,0-10.8,4.383,20.9,20.9,0,0,0-2.08-3.738,19.487,19.487,0,0,1,13.706-3.182,19.51,19.51,0,0,1-.825,2.537ZM46.535,50.909A19.357,19.357,0,0,1,52.11,62.723a18.636,18.636,0,0,1-3.128.977,20.8,20.8,0,0,0-23.27-15.615q-.121-.7-.188-1.425A19.273,19.273,0,0,1,46.535,50.909Zm2.483.618a21,21,0,0,0-1.47-1.631c-.493-.493-1.013-.959-1.542-1.4a19.4,19.4,0,0,1,18.062-1.829c-.045.475-.108.95-.188,1.416A20.859,20.859,0,0,0,49.018,51.527ZM44.8,25.434A19.384,19.384,0,0,1,64.158,44.8c0,.125,0,.242-.009.368A20.834,20.834,0,0,0,45.513,47.1V39.158a8.937,8.937,0,0,0,5.782-2.205c2.4-2.4,2.214-6.373,2.205-6.535a.709.709,0,0,0-.672-.672c-.009,0-.117-.009-.3-.009-.941,0-4.177.161-6.23,2.214a7.916,7.916,0,0,0-2.017,4.15,6.354,6.354,0,0,0-.986-1.282c-2.053-2.053-5.289-2.214-6.23-2.214-.188,0-.3.009-.3.009a.709.709,0,0,0-.672.672c-.009.17-.2,4.132,2.205,6.535a9.04,9.04,0,0,0,5.791,2.205V47.1a20.8,20.8,0,0,0-18.636-1.936c0-.125-.009-.242-.009-.368A19.384,19.384,0,0,1,44.8,25.434Zm.726,12.289a7.465,7.465,0,0,1,1.784-4.76,7.516,7.516,0,0,1,4.76-1.784,7.465,7.465,0,0,1-1.784,4.76A7.5,7.5,0,0,1,45.522,37.723Zm-1.461,2.868a7.465,7.465,0,0,1-4.76-1.784,7.483,7.483,0,0,1-1.775-4.76,7.465,7.465,0,0,1,4.76,1.784A7.569,7.569,0,0,1,44.061,40.592ZM27.532,53.553A19.369,19.369,0,0,1,42,63.951,19.4,19.4,0,0,1,27.532,53.553ZM43.675,64.121A20.811,20.811,0,0,0,26.833,52.029a18.512,18.512,0,0,1-.825-2.528A19.356,19.356,0,0,1,47.566,63.96a18.867,18.867,0,0,1-2.779.2C44.419,64.157,44.043,64.148,43.675,64.121ZM53.482,62.1a21.09,21.09,0,0,0-.986-4.285,19.1,19.1,0,0,1,9.564-4.258A19.513,19.513,0,0,1,53.482,62.1Z" transform="translate(1177.042 377)" fill="#65802c"/>
      <g id="Grupo_1106595" data-name="Grupo 1106595" transform="translate(1270.501 401)">
        <path id="Trazado_898296" data-name="Trazado 898296" d="M43.041,22.85H31.911a.7.7,0,0,0-.7.64A8.222,8.222,0,0,1,28.9,28.616l-5.335-3.534V20.589l1.7,1a4.278,4.278,0,0,0,4.243,0l2.782-1.621a.7.7,0,0,0,0-1.2l-2.782-1.621a4.313,4.313,0,0,0-4.243,0l-1.7,1v-3.13l1.7,1a4.278,4.278,0,0,0,4.243,0l2.782-1.621a.7.7,0,0,0,0-1.2l-2.782-1.621a4.313,4.313,0,0,0-4.243,0l-1.7,1v-.7l1.523-2.588a4.313,4.313,0,0,0,0-4.243L23.466,2.281a.7.7,0,0,0-1.2,0L20.649,5.063a4.313,4.313,0,0,0,0,4.243l1.523,2.6v.7l-1.7-1a4.313,4.313,0,0,0-4.243,0l-2.782,1.621a.7.7,0,0,0,0,1.2l2.782,1.621a4.278,4.278,0,0,0,4.243,0l1.7-1.016v3.13l-1.7-1a4.313,4.313,0,0,0-4.243,0l-2.782,1.621a.7.7,0,0,0,0,1.2l2.782,1.621a4.278,4.278,0,0,0,4.243,0l1.7-1v4.494l-5.307,3.534a8.257,8.257,0,0,1-2.309-5.12.7.7,0,0,0-.7-.647H2.7a.7.7,0,0,0-.7.7v3.478a.7.7,0,0,0,.7.7H5.478a17.891,17.891,0,0,0,1.656,4.007L5.186,33.667a.7.7,0,0,0,0,.988l5.857,5.906a.7.7,0,0,0,.988,0l1.941-1.948A17.891,17.891,0,0,0,18,40.24v2.782a.7.7,0,0,0,.7.7h8.347a.7.7,0,0,0,.7-.7V40.24a17.891,17.891,0,0,0,4.007-1.656l1.941,1.948a.7.7,0,0,0,.988,0l5.906-5.857a.7.7,0,0,0,0-.988l-1.948-1.941a17.891,17.891,0,0,0,1.628-4.028h2.782a.7.7,0,0,0,.7-.7V23.546A.7.7,0,0,0,43.041,22.85Zm-15.248,6.72a8.264,8.264,0,0,1-9.85,0l4.925-3.283Zm-1.816-11.22a2.88,2.88,0,0,1,2.824,0l1.718,1.023-1.739,1.023a2.88,2.88,0,0,1-2.824,0l-1.7-1.023Zm0-5.565a2.88,2.88,0,0,1,2.824,0l1.718,1.023L28.781,14.83a2.88,2.88,0,0,1-2.824,0l-1.7-1.023Zm-4.132-7,1.023-1.718,1.023,1.739a2.915,2.915,0,0,1,0,2.824l-1.023,1.7L21.846,8.59A2.915,2.915,0,0,1,21.846,5.787ZM19.759,14.83a2.88,2.88,0,0,1-2.824,0l-1.718-1.023,1.739-1.023a2.88,2.88,0,0,1,2.824,0l1.7,1.023Zm0,5.565a2.88,2.88,0,0,1-2.824,0l-1.718-1.023,1.739-1.023a2.88,2.88,0,0,1,2.824,0l1.7,1.023Zm22.586,5.933H39.751a.7.7,0,0,0-.7.529,16.625,16.625,0,0,1-1.913,4.619.7.7,0,0,0,.1.856l1.836,1.829-4.925,4.925-1.809-1.836a.7.7,0,0,0-.856-.1,16.625,16.625,0,0,1-4.619,1.913.7.7,0,0,0-.529.7v2.574H19.39V39.732a.7.7,0,0,0-.529-.7,16.625,16.625,0,0,1-4.619-1.913.7.7,0,0,0-.856.1l-1.829,1.836-4.925-4.9,1.836-1.829a.7.7,0,0,0,.1-.856,16.625,16.625,0,0,1-1.913-4.619.7.7,0,0,0-.7-.529H3.391V24.241h9.843a9.739,9.739,0,0,0,19.275,0h9.836Z" transform="translate(-1.996 -1.94)" fill="#65802c"/>
        <path id="Trazado_898297" data-name="Trazado 898297" d="M50.26,7.782l.563-1.69a2.087,2.087,0,1,0-1.391-.132l-.369.9H44V8.255h5.565A.7.7,0,0,0,50.26,7.782Zm0-4.4a.7.7,0,1,1-.7.7A.7.7,0,0,1,50.26,3.385Z" transform="translate(-14.781 -1.953)" fill="#65802c"/>
        <path id="Trazado_898298" data-name="Trazado 898298" d="M56.485,15.163l-.529-1.69a.7.7,0,0,0-.7-.473H49v1.391h5.76l.3.9a2.087,2.087,0,1,0,1.391-.132Zm-.529,2.706a.7.7,0,1,1,.7-.7A.7.7,0,0,1,55.956,17.869Z" transform="translate(-16.303 -5.306)" fill="#65802c"/>
        <rect id="Rectángulo_402934" data-name="Rectángulo 402934" width="2.782" height="1.391" transform="translate(25.046 4.911)" fill="#65802c"/>
        <rect id="Rectángulo_402935" data-name="Rectángulo 402935" width="2.087" height="1.391" transform="translate(29.219 7.693)" fill="#65802c"/>
        <path id="Trazado_898299" data-name="Trazado 898299" d="M16.354,6.863H11.29l-.3-.9A2.087,2.087,0,1,0,9.6,6.091l.563,1.69a.7.7,0,0,0,.626.473h5.565Zm-6.26-3.478a.7.7,0,1,1-.7.7A.7.7,0,0,1,10.094,3.385Z" transform="translate(-3.83 -1.953)" fill="#65802c"/>
        <path id="Trazado_898300" data-name="Trazado 898300" d="M4.085,19.26a2.087,2.087,0,0,0,.9-3.965l.3-.9h5.76V13H4.781a.7.7,0,0,0-.7.473l-.563,1.69a2.087,2.087,0,0,0,.563,4.1Zm0-2.782a.7.7,0,1,1-.7.7A.7.7,0,0,1,4.085,16.478Z" transform="translate(-1.995 -5.306)" fill="#65802c"/>
        <rect id="Rectángulo_402936" data-name="Rectángulo 402936" width="2.782" height="1.391" transform="translate(13.916 4.911)" fill="#65802c"/>
        <rect id="Rectángulo_402937" data-name="Rectángulo 402937" width="2.087" height="1.391" transform="translate(10.438 7.693)" fill="#65802c"/>
      </g>
      <g id="Grupo_1106596" data-name="Grupo 1106596" transform="translate(1340.108 404.371)">
        <path id="Trazado_898301" data-name="Trazado 898301" d="M69.809,63.844a2.884,2.884,0,0,0-3.827,1.493L59.4,80.646a.672.672,0,0,0-.567.415l-.992,2.448-.025.056c-1.842-.735-3.739-1.4-5.645-1.983a.674.674,0,0,0-.811.369l-3.2,7.171a11.919,11.919,0,0,0-.828,2.676,4.736,4.736,0,0,0-6.717.363,11.372,11.372,0,0,1,3.558-13.246.669.669,0,0,0,.161-.187,8.465,8.465,0,0,0,5.252-12.709.675.675,0,0,0-.674-.3A8.47,8.47,0,0,0,43.052,78.1a12.646,12.646,0,0,0-2.389,2.595A8.493,8.493,0,0,0,38.9,76.17,8.243,8.243,0,0,0,31.729,72.9a.672.672,0,0,0-.583.449,8.467,8.467,0,0,0,7.775,11.069,12.658,12.658,0,0,0-.011,6.931,4.723,4.723,0,0,0-7.178,2.839c-.032,0-.064,0-.1,0s-.078-.006-.117-.006c-.012,0-.023.006-.035.007a4.717,4.717,0,0,0-4.3,6.6H25.673a.673.673,0,1,0,0,1.347H70.311a.673.673,0,1,0,0-1.347H62.428A11.689,11.689,0,0,0,65.341,96.8l3.2-7.17a.673.673,0,0,0-.266-.851c-1.979-1.2-3.548-2.075-5.122-2.86l1.133-2.255a.675.675,0,0,0-.036-.667c-.019-.03-.042-.054-.062-.084l7.057-15.22a2.884,2.884,0,0,0-1.44-3.846ZM43.967,71.183a6.945,6.945,0,0,1,4.72-4.043,7.143,7.143,0,0,1-4.492,10.241A6.959,6.959,0,0,1,43.967,71.183ZM33.565,80.3a6.981,6.981,0,0,1-1.387-5.578,14.812,14.812,0,0,1,4.638,6.291.673.673,0,0,0,1.28-.42,15.884,15.884,0,0,0-4.19-6.186,7.1,7.1,0,0,1,3.924,2.587,6.946,6.946,0,0,1,1.281,6.081h-.061A6.964,6.964,0,0,1,33.565,80.3Zm18.2,20.483H28.684a.619.619,0,0,0-.026-.068,3.382,3.382,0,0,1,3.024-5.182c.038,0,.076,0,.114.005a3.471,3.471,0,0,1,.367.05h.011a3.357,3.357,0,0,1,1.444.666,4.7,4.7,0,0,0-.818,2.654.673.673,0,1,0,1.347,0,3.388,3.388,0,0,1,3.384-3.384.673.673,0,1,0,0-1.347,4.709,4.709,0,0,0-3.005,1.08,4.7,4.7,0,0,0-1.466-.819,3.382,3.382,0,0,1,6.653.863.673.673,0,0,0,1.347,0,4.709,4.709,0,0,0-.167-1.227.662.662,0,0,0,.2-.235,3.4,3.4,0,0,1,3.052-1.921,3.36,3.36,0,0,1,3.268,2.519,4.665,4.665,0,0,0-1.465.821,4.709,4.709,0,0,0-3.006-1.08.673.673,0,1,0,0,1.347,3.388,3.388,0,0,1,3.384,3.384.673.673,0,0,0,1.347,0,4.7,4.7,0,0,0-.816-2.652,3.333,3.333,0,0,1,1.448-.668h.005a3.446,3.446,0,0,1,.36-.049c.045,0,.09,0,.134-.007a3.379,3.379,0,0,1,2.964,5.25Zm15.3-11.162-2.96,6.626a10.21,10.21,0,0,1-3.916,4.536h-6.91a4.707,4.707,0,0,0-4.3-6.6c-.012,0-.022-.007-.035-.007-.038,0-.075,0-.113.006s-.066,0-.1,0a4.724,4.724,0,0,0-.264-.786s0-.006,0-.009a10.419,10.419,0,0,1,.907-3.718l2.96-6.626c1.661.522,3.309,1.113,4.916,1.753l-1.454,3.238a13.062,13.062,0,0,0-1.022,7.171l.053.38a.674.674,0,0,0,1.023.479l.239-.149A13.027,13.027,0,0,0,61.111,90.2a.673.673,0,0,0-1.227-.554,11.682,11.682,0,0,1-3.841,4.691,11.707,11.707,0,0,1,.993-5.748l2.042-4.549.834-2.056A3.669,3.669,0,0,1,62.9,83.416l-2.14,4.257a.674.674,0,0,0,1.2.6l.583-1.159c1.4.7,2.809,1.478,4.52,2.5Zm2.956-22.5-6.81,14.686a4.844,4.844,0,0,0-2.385-1.087L67.219,65.87a1.538,1.538,0,1,1,2.808,1.254Z" transform="translate(-25 -63.591)" fill="#65802c"/>
      </g>
      <g id="outline" transform="translate(1125 406.863)">
        <path id="Trazado_898302" data-name="Trazado 898302" d="M46.468,24.446H37.559V21.174a1.665,1.665,0,0,1,.483-1.116l1.424-1.415a.833.833,0,0,0-1.174-1.182L36.86,18.884a3.33,3.33,0,0,0-.966,2.331v3.272H33.213l-1.773-8.851a2.706,2.706,0,0,0-.958-5.237H14.6a2.706,2.706,0,0,0-1.016,5.212l-1.324,5.77a13.98,13.98,0,0,0-6.328,2.5,2.731,2.731,0,0,0-1.149,2.007,2.773,2.773,0,0,0,.833,2.206l.175.175A10.974,10.974,0,1,0,23.929,40.224h6.994A8.451,8.451,0,0,0,47.2,40.166a4.771,4.771,0,0,0,4-4.679v-6.27a4.738,4.738,0,0,0-4.738-4.771ZM14.6,12.065H30.482a1.041,1.041,0,0,1,0,2.082H14.6a1.041,1.041,0,0,1,0-2.082Zm.649,3.747H29.774l1.873,9.317-.358.633-2.548-2.548.908-.933A.836.836,0,1,0,28.467,21.1l-2.956,2.964a.83.83,0,0,0,1.174,1.174l.833-.833,2.864,2.873L29.3,29.184H26.718a14.063,14.063,0,0,0-12.689-7.91h-.083ZM6.919,25.2a12.489,12.489,0,0,1,19.475,8.1.982.982,0,0,1-.233.833,1.132,1.132,0,0,1-.833.408h-.25A10.966,10.966,0,0,0,6.993,27.052l-.167-.175a1.116,1.116,0,0,1-.333-.891,1.091,1.091,0,0,1,.4-.783ZM21.248,41.357l-.758-.724a.833.833,0,0,0-1.182,1.174l.733.733A9.292,9.292,0,0,1,14.9,44.662V43.63a.833.833,0,1,0-1.665,0v1.032a9.234,9.234,0,0,1-5.121-2.123l.724-.724a.83.83,0,1,0-1.174-1.174l-.733.724A9.3,9.3,0,0,1,4.8,36.228H5.844a.833.833,0,1,0,0-1.665H4.8a9.3,9.3,0,0,1,2.132-5.129l.733.724a.83.83,0,0,0,1.174-1.174l-.724-.733a9.292,9.292,0,0,1,5.129-2.123v1.032a.833.833,0,0,0,1.665,0V26.12a9.292,9.292,0,0,1,5.137,2.123l-.733.733A.833.833,0,1,0,20.49,30.15l.724-.724a9.234,9.234,0,0,1,2.132,5.129H22.322a.833.833,0,1,0,0,1.665h1.032a9.242,9.242,0,0,1-2.132,5.137Zm17.826,3.33a13.226,13.226,0,1,1-.025.017ZM49.565,35.47a3.073,3.073,0,0,1-2.074,2.906c0-.15,0-.308,0-.458a8.468,8.468,0,1,0-16.927,0v.649H24.6a10.824,10.824,0,0,0,.425-2.34h.25a2.8,2.8,0,0,0,2.14-1,2.714,2.714,0,0,0,.575-2.206,14.821,14.821,0,0,0-.566-2.19H29.8a.833.833,0,0,0,.724-.416l2.456-4.3H46.468a3.072,3.072,0,0,1,3.072,3.106ZM14.079,30.341a5.054,5.054,0,1,0,5.054,5.046A5.054,5.054,0,0,0,14.079,30.341Zm0,8.434a3.389,3.389,0,1,1,3.389-3.389A3.389,3.389,0,0,1,14.079,38.776Zm24.979-4.7a3.869,3.869,0,1,1-.008,0Zm0,6.012a2.2,2.2,0,1,0-.008,0Z" transform="translate(-3.031 -10.4)" fill="#65802c"/>
      </g>
    </g>
  </g>
</svg>
