<svg xmlns="http://www.w3.org/2000/svg" width="48" height="64" viewBox="0 0 48 64">
  <g id="Grupo_1106854" data-name="Grupo 1106854" transform="translate(-64)">
    <g id="Grupo_1106652" data-name="Grupo 1106652" transform="translate(64)">
      <path id="Trazado_898509" data-name="Trazado 898509" d="M108.561,32c-.715,0-1.44.033-2.17.095A3.948,3.948,0,0,0,104,26.912V10.421a3.99,3.99,0,0,0-1.333-7.754H80V1.333A1.333,1.333,0,0,0,78.667,0H73.333A1.333,1.333,0,0,0,72,1.333V2.667H68a3.99,3.99,0,0,0-1.333,7.754V26.912a3.976,3.976,0,0,0,0,7.509V50.912A3.99,3.99,0,0,0,68,58.667H84.006c-.461,1.149-.89,2.344-1.28,3.607a1.333,1.333,0,1,0,2.547.786A42.9,42.9,0,0,1,86.8,58.932a9.771,9.771,0,0,0,6.322,2.4c10.46,0,18.881-14.165,18.881-25.894A3.443,3.443,0,0,0,108.561,32ZM68,5.333h34.667a1.333,1.333,0,1,1,0,2.667H68a1.333,1.333,0,1,1,0-2.667Zm33.333,5.333v16h-32v-16ZM68,29.333h34.667a1.333,1.333,0,0,1,0,2.667H68a1.333,1.333,0,0,1,0-2.667ZM68,56a1.333,1.333,0,0,1,0-2.667H83.021A9.726,9.726,0,0,0,84.188,56H68Zm14.685-5.333H69.333v-16H96.463C88.952,37.92,82.812,43.84,82.685,50.667Zm10.434,8a7.4,7.4,0,0,1-5.167-2.236c3.174-6.067,7.867-10.239,15.3-13.9a1.334,1.334,0,1,0-1.177-2.393c-7.475,3.68-12.439,8.029-15.873,14.031a6.885,6.885,0,0,1-.872-3.288c0-8.732,12.772-16.214,23.228-16.214a.773.773,0,0,1,.772.772C109.333,45.895,101.852,58.667,93.119,58.667Z" transform="translate(-64)" fill="#65802c"/>
    </g>
  </g>
</svg>
