<svg xmlns="http://www.w3.org/2000/svg" width="42.447" height="42.018" viewBox="0 0 42.447 42.018">
  <g id="Grupo_1106648" data-name="Grupo 1106648" transform="translate(0 -2.587)">
    <path id="Trazado_898497" data-name="Trazado 898497" d="M39.109,35a.622.622,0,1,0-.905.853,11.028,11.028,0,1,1-1.784-1.529.622.622,0,0,0,.706-1.024,12.279,12.279,0,0,0-9.889-1.8,2.43,2.43,0,0,0-1.762-.751h-.244a2.425,2.425,0,0,0,.315-1.2V27.256a2.443,2.443,0,0,0-2.44-2.44H20.46l-4.935-8.548a3.176,3.176,0,0,0-2.779-1.6h0a3.174,3.174,0,0,0-2.776,1.6L5.034,24.817H3.44A2.443,2.443,0,0,0,1,27.256v2.288a2.443,2.443,0,0,0,2.44,2.44h.244a2.425,2.425,0,0,0-.315,1.2v2.288a2.425,2.425,0,0,0,.315,1.2H2.44A2.442,2.442,0,0,0,0,39.1v2.288a2.443,2.443,0,0,0,2,2.4,2.424,2.424,0,0,0-.338,1.238v2.288a2.425,2.425,0,0,0,.4,1.332,2.444,2.444,0,0,0-1.641,2.3v2.288a2.443,2.443,0,0,0,2.44,2.44H22.52a2.448,2.448,0,0,0,2.157-1.3A12.272,12.272,0,0,0,39.109,35ZM2.9,47.317V45.029a1.2,1.2,0,0,1,1.2-1.2H17.91a12.19,12.19,0,0,0,1.105,4.681H4.1a1.2,1.2,0,0,1-1.2-1.2ZM25.655,32a12.342,12.342,0,0,0-5.729,4.667H16.985V31.985h8.49a1.2,1.2,0,0,1,.18.014ZM24.3,27.257v2.288a1.2,1.2,0,0,1-1.2,1.2H16.985v-.56H18a3.209,3.209,0,0,0,3.076-4.121h2.028A1.2,1.2,0,0,1,24.3,27.257ZM2.243,29.545V27.257a1.2,1.2,0,0,1,1.2-1.2h.976a3.167,3.167,0,0,0-.057,1.609A.622.622,0,0,0,5.572,27.4a1.921,1.921,0,0,1,.22-1.4l5.255-9.1a1.943,1.943,0,0,1,1.7-.981h0a1.945,1.945,0,0,1,1.7.982l5.255,9.1A1.964,1.964,0,0,1,18,28.938H16.363a.622.622,0,0,0-.622.622v9.591a1.007,1.007,0,0,1-1.006,1.006H10.759a1.007,1.007,0,0,1-1.006-1.006V29.559a.622.622,0,0,0-.622-.622H7.492a1.976,1.976,0,0,1-.677-.117A.622.622,0,1,0,6.39,29.99a3.214,3.214,0,0,0,1.1.192H8.51v.56H3.44a1.2,1.2,0,0,1-1.2-1.2Zm2.369,5.924V33.181a1.2,1.2,0,0,1,1.2-1.2h2.7v4.681h-2.7A1.2,1.2,0,0,1,4.613,35.469ZM1.244,41.393V39.1a1.2,1.2,0,0,1,1.2-1.2H8.51v1.242A2.252,2.252,0,0,0,10.759,41.4h3.976a2.252,2.252,0,0,0,2.249-2.249V37.909h2.22a12.182,12.182,0,0,0-1.275,4.68H2.44a1.2,1.2,0,0,1-1.2-1.2ZM22.52,54.438H2.854a1.2,1.2,0,0,1-1.2-1.2V50.953a1.2,1.2,0,0,1,1.2-1.2h16.82a12.369,12.369,0,0,0,3.92,4.008A1.2,1.2,0,0,1,22.52,54.438Z" transform="translate(0 -11.076)" fill="#65802c"/>
    <path id="Trazado_898498" data-name="Trazado 898498" d="M327.83,294.219c-.22-.064-.445-.131-.67-.2v-2.755a2.628,2.628,0,0,1,1.1.4.622.622,0,0,0,.748-.993,3.932,3.932,0,0,0-1.845-.66v-.537a.622.622,0,0,0-1.244,0v.577q-.18.03-.368.077a2.6,2.6,0,0,0-1.994,2.038,2,2,0,0,0,.878,2.048,7.362,7.362,0,0,0,1.484.7v3.49a3.585,3.585,0,0,1-1.774-.514.622.622,0,0,0-.59,1.095,4.758,4.758,0,0,0,2.364.664v.611a.622.622,0,0,0,1.244,0V299.6a3.167,3.167,0,0,0,2.8-2.554A2.61,2.61,0,0,0,327.83,294.219Zm-2.722-1.051a.77.77,0,0,1-.326-.8,1.335,1.335,0,0,1,1.067-1.035l.068-.016v2.257A5.2,5.2,0,0,1,325.107,293.168Zm3.617,3.709a1.887,1.887,0,0,1-1.565,1.461v-3.021l.322.1C328.366,295.67,328.819,296.2,328.725,296.878Z" transform="translate(-296.428 -262.532)" fill="#65802c"/>
    <path id="Trazado_898499" data-name="Trazado 898499" d="M270.058,258.977a8.489,8.489,0,1,0,8.489,8.489A8.5,8.5,0,0,0,270.058,258.977Zm0,15.735a7.246,7.246,0,1,1,7.246-7.246A7.254,7.254,0,0,1,270.058,274.712Z" transform="translate(-239.884 -235.134)" fill="#65802c"/>
    <path id="Trazado_898500" data-name="Trazado 898500" d="M364.809,131.714l.047.177h0a1.861,1.861,0,0,0,1.793,1.374,1.838,1.838,0,0,0,.354-.034l1.956-.383a1.854,1.854,0,0,0,1.435-2.3l-.118-.441a1.854,1.854,0,0,0-2.393-1.274L366,129.48A1.86,1.86,0,0,0,364.809,131.714Zm1.593-1.058,1.885-.646a.611.611,0,0,1,.788.42l.118.441a.611.611,0,0,1-.473.758l-1.956.383a.612.612,0,0,1-.707-.441l-.048-.178A.613.613,0,0,1,366.4,130.656Z" transform="translate(-334.507 -115.688)" fill="#65802c"/>
    <path id="Trazado_898501" data-name="Trazado 898501" d="M324.264,53.031a1.86,1.86,0,0,0,2.53.087l1.5-1.31a1.854,1.854,0,0,0,.093-2.709l-.323-.323a1.854,1.854,0,0,0-2.709.093l-1.31,1.5a1.86,1.86,0,0,0,.087,2.53Zm.721-1.843,1.31-1.5a.6.6,0,0,1,.44-.209h.022a.6.6,0,0,1,.431.179l.323.323a.611.611,0,0,1-.031.892l-1.5,1.31a.613.613,0,0,1-.833-.029l-.13-.13a.613.613,0,0,1-.029-.833Z" transform="translate(-296.766 -41.861)" fill="#65802c"/>
    <path id="Trazado_898502" data-name="Trazado 898502" d="M271.547,70.725h0Z" transform="translate(-249.035 -62.489)" fill="#65802c"/>
    <path id="Trazado_898503" data-name="Trazado 898503" d="M254.2,8.189l.177.048a1.842,1.842,0,0,0,.477.063,1.862,1.862,0,0,0,1.757-1.253l.646-1.885a1.854,1.854,0,0,0-1.274-2.393l-.441-.118a1.854,1.854,0,0,0-2.3,1.435l-.383,1.956a1.86,1.86,0,0,0,1.34,2.147Zm-.12-1.909.383-1.956a.612.612,0,0,1,.6-.494.618.618,0,0,1,.16.021l.441.118a.611.611,0,0,1,.42.788l-.646,1.885a.613.613,0,0,1-.736.392h0l-.177-.048A.613.613,0,0,1,254.084,6.28Z" transform="translate(-231.868)" fill="#65802c"/>
  </g>
</svg>
