<svg xmlns="http://www.w3.org/2000/svg" width="120" height="120" viewBox="0 0 120 120">
  <g id="Grupo_1106860" data-name="Grupo 1106860" transform="translate(-955.333 -164.685)">
    <g id="Trazado_874102" data-name="Trazado 874102" transform="translate(955.333 164.685)" fill="#f3d02c">
      <path d="M 60.00000762939453 117.5000228881836 C 52.2364616394043 117.5000228881836 44.70646286010742 115.9800796508789 37.61917114257812 112.9824066162109 C 34.21260833740234 111.5415496826172 30.92677116394043 109.7580261230469 27.85295295715332 107.6814041137695 C 24.80769920349121 105.6240615844727 21.94397163391113 103.2612609863281 19.34137153625488 100.6586456298828 C 16.7387523651123 98.05604553222656 14.37595272064209 95.19231414794922 12.31862545013428 92.14706420898438 C 10.24198913574219 89.0732421875 8.458479881286621 85.78740692138672 7.017607688903809 82.38082885742188 C 4.01995325088501 75.29355621337891 2.500007629394531 67.7635498046875 2.500007629394531 60.00000762939453 C 2.500007629394531 52.2364616394043 4.01995325088501 44.70646286010742 7.017607688903809 37.61917114257812 C 8.458479881286621 34.21260833740234 10.24198913574219 30.92677116394043 12.31862545013428 27.85295295715332 C 14.37595272064209 24.80769920349121 16.7387523651123 21.94397163391113 19.34137153625488 19.34137153625488 C 21.94397163391113 16.7387523651123 24.80769920349121 14.37595272064209 27.85295295715332 12.31862545013428 C 30.92677116394043 10.24198913574219 34.21260833740234 8.458479881286621 37.61917114257812 7.017607688903809 C 44.70646286010742 4.01995325088501 52.2364616394043 2.500007629394531 60.00000762939453 2.500007629394531 C 67.7635498046875 2.500007629394531 75.29355621337891 4.01995325088501 82.38082885742188 7.017607688903809 C 85.78740692138672 8.458479881286621 89.0732421875 10.24198913574219 92.14706420898438 12.31862545013428 C 95.19231414794922 14.37595272064209 98.05604553222656 16.7387523651123 100.6586456298828 19.34137153625488 C 103.2612609863281 21.94397163391113 105.6240615844727 24.80769920349121 107.6814041137695 27.85295295715332 C 109.7580261230469 30.92677116394043 111.5415496826172 34.21260833740234 112.9824066162109 37.61917114257812 C 115.9800796508789 44.70646286010742 117.5000228881836 52.2364616394043 117.5000228881836 60.00000762939453 C 117.5000228881836 67.7635498046875 115.9800796508789 75.29355621337891 112.9824066162109 82.38082885742188 C 111.5415496826172 85.78740692138672 109.7580261230469 89.0732421875 107.6814041137695 92.14706420898438 C 105.6240615844727 95.19231414794922 103.2612609863281 98.05604553222656 100.6586456298828 100.6586456298828 C 98.05604553222656 103.2612609863281 95.19231414794922 105.6240615844727 92.14706420898438 107.6814041137695 C 89.0732421875 109.7580261230469 85.78740692138672 111.5415496826172 82.38082885742188 112.9824066162109 C 75.29355621337891 115.9800796508789 67.7635498046875 117.5000228881836 60.00000762939453 117.5000228881836 Z" stroke="none"/>
      <path d="M 60.00000762939453 4.999984741210938 C 52.57284545898438 4.999984741210938 45.37050628662109 6.4534912109375 38.59304809570312 9.320106506347656 C 35.33514404296875 10.69808959960938 32.19252777099609 12.40390777587891 29.25246429443359 14.39016723632812 C 26.33905029296875 16.35842895507812 23.59922790527344 18.61901092529297 21.109130859375 21.109130859375 C 18.61901092529297 23.59922790527344 16.35842895507812 26.33905029296875 14.39016723632812 29.25246429443359 C 12.40390777587891 32.19252777099609 10.69808959960938 35.33514404296875 9.320106506347656 38.59304809570312 C 6.4534912109375 45.37050628662109 4.999984741210938 52.57284545898438 4.999984741210938 60.00000762939453 C 4.999984741210938 67.42716979980469 6.4534912109375 74.62950897216797 9.320106506347656 81.40695190429688 C 10.69808959960938 84.66484832763672 12.40388488769531 87.80748748779297 14.39016723632812 90.74754333496094 C 16.35842895507812 93.66096496582031 18.61901092529297 96.40077209472656 21.109130859375 98.89088439941406 C 23.59922790527344 101.380989074707 26.33905029296875 103.6415710449219 29.25246429443359 105.6098251342773 C 32.19252777099609 107.5961074829102 35.33514404296875 109.3019104003906 38.59304809570312 110.6798858642578 C 45.37050628662109 113.5465087890625 52.57284545898438 115.0000076293945 60.00000762939453 115.0000076293945 C 67.42716979980469 115.0000076293945 74.62950897216797 113.5465087890625 81.40695190429688 110.6798858642578 C 84.66484832763672 109.3019104003906 87.80748748779297 107.5961074829102 90.74754333496094 105.6098251342773 C 93.66096496582031 103.6415710449219 96.40077209472656 101.380989074707 98.89088439941406 98.89088439941406 C 101.380989074707 96.40077209472656 103.6415710449219 93.66096496582031 105.6098251342773 90.74754333496094 C 107.5961074829102 87.80748748779297 109.3019104003906 84.66484832763672 110.6798858642578 81.40695190429688 C 113.5465087890625 74.62950897216797 115.0000076293945 67.42716979980469 115.0000076293945 60.00000762939453 C 115.0000076293945 52.57284545898438 113.5465087890625 45.37050628662109 110.6798858642578 38.59304809570312 C 109.3019104003906 35.33514404296875 107.5961074829102 32.19252777099609 105.6098251342773 29.25246429443359 C 103.6415710449219 26.33905029296875 101.380989074707 23.59922790527344 98.89088439941406 21.109130859375 C 96.40077209472656 18.61901092529297 93.66096496582031 16.35842895507812 90.74754333496094 14.39016723632812 C 87.80748748779297 12.40388488769531 84.66484832763672 10.69808959960938 81.40695190429688 9.320106506347656 C 74.62950897216797 6.4534912109375 67.42716979980469 4.999984741210938 60.00000762939453 4.999984741210938 M 60.00000762939453 -1.52587890625e-05 C 93.1370849609375 -1.52587890625e-05 120.0000076293945 26.86290740966797 120.0000076293945 60.00000762939453 C 120.0000076293945 93.1370849609375 93.1370849609375 120.0000076293945 60.00000762939453 120.0000076293945 C 26.86290740966797 120.0000076293945 -1.52587890625e-05 93.1370849609375 -1.52587890625e-05 60.00000762939453 C -1.52587890625e-05 26.86290740966797 26.86290740966797 -1.52587890625e-05 60.00000762939453 -1.52587890625e-05 Z" stroke="none" fill="#fff"/>
    </g>
    <g id="Grupo_1106871" data-name="Grupo 1106871" transform="translate(983.409 192.449)">
      <g id="Grupo_1106866" data-name="Grupo 1106866">
        <path id="Trazado_898788" data-name="Trazado 898788" d="M16.74,49.46c-1.57,1.36-3.81.16-5.03-1.06a7.147,7.147,0,0,1-1.96.07,7.642,7.642,0,0,0,2.23,8.17,7.727,7.727,0,0,0,2.82,1.65c-.03-.04-.06-.07-.09-.11-2.3-3.11.11-6.78,2.07-8.67Z" fill="#7aa822"/>
        <g id="Grupo_1106864" data-name="Grupo 1106864">
          <path id="Trazado_898789" data-name="Trazado 898789" d="M7.92,33h9.66l1.17,4.73c-.01,0-.03-.01-.04-.01A4.411,4.411,0,0,0,13.32,36a3.894,3.894,0,0,0-1.9,2.63h-.01A4.8,4.8,0,0,0,7,39.41c-1.42,1.42-1.14,4.06-.12,5.48-.82-.71-2.31-1.98-2.65-3.06-1.01-3.15,1.16-6.84,4.32-7.85A3.855,3.855,0,0,1,7.92,33Z" fill="#7aa822"/>
        </g>
        <g id="Grupo_1106865" data-name="Grupo 1106865">
          <path id="Trazado_898790" data-name="Trazado 898790" d="M23.18,33,19.9,38.41a3.33,3.33,0,0,0-1.15-.68L17.58,33Z" fill="#7aa822"/>
          <path id="Trazado_898791" data-name="Trazado 898791" d="M27.25,48.29c-2.12-2.37-5.54-1.64-7.86-.54l-.1-.2c1.96-1.01,1.59-3.46.83-4.93.53-.99,1.08-2.27.63-3.14a3.886,3.886,0,0,0-.85-1.06v-.01L23.18,33h8.34a5.889,5.889,0,0,0-.32.92c-.66,2.49-1.24,5-2.05,7.44a66.8,66.8,0,0,0-1.89,6.92Z" fill="#7aa822"/>
          <path id="Trazado_898792" data-name="Trazado 898792" d="M26.02,29.66a7.176,7.176,0,0,1,6.11,2.16A6.273,6.273,0,0,0,31.52,33H7.92c-.78-1.77.31-3.49,2.08-5-.53-2.14,1.25-4.07,5-5,2.49-.62,4.52-.48,5.76.31A2.719,2.719,0,0,1,22,25C24.69,25.61,26.63,26.96,26.02,29.66Z" fill="#7aa822"/>
        </g>
      </g>
      <g id="Grupo_1106867" data-name="Grupo 1106867">
        <path id="Trazado_898793" data-name="Trazado 898793" d="M16.74,49.46c-1.57,1.36-3.81.16-5.03-1.06a7.147,7.147,0,0,1-1.96.07,7.642,7.642,0,0,0,2.23,8.17,7.727,7.727,0,0,0,2.82,1.65c-.03-.04-.06-.07-.09-.11-2.3-3.11.11-6.78,2.07-8.67Z" fill="#607f0a"/>
        <path id="Trazado_898794" data-name="Trazado 898794" d="M11.12,38.67l.27.04a5.147,5.147,0,0,1,.227-.7A39.8,39.8,0,0,1,7.4,34.489,6.542,6.542,0,0,0,4.23,41.83c.34,1.08,1.83,2.35,2.65,3.06-1.02-1.42-1.3-4.06.12-5.48a4.225,4.225,0,0,1,4.12-.74Z" fill="#607f0a"/>
        <path id="Trazado_898795" data-name="Trazado 898795" d="M20.189,42.485c-.023.044-.046.091-.069.135.76,1.47,1.13,3.92-.83,4.93l.1.2c2.28-1.08,5.64-1.8,7.77.43l.18-.18c.3-1.41.67-2.807,1.07-4.2A24.671,24.671,0,0,1,20.189,42.485Z" fill="#607f0a"/>
      </g>
      <path id="Trazado_898796" data-name="Trazado 898796" d="M57.4,33H44.03l.58-5.83.39.04,13.27,2.36c-.19.74-.49,1.94-.87,3.43Z" fill="#f26a07"/>
      <path id="Trazado_898797" data-name="Trazado 898797" d="M42.42,33H31.52a6.793,6.793,0,0,1,.62-1.2A5.765,5.765,0,0,1,36.93,29H37a5.29,5.29,0,0,1,3.12,1.04,5.194,5.194,0,0,1,.46.36A6.909,6.909,0,0,1,42.42,33Z" fill="#8ac926"/>
      <path id="Trazado_898798" data-name="Trazado 898798" d="M44.03,33H57.4c-.61,2.4-1.43,5.55-2.24,8.75A6.976,6.976,0,0,0,52,41h-.04l-7.71-1.37c-.23-.77-.44-1.55-.64-2.33Z" fill="#f26a07"/>
      <path id="Trazado_898799" data-name="Trazado 898799" d="M46.68,52.53l-.01.01A10.041,10.041,0,0,1,37,60h-.07a9.983,9.983,0,0,1-4.57-1.11,10.293,10.293,0,0,1-3.5-2.94h-.01a8.2,8.2,0,0,0-1.27-7.27,3.092,3.092,0,0,0-.33-.39l.01-.01a66.8,66.8,0,0,1,1.89-6.92c.81-2.44,1.39-4.95,2.05-7.44a5.889,5.889,0,0,1,.32-.92h10.9a7.1,7.1,0,0,1,.31.92c.3,1.13.59,2.26.88,3.38.2.78.41,1.56.64,2.33.17.58.35,1.16.54,1.73.25.76.79,2.27,1.09,3.24A6.966,6.966,0,0,0,45,48a6.842,6.842,0,0,0,1.68,4.53ZM41,49c0-3.31-2.34-7-4-7s-4,3.69-4,7,2.34,4,4,4S41,52.31,41,49Z" fill="#8ac926"/>
      <path id="Trazado_898800" data-name="Trazado 898800" d="M6.88,44.89c-1.02-1.42-1.3-4.06.12-5.48a4.8,4.8,0,0,1,4.41-.78,4.157,4.157,0,0,0,.2,2.76,3.8,3.8,0,0,0,.25,2.68c.45.87,1.81,1.16,2.93,1.3.76,1.48,2.54,3.19,4.5,2.18l.1.2a9.942,9.942,0,0,0-1.71.99,9.121,9.121,0,0,0-.9.77l-.04-.05c-1.57,1.36-3.81.16-5.03-1.06a7.206,7.206,0,0,1-1.97.07,2.217,2.217,0,0,1-1.35-.57A4.3,4.3,0,0,1,7.2,45.29a2.082,2.082,0,0,1-.32-.4Z" fill="#8ac926"/>
      <path id="Trazado_898801" data-name="Trazado 898801" d="M41.06,23.79A10.051,10.051,0,0,1,40.15,30l-.03.04A5.29,5.29,0,0,0,37,29h-.07a5.766,5.766,0,0,0-4.8,2.82,7.176,7.176,0,0,0-6.11-2.16c.61-2.7-1.33-4.05-4.02-4.66a2.719,2.719,0,0,0-1.24-1.69c2.17-2.39,6.1-4.69,8.19-5.05,3.28-.56,11.13-.19,12.11,5.53Z" fill="#ee2d02"/>
      <path id="Trazado_898802" data-name="Trazado 898802" d="M41.18,26.19A10.183,10.183,0,0,1,40.15,30l-.03.04A5.29,5.29,0,0,0,37,29h-.07a5.766,5.766,0,0,0-4.8,2.82,7.176,7.176,0,0,0-6.11-2.16c.61-2.7-1.33-4.05-4.02-4.66a2.719,2.719,0,0,0-1.24-1.69,16.83,16.83,0,0,1,2.4-2.13c1.99.5,3.8,1.54,4.14,3.12a1.987,1.987,0,0,0,1.66,1.59,7.545,7.545,0,0,1,3.13,1.14,1.988,1.988,0,0,0,2.42-.29,5.434,5.434,0,0,1,3.66-1.47h.07a5.2,5.2,0,0,1,2.94.92Z" fill="#c92206"/>
      <path id="Trazado_898803" data-name="Trazado 898803" d="M42.42,33h1.61l-.42,4.3c-.29-1.12-.58-2.25-.88-3.38A7.1,7.1,0,0,0,42.42,33Z" fill="#9ac2d8"/>
      <path id="Trazado_898804" data-name="Trazado 898804" d="M62.01,33.08,62,33H57.4c-.62,2.42-1.43,5.59-2.24,8.76A7,7,0,0,1,52,55a1.477,1.477,0,0,1-.21-.01,5.008,5.008,0,0,1-4.92,4.09A5.119,5.119,0,0,1,46,59a4.95,4.95,0,0,1-2.22-1l-.33-.38A9.891,9.891,0,0,1,37,60h-.07a9.826,9.826,0,0,1-4.52-1.09A9.93,9.93,0,0,1,28.95,56l-.11-.03A7.746,7.746,0,0,1,26,60a7.832,7.832,0,0,1-4.68,1.54,8.209,8.209,0,0,1-6.52-3.25,7.727,7.727,0,0,1-2.82-1.65,7.642,7.642,0,0,1-2.23-8.17,2.245,2.245,0,0,1-1.36-.57A4.3,4.3,0,0,1,7.2,45.29a2.082,2.082,0,0,1-.32-.4c-.82-.71-2.31-1.98-2.65-3.06-1.01-3.15,1.16-6.84,4.32-7.85A3.855,3.855,0,0,1,7.92,33H2l-.01.08A72.175,72.175,0,0,0,1,45,18,18,0,0,0,19,63H45A18,18,0,0,0,63,45,72.175,72.175,0,0,0,62.01,33.08Z" fill="#9ac2d8"/>
      <path id="Trazado_898805" data-name="Trazado 898805" d="M63,45A18,18,0,0,1,45,63H19A17.891,17.891,0,0,1,5.32,56.68,17.863,17.863,0,0,0,17,61H43A18,18,0,0,0,61,43a71.214,71.214,0,0,0-.7-10H62l.01.08A72.175,72.175,0,0,1,63,45Z" fill="#73bde5"/>
      <path id="Trazado_898806" data-name="Trazado 898806" d="M22,63H19A18.03,18.03,0,0,1,1,45a72.175,72.175,0,0,1,.99-11.92L2,33H5l-.01.08A72.175,72.175,0,0,0,4,45,18.03,18.03,0,0,0,22,63Z" fill="#b9deef"/>
      <path id="Trazado_898807" data-name="Trazado 898807" d="M11,1A10,10,0,1,1,1,11,10,10,0,0,1,11,1Zm-.56,15.83,6.19-8.67L13.37,5.84,9.56,11.17,7.2,9.4,4.8,12.6Z" fill="#ffca3a"/>
      <path id="Trazado_898808" data-name="Trazado 898808" d="M16.63,8.16l-6.19,8.67L4.8,12.6,7.2,9.4l2.36,1.77,3.81-5.33Z" fill="#8ac926"/>
      <path id="Trazado_898809" data-name="Trazado 898809" d="M19.39,47.75a9.942,9.942,0,0,0-1.71.99,9.121,9.121,0,0,0-.9.77l-.04-.05c-1.57,1.36-3.81.16-5.03-1.06a7.147,7.147,0,0,1-1.96.07,2.245,2.245,0,0,1-1.36-.57A4.3,4.3,0,0,1,7.2,45.29a2.082,2.082,0,0,1-.32-.4,4.983,4.983,0,0,1-.62-4.28,4.48,4.48,0,0,0,.62,1.28,2.082,2.082,0,0,0,.32.4A4.3,4.3,0,0,0,8.39,44.9a2.245,2.245,0,0,0,1.36.57,7.147,7.147,0,0,0,1.96-.07c1.03,1.03,2.79,2.05,4.26,1.52a2.813,2.813,0,0,0,3.32.63Z" fill="#7aa822"/>
      <path id="Trazado_898810" data-name="Trazado 898810" d="M20.75,39.48c.45.87-.1,2.15-.63,3.14.76,1.47,1.13,3.92-.83,4.93s-3.74-.7-4.5-2.18c-1.12-.14-2.48-.43-2.93-1.3a3.8,3.8,0,0,1-.25-2.68,4.166,4.166,0,0,1-.22-2.68A3.979,3.979,0,0,1,13.32,36a4.429,4.429,0,0,1,4.96,1.12,2.661,2.661,0,0,1,.43.6,3.153,3.153,0,0,1,1.18.68,3.819,3.819,0,0,1,.86,1.08Z" fill="#8ac926"/>
      <path id="Trazado_898811" data-name="Trazado 898811" d="M20.72,45.27a2.593,2.593,0,0,1-1.43,2.28c-1.96,1.01-3.74-.7-4.5-2.18-1.12-.14-2.48-.43-2.93-1.3a3.8,3.8,0,0,1-.25-2.68,4.166,4.166,0,0,1-.22-2.68,4.436,4.436,0,0,1,1-1.98,4.112,4.112,0,0,0,.22,2.66,3.8,3.8,0,0,0,.25,2.68c.45.87,1.81,1.16,2.93,1.3.76,1.48,2.54,3.19,4.5,2.18A2.122,2.122,0,0,0,20.72,45.27Z" fill="#7aa822"/>
      <path id="Trazado_898812" data-name="Trazado 898812" d="M31.08,14.61a.99.99,0,0,1,1.42,1.16l-.6,1.98v.33a15.939,15.939,0,0,0-2.95.18,11.266,11.266,0,0,0-2.86,1.03l-.1-.52L24.77,17.1a.989.989,0,0,1,.78-1.58.97.97,0,0,1,.17.01,1,1,0,0,0,1.06-.58l.55-1.24a.994.994,0,0,1,1.63-.28l.93.98a.98.98,0,0,0,.72.32,1,1,0,0,0,.47-.12Z" fill="#8ac926"/>
      <path id="Trazado_898813" data-name="Trazado 898813" d="M58.62,16.55c2.72.48,4.7,2.1,4.22,4.81s-2.09,4.71-4.81,4.23l-.05.03a7.723,7.723,0,0,0-5.34-4.03,6.228,6.228,0,0,0-1.15-.1,7.869,7.869,0,0,0-5.24,2.04l-.04-.04c-2.72-.48-3.54-2.9-3.06-5.62s2.9-3.55,5.62-3.07a5,5,0,1,1,9.85,1.75Z" fill="#8ac926"/>
      <path id="Trazado_898814" data-name="Trazado 898814" d="M43.037,19.3c.009,2.094.946,3.8,3.173,4.188l.04.04a7.869,7.869,0,0,1,5.24-2.04,6.228,6.228,0,0,1,1.15.1,7.723,7.723,0,0,1,5.34,4.03l.05-.03c2.72.48,4.33-1.51,4.81-4.23a3.632,3.632,0,0,0-1.918-4.014c-5.08,3.013-10.978,3.988-17.885,1.956Z" fill="#7aa822"/>
      <path id="Trazado_898815" data-name="Trazado 898815" d="M57.98,25.62a5,5,0,0,1,.51,3.1s-.08.3-.22.85L45,27.21l-.39-.04.09-.9a5.021,5.021,0,0,1,1.55-2.74,7.869,7.869,0,0,1,5.24-2.04,6.228,6.228,0,0,1,1.15.1,7.723,7.723,0,0,1,5.34,4.03Z" fill="#f26a07"/>
      <path id="Trazado_898816" data-name="Trazado 898816" d="M55.16,41.76A7,7,0,0,1,52,55a1.477,1.477,0,0,1-.21-.01A7.018,7.018,0,0,1,45,48a7,7,0,0,1,6.96-7H52a6.856,6.856,0,0,1,3.16.76ZM53,46a2,2,0,1,0-2,2A2.006,2.006,0,0,0,53,46Z" fill="#6a4c93"/>
      <path id="Trazado_898817" data-name="Trazado 898817" d="M59,48a7,7,0,0,1-7,7,1.477,1.477,0,0,1-.21-.01,6.875,6.875,0,0,1-5.12-2.47,6.787,6.787,0,0,1-1.61-3.66,2.56,2.56,0,0,0,.2.26,6.875,6.875,0,0,0,5.12,2.47,1.477,1.477,0,0,0,.21.01,7,7,0,0,0,7-7,6.543,6.543,0,0,0-.06-.89A6.955,6.955,0,0,1,59,48Z" fill="#5c3d99"/>
      <path id="Trazado_898818" data-name="Trazado 898818" d="M57.576,24.918c-.42,1.462-.888,2.9-1.43,4.275l2.123.378c.14-.55.22-.85.22-.85a5,5,0,0,0-.51-3.1,6.4,6.4,0,0,0-.4-.7Z" fill="#e25b00"/>
      <path id="Trazado_898819" data-name="Trazado 898819" d="M45.272,39.812,51.96,41H52a6.856,6.856,0,0,1,3.16.76c.81-3.17,1.62-6.34,2.24-8.76.38-1.49.68-2.69.87-3.43l-2.123-.378C54.044,34.532,50.855,38.887,45.272,39.812Z" fill="#e25b00"/>
      <circle id="Elipse_11747" data-name="Elipse 11747" cx="2" cy="2" r="2" transform="translate(49 44)" fill="#828282"/>
      <path id="Trazado_898820" data-name="Trazado 898820" d="M44.25,39.63,51.96,41a6.976,6.976,0,0,0-6.08,3.6c-.13-.41-.3-.91-.47-1.42-.23-.69-.47-1.38-.62-1.82-.19-.57-.37-1.15-.54-1.73Z" fill="#e25b00"/>
      <path id="Trazado_898821" data-name="Trazado 898821" d="M46.67,52.52a6.875,6.875,0,0,0,5.12,2.47,5.008,5.008,0,0,1-4.92,4.09A5.119,5.119,0,0,1,46,59a4.95,4.95,0,0,1-2.22-1l-.33-.38a9.935,9.935,0,0,0,3.22-5.1Z" fill="#e25b00"/>
      <path id="Trazado_898822" data-name="Trazado 898822" d="M46.67,52.52A10.046,10.046,0,0,1,37,60h-.07a9.826,9.826,0,0,1-4.52-1.09A9.93,9.93,0,0,1,28.95,56l-.11-.03a8.093,8.093,0,0,0,.23-3.82A9.979,9.979,0,0,0,36.93,56H37a10.039,10.039,0,0,0,8.66-5.03,7.248,7.248,0,0,0,1.01,1.55Z" fill="#7aa822"/>
      <path id="Trazado_898823" data-name="Trazado 898823" d="M37,42c1.66,0,4,3.69,4,7s-2.34,4-4,4-4-.69-4-4S35.34,42,37,42Z" fill="#7d5a34"/>
      <path id="Trazado_898824" data-name="Trazado 898824" d="M41,49c0,3.31-2.34,4-4,4s-4-.69-4-4a8.007,8.007,0,0,1,.17-1.61A3.619,3.619,0,0,0,37,50a3.619,3.619,0,0,0,3.83-2.61A8.007,8.007,0,0,1,41,49Z" fill="#774d23"/>
      <path id="Trazado_898825" data-name="Trazado 898825" d="M14.8,58.29c-.03-.04-.06-.07-.09-.11-2.3-3.11.11-6.78,2.07-8.67a9.121,9.121,0,0,1,.9-.77,9.942,9.942,0,0,1,1.71-.99c2.28-1.08,5.64-1.8,7.77.43a4.113,4.113,0,0,1,.42.5,8.171,8.171,0,0,1,1.26,7.29A7.746,7.746,0,0,1,26,60a7.832,7.832,0,0,1-4.68,1.54,8.209,8.209,0,0,1-6.52-3.25Z" fill="#ee2d02"/>
      <path id="Trazado_898826" data-name="Trazado 898826" d="M28.84,55.97A7.746,7.746,0,0,1,26,60a7.832,7.832,0,0,1-4.68,1.54,8.209,8.209,0,0,1-6.52-3.25c-.03-.04-.06-.07-.09-.11a5.1,5.1,0,0,1-.29-5.44,3.7,3.7,0,0,0,.29.44c.03.04.06.07.09.11a8.209,8.209,0,0,0,6.52,3.25,7.848,7.848,0,0,0,7.49-5.47A8.115,8.115,0,0,1,28.84,55.97Z" fill="#c92206"/>
      <path id="Trazado_898827" data-name="Trazado 898827" d="M36.479,44.719a1,1,0,0,0,0,2A1,1,0,0,0,36.479,44.719Z" fill="#f9dec5"/>
      <path id="Trazado_898828" data-name="Trazado 898828" d="M4.344,45a1.7,1.7,0,0,0,0,3.4A1.7,1.7,0,0,0,4.344,45Z" fill="#e8f7f9"/>
      <path id="Trazado_898829" data-name="Trazado 898829" d="M5.606,48.767a1,1,0,0,0,0,2A1,1,0,0,0,5.606,48.767Z" fill="#e8f7f9"/>
      <g id="Grupo_1106869" data-name="Grupo 1106869">
        <path id="Trazado_898830" data-name="Trazado 898830" d="M36.812,21.688a.5.5,0,0,0,0,1A.5.5,0,0,0,36.812,21.688Z" fill="#f9e4e1"/>
        <path id="Trazado_898831" data-name="Trazado 898831" d="M48.437,24.688a.5.5,0,0,0,0,1A.5.5,0,0,0,48.437,24.688Z" fill="#f9e4e1"/>
        <g id="Grupo_1106868" data-name="Grupo 1106868">
          <path id="Trazado_898832" data-name="Trazado 898832" d="M6.408,3.932A1.5,1.5,0,0,0,7.557,6.7,1.5,1.5,0,0,0,6.408,3.932Z" fill="#f9e4e1"/>
          <path id="Trazado_898833" data-name="Trazado 898833" d="M4.894,6.319a.5.5,0,0,0,.383.923A.5.5,0,0,0,4.894,6.319Z" fill="#f9e4e1"/>
        </g>
        <path id="Trazado_898834" data-name="Trazado 898834" d="M24.375,49.061a.647.647,0,0,0,0,1.294A.647.647,0,0,0,24.375,49.061Z" fill="#f9e4e1"/>
      </g>
      <path id="Trazado_898835" data-name="Trazado 898835" d="M55.167,44a.667.667,0,0,0,0,1.333A.667.667,0,0,0,55.167,44Z" fill="#efe8f9"/>
      <path id="Trazado_898836" data-name="Trazado 898836" d="M50.25,23.375a1,1,0,0,0,0,2A1,1,0,0,0,50.25,23.375Z" fill="#f9e4e1"/>
      <path id="Trazado_898837" data-name="Trazado 898837" d="M35.312,20.125a1,1,0,0,0,0,2A1,1,0,0,0,35.312,20.125Z" fill="#f9e4e1"/>
      <g id="Grupo_1106870" data-name="Grupo 1106870">
        <path id="Trazado_898838" data-name="Trazado 898838" d="M11,22A11,11,0,1,0,0,11,11.013,11.013,0,0,0,11,22ZM11,2a9,9,0,1,1-9,9A9.01,9.01,0,0,1,11,2Z" fill="#472b3c"/>
        <path id="Trazado_898839" data-name="Trazado 898839" d="M10.438,17.828a.986.986,0,0,0,.153-.012,1,1,0,0,0,.661-.407l6.19-8.666a1,1,0,0,0-.232-1.394L13.954,5.024a1,1,0,0,0-1.4.232l-3.215,4.5L7.8,8.6a1,1,0,0,0-1.4.2L4,12a1,1,0,0,0,.2,1.4l5.638,4.229a1,1,0,0,0,.6.2ZM7.4,10.8l1.563,1.172a1,1,0,0,0,1.414-.219L13.6,7.232l1.628,1.163-5.014,7.02L6.2,12.4Z" fill="#472b3c"/>
        <path id="Trazado_898840" data-name="Trazado 898840" d="M37,54c2.417,0,5-1.313,5-5,0-3.419-2.472-8-5-8s-5,4.581-5,8C32,52.687,34.583,54,37,54Zm0-11c.817,0,3,2.918,3,6a2.659,2.659,0,0,1-3,3,2.659,2.659,0,0,1-3-3C34,45.918,36.183,43,37,43Z" fill="#472b3c"/>
        <path id="Trazado_898841" data-name="Trazado 898841" d="M62.986,32.836A1,1,0,0,0,62,32H58.68l.792-3.108a5.658,5.658,0,0,0-.077-2.283A4.368,4.368,0,0,0,61.967,25.4a6.99,6.99,0,0,0,1.857-3.856c.485-2.729-1.119-4.92-4.13-5.768A6,6,0,0,0,48.028,13.7a6.486,6.486,0,0,0-3.343.534,4.543,4.543,0,0,0-2.521,3.459c-.524,2.951.429,5.254,2.442,6.282a5.755,5.755,0,0,0-.9,2.195L43.128,32h-.1a7.8,7.8,0,0,0-1.685-2.223,11.08,11.08,0,0,0,.7-6.16c-.494-2.869-2.532-4.912-5.9-5.907a15.709,15.709,0,0,0-3.018-.56l.33-1.09a1.992,1.992,0,0,0-2.846-2.334l-.931-.983a1.995,1.995,0,0,0-3.271.564l-.543,1.233a1.994,1.994,0,0,0-1.908,3.153l.883,1.2a21.573,21.573,0,0,0-4.3,3.217,9.584,9.584,0,0,0-5.783-.082,9.483,9.483,0,0,0-4.581,2.314,4.1,4.1,0,0,0-1.254,3.273,7.094,7.094,0,0,0-2.063,2.947A3.923,3.923,0,0,0,6.672,32H2a1.091,1.091,0,0,0-1,.918A73.665,73.665,0,0,0,0,45,19.021,19.021,0,0,0,19,64H45A19.021,19.021,0,0,0,64,45,73.882,73.882,0,0,0,62.986,32.836Zm-5.462-4.421-11.805-2.1c.572-2.65,4.117-4.212,6.751-3.75C55.127,23.042,57.945,25.777,57.524,28.415ZM44.133,18.043a2.554,2.554,0,0,1,1.424-2.008,5.049,5.049,0,0,1,3.039-.247,1,1,0,0,0,1.16-.81,4,4,0,0,1,7.877,1.4,1,1,0,0,0,.809,1.159c1.185.211,3.888.988,3.415,3.654a5.041,5.041,0,0,1-1.278,2.768,2.459,2.459,0,0,1-2,.676,8.165,8.165,0,0,0-.823-1.139,8.707,8.707,0,0,0-4.938-2.9,8.806,8.806,0,0,0-6.781,1.819c-2.293-.65-2.107-3.247-1.907-4.375ZM45.5,28.312,57.036,30.36,56.618,32H45.137ZM20.188,60.45a7.209,7.209,0,0,1-4.67-2.859c-2.384-3.228,1.57-7.169,2.759-8.047A10.446,10.446,0,0,1,22.509,47.8a6.7,6.7,0,0,1,1-.08,3.831,3.831,0,0,1,3.268,1.555A7.093,7.093,0,0,1,25.406,59.2a6.882,6.882,0,0,1-5.218,1.254ZM8.853,34.928a1,1,0,0,0,.656-.679A.968.968,0,0,0,9.546,34h7.247l.276,1.117a5.026,5.026,0,0,0-4.2,0,4.652,4.652,0,0,0-2.1,2.376A5.5,5.5,0,0,0,6.29,38.707a4.4,4.4,0,0,0-1.19,2.5,5.686,5.686,0,0,1,3.753-6.279ZM30.151,34q-.226.852-.446,1.706c-.455,1.768-.926,3.6-1.508,5.341-.569,1.706-1.113,3.627-1.556,5.465a6.661,6.661,0,0,0-4.435-.692c-.191.029-.379.07-.567.11a4.261,4.261,0,0,0,.085-.611,6.144,6.144,0,0,0-.492-2.677c.528-1.078,1-2.471.405-3.62a4.326,4.326,0,0,0-.492-.722l2.6-4.3ZM12.5,40.932a3.216,3.216,0,0,1-.085-2.147,2.936,2.936,0,0,1,1.374-1.9,2.43,2.43,0,0,1,1.126-.259,3.56,3.56,0,0,1,2.916,1.547,1.242,1.242,0,0,0,.609.5.093.093,0,0,1,.01.005,2.85,2.85,0,0,1,1.417,1.259c.083.161.188.7-.622,2.207a1,1,0,0,0-.008.932,4.289,4.289,0,0,1,.5,2.116,1.625,1.625,0,0,1-.9,1.467c-1.755.908-3.141-1.721-3.154-1.747a1,1,0,0,0-.764-.533c-1.7-.213-2.078-.61-2.16-.771a2.847,2.847,0,0,1-.206-1.884,1,1,0,0,0-.053-.8ZM19.6,37l-.741-3h2.553ZM7.63,44.223c-.7-1.071-.951-3.079.072-4.1a3.463,3.463,0,0,1,2.594-.682,4.947,4.947,0,0,0,.252,2.027,5,5,0,0,0,.428,3.062c.594,1.149,2,1.571,3.186,1.765a5.778,5.778,0,0,0,2.281,2.151.968.968,0,0,0-.272.18,1.565,1.565,0,0,1-1.714.339,5.043,5.043,0,0,1-2.037-1.271,1,1,0,0,0-.855-.283c-1.623.24-2.233.018-2.462-.213a3.32,3.32,0,0,1-.9-1.906,1,1,0,0,0-.292-.706,2.3,2.3,0,0,1-.258-.332l.005-.005Zm2.88,5.285c.3-.006.588-.026.864-.057A6.869,6.869,0,0,0,13.9,50.886c.128.037.254.057.38.083a7.873,7.873,0,0,0-1.457,5.075c-.057-.049-.119-.091-.175-.142a6.687,6.687,0,0,1-2.141-6.394Zm17.877-1.424c-.013-.018-.029-.032-.042-.05.463-2.085,1.088-4.37,1.75-6.355.6-1.812,1.084-3.674,1.548-5.474.174-.675.348-1.35.528-2.022.017-.064.045-.121.063-.184H41.7c.019.063.046.12.063.184.18.672.354,1.347.527,2.021.464,1.8.944,3.663,1.548,5.476.088.263.209.616.344,1.006.205.594.437,1.269.623,1.84a7.923,7.923,0,0,0,.76,8.207A9.034,9.034,0,0,1,36.934,59a9.161,9.161,0,0,1-6.98-3.3,9.218,9.218,0,0,0-1.567-7.62Zm17.839-5.606c-.052-.15-.1-.3-.152-.443-.132-.383-.251-.729-.337-.987-.016-.047-.028-.1-.043-.144l2.014.358A7.95,7.95,0,0,0,46.226,42.478Zm.882,11.838a7.973,7.973,0,0,0,3.335,1.53A3.952,3.952,0,0,1,44.96,57.58a11.014,11.014,0,0,0,2.148-3.264ZM52,54a6,6,0,1,1,6-6A6.006,6.006,0,0,1,52,54Zm.058-14-7.011-1.246c-.147-.522-.288-1.038-.425-1.56l.316-3.2h11.17l-1.631,6.4A7.965,7.965,0,0,0,52.058,40ZM33.246,32A4.766,4.766,0,0,1,37,30a4.71,4.71,0,0,1,3.691,2Zm6.829-8.043a9.066,9.066,0,0,1-.435,4.683A6.309,6.309,0,0,0,36.934,28a6.62,6.62,0,0,0-4.94,2.36,8.367,8.367,0,0,0-4.863-1.781c-.044-1.572-.9-3.477-4.36-4.418a3.582,3.582,0,0,0-.563-.889c2.127-2,5.276-3.746,6.909-4.026a15.686,15.686,0,0,1,6.465.382c2.62.775,4.132,2.231,4.493,4.329Zm-14.511-7.44a1.99,1.99,0,0,0,2.126-1.163l.541-1.235.93.982a1.983,1.983,0,0,0,2.385.381l-.482,1.594a15.635,15.635,0,0,0-2.286.2,9.574,9.574,0,0,0-2.137.693ZM8.766,31.178a5.839,5.839,0,0,1,1.883-2.417,1,1,0,0,0,.322-1,2.042,2.042,0,0,1,.638-2.018,7.691,7.691,0,0,1,3.631-1.771c3.137-.773,5.408-.275,5.79,1.27a1,1,0,0,0,.751.735c3.851.867,3.426,2.754,3.267,3.464a1,1,0,0,0,1.149,1.2A6.111,6.111,0,0,1,30.858,32H24.524a.983.983,0,0,0-.417-.536,1,1,0,0,0-1.373.34l-.119.2H18.36l-.344-1.394a1,1,0,0,0-1.941.481L16.3,32H8.69a1.958,1.958,0,0,1,.076-.822ZM2,45a71.9,71.9,0,0,1,.852-11H6.314a7.552,7.552,0,0,0-3.035,8.138,9.2,9.2,0,0,0,2.88,3.455c.026.034.045.076.072.109a5.494,5.494,0,0,0,1.456,2.9,2.708,2.708,0,0,0,.849.571,8.659,8.659,0,0,0,2.774,8.205A8.924,8.924,0,0,0,14.2,59.131a9.185,9.185,0,0,0,3.9,2.822A17,17,0,0,1,2,45ZM45,62H24.33A8.894,8.894,0,0,0,26.594,60.8a8.8,8.8,0,0,0,2.569-3.013A11.225,11.225,0,0,0,37,61a10.958,10.958,0,0,0,6.384-2.059,5.961,5.961,0,0,0,9.167-2.968,7.987,7.987,0,0,0,3.765-14.7L58.17,34h2.978A71.627,71.627,0,0,1,62,45,17.019,17.019,0,0,1,45,62Z" fill="#472b3c"/>
        <path id="Trazado_898842" data-name="Trazado 898842" d="M51,43a3,3,0,1,0,3,3A3,3,0,0,0,51,43Zm0,4a1,1,0,1,1,1-1A1,1,0,0,1,51,47Z" fill="#472b3c"/>
      </g>
    </g>
  </g>
</svg>
