<svg xmlns="http://www.w3.org/2000/svg" width="42.31" height="42.31" viewBox="0 0 42.31 42.31">
  <g id="XMLID_2182_" transform="translate(0 -0.001)">
    <g id="XMLID_603_" transform="translate(0 0.001)">
      <path id="XMLID_604_" d="M441.92,36.491a.824.824,0,0,0,.584-.242l1.448-1.448a.826.826,0,0,0-1.169-1.169l-1.448,1.448a.826.826,0,0,0,.584,1.411Z" transform="translate(-404.643 -30.632)" fill="#65802c"/>
      <path id="XMLID_707_" d="M299.082,36.25a.826.826,0,0,0,1.169-1.169L298.8,33.634a.826.826,0,1,0-1.169,1.169Z" transform="translate(-272.817 -30.633)" fill="#65802c"/>
      <path id="XMLID_710_" d="M333.672,74.563a4.894,4.894,0,1,0-4.894-4.894A4.9,4.9,0,0,0,333.672,74.563Zm0-8.135a3.241,3.241,0,1,1-3.241,3.241A3.245,3.245,0,0,1,333.672,66.428Z" transform="translate(-301.609 -59.422)" fill="#65802c"/>
      <path id="XMLID_711_" d="M442.5,177.336a.826.826,0,1,0-1.169,1.169l1.448,1.448a.826.826,0,0,0,1.169-1.169Z" transform="translate(-404.644 -162.46)" fill="#65802c"/>
      <path id="XMLID_712_" d="M299.082,177.336l-1.448,1.448a.826.826,0,1,0,1.169,1.169l1.448-1.448a.826.826,0,1,0-1.169-1.169Z" transform="translate(-272.817 -162.46)" fill="#65802c"/>
      <path id="XMLID_713_" d="M467.228,114.827a.826.826,0,0,0,.826.826H470.1a.826.826,0,1,0,0-1.653h-2.047A.826.826,0,0,0,467.228,114.827Z" transform="translate(-428.618 -104.581)" fill="#65802c"/>
      <path id="XMLID_714_" d="M378.829,3.7a.826.826,0,0,0,.826-.826V.827a.826.826,0,1,0-1.653,0V2.875A.826.826,0,0,0,378.829,3.7Z" transform="translate(-346.767 -0.001)" fill="#65802c"/>
      <path id="XMLID_715_" d="M378,204.052V206.1a.826.826,0,1,0,1.653,0v-2.047a.826.826,0,1,0-1.653,0Z" transform="translate(-346.767 -186.432)" fill="#65802c"/>
      <path id="XMLID_716_" d="M264.829,115.654h2.047a.826.826,0,0,0,0-1.653h-2.047a.826.826,0,0,0,0,1.653Z" transform="translate(-242.187 -104.581)" fill="#65802c"/>
      <path id="XMLID_719_" d="M41.483,40.658H30.1V38.344h9.587a1.983,1.983,0,0,0,1.914-2.5l-3.14-11.569a1.987,1.987,0,0,0-1.914-1.464H17.394a1.987,1.987,0,0,0-1.914,1.464l-1.557,5.737V17.459l3.26,1.882a6.738,6.738,0,0,0,3.361.895A6.661,6.661,0,0,0,22.3,20a.83.83,0,0,0,.579-1.015,6.657,6.657,0,0,0-3.123-4.074l-5.753-3.321v-6.6A6.659,6.659,0,0,0,12.037.243a.826.826,0,0,0-1.165,0A6.744,6.744,0,0,0,8.883,5v6.6l-5.73,3.308A6.659,6.659,0,0,0,.029,18.99.826.826,0,0,0,.609,20a6.66,6.66,0,0,0,1.759.235,6.74,6.74,0,0,0,3.361-.895l3.237-1.869v7.609a.826.826,0,1,0,1.653,0V16.518l.838-.484.815.47V40.658H10.618v-8.14a.826.826,0,1,0-1.653,0v8.14H.827a.826.826,0,1,0,0,1.653H41.483a.826.826,0,0,0,0-1.653ZM12.635,13.083a1.191,1.191,0,1,1-1.191-1.191A1.192,1.192,0,0,1,12.635,13.083Zm8.342,5.482a5.086,5.086,0,0,1-2.967-.656l-4.679-2.7a2.843,2.843,0,0,0,.9-1.577l4.7,2.712A5.009,5.009,0,0,1,20.977,18.565ZM11.452,2.106a5.012,5.012,0,0,1,.9,2.882v5.4a2.832,2.832,0,0,0-1.818,0V5A5.085,5.085,0,0,1,11.452,2.106ZM4.9,17.91a5.081,5.081,0,0,1-2.968.656,5.01,5.01,0,0,1,2.045-2.222l4.677-2.7a2.844,2.844,0,0,0,.911,1.573ZM20.79,36.691l.4-2.975h4.945v2.975Zm-6.535,0a.331.331,0,0,1-.319-.417l.694-2.558h4.9l-.4,2.975Zm1.631-7.6h4.268l-.4,2.975H15.078Zm10.252-4.628v2.975H22.046l.4-2.975Zm5.342,0,.4,2.975H27.791V24.461Zm7.386,7.6H34.179l-.4-2.975h4.282Zm-6.354,0H27.791V29.089h4.317Zm-6.373-2.975v2.975h-4.72l.4-2.975Zm1.653,4.628h4.945l.4,2.975H27.791Zm12.161,2.845a.325.325,0,0,1-.263.13H34.807l-.4-2.975h4.91l.694,2.558A.325.325,0,0,1,39.952,36.562ZM36.868,24.705l.741,2.731H33.551l-.4-2.975h3.4a.331.331,0,0,1,.319.244Zm-19.474-.244h3.387l-.4,2.975H16.334l.741-2.731A.331.331,0,0,1,17.394,24.461ZM13.924,38.317a2.016,2.016,0,0,0,.331.028h9.566v2.314h-9.9Zm11.55,2.341V38.344h2.975v2.314Z" transform="translate(0 -0.001)" fill="#65802c"/>
      <path id="XMLID_737_" d="M109.318,340.152a.827.827,0,1,0-.584-.242A.829.829,0,0,0,109.318,340.152Z" transform="translate(-99.527 -310.527)" fill="#65802c"/>
    </g>
  </g>
</svg>
