<svg xmlns="http://www.w3.org/2000/svg" width="60" height="60" viewBox="0 0 60 60">
  <g id="Grupo_1107183" data-name="Grupo 1107183" transform="translate(-205 -602)">
    <rect id="Rectángulo_402770" data-name="Rectángulo 402770" width="60" height="60" transform="translate(205 602)" fill="#ecdb9f"/>
    <g id="Grupo_1107188" data-name="Grupo 1107188" transform="translate(106.858 526.9)">
      <path id="Trazado_899729" data-name="Trazado 899729" d="M483.51,425.266a2.173,2.173,0,0,1-2.029-1.4l-4.087-10.573a.812.812,0,1,1,1.514-.585L483,423.283a.029.029,0,0,1,0,.006.548.548,0,0,0,.7.319l12.681-4.779a.547.547,0,0,0,.318-.7l-6.33-16.8a.547.547,0,0,0-.7-.318l-10.689,4.027a.813.813,0,1,1-.572-1.522l10.688-4.027a2.172,2.172,0,0,1,2.795,1.264l6.332,16.806a2.173,2.173,0,0,1-1.265,2.795l-12.68,4.778A2.158,2.158,0,0,1,483.51,425.266Z" transform="translate(-350.347 -299.349)" fill="#87ab3a"/>
      <path id="Trazado_899730" data-name="Trazado 899730" d="M569.65,508.14a3.039,3.039,0,1,1,2.84-4.108h0a3.039,3.039,0,0,1-2.84,4.108Zm0-4.455a1.416,1.416,0,1,0,1.324.917h0A1.42,1.42,0,0,0,569.65,503.684Z" transform="translate(-435.086 -396.856)" fill="#87ab3a"/>
      <path id="Trazado_899731" data-name="Trazado 899731" d="M582.391,640.005a.812.812,0,0,1-.286-1.572l8.182-3.083a.811.811,0,1,1,.572,1.519l-8.183,3.085A.813.813,0,0,1,582.391,640.005Z" transform="translate(-449.296 -523.334)" fill="#87ab3a"/>
      <path id="Trazado_899740" data-name="Trazado 899740" d="M590.57,640.005a.812.812,0,0,0,.286-1.572l-8.183-3.083a.811.811,0,1,0-.572,1.519l8.183,3.085A.813.813,0,0,0,590.57,640.005Z" transform="translate(-499.428 -491.502) rotate(-3)" fill="#87ab3a"/>
      <path id="Trazado_899732" data-name="Trazado 899732" d="M612.841,720.895a.812.812,0,0,1-.286-1.572l8.183-3.083a.811.811,0,1,1,.572,1.519l-8.182,3.082A.811.811,0,0,1,612.841,720.895Z" transform="translate(-478.202 -600.121)" fill="#87ab3a"/>
      <path id="Trazado_899741" data-name="Trazado 899741" d="M621.02,720.895a.812.812,0,0,0,.286-1.572l-8.183-3.083a.811.811,0,1,0-.572,1.519l8.183,3.082A.811.811,0,0,0,621.02,720.895Z" transform="translate(-535.398 -566.508) rotate(-3)" fill="#87ab3a"/>
      <path id="Trazado_899733" data-name="Trazado 899733" d="M122.733,378.65a2.948,2.948,0,0,1-.84-.123h0L110.368,375.1a2.935,2.935,0,0,1-1.974-3.645l4.683-15.739a2.942,2.942,0,0,1,1.5-1.785l7.371-3.684a2.939,2.939,0,0,1,3.842,1.143l4.156,7.115a2.942,2.942,0,0,1,.277,2.314l-4.683,15.736A2.936,2.936,0,0,1,122.733,378.65Zm-.377-1.679a1.308,1.308,0,0,0,1.626-.88l4.684-15.737a1.314,1.314,0,0,0-.124-1.03l-4.155-7.117a1.312,1.312,0,0,0-1.715-.51l-7.37,3.684a1.311,1.311,0,0,0-.669.8l-4.684,15.734a1.31,1.31,0,0,0,.881,1.627Z" transform="translate(0 -252.45)" fill="#87ab3a"/>
      <path id="Trazado_899734" data-name="Trazado 899734" d="M322.443,435.708a3.039,3.039,0,1,1,2.914-2.172A3.039,3.039,0,0,1,322.443,435.708Zm0-4.456a1.423,1.423,0,1,0,.406.06,1.406,1.406,0,0,0-.406-.06Z" transform="translate(-200.423 -328.099)" fill="#87ab3a"/>
      <path id="Trazado_899738" data-name="Trazado 899738" d="M436.816,92.471a3.109,3.109,0,0,1-2.463-1.328,5.086,5.086,0,0,1,0-5.815,2.949,2.949,0,0,1,4.926,0,5.086,5.086,0,0,1,0,5.815A3.109,3.109,0,0,1,436.816,92.471Zm0-6.847c-.951,0-1.753,1.2-1.753,2.612s.8,2.613,1.753,2.613,1.753-1.2,1.753-2.612S437.767,85.623,436.816,85.623Z" transform="translate(-308.674)" fill="#87ab3a"/>
      <path id="Trazado_899739" data-name="Trazado 899739" d="M399.913,234.966a.812.812,0,0,1-.812-.771,14.389,14.389,0,0,0-.561-3.072.084.084,0,0,0,0-.014,34.4,34.4,0,0,0-4.552-9.1,14.656,14.656,0,0,1-.536,1.533,37.73,37.73,0,0,1-2.3,4.544c-.587,1.014-1.249,2.095-1.965,3.205a.812.812,0,0,1-1.364-.88c.7-1.088,1.35-2.144,1.924-3.138,2.944-5.092,2.977-6.791,2.855-7.285a.812.812,0,0,1,1.424-.7,38.522,38.522,0,0,1,6.076,11.385l0,.015a16.024,16.024,0,0,1,.618,3.416v.051A.812.812,0,0,1,399.913,234.966Z" transform="translate(-265.247 -128.134)" fill="#87ab3a"/>
    </g>
  </g>
</svg>
