<svg xmlns="http://www.w3.org/2000/svg" width="120" height="120" viewBox="0 0 120 120">
  <g id="Grupo_1106861" data-name="Grupo 1106861" transform="translate(-955.333 -165)">
    <g id="Trazado_874102" data-name="Trazado 874102" transform="translate(955.333 165)" fill="#f3d02c">
      <path d="M 60.00000762939453 117.5000228881836 C 52.2364616394043 117.5000228881836 44.70646286010742 115.9800796508789 37.61917114257812 112.9824066162109 C 34.21260833740234 111.5415496826172 30.92677116394043 109.7580261230469 27.85295295715332 107.6814041137695 C 24.80769920349121 105.6240615844727 21.94397163391113 103.2612609863281 19.34137153625488 100.6586456298828 C 16.7387523651123 98.05604553222656 14.37595272064209 95.19231414794922 12.31862545013428 92.14706420898438 C 10.24198913574219 89.0732421875 8.458479881286621 85.78740692138672 7.017607688903809 82.38082885742188 C 4.01995325088501 75.29355621337891 2.500007629394531 67.7635498046875 2.500007629394531 60.00000762939453 C 2.500007629394531 52.2364616394043 4.01995325088501 44.70646286010742 7.017607688903809 37.61917114257812 C 8.458479881286621 34.21260833740234 10.24198913574219 30.92677116394043 12.31862545013428 27.85295295715332 C 14.37595272064209 24.80769920349121 16.7387523651123 21.94397163391113 19.34137153625488 19.34137153625488 C 21.94397163391113 16.7387523651123 24.80769920349121 14.37595272064209 27.85295295715332 12.31862545013428 C 30.92677116394043 10.24198913574219 34.21260833740234 8.458479881286621 37.61917114257812 7.017607688903809 C 44.70646286010742 4.01995325088501 52.2364616394043 2.500007629394531 60.00000762939453 2.500007629394531 C 67.7635498046875 2.500007629394531 75.29355621337891 4.01995325088501 82.38082885742188 7.017607688903809 C 85.78740692138672 8.458479881286621 89.0732421875 10.24198913574219 92.14706420898438 12.31862545013428 C 95.19231414794922 14.37595272064209 98.05604553222656 16.7387523651123 100.6586456298828 19.34137153625488 C 103.2612609863281 21.94397163391113 105.6240615844727 24.80769920349121 107.6814041137695 27.85295295715332 C 109.7580261230469 30.92677116394043 111.5415496826172 34.21260833740234 112.9824066162109 37.61917114257812 C 115.9800796508789 44.70646286010742 117.5000228881836 52.2364616394043 117.5000228881836 60.00000762939453 C 117.5000228881836 67.7635498046875 115.9800796508789 75.29355621337891 112.9824066162109 82.38082885742188 C 111.5415496826172 85.78740692138672 109.7580261230469 89.0732421875 107.6814041137695 92.14706420898438 C 105.6240615844727 95.19231414794922 103.2612609863281 98.05604553222656 100.6586456298828 100.6586456298828 C 98.05604553222656 103.2612609863281 95.19231414794922 105.6240615844727 92.14706420898438 107.6814041137695 C 89.0732421875 109.7580261230469 85.78740692138672 111.5415496826172 82.38082885742188 112.9824066162109 C 75.29355621337891 115.9800796508789 67.7635498046875 117.5000228881836 60.00000762939453 117.5000228881836 Z" stroke="none"/>
      <path d="M 60.00000762939453 4.999984741210938 C 52.57284545898438 4.999984741210938 45.37050628662109 6.4534912109375 38.59304809570312 9.320106506347656 C 35.33514404296875 10.69808959960938 32.19252777099609 12.40390777587891 29.25246429443359 14.39016723632812 C 26.33905029296875 16.35842895507812 23.59922790527344 18.61901092529297 21.109130859375 21.109130859375 C 18.61901092529297 23.59922790527344 16.35842895507812 26.33905029296875 14.39016723632812 29.25246429443359 C 12.40390777587891 32.19252777099609 10.69808959960938 35.33514404296875 9.320106506347656 38.59304809570312 C 6.4534912109375 45.37050628662109 4.999984741210938 52.57284545898438 4.999984741210938 60.00000762939453 C 4.999984741210938 67.42716979980469 6.4534912109375 74.62950897216797 9.320106506347656 81.40695190429688 C 10.69808959960938 84.66484832763672 12.40388488769531 87.80748748779297 14.39016723632812 90.74754333496094 C 16.35842895507812 93.66096496582031 18.61901092529297 96.40077209472656 21.109130859375 98.89088439941406 C 23.59922790527344 101.380989074707 26.33905029296875 103.6415710449219 29.25246429443359 105.6098251342773 C 32.19252777099609 107.5961074829102 35.33514404296875 109.3019104003906 38.59304809570312 110.6798858642578 C 45.37050628662109 113.5465087890625 52.57284545898438 115.0000076293945 60.00000762939453 115.0000076293945 C 67.42716979980469 115.0000076293945 74.62950897216797 113.5465087890625 81.40695190429688 110.6798858642578 C 84.66484832763672 109.3019104003906 87.80748748779297 107.5961074829102 90.74754333496094 105.6098251342773 C 93.66096496582031 103.6415710449219 96.40077209472656 101.380989074707 98.89088439941406 98.89088439941406 C 101.380989074707 96.40077209472656 103.6415710449219 93.66096496582031 105.6098251342773 90.74754333496094 C 107.5961074829102 87.80748748779297 109.3019104003906 84.66484832763672 110.6798858642578 81.40695190429688 C 113.5465087890625 74.62950897216797 115.0000076293945 67.42716979980469 115.0000076293945 60.00000762939453 C 115.0000076293945 52.57284545898438 113.5465087890625 45.37050628662109 110.6798858642578 38.59304809570312 C 109.3019104003906 35.33514404296875 107.5961074829102 32.19252777099609 105.6098251342773 29.25246429443359 C 103.6415710449219 26.33905029296875 101.380989074707 23.59922790527344 98.89088439941406 21.109130859375 C 96.40077209472656 18.61901092529297 93.66096496582031 16.35842895507812 90.74754333496094 14.39016723632812 C 87.80748748779297 12.40388488769531 84.66484832763672 10.69808959960938 81.40695190429688 9.320106506347656 C 74.62950897216797 6.4534912109375 67.42716979980469 4.999984741210938 60.00000762939453 4.999984741210938 M 60.00000762939453 -1.52587890625e-05 C 93.1370849609375 -1.52587890625e-05 120.0000076293945 26.86290740966797 120.0000076293945 60.00000762939453 C 120.0000076293945 93.1370849609375 93.1370849609375 120.0000076293945 60.00000762939453 120.0000076293945 C 26.86290740966797 120.0000076293945 -1.52587890625e-05 93.1370849609375 -1.52587890625e-05 60.00000762939453 C -1.52587890625e-05 26.86290740966797 26.86290740966797 -1.52587890625e-05 60.00000762939453 -1.52587890625e-05 Z" stroke="none" fill="#fff"/>
    </g>
    <g id="Grupo_1106882" data-name="Grupo 1106882" transform="translate(976.247 146.655)">
      <g id="Grupo_1106880" data-name="Grupo 1106880" transform="translate(1.145 49.345)">
        <g id="Grupo_1106879" data-name="Grupo 1106879" transform="translate(0 0)">
          <g id="Grupo_1106872" data-name="Grupo 1106872" transform="translate(17.666)">
            <path id="Trazado_898843" data-name="Trazado 898843" d="M139.671,72.593a6.437,6.437,0,0,0-.013-.756,6.266,6.266,0,0,0-12.512.492q0,.131.005.26a17.524,17.524,0,0,1-2.469,9.85,10.2,10.2,0,1,0,17.4-.1A17.009,17.009,0,0,1,139.671,72.593Z" transform="translate(-123.206 -66.063)" fill="#2db181"/>
            <path id="Trazado_898844" data-name="Trazado 898844" d="M187.629,87.724a10.205,10.205,0,0,1-10.356,10.2,10.023,10.023,0,0,1-2.11-.255,10.208,10.208,0,0,0,6.387-15.337,17.01,17.01,0,0,1-2.406-9.746,6.6,6.6,0,0,0-.014-.756,6.29,6.29,0,0,0-3.979-5.348,6.266,6.266,0,0,1,8.533,6.1,17.01,17.01,0,0,0,2.406,9.746A10.142,10.142,0,0,1,187.629,87.724Z" transform="translate(-167.219 -66.06)" fill="#1ca56f"/>
          </g>
          <g id="Grupo_1106873" data-name="Grupo 1106873" transform="translate(42.936 3.245)">
            <path id="Trazado_898845" data-name="Trazado 898845" d="M305.178,93.845a6.44,6.44,0,0,0-.013-.756,6.266,6.266,0,0,0-12.512.492q0,.131.005.26a17.524,17.524,0,0,1-2.469,9.85,10.2,10.2,0,1,0,17.4-.1A17.008,17.008,0,0,1,305.178,93.845Z" transform="translate(-288.713 -87.316)" fill="#99d53b"/>
            <path id="Trazado_898846" data-name="Trazado 898846" d="M349.131,108.98a10.205,10.205,0,0,1-10.356,10.2,10.061,10.061,0,0,1-1.382-.115,10.207,10.207,0,0,0,5.284-15.019,17.022,17.022,0,0,1-2.406-9.746,6.6,6.6,0,0,0-.012-.756,6.286,6.286,0,0,0-4.328-5.471,6.266,6.266,0,0,1,9.255,5.768,17.01,17.01,0,0,0,2.406,9.746,10.142,10.142,0,0,1,1.539,5.388Z" transform="translate(-328.721 -87.318)" fill="#8dc637"/>
          </g>
          <g id="Grupo_1106874" data-name="Grupo 1106874" transform="translate(26.34 14.618)">
            <path id="Trazado_898847" data-name="Trazado 898847" d="M198.548,161.8a8.726,8.726,0,0,0-4.255,1.119,8.728,8.728,0,0,0-4.255-1.119c-5.534,0-10.021,5.3-10.021,11.832s4.486,11.832,10.021,11.832a8.726,8.726,0,0,0,4.255-1.119,8.726,8.726,0,0,0,4.255,1.119c5.534,0,10.021-5.3,10.021-11.832S204.082,161.8,198.548,161.8Z" transform="translate(-180.017 -161.803)" fill="#fb4a59"/>
            <path id="Trazado_898848" data-name="Trazado 898848" d="M295.879,173.638c0,6.535-4.487,11.833-10.02,11.833a8.572,8.572,0,0,1-2.8-.47c4.17-1.432,7.216-5.977,7.216-11.362s-3.046-9.929-7.216-11.361a8.532,8.532,0,0,1,2.8-.47C291.392,161.807,295.879,167.1,295.879,173.638Z" transform="translate(-267.327 -161.806)" fill="#f82f40"/>
          </g>
          <g id="Grupo_1106875" data-name="Grupo 1106875" transform="translate(42.666 9.69)">
            <path id="Trazado_898849" data-name="Trazado 898849" d="M296.762,173.1a19.005,19.005,0,0,1-8.427-1.957,2.491,2.491,0,0,1,.644-4.682,25.694,25.694,0,0,0,20.68-26.516,19.085,19.085,0,0,1-12.9,33.154Z" transform="translate(-286.945 -138.359)" fill="#fac574"/>
            <path id="Trazado_898850" data-name="Trazado 898850" d="M358.142,154.016A19.086,19.086,0,0,1,339.056,173.1a19.315,19.315,0,0,1-2.2-.125,19.095,19.095,0,0,0,14.8-27.647,25.827,25.827,0,0,0,.289-5.382,19.029,19.029,0,0,1,6.19,14.069Z" transform="translate(-329.239 -138.356)" fill="#e8b66b"/>
            <path id="Trazado_898851" data-name="Trazado 898851" d="M433.753,132.533l-.89,4.241H428.3l-.89-4.241a2.49,2.49,0,0,1,2.437-3h1.472A2.49,2.49,0,0,1,433.753,132.533Z" transform="translate(-405.914 -129.53)" fill="#c76d3d"/>
            <path id="Trazado_898852" data-name="Trazado 898852" d="M442.708,132.529l-.89,4.241H438.59l.89-4.241a2.5,2.5,0,0,0-1.56-2.844,2.516,2.516,0,0,1,.878-.157h1.472A2.491,2.491,0,0,1,442.708,132.529Z" transform="translate(-414.869 -129.527)" fill="#aa5e33"/>
          </g>
          <g id="Grupo_1106876" data-name="Grupo 1106876" transform="translate(4.313 21.08)">
            <path id="Trazado_898853" data-name="Trazado 898853" d="M48.057,204.717a7.873,7.873,0,0,0-3.16,2.4,7.873,7.873,0,0,0-3.933.536c-4.613,1.911-6.523,7.875-4.267,13.321s7.824,8.313,12.437,6.4a7.874,7.874,0,0,0,3.16-2.4,7.873,7.873,0,0,0,3.933-.536c4.613-1.911,6.523-7.875,4.267-13.321S52.669,202.807,48.057,204.717Z" transform="translate(-35.749 -204.125)" fill="#fac574"/>
            <path id="Trazado_898854" data-name="Trazado 898854" d="M111.21,224.443a7.792,7.792,0,0,1-2.092.539c2.8-2.675,3.672-7.379,1.861-11.75-1.921-4.64-6.248-7.408-10.34-6.942a7.743,7.743,0,0,1,2.4-1.57c4.612-1.912,10.181.956,12.437,6.4S115.823,222.531,111.21,224.443Z" transform="translate(-90.732 -204.127)" fill="#e8b66b"/>
          </g>
          <g id="Grupo_1106878" data-name="Grupo 1106878" transform="translate(0 35.255)">
            <g id="Grupo_1106877" data-name="Grupo 1106877" transform="translate(3.635 4.731)">
              <path id="Trazado_898855" data-name="Trazado 898855" d="M99.921,327.955c0,10.979-12.558,19.88-28.049,19.88H59.359c-15.491,0-28.049-8.9-28.049-19.88Z" transform="translate(-31.31 -327.955)" fill="#d67f4f"/>
              <path id="Trazado_898856" data-name="Trazado 898856" d="M31.31,327.955a15.228,15.228,0,0,0,2.769,8.616H84.192a2.292,2.292,0,0,1,1.482,4.037c-5.145,4.414-12.927,7.228-21.636,7.228h7.834c15.491,0,28.049-8.9,28.049-19.88Z" transform="translate(-31.31 -327.955)" fill="#c76d3d"/>
            </g>
            <path id="Trazado_898857" data-name="Trazado 898857" d="M79.119,305.5H11.763a4.263,4.263,0,1,1,0-8.526H79.119a4.263,4.263,0,1,1,0,8.526Z" transform="translate(-7.5 -296.969)" fill="#e09977"/>
            <path id="Trazado_898858" data-name="Trazado 898858" d="M452.212,301.233a4.264,4.264,0,0,1-4.263,4.263H442.79a4.263,4.263,0,0,0,0-8.526h5.159A4.263,4.263,0,0,1,452.212,301.233Z" transform="translate(-376.33 -296.97)" fill="#da875d"/>
          </g>
        </g>
      </g>
      <g id="Grupo_1106881" data-name="Grupo 1106881" transform="translate(0 46.333)">
        <path id="Trazado_898859" data-name="Trazado 898859" d="M78.172,88.864a5.414,5.414,0,0,0-5.408-5.408h-.9a20.239,20.239,0,0,0,2-8.76,20.028,20.028,0,0,0-1.9-8.564l.809-3.859a3.635,3.635,0,0,0-3.558-4.382H67.74a3.635,3.635,0,0,0-3.558,4.382l.844,4.023a24.611,24.611,0,0,1-.657,2.747c-.138-.266-.286-.528-.445-.784a15.838,15.838,0,0,1-2.234-9.091,7.552,7.552,0,0,0-.016-.891,7.446,7.446,0,0,0-5.435-6.568l.219-2.813,2.938-.277a1.145,1.145,0,1,0-.215-2.28l-5.5.518a1.145,1.145,0,0,0,.106,2.285c.036,0,.072,0,.109-.005l.25-.024-.182,2.341a7.332,7.332,0,0,0-4.726,1.979,7.437,7.437,0,0,0-2.36,5.423c0,.1,0,.205.006.307a17.254,17.254,0,0,1-.241,3.678c-.207-.014-.415-.023-.624-.023a9.69,9.69,0,0,0-2.849.428,6.393,6.393,0,0,1,1.444-3.392,1.145,1.145,0,1,0-1.6-1.638,9.233,9.233,0,0,0-2.2,5.182,9.688,9.688,0,0,0-3.269-.578,16.73,16.73,0,0,1-1.122-6.9,7.617,7.617,0,0,0-.016-.891,7.4,7.4,0,0,0-2.715-5.161,6.563,6.563,0,0,1,.658-.211,1.145,1.145,0,1,0-.585-2.214,8.333,8.333,0,0,0-2.5,1.1,7.4,7.4,0,0,0-7.3,1.638,7.437,7.437,0,0,0-2.36,5.423c0,.1,0,.206.006.307a16.369,16.369,0,0,1-2.3,9.209,11.345,11.345,0,0,0-1.577,4.678c-.135.049-.27.1-.4.154a8.876,8.876,0,0,0-1.7.934,9.955,9.955,0,0,1,.167-1.978,1.145,1.145,0,1,0-2.252-.418,12.106,12.106,0,0,0-.118,3.728,8.856,8.856,0,0,0-3.188.672C6.285,74.534,3.984,78.76,4.352,83.56a5.407,5.407,0,0,0,.061,10.618c1.485,4.555,5.1,8.67,10.2,11.6a37.087,37.087,0,0,0,18.22,4.581H45.343a38.4,38.4,0,0,0,14.564-2.79,1.145,1.145,0,1,0-.876-2.116,36.091,36.091,0,0,1-13.688,2.616H32.829a34.766,34.766,0,0,1-17.079-4.276,19.861,19.861,0,0,1-8.871-9.519H71.293a19.471,19.471,0,0,1-7.994,8.991,1.145,1.145,0,1,0,1.216,1.941c4.656-2.916,7.845-6.723,9.246-11.026a5.416,5.416,0,0,0,4.412-5.315ZM56.9,83.455a26.955,26.955,0,0,0,2.946-2.544A26.647,26.647,0,0,0,67.14,67.424h2.893a17.958,17.958,0,0,1-.749,16.031Zm9.8-22.777a1.34,1.34,0,0,1,1.044-.5h1.472A1.345,1.345,0,0,1,70.528,61.8l-.7,3.331H67.122l-.7-3.331A1.34,1.34,0,0,1,66.7,60.678ZM40.613,66.473a4.123,4.123,0,0,1-.969-.25,1.145,1.145,0,0,0-.962,2.079,7.4,7.4,0,0,0,2.938.529,10.566,10.566,0,0,0,3.064-.47,1.145,1.145,0,0,0-.663-2.192,9.129,9.129,0,0,1-1.118.264c0-.1,0-.332.005-.643a7.471,7.471,0,0,1,3.107-.681c4.116,0,7.758,3.509,8.659,8.344a1.145,1.145,0,0,0,2.252-.419,13.509,13.509,0,0,0-3.8-7.246,10.686,10.686,0,0,0-4.236-2.531,19.542,19.542,0,0,0,.277-4.186q0-.107,0-.214a5.121,5.121,0,0,1,5.5-5.107,5.134,5.134,0,0,1,4.729,4.7,5.28,5.28,0,0,1,.011.621,18.114,18.114,0,0,0,2.579,10.4,8.974,8.974,0,0,1,1.152,2.823,24.587,24.587,0,0,1-6.919,8.8,14.477,14.477,0,0,0,.738-2.663,1.145,1.145,0,0,0-2.255-.4,11.364,11.364,0,0,1-2.5,5.425H32.22a13.12,13.12,0,0,0-.959-6.474A13.5,13.5,0,0,0,28.9,73.188c.982-4.7,4.565-8.079,8.607-8.079a7.472,7.472,0,0,1,3.108.681c-.006.306,0,.54,0,.684Zm-19.348-.157A18.651,18.651,0,0,0,23.9,55.824q0-.106,0-.213a5.118,5.118,0,0,1,5.37-5.113,8.289,8.289,0,0,0-1,1.917,1.145,1.145,0,0,0-1.772,1.45,6.82,6.82,0,0,0,4.272,2.27,1.145,1.145,0,1,0,.262-2.275,4.092,4.092,0,0,1-.771-.168,5.809,5.809,0,0,1,1.379-2.474,5.128,5.128,0,0,1,2.481,3.988,5.289,5.289,0,0,1,.011.622A19.209,19.209,0,0,0,35.2,63.1a10.6,10.6,0,0,0-4.806,2.686,13.223,13.223,0,0,0-3.407,5.65,11.693,11.693,0,0,0-1.594-1A9.939,9.939,0,0,0,20.12,69.3a9.041,9.041,0,0,1,1.145-2.986Zm51.5,25.665H5.408a3.118,3.118,0,1,1,0-6.236H15.1a1.145,1.145,0,0,0,0-2.29H6.64c-.318-3.834,1.434-7.184,4.471-8.442a6.7,6.7,0,0,1,3.365-.457,1.144,1.144,0,0,0,1.026-.425,6.7,6.7,0,0,1,2.7-2.056,7.221,7.221,0,0,1,6.14.4,10.5,10.5,0,0,1,4.8,5.38,10.794,10.794,0,0,1,.766,5.6H20.083a1.145,1.145,0,1,0,0,2.29H72.764a3.118,3.118,0,0,1,0,6.236Z" transform="translate(0 -46.333)"/>
        <path id="Trazado_898860" data-name="Trazado 898860" d="M106.874,377.54a1.145,1.145,0,0,0-1.145-1.145h-3.072a1.145,1.145,0,1,0,0,2.29h3.072A1.145,1.145,0,0,0,106.874,377.54Z" transform="translate(-86.013 -326.001)"/>
        <path id="Trazado_898861" data-name="Trazado 898861" d="M119.851,405.431h3.072a1.145,1.145,0,1,0,0-2.29h-3.072a1.145,1.145,0,1,0,0,2.29Z" transform="translate(-100.582 -348.664)"/>
        <path id="Trazado_898862" data-name="Trazado 898862" d="M302.107,377.54a1.145,1.145,0,0,0-1.145-1.145H297.89a1.145,1.145,0,1,0,0,2.29h3.072A1.145,1.145,0,0,0,302.107,377.54Z" transform="translate(-251.438 -326.001)"/>
        <path id="Trazado_898863" data-name="Trazado 898863" d="M336.426,394.141a1.145,1.145,0,0,0,0,2.29H339.5a1.145,1.145,0,0,0,0-2.29Z" transform="translate(-284.09 -341.038)"/>
        <path id="Trazado_898864" data-name="Trazado 898864" d="M287.712,407.539a1.145,1.145,0,0,0,0,2.29h3.072a1.145,1.145,0,1,0,0-2.29Z" transform="translate(-242.814 -352.39)"/>
      </g>
    </g>
  </g>
</svg>
