<svg xmlns="http://www.w3.org/2000/svg" width="60" height="60" viewBox="0 0 60 60">
  <g id="Grupo_1107184" data-name="Grupo 1107184" transform="translate(-205 -602)">
    <rect id="Rectángulo_402770" data-name="Rectángulo 402770" width="60" height="60" transform="translate(205 602)" fill="#ecdb9f"/>
    <g id="Grupo_1107195" data-name="Grupo 1107195" transform="translate(219.481 616.481)">
      <g id="Grupo_1107194" data-name="Grupo 1107194" transform="translate(0 0)">
        <g id="Grupo_1107190" data-name="Grupo 1107190" transform="translate(0 0)">
          <path id="Trazado_899748" data-name="Trazado 899748" d="M27.718,23.093l.923-11.272h.125a2.273,2.273,0,1,0,0-4.547h-.351a6.462,6.462,0,0,0-.66-1.743h.426A1.191,1.191,0,0,0,29.022,3.5L27.25,1.726a1.191,1.191,0,0,0-2.033.842V3a6.507,6.507,0,0,0-6.415.048,6.513,6.513,0,0,0-1.613-.71l.3-.3A1.191,1.191,0,0,0,16.649,0H14.143A1.191,1.191,0,0,0,13.3,2.033l.3.3a6.514,6.514,0,0,0-1.5.638A6.518,6.518,0,0,0,5.822,3V2.569a1.191,1.191,0,0,0-2.033-.842L2.016,3.5a1.191,1.191,0,0,0,.842,2.033h.426a6.47,6.47,0,0,0-.662,1.743h-.35a2.273,2.273,0,1,0,0,4.547H2.4L3.32,23.092a4.094,4.094,0,0,0-2.147,5.933.455.455,0,0,0,.783-.463,3.185,3.185,0,0,1,1.46-4.53,4.075,4.075,0,0,0,.542,1.421,1.667,1.667,0,1,0,2.379,1.8,4.1,4.1,0,0,0,1.106.152h.4A3.183,3.183,0,0,1,3.06,29.676a.455.455,0,1,0-.469.779A4.093,4.093,0,0,0,8.765,27.4H22.274a4.092,4.092,0,1,0,5.444-4.308Zm-2.132,3.791a4.1,4.1,0,0,0,.781-.566c.041-.038.08-.076.119-.115a.758.758,0,1,1-.9.743C25.583,26.926,25.585,26.905,25.586,26.884Zm.539-24.316a.282.282,0,0,1,.481-.2l1.772,1.772a.282.282,0,0,1-.2.481H27.143a6.609,6.609,0,0,0-.48-.537,6.476,6.476,0,0,0-.537-.478V2.568Zm-.106,2.16a5.57,5.57,0,0,1,1.46,2.546h-5.7a6.522,6.522,0,0,0-2.12-3.6l-.036-.03A5.574,5.574,0,0,1,26.019,4.729ZM15.4,2.993a5.649,5.649,0,0,1,5.449,4.281H9.947A5.648,5.648,0,0,1,15.4,2.993Zm-1.452-1.6a.282.282,0,0,1,.2-.481h2.506a.282.282,0,0,1,.2.481l-.735.735a6.267,6.267,0,0,0-1.435,0ZM2.859,4.623a.282.282,0,0,1-.2-.481L4.432,2.369a.282.282,0,0,1,.481.2V3.607a6.528,6.528,0,0,0-.537.479,6.614,6.614,0,0,0-.481.537Zm2.161.106a5.611,5.611,0,0,1,6.239-1.161c-.042.035-.085.068-.126.1a6.521,6.521,0,0,0-2.118,3.6H3.558A5.575,5.575,0,0,1,5.019,4.729Zm.437,22.218a.758.758,0,1,1-.9-.743c.039.039.079.078.119.115a4.1,4.1,0,0,0,.782.566C5.455,26.905,5.456,26.926,5.456,26.947ZM4.272,23.569,3.31,11.821H20.477a.455.455,0,0,0,0-.909H2.273a1.364,1.364,0,1,1,0-2.728H28.765a1.364,1.364,0,0,1,0,2.728H22.3a.455.455,0,1,0,0,.909h5.432l-.961,11.748a3.2,3.2,0,0,1-3.172,2.923H7.444a3.2,3.2,0,0,1-3.172-2.923Zm22.069,6.56A3.2,3.2,0,0,1,23.191,27.4h.4a4.1,4.1,0,0,0,1.106-.152,1.667,1.667,0,1,0,2.379-1.8,4.075,4.075,0,0,0,.542-1.42,3.183,3.183,0,0,1-1.282,6.1Z" transform="translate(0 0)" fill="#87ab3a"/>
        </g>
        <g id="Grupo_1107191" data-name="Grupo 1107191" transform="translate(13.255 14.336)">
          <path id="Trazado_899749" data-name="Trazado 899749" d="M221.6,237.769l.706,1.224-.354-.154a.455.455,0,1,0-.363.834l1.62.706a.455.455,0,0,0,.633-.366l.2-1.756a.455.455,0,1,0-.9-.1l-.043.384-.707-1.224a1.65,1.65,0,0,0-1.444-.834h0a1.65,1.65,0,0,0-1.444.834l-.786,1.362a.455.455,0,0,0,.788.455l.786-1.362a.758.758,0,0,1,1.312,0Z" transform="translate(-218.655 -236.481)" fill="#87ab3a"/>
        </g>
        <g id="Grupo_1107192" data-name="Grupo 1107192" transform="translate(15.334 18.837)">
          <path id="Trazado_899750" data-name="Trazado 899750" d="M256.841,310.957a.455.455,0,1,0-.787.455l.786,1.362a.758.758,0,0,1-.656,1.137H254.77l.311-.23a.455.455,0,0,0-.54-.731L253.119,314a.455.455,0,0,0,0,.731l1.421,1.05a.455.455,0,0,0,.54-.731l-.311-.23h1.413a1.667,1.667,0,0,0,1.444-2.5Z" transform="translate(-252.935 -310.729)" fill="#87ab3a"/>
        </g>
        <g id="Grupo_1107193" data-name="Grupo 1107193" transform="translate(10.788 17.78)">
          <path id="Trazado_899751" data-name="Trazado 899751" d="M181.252,297.529h-1.573a.758.758,0,0,1-.656-1.137l.707-1.224.043.384a.455.455,0,0,0,.451.4l.052,0a.455.455,0,0,0,.4-.5l-.2-1.756a.455.455,0,0,0-.633-.366l-1.62.706a.455.455,0,1,0,.363.834l.354-.154-.706,1.224a1.667,1.667,0,0,0,1.444,2.5h1.573a.455.455,0,1,0,0-.909Z" transform="translate(-177.951 -293.291)" fill="#87ab3a"/>
        </g>
      </g>
    </g>
  </g>
</svg>
