<svg xmlns="http://www.w3.org/2000/svg" width="60" height="60" viewBox="0 0 60 60">
  <g id="Grupo_1107185" data-name="Grupo 1107185" transform="translate(-205 -602)">
    <rect id="Rectángulo_402770" data-name="Rectángulo 402770" width="60" height="60" transform="translate(205 602)" fill="#ecdb9f"/>
    <g id="Grupo_1107189" data-name="Grupo 1107189" transform="translate(214.394 593.461)">
      <path id="Trazado_899742" data-name="Trazado 899742" d="M70.757,51.064a1.811,1.811,0,1,0,1.811-1.811A1.813,1.813,0,0,0,70.757,51.064Zm2.415,0a.6.6,0,1,1-.6-.6A.6.6,0,0,1,73.172,51.064Z" transform="translate(-65.062 -27.355)" fill="#87ab3a"/>
      <path id="Trazado_899743" data-name="Trazado 899743" d="M130.007,51.314a1.811,1.811,0,1,0,1.811-1.811A1.813,1.813,0,0,0,130.007,51.314Zm2.415,0a.6.6,0,1,1-.6-.6A.6.6,0,0,1,132.422,51.314Z" transform="translate(-119.543 -27.585)" fill="#87ab3a"/>
      <path id="Trazado_899744" data-name="Trazado 899744" d="M189.007,51.314a1.811,1.811,0,1,0,1.811-1.811A1.813,1.813,0,0,0,189.007,51.314Zm2.415,0a.6.6,0,1,1-.6-.6A.6.6,0,0,1,191.422,51.314Z" transform="translate(-173.794 -27.585)" fill="#87ab3a"/>
      <path id="Trazado_899745" data-name="Trazado 899745" d="M264.007,51.314a1.813,1.813,0,0,0,1.811,1.811h10.706a1.811,1.811,0,1,0,0-3.622H265.818A1.813,1.813,0,0,0,264.007,51.314Zm13.12,0a.6.6,0,0,1-.6.6H265.818a.6.6,0,0,1,0-1.207h10.706A.6.6,0,0,1,277.127,51.314Z" transform="translate(-242.757 -27.585)" fill="#87ab3a"/>
      <path id="Trazado_899746" data-name="Trazado 899746" d="M41.212,34.032a3.507,3.507,0,0,0-.332-1.484l-.015-.03L37.992,27.2V23.326A3.828,3.828,0,0,0,34.169,19.5H30.024a.6.6,0,1,0,0,1.207h4.145a2.619,2.619,0,0,1,2.616,2.616v3.421H4.427V23.326A2.619,2.619,0,0,1,7.043,20.71H27.206a.6.6,0,1,0,0-1.207H7.043A3.828,3.828,0,0,0,3.22,23.326V27.2L1.942,29.564A.6.6,0,1,0,3,30.137l1.179-2.183H9.064l-.686,4.707,0,.011a10.828,10.828,0,0,0-.086,1.359,3.264,3.264,0,0,1-3.26,3.26,3.35,3.35,0,0,1-3.823-3.26,2.676,2.676,0,0,1,.455-1.409A.6.6,0,1,0,.6,32.049,3.767,3.767,0,0,0,0,34.032a4.474,4.474,0,0,0,3.22,4.289V53.753a3.828,3.828,0,0,0,3.823,3.823H34.169a3.828,3.828,0,0,0,3.823-3.823V51.217a.6.6,0,0,0-1.207,0v2.536a2.619,2.619,0,0,1-2.616,2.616H7.043a2.619,2.619,0,0,1-2.616-2.616V38.5h.6a4.469,4.469,0,0,0,3.864-2.23,4.471,4.471,0,0,0,2.327,1.959.6.6,0,0,0,.415-1.134A3.272,3.272,0,0,1,9.5,34.032a9.958,9.958,0,0,1,.076-1.2l.71-4.874h5.895v6.077a3.272,3.272,0,0,1-2.139,3.062.6.6,0,0,0,.415,1.134,4.471,4.471,0,0,0,2.327-1.959,4.469,4.469,0,0,0,3.864,2.23h.08A4.469,4.469,0,0,0,24.59,36.27a4.463,4.463,0,0,0,7.727,0A4.469,4.469,0,0,0,36.181,38.5h.6v9.9a.6.6,0,1,0,1.207,0V38.321a4.474,4.474,0,0,0,3.22-4.289Zm-20.485,3.26h-.08a3.264,3.264,0,0,1-3.26-3.26V27.955h6.6v6.077A3.264,3.264,0,0,1,20.727,37.292Zm7.727,0a3.264,3.264,0,0,1-3.26-3.26V27.955H31l.643,4.866a11.031,11.031,0,0,1,.069,1.211A3.264,3.264,0,0,1,28.454,37.292Zm8.941-.065a6.387,6.387,0,0,1-1.214.065,3.264,3.264,0,0,1-3.26-3.26,11.866,11.866,0,0,0-.078-1.353v-.01l-.623-4.714h4.809l2.766,5.122a2.292,2.292,0,0,1,.21.955A3.265,3.265,0,0,1,37.4,37.227Z" transform="translate(0)" fill="#87ab3a"/>
      <path id="Trazado_899747" data-name="Trazado 899747" d="M138.5,285h7.636a.6.6,0,0,0,.592-.484l1.3-6.439a.608.608,0,0,0-.592-.723H133.825a2.23,2.23,0,0,0-2.186-1.851h-1.03a.6.6,0,1,0,0,1.207h1.03a1.011,1.011,0,0,1,.984.8l1.794,8.475a2.225,2.225,0,0,0,1.525,1.658,1.811,1.811,0,1,0,3.377.1h2.7a1.811,1.811,0,1,0,3.415,0h.144a.6.6,0,0,0,0-1.207h-9a1.011,1.011,0,0,1-.984-.8l-.155-.732H138.5Zm-.281,3.34a.6.6,0,1,1-.6-.6A.6.6,0,0,1,138.216,288.342Zm6.117,0a.6.6,0,1,1-.6-.6A.6.6,0,0,1,144.334,288.342Zm-2.253-6.56-.252,2.012h-2.8l-.252-2.012Zm-3.452-1.207-.252-2.012h4.106l-.252,2.012Zm4.417,3.22.252-2.012h2.748l-.406,2.012Zm3.244-3.22h-2.841l.252-2.012h3Zm-9.129-2.012.252,2.012h-2.9l-.426-2.012Zm-2.4,3.22h2.8l.252,2.012h-2.626Z" transform="translate(-119.542 -235.394)" fill="#87ab3a"/>
    </g>
  </g>
</svg>
