<svg xmlns="http://www.w3.org/2000/svg" width="47.501" height="59.345" viewBox="0 0 47.501 59.345">
  <g id="Grupo_1106615" data-name="Grupo 1106615" transform="translate(-51.092 0)">
    <path id="Trazado_898406" data-name="Trazado 898406" d="M93.468,307.69a6,6,0,1,0-6.732.007,8.639,8.639,0,0,0-4.248,4.086,8.6,8.6,0,0,0-4.274-4.093,6,6,0,1,0-6.732.007,8.639,8.639,0,0,0-4.248,4.086,8.6,8.6,0,0,0-4.274-4.093,6,6,0,1,0-6.732.007,8.639,8.639,0,0,0-5.135,7.89v3.664a2.435,2.435,0,0,0,2.432,2.433H72.814a.869.869,0,1,0,0-1.739H68.085v-4.358a6.758,6.758,0,1,1,13.515,0v4.358H76.871a.869.869,0,0,0,0,1.739H96.16a2.435,2.435,0,0,0,2.433-2.433v-3.764a8.515,8.515,0,0,0-5.125-7.8Zm-38.139-4.959a4.26,4.26,0,1,1,4.26,4.26,4.265,4.265,0,0,1-4.26-4.26Zm11.018,12.856v4.358H53.525a.7.7,0,0,1-.694-.694v-3.664a6.758,6.758,0,1,1,13.515,0Zm8.511-8.6h-.035a4.234,4.234,0,1,1,.035,0Zm10.98-4.26a4.26,4.26,0,1,1,4.26,4.26A4.265,4.265,0,0,1,85.837,302.731Zm11.018,16.52a.7.7,0,0,1-.694.694H83.339v-4.358a6.758,6.758,0,1,1,13.515-.1Z" transform="translate(0 -262.338)" fill="#65802c"/>
    <path id="Trazado_898407" data-name="Trazado 898407" d="M386.083,83.189a.869.869,0,0,0,.869.869h1.172a.869.869,0,0,0,0-1.739h-1.172A.869.869,0,0,0,386.083,83.189Z" transform="translate(-296.162 -72.778)" fill="#65802c"/>
    <path id="Trazado_898408" data-name="Trazado 898408" d="M101.671,82.32a.869.869,0,0,0,0,1.739h1.172a.869.869,0,1,0,0-1.739Z" transform="translate(-43.948 -72.778)" fill="#65802c"/>
    <path id="Trazado_898409" data-name="Trazado 898409" d="M369.1,8.589l-1.015.586a.869.869,0,1,0,.869,1.506l1.015-.586a.869.869,0,0,0-.869-1.506Z" transform="translate(-279.865 -7.491)" fill="#65802c"/>
    <path id="Trazado_898410" data-name="Trazado 898410" d="M122.037,151.23l-1.015.586a.869.869,0,1,0,.869,1.506l1.015-.586a.869.869,0,1,0-.869-1.506Z" transform="translate(-61.441 -133.598)" fill="#65802c"/>
    <path id="Trazado_898411" data-name="Trazado 898411" d="M368.083,152.735l1.015.586a.869.869,0,1,0,.869-1.506l-1.015-.586a.869.869,0,0,0-.869,1.506Z" transform="translate(-279.864 -133.597)" fill="#65802c"/>
    <path id="Trazado_898412" data-name="Trazado 898412" d="M122.907,9.175l-1.015-.586a.869.869,0,1,0-.869,1.506l1.015.586a.869.869,0,1,0,.869-1.506Z" transform="translate(-61.441 -7.49)" fill="#65802c"/>
    <path id="Trazado_898413" data-name="Trazado 898413" d="M173.915,1.745a9.011,9.011,0,0,1,9.074,6.843.869.869,0,0,0,1.69-.41,10.717,10.717,0,1,0-16.055,11.647,1.349,1.349,0,0,1,.625,1.143c0,.025,0,4.559,0,4.584a2.962,2.962,0,0,0,1.536,2.569v.71a3.482,3.482,0,0,0,6.963,0V28.12a2.972,2.972,0,0,0,1.536-2.6V21a1.4,1.4,0,0,1,.634-1.186,10.728,10.728,0,0,0,4.9-7.227.869.869,0,0,0-1.712-.3,8.987,8.987,0,0,1-4.1,6.054A3.146,3.146,0,0,0,177.546,21v.84h-2.41V13.514c0-.02,0-.039,0-.058h1.811a.869.869,0,1,0,0-1.739h-5.356a.869.869,0,0,0,0,1.739H173.4c0,.019,0,.039,0,.058v8.331h-2.41v-.877a3.1,3.1,0,0,0-1.446-2.62,8.977,8.977,0,0,1,4.374-16.6Zm2.094,27.086a1.743,1.743,0,0,1-3.486,0V28.5h3.486Zm1.536-5.248v1.941a1.246,1.246,0,0,1-1.253,1.235H172.24a1.241,1.241,0,0,1-1.253-1.214c0-.035,0-1.143,0-1.962h6.559Z" transform="translate(-99.424 0)" fill="#65802c"/>
  </g>
</svg>
