<svg xmlns="http://www.w3.org/2000/svg" width="120" height="120" viewBox="0 0 120 120">
  <g id="Grupo_1106607" data-name="Grupo 1106607" transform="translate(-955.333 -164.685)">
    <g id="Trazado_874102" data-name="Trazado 874102" transform="translate(955.333 164.685)" fill="#f3d02c">
      <path d="M 60.00000762939453 117.5000228881836 C 52.2364616394043 117.5000228881836 44.70646286010742 115.9800796508789 37.61917114257812 112.9824066162109 C 34.21260833740234 111.5415496826172 30.92677116394043 109.7580261230469 27.85295295715332 107.6814041137695 C 24.80769920349121 105.6240615844727 21.94397163391113 103.2612609863281 19.34137153625488 100.6586456298828 C 16.7387523651123 98.05604553222656 14.37595272064209 95.19231414794922 12.31862545013428 92.14706420898438 C 10.24198913574219 89.0732421875 8.458479881286621 85.78740692138672 7.017607688903809 82.38082885742188 C 4.01995325088501 75.29355621337891 2.500007629394531 67.7635498046875 2.500007629394531 60.00000762939453 C 2.500007629394531 52.2364616394043 4.01995325088501 44.70646286010742 7.017607688903809 37.61917114257812 C 8.458479881286621 34.21260833740234 10.24198913574219 30.92677116394043 12.31862545013428 27.85295295715332 C 14.37595272064209 24.80769920349121 16.7387523651123 21.94397163391113 19.34137153625488 19.34137153625488 C 21.94397163391113 16.7387523651123 24.80769920349121 14.37595272064209 27.85295295715332 12.31862545013428 C 30.92677116394043 10.24198913574219 34.21260833740234 8.458479881286621 37.61917114257812 7.017607688903809 C 44.70646286010742 4.01995325088501 52.2364616394043 2.500007629394531 60.00000762939453 2.500007629394531 C 67.7635498046875 2.500007629394531 75.29355621337891 4.01995325088501 82.38082885742188 7.017607688903809 C 85.78740692138672 8.458479881286621 89.0732421875 10.24198913574219 92.14706420898438 12.31862545013428 C 95.19231414794922 14.37595272064209 98.05604553222656 16.7387523651123 100.6586456298828 19.34137153625488 C 103.2612609863281 21.94397163391113 105.6240615844727 24.80769920349121 107.6814041137695 27.85295295715332 C 109.7580261230469 30.92677116394043 111.5415496826172 34.21260833740234 112.9824066162109 37.61917114257812 C 115.9800796508789 44.70646286010742 117.5000228881836 52.2364616394043 117.5000228881836 60.00000762939453 C 117.5000228881836 67.7635498046875 115.9800796508789 75.29355621337891 112.9824066162109 82.38082885742188 C 111.5415496826172 85.78740692138672 109.7580261230469 89.0732421875 107.6814041137695 92.14706420898438 C 105.6240615844727 95.19231414794922 103.2612609863281 98.05604553222656 100.6586456298828 100.6586456298828 C 98.05604553222656 103.2612609863281 95.19231414794922 105.6240615844727 92.14706420898438 107.6814041137695 C 89.0732421875 109.7580261230469 85.78740692138672 111.5415496826172 82.38082885742188 112.9824066162109 C 75.29355621337891 115.9800796508789 67.7635498046875 117.5000228881836 60.00000762939453 117.5000228881836 Z" stroke="none"/>
      <path d="M 60.00000762939453 4.999984741210938 C 52.57284545898438 4.999984741210938 45.37050628662109 6.4534912109375 38.59304809570312 9.320106506347656 C 35.33514404296875 10.69808959960938 32.19252777099609 12.40390777587891 29.25246429443359 14.39016723632812 C 26.33905029296875 16.35842895507812 23.59922790527344 18.61901092529297 21.109130859375 21.109130859375 C 18.61901092529297 23.59922790527344 16.35842895507812 26.33905029296875 14.39016723632812 29.25246429443359 C 12.40390777587891 32.19252777099609 10.69808959960938 35.33514404296875 9.320106506347656 38.59304809570312 C 6.4534912109375 45.37050628662109 4.999984741210938 52.57284545898438 4.999984741210938 60.00000762939453 C 4.999984741210938 67.42716979980469 6.4534912109375 74.62950897216797 9.320106506347656 81.40695190429688 C 10.69808959960938 84.66484832763672 12.40388488769531 87.80748748779297 14.39016723632812 90.74754333496094 C 16.35842895507812 93.66096496582031 18.61901092529297 96.40077209472656 21.109130859375 98.89088439941406 C 23.59922790527344 101.380989074707 26.33905029296875 103.6415710449219 29.25246429443359 105.6098251342773 C 32.19252777099609 107.5961074829102 35.33514404296875 109.3019104003906 38.59304809570312 110.6798858642578 C 45.37050628662109 113.5465087890625 52.57284545898438 115.0000076293945 60.00000762939453 115.0000076293945 C 67.42716979980469 115.0000076293945 74.62950897216797 113.5465087890625 81.40695190429688 110.6798858642578 C 84.66484832763672 109.3019104003906 87.80748748779297 107.5961074829102 90.74754333496094 105.6098251342773 C 93.66096496582031 103.6415710449219 96.40077209472656 101.380989074707 98.89088439941406 98.89088439941406 C 101.380989074707 96.40077209472656 103.6415710449219 93.66096496582031 105.6098251342773 90.74754333496094 C 107.5961074829102 87.80748748779297 109.3019104003906 84.66484832763672 110.6798858642578 81.40695190429688 C 113.5465087890625 74.62950897216797 115.0000076293945 67.42716979980469 115.0000076293945 60.00000762939453 C 115.0000076293945 52.57284545898438 113.5465087890625 45.37050628662109 110.6798858642578 38.59304809570312 C 109.3019104003906 35.33514404296875 107.5961074829102 32.19252777099609 105.6098251342773 29.25246429443359 C 103.6415710449219 26.33905029296875 101.380989074707 23.59922790527344 98.89088439941406 21.109130859375 C 96.40077209472656 18.61901092529297 93.66096496582031 16.35842895507812 90.74754333496094 14.39016723632812 C 87.80748748779297 12.40388488769531 84.66484832763672 10.69808959960938 81.40695190429688 9.320106506347656 C 74.62950897216797 6.4534912109375 67.42716979980469 4.999984741210938 60.00000762939453 4.999984741210938 M 60.00000762939453 -1.52587890625e-05 C 93.1370849609375 -1.52587890625e-05 120.0000076293945 26.86290740966797 120.0000076293945 60.00000762939453 C 120.0000076293945 93.1370849609375 93.1370849609375 120.0000076293945 60.00000762939453 120.0000076293945 C 26.86290740966797 120.0000076293945 -1.52587890625e-05 93.1370849609375 -1.52587890625e-05 60.00000762939453 C -1.52587890625e-05 26.86290740966797 26.86290740966797 -1.52587890625e-05 60.00000762939453 -1.52587890625e-05 Z" stroke="none" fill="#fff"/>
    </g>
    <g id="Grupo_1106612" data-name="Grupo 1106612" transform="translate(974.858 176.892)">
      <path id="Trazado_898344" data-name="Trazado 898344" d="M10.757,119.438c-1.215-.4-2.469-.752-3.174-3.786-.649,2.795-1.688,3.3-3.174,3.786,2.423.8,2.789,2.126,3.174,3.786C8.247,120.363,9.345,119.9,10.757,119.438Z" transform="translate(-1.84 -71.646)" fill="#f0c020"/>
      <path id="Trazado_898345" data-name="Trazado 898345" d="M4.948,121.57c-.352-1.517-.584-2.519-2.635-3.2a.817.817,0,0,1,0-1.549c1.235-.408,2.05-.678,2.635-3.2a.816.816,0,0,1,1.589,0c.6,2.576,1.492,2.82,2.635,3.2a.816.816,0,0,1,0,1.549c-1.19.393-2.051.678-2.635,3.2A.816.816,0,0,1,4.948,121.57Zm-.466-3.952a4.235,4.235,0,0,1,1.277,1.35,4.033,4.033,0,0,1,1.207-1.361,4.161,4.161,0,0,1-1.22-1.411A4.051,4.051,0,0,1,4.482,117.618Z" transform="translate(0 -69.807)"/>
      <path id="Trazado_898346" data-name="Trazado 898346" d="M237.243,119.438c-1.215-.4-2.469-.752-3.174-3.786-.649,2.795-1.688,3.3-3.174,3.786,2.423.8,2.789,2.126,3.174,3.786C234.733,120.363,235.831,119.9,237.243,119.438Z" transform="translate(-158.861 -71.646)" fill="#f0c020"/>
      <path id="Trazado_898347" data-name="Trazado 898347" d="M231.434,121.57c-.352-1.517-.584-2.519-2.635-3.2a.817.817,0,0,1,0-1.549c1.235-.408,2.05-.678,2.635-3.2a.816.816,0,0,1,1.589,0c.6,2.576,1.492,2.82,2.635,3.2a.816.816,0,0,1,0,1.549c-1.19.393-2.051.678-2.635,3.2A.816.816,0,0,1,231.434,121.57Zm-.466-3.952a4.235,4.235,0,0,1,1.277,1.35,4.033,4.033,0,0,1,1.207-1.361,4.161,4.161,0,0,1-1.22-1.411A4.048,4.048,0,0,1,230.968,117.618Z" transform="translate(-157.02 -69.807)"/>
      <path id="Trazado_898348" data-name="Trazado 898348" d="M84.393,57.725,80.3,55.366a28.665,28.665,0,0,0,0-11.68l4.088-2.359a2.938,2.938,0,0,0,1.073-4.012l-5.944-10.3a2.934,2.934,0,0,0-4.012-1.073l-4.092,2.362A28.481,28.481,0,0,0,61.31,22.462V17.745a2.937,2.937,0,0,0-2.935-2.935H46.484a2.937,2.937,0,0,0-2.935,2.935v4.717a28.481,28.481,0,0,0-10.109,5.846l-4.092-2.362a2.934,2.934,0,0,0-4.012,1.073l-5.944,10.3a2.938,2.938,0,0,0,1.073,4.012l4.088,2.359a28.809,28.809,0,0,0,0,11.68l-4.088,2.359a2.938,2.938,0,0,0-1.073,4.012l5.944,10.3a2.934,2.934,0,0,0,4.012,1.073l4.092-2.362a28.481,28.481,0,0,0,10.109,5.846v4.717a2.937,2.937,0,0,0,2.935,2.935H58.375a2.937,2.937,0,0,0,2.935-2.935V76.591a28.481,28.481,0,0,0,10.109-5.846l4.092,2.362a2.934,2.934,0,0,0,4.012-1.073l5.944-10.3A2.938,2.938,0,0,0,84.393,57.725ZM61.227,67.138A19.685,19.685,0,1,1,72.112,49.527,19.721,19.721,0,0,1,61.227,67.138Z" transform="translate(-11.955 -1.733)" fill="#13bf6d"/>
      <path id="Trazado_898349" data-name="Trazado 898349" d="M116.616,97.543a9.034,9.034,0,0,1-18.068,0c0-4.989,9.034-15.793,9.034-15.793S116.616,92.553,116.616,97.543Z" transform="translate(-67.106 -48.142)" fill="#13bf6d"/>
      <path id="Trazado_898350" data-name="Trazado 898350" d="M110.792,128.1a.767.767,0,1,1,.574-1.422,5.208,5.208,0,0,0,7.316-4.741c0-.331-.148-1.368-1.525-3.862a.767.767,0,0,1,1.343-.741,11.061,11.061,0,0,1,1.715,4.6A6.741,6.741,0,0,1,110.792,128.1ZM108,126.3c-.237-.217-.472-.45-.7-.692a.767.767,0,0,1,1.124-1.044c.2.212.4.415.608.6A.767.767,0,0,1,108,126.3Z" transform="translate(-73.033 -72.539)" fill="#76ffbb"/>
      <path id="Trazado_898351" data-name="Trazado 898351" d="M89.908,117a23.381,23.381,0,0,1-13.475-4.23.767.767,0,0,1,.879-1.257,21.986,21.986,0,0,0,29.537-32.026.767.767,0,0,1,1.181-.978A23.519,23.519,0,0,1,89.908,117Zm-15.942-6.218q-.349-.321-.686-.659a.767.767,0,1,1,1.084-1.084q.316.316.641.616a.767.767,0,1,1-1.039,1.127Z" transform="translate(-49.432 -45.703)" fill="#76ffbb"/>
      <path id="Trazado_898352" data-name="Trazado 898352" d="M112.179,100.1a.768.768,0,0,0-.206-1.064.786.786,0,0,0-1.064.2v0a.766.766,0,1,0,1.27.859Z" transform="translate(-75.583 -60.038)"/>
      <path id="Trazado_898353" data-name="Trazado 898353" d="M105.264,71.346c-.009.009-1.239,1.484-2.77,3.555a.771.771,0,0,0,.163,1.073.789.789,0,0,0,1.073-.163,0,0,0,0,1,0,0c.5-.678.963-1.284,1.35-1.781l0,14.961-5.972-5.972c.353-.693.761-1.421,1.22-2.172a.767.767,0,1,0-1.313-.794c-1.368,2.291-2.941,5.22-2.966,7.582a9.789,9.789,0,0,0,9.03,9.767v.8a6.87,6.87,0,0,0,6.827,6.867h0c4.746,0,14.388-7.425,14.388-19.038a20.527,20.527,0,0,0-11.753-18.5.786.786,0,0,0-1.021.365.764.764,0,0,0,.365,1.021,19.1,19.1,0,0,1,10.876,17.114c0,10.819-8.962,17.5-12.863,17.5a5.324,5.324,0,0,1-5.287-5.334v-.8a9.792,9.792,0,0,0,9.038-9.767c-.032-4.484-6.381-12.86-9.18-16.24A.768.768,0,0,0,105.264,71.346Zm-.184,24.517a8.3,8.3,0,0,1-7.5-8.23,8.6,8.6,0,0,1,.833-3.141l6.664,6.666Zm1.536-21.838c1.113,1.428,2.287,3.035,3.324,4.579l-3.325,3.325Zm0,10.073,4.181-4.184c1.147,1.809,3.355,5.569,3.322,7.719a8.3,8.3,0,0,1-7.5,8.231c0-6.9,0-4.421,0-11.766Z" transform="translate(-65.374 -38.232)"/>
      <path id="Trazado_898354" data-name="Trazado 898354" d="M27.623,181.8a.767.767,0,1,0,1.049.279A.791.791,0,0,0,27.623,181.8Z" transform="translate(-17.668 -117.439)"/>
      <path id="Trazado_898355" data-name="Trazado 898355" d="M17,35.2a3.7,3.7,0,0,0,1.356,5.058l3.61,2.086a29.622,29.622,0,0,0,0,10.9l-3.61,2.086A3.7,3.7,0,0,0,17,60.387l1.368,2.365a.784.784,0,0,0,1.046.282.767.767,0,0,0,.279-1.049L18.325,59.62a2.169,2.169,0,0,1,.794-2.963L23.2,54.3a.762.762,0,0,0,.368-.819,28.015,28.015,0,0,1,0-11.367.762.762,0,0,0-.368-.819l-4.085-2.362a2.166,2.166,0,0,1-.794-2.963l5.944-10.3a2.175,2.175,0,0,1,2.966-.794l4.092,2.365a.784.784,0,0,0,.9-.1,27.538,27.538,0,0,1,9.836-5.686.766.766,0,0,0,.524-.73V16.012a2.181,2.181,0,0,1,2.172-2.168H56.645a2.178,2.178,0,0,1,2.168,2.168v4.717a.765.765,0,0,0,.528.73,27.591,27.591,0,0,1,9.836,5.686.779.779,0,0,0,.893.1l4.095-2.365a2.173,2.173,0,0,1,2.963.794l5.944,10.3a2.171,2.171,0,0,1-.791,2.963l-4.088,2.362a.763.763,0,0,0-.368.819,28,28,0,0,1,0,11.367.763.763,0,0,0,.368.819l4.085,2.362a2.169,2.169,0,0,1,.794,2.963l-5.944,10.3a2.174,2.174,0,0,1-2.963.794L70.07,68.346a.779.779,0,0,0-.893.1,27.591,27.591,0,0,1-9.836,5.686.765.765,0,0,0-.528.73v4.717a2.178,2.178,0,0,1-2.168,2.168H44.754a2.181,2.181,0,0,1-2.172-2.168V74.857a.766.766,0,0,0-.524-.73,27.538,27.538,0,0,1-9.836-5.686.784.784,0,0,0-.9-.1l-4.095,2.365a2.176,2.176,0,0,1-2.963-.794L22.76,67.3a.788.788,0,0,0-1.049-.279.764.764,0,0,0-.279,1.046l1.509,2.619A3.714,3.714,0,0,0,28,72.039l3.619-2.089a29.112,29.112,0,0,0,9.434,5.456v4.168a3.706,3.706,0,0,0,3.7,3.7H56.645a3.71,3.71,0,0,0,3.7-3.7V75.406a29.147,29.147,0,0,0,9.434-5.456L73.4,72.039a3.706,3.706,0,0,0,5.058-1.356l5.944-10.3a3.7,3.7,0,0,0-1.356-5.058l-3.61-2.086a29.6,29.6,0,0,0,0-10.9l3.61-2.086A3.7,3.7,0,0,0,84.4,35.2L78.455,24.9A3.7,3.7,0,0,0,73.4,23.548l-3.616,2.089a29.144,29.144,0,0,0-9.434-5.456V16.012a3.71,3.71,0,0,0-3.7-3.7H44.754a3.706,3.706,0,0,0-3.7,3.7V20.18a29.112,29.112,0,0,0-9.434,5.456L28,23.548A3.706,3.706,0,0,0,22.941,24.9Z" transform="translate(-10.223)"/>
      <path id="Trazado_898356" data-name="Trazado 898356" d="M84.385,61.481a20.45,20.45,0,0,0-6.269,40.4.767.767,0,0,0,.273-1.509A18.917,18.917,0,0,1,84.189,63a.776.776,0,0,0,.859-.666.768.768,0,0,0-.662-.856Z" transform="translate(-41.303 -33.97)"/>
      <path id="Trazado_898357" data-name="Trazado 898357" d="M144.953,64.874a.763.763,0,0,0-.518-.951.783.783,0,0,0-.954.521.767.767,0,1,0,1.472.429Z" transform="translate(-98.236 -35.763)"/>
    </g>
  </g>
</svg>
