<svg xmlns="http://www.w3.org/2000/svg" width="120" height="120" viewBox="0 0 120 120">
  <g id="Grupo_1106617" data-name="Grupo 1106617" transform="translate(-955.333 -164.685)">
    <g id="Trazado_874102" data-name="Trazado 874102" transform="translate(955.333 164.685)" fill="#f3d02c">
      <path d="M 60.00000762939453 117.5000228881836 C 52.2364616394043 117.5000228881836 44.70646286010742 115.9800796508789 37.61917114257812 112.9824066162109 C 34.21260833740234 111.5415496826172 30.92677116394043 109.7580261230469 27.85295295715332 107.6814041137695 C 24.80769920349121 105.6240615844727 21.94397163391113 103.2612609863281 19.34137153625488 100.6586456298828 C 16.7387523651123 98.05604553222656 14.37595272064209 95.19231414794922 12.31862545013428 92.14706420898438 C 10.24198913574219 89.0732421875 8.458479881286621 85.78740692138672 7.017607688903809 82.38082885742188 C 4.01995325088501 75.29355621337891 2.500007629394531 67.7635498046875 2.500007629394531 60.00000762939453 C 2.500007629394531 52.2364616394043 4.01995325088501 44.70646286010742 7.017607688903809 37.61917114257812 C 8.458479881286621 34.21260833740234 10.24198913574219 30.92677116394043 12.31862545013428 27.85295295715332 C 14.37595272064209 24.80769920349121 16.7387523651123 21.94397163391113 19.34137153625488 19.34137153625488 C 21.94397163391113 16.7387523651123 24.80769920349121 14.37595272064209 27.85295295715332 12.31862545013428 C 30.92677116394043 10.24198913574219 34.21260833740234 8.458479881286621 37.61917114257812 7.017607688903809 C 44.70646286010742 4.01995325088501 52.2364616394043 2.500007629394531 60.00000762939453 2.500007629394531 C 67.7635498046875 2.500007629394531 75.29355621337891 4.01995325088501 82.38082885742188 7.017607688903809 C 85.78740692138672 8.458479881286621 89.0732421875 10.24198913574219 92.14706420898438 12.31862545013428 C 95.19231414794922 14.37595272064209 98.05604553222656 16.7387523651123 100.6586456298828 19.34137153625488 C 103.2612609863281 21.94397163391113 105.6240615844727 24.80769920349121 107.6814041137695 27.85295295715332 C 109.7580261230469 30.92677116394043 111.5415496826172 34.21260833740234 112.9824066162109 37.61917114257812 C 115.9800796508789 44.70646286010742 117.5000228881836 52.2364616394043 117.5000228881836 60.00000762939453 C 117.5000228881836 67.7635498046875 115.9800796508789 75.29355621337891 112.9824066162109 82.38082885742188 C 111.5415496826172 85.78740692138672 109.7580261230469 89.0732421875 107.6814041137695 92.14706420898438 C 105.6240615844727 95.19231414794922 103.2612609863281 98.05604553222656 100.6586456298828 100.6586456298828 C 98.05604553222656 103.2612609863281 95.19231414794922 105.6240615844727 92.14706420898438 107.6814041137695 C 89.0732421875 109.7580261230469 85.78740692138672 111.5415496826172 82.38082885742188 112.9824066162109 C 75.29355621337891 115.9800796508789 67.7635498046875 117.5000228881836 60.00000762939453 117.5000228881836 Z" stroke="none"/>
      <path d="M 60.00000762939453 4.999984741210938 C 52.57284545898438 4.999984741210938 45.37050628662109 6.4534912109375 38.59304809570312 9.320106506347656 C 35.33514404296875 10.69808959960938 32.19252777099609 12.40390777587891 29.25246429443359 14.39016723632812 C 26.33905029296875 16.35842895507812 23.59922790527344 18.61901092529297 21.109130859375 21.109130859375 C 18.61901092529297 23.59922790527344 16.35842895507812 26.33905029296875 14.39016723632812 29.25246429443359 C 12.40390777587891 32.19252777099609 10.69808959960938 35.33514404296875 9.320106506347656 38.59304809570312 C 6.4534912109375 45.37050628662109 4.999984741210938 52.57284545898438 4.999984741210938 60.00000762939453 C 4.999984741210938 67.42716979980469 6.4534912109375 74.62950897216797 9.320106506347656 81.40695190429688 C 10.69808959960938 84.66484832763672 12.40388488769531 87.80748748779297 14.39016723632812 90.74754333496094 C 16.35842895507812 93.66096496582031 18.61901092529297 96.40077209472656 21.109130859375 98.89088439941406 C 23.59922790527344 101.380989074707 26.33905029296875 103.6415710449219 29.25246429443359 105.6098251342773 C 32.19252777099609 107.5961074829102 35.33514404296875 109.3019104003906 38.59304809570312 110.6798858642578 C 45.37050628662109 113.5465087890625 52.57284545898438 115.0000076293945 60.00000762939453 115.0000076293945 C 67.42716979980469 115.0000076293945 74.62950897216797 113.5465087890625 81.40695190429688 110.6798858642578 C 84.66484832763672 109.3019104003906 87.80748748779297 107.5961074829102 90.74754333496094 105.6098251342773 C 93.66096496582031 103.6415710449219 96.40077209472656 101.380989074707 98.89088439941406 98.89088439941406 C 101.380989074707 96.40077209472656 103.6415710449219 93.66096496582031 105.6098251342773 90.74754333496094 C 107.5961074829102 87.80748748779297 109.3019104003906 84.66484832763672 110.6798858642578 81.40695190429688 C 113.5465087890625 74.62950897216797 115.0000076293945 67.42716979980469 115.0000076293945 60.00000762939453 C 115.0000076293945 52.57284545898438 113.5465087890625 45.37050628662109 110.6798858642578 38.59304809570312 C 109.3019104003906 35.33514404296875 107.5961074829102 32.19252777099609 105.6098251342773 29.25246429443359 C 103.6415710449219 26.33905029296875 101.380989074707 23.59922790527344 98.89088439941406 21.109130859375 C 96.40077209472656 18.61901092529297 93.66096496582031 16.35842895507812 90.74754333496094 14.39016723632812 C 87.80748748779297 12.40388488769531 84.66484832763672 10.69808959960938 81.40695190429688 9.320106506347656 C 74.62950897216797 6.4534912109375 67.42716979980469 4.999984741210938 60.00000762939453 4.999984741210938 M 60.00000762939453 -1.52587890625e-05 C 93.1370849609375 -1.52587890625e-05 120.0000076293945 26.86290740966797 120.0000076293945 60.00000762939453 C 120.0000076293945 93.1370849609375 93.1370849609375 120.0000076293945 60.00000762939453 120.0000076293945 C 26.86290740966797 120.0000076293945 -1.52587890625e-05 93.1370849609375 -1.52587890625e-05 60.00000762939453 C -1.52587890625e-05 26.86290740966797 26.86290740966797 -1.52587890625e-05 60.00000762939453 -1.52587890625e-05 Z" stroke="none" fill="#fff"/>
    </g>
    <g id="Grupo_1106619" data-name="Grupo 1106619" transform="translate(980.457 190.942)">
      <path id="Trazado_898414" data-name="Trazado 898414" d="M73.835,231.794H8.891a1.381,1.381,0,0,1-1.323-1.78L18.892,192.39a1.382,1.382,0,0,1,1.323-.983h42.3a1.381,1.381,0,0,1,1.323.983l11.324,37.624a1.381,1.381,0,0,1-1.322,1.78Zm0,0" transform="translate(-6.487 -165.33)" fill="#e29c6d"/>
      <path id="Trazado_898415" data-name="Trazado 898415" d="M76.878,191.414v20.193H48.625L54.407,192.4a1.381,1.381,0,0,1,1.323-.982Zm0,0" transform="translate(-42.002 -165.336)" fill="#edb48a"/>
      <path id="Trazado_898416" data-name="Trazado 898416" d="M288.472,359.822H256V339.629h28.253l5.542,18.414a1.381,1.381,0,0,1-1.323,1.779Zm0,0" transform="translate(-221.124 -293.358)" fill="#edb48a"/>
      <path id="Trazado_898417" data-name="Trazado 898417" d="M100.708,305.316v-3.351a4.343,4.343,0,0,0-4.344-4.343H93.014a.823.823,0,0,0-.823.823v3.351a4.343,4.343,0,0,0,4.343,4.344h3.351A.823.823,0,0,0,100.708,305.316Zm0,0" transform="translate(-79.633 -257.074)" fill="#5be167"/>
      <path id="Trazado_898418" data-name="Trazado 898418" d="M154.707,332.98v-3.351a4.344,4.344,0,0,1,4.344-4.344H162.4a.823.823,0,0,1,.823.823v3.351a4.343,4.343,0,0,1-4.343,4.344H155.53A.823.823,0,0,1,154.707,332.98Zm0,0" transform="translate(-133.631 -280.969)" fill="#1fc974"/>
      <path id="Trazado_898419" data-name="Trazado 898419" d="M303.294,305.316v-3.351a4.343,4.343,0,0,0-4.343-4.343H295.6a.823.823,0,0,0-.823.823v3.351a4.344,4.344,0,0,0,4.344,4.344h3.351A.823.823,0,0,0,303.294,305.316Zm0,0" transform="translate(-254.618 -257.074)" fill="#5be167"/>
      <path id="Trazado_898420" data-name="Trazado 898420" d="M357.3,332.98v-3.351a4.343,4.343,0,0,1,4.343-4.344h3.351a.824.824,0,0,1,.823.823v3.351a4.344,4.344,0,0,1-4.344,4.344H358.12A.823.823,0,0,1,357.3,332.98Zm0,0" transform="translate(-308.62 -280.969)" fill="#1fc974"/>
      <path id="Trazado_898421" data-name="Trazado 898421" d="M285.591,147.566v-3.351a4.344,4.344,0,0,0-4.344-4.344H277.9a.823.823,0,0,0-.823.823v3.351a4.343,4.343,0,0,0,4.343,4.343h3.351A.823.823,0,0,0,285.591,147.566Zm0,0" transform="translate(-239.327 -120.816)" fill="#5be167"/>
      <path id="Trazado_898422" data-name="Trazado 898422" d="M339.59,175.233v-3.351a4.343,4.343,0,0,1,4.344-4.343h3.351a.823.823,0,0,1,.823.823v3.351a4.343,4.343,0,0,1-4.343,4.344h-3.351A.823.823,0,0,1,339.59,175.233Zm0,0" transform="translate(-293.326 -144.714)" fill="#1fc974"/>
      <path id="Trazado_898423" data-name="Trazado 898423" d="M118.411,147.566v-3.351a4.343,4.343,0,0,0-4.343-4.344h-3.351a.823.823,0,0,0-.823.823v3.351a4.343,4.343,0,0,0,4.344,4.343h3.351A.823.823,0,0,0,118.411,147.566Zm0,0" transform="translate(-94.924 -120.816)" fill="#5be167"/>
      <path id="Trazado_898424" data-name="Trazado 898424" d="M172.414,175.233v-3.351a4.343,4.343,0,0,1,4.343-4.343h3.351a.823.823,0,0,1,.823.823v3.351a4.344,4.344,0,0,1-4.344,4.344h-3.351A.823.823,0,0,1,172.414,175.233Zm0,0" transform="translate(-148.926 -144.714)" fill="#1fc974"/>
      <path id="Trazado_898425" data-name="Trazado 898425" d="M114.629,480.348h-8.014a1.022,1.022,0,0,0,0,2.044h8.014a1.022,1.022,0,0,0,0-2.044Zm0,0" transform="translate(-91.209 -414.906)"/>
      <path id="Trazado_898426" data-name="Trazado 898426" d="M69.65,178.727l-7.71-25.616a1.022,1.022,0,1,0-1.957.589l1.772,5.886h-3.54v-.109a1.847,1.847,0,0,0-1.845-1.845H53.02a5.338,5.338,0,0,0-3.34,1.171,5.371,5.371,0,0,0-5.347-4.94H40.982a1.847,1.847,0,0,0-1.845,1.845v3.351c0,.178.009.354.026.528H35.9v-18.15h2.482a5.347,5.347,0,0,0,3.711,1.5h3.152v7.427a1.022,1.022,0,1,0,2.043,0V146.7h3.152a5.37,5.37,0,0,0,5.363-5.265h.224a.357.357,0,0,1,.344.256l2.213,7.352a1.022,1.022,0,0,0,1.957-.589L58.325,141.1a2.388,2.388,0,0,0-2.3-1.71H55.8v-1.408a1.847,1.847,0,0,0-1.845-1.845H50.607a5.34,5.34,0,0,0-3.34,1.171,5.371,5.371,0,0,0-5.347-4.94H38.57a1.847,1.847,0,0,0-1.845,1.845v3.351a5.342,5.342,0,0,0,.32,1.826H33.027v-1.408a1.846,1.846,0,0,0-1.845-1.845H27.831a5.34,5.34,0,0,0-3.341,1.171,5.371,5.371,0,0,0-5.346-4.94H15.794a1.847,1.847,0,0,0-1.845,1.845v3.351a5.329,5.329,0,0,0,.321,1.826h-.542a2.388,2.388,0,0,0-2.3,1.71L.1,178.728a2.4,2.4,0,0,0,2.3,3.1H10.75a1.022,1.022,0,1,0,0-2.044H2.4a.36.36,0,0,1-.345-.464l5.324-17.688.043,0h4.769a5.369,5.369,0,0,0,4.707,2.794h3.152v7.155a1.022,1.022,0,1,0,2.043,0v-3.386h3.152a5.371,5.371,0,0,0,5.366-5.365v-1.2h3.239v18.15H28.076a1.022,1.022,0,1,0,0,2.044H67.348a2.4,2.4,0,0,0,2.3-3.1ZM53.02,159.676h3.152v3.152a3.325,3.325,0,0,1-3.322,3.321H51.1l2.536-2.536a1.022,1.022,0,1,0-1.445-1.445L49.7,164.66V163a3.326,3.326,0,0,1,3.322-3.322Zm-11.839-3.769h3.152a3.325,3.325,0,0,1,3.322,3.321v1.663L45.163,158.4a1.022,1.022,0,1,0-1.445,1.445l2.536,2.536H44.5a3.326,3.326,0,0,1-3.322-3.322Zm9.427-17.723H53.76v3.152a3.326,3.326,0,0,1-3.322,3.322H48.687l2.536-2.536a1.022,1.022,0,0,0-1.445-1.445l-2.492,2.492v-1.663a3.325,3.325,0,0,1,3.321-3.322Zm-11.839-3.769h3.152a3.326,3.326,0,0,1,3.322,3.322V139.4l-2.492-2.492a1.022,1.022,0,0,0-1.445,1.445l2.536,2.536H42.09a3.325,3.325,0,0,1-3.321-3.322Zm-10.938,3.769h3.152v3.152a3.326,3.326,0,0,1-3.322,3.322H25.91l2.536-2.536A1.022,1.022,0,0,0,27,140.677l-2.492,2.492v-1.663a3.325,3.325,0,0,1,3.321-3.322Zm-11.839-3.769h3.152a3.325,3.325,0,0,1,3.321,3.322V139.4l-2.492-2.492a1.022,1.022,0,0,0-1.445,1.445l2.536,2.536H19.314a3.325,3.325,0,0,1-3.322-3.321ZM13.58,159.058v-3.152h3.152a3.325,3.325,0,0,1,3.322,3.321v1.663L17.562,158.4a1.022,1.022,0,0,0-1.445,1.445l2.536,2.536H16.9a3.326,3.326,0,0,1-3.322-3.322Zm14.991,3.77a3.325,3.325,0,0,1-3.322,3.321H23.5l2.536-2.536a1.022,1.022,0,0,0-1.445-1.445L22.1,164.66V163a3.325,3.325,0,0,1,3.322-3.321h3.152Zm2.044-3.242v-.109a1.847,1.847,0,0,0-1.845-1.845H25.419a5.34,5.34,0,0,0-3.34,1.171,5.371,5.371,0,0,0-5.347-4.94H13.381a1.847,1.847,0,0,0-1.845,1.845v3.351c0,.178.009.354.026.528H8l5.386-17.894a.357.357,0,0,1,.344-.256H15.6a5.343,5.343,0,0,0,3.71,1.5h3.152v7.427a1.022,1.022,0,1,0,2.044,0V146.7h3.152a5.371,5.371,0,0,0,5.363-5.265h.83v18.15Zm37.022,20.049a.354.354,0,0,1-.288.145H35.9V161.63h3.9a5.37,5.37,0,0,0,4.708,2.794h3.152v7.155a1.022,1.022,0,1,0,2.044,0v-3.386H52.85a5.371,5.371,0,0,0,5.366-5.365v-1.2H62.37l5.323,17.687a.353.353,0,0,1-.056.318Zm0,0" transform="translate(0 -114.337)"/>
      <path id="Trazado_898427" data-name="Trazado 898427" d="M309.481,406.238h-.013a1.016,1.016,0,0,0-1.015,1.022,1.025,1.025,0,1,0,1.028-1.022Zm0,0" transform="translate(-266.431 -350.892)"/>
      <path id="Trazado_898428" data-name="Trazado 898428" d="M291.908,419.164h-.013a1.016,1.016,0,0,0-1.015,1.022,1.025,1.025,0,1,0,1.029-1.022Zm0,0" transform="translate(-251.251 -362.057)"/>
      <path id="Trazado_898429" data-name="Trazado 898429" d="M211.773,443.264a1.022,1.022,0,0,0-1.022-1.022h-.013a1.016,1.016,0,0,0-1.015,1.022,1.025,1.025,0,0,0,2.05,0Zm0,0" transform="translate(-181.152 -381.991)"/>
      <path id="Trazado_898430" data-name="Trazado 898430" d="M210.7,258.02h-.013a1.016,1.016,0,0,0-1.015,1.022,1.025,1.025,0,1,0,1.028-1.022Zm0,0" transform="translate(-181.111 -222.868)"/>
      <path id="Trazado_898431" data-name="Trazado 898431" d="M113.141,237.633h-.023a1.016,1.016,0,0,0-1,1.032,1.027,1.027,0,0,0,1.028,1.011h.011a1.022,1.022,0,0,0-.01-2.044Zm0,0" transform="translate(-96.84 -205.258)"/>
      <path id="Trazado_898432" data-name="Trazado 898432" d="M130.529,248.531h-.013a1.016,1.016,0,0,0-1.015,1.022,1.025,1.025,0,1,0,1.029-1.022Zm0,0" transform="translate(-111.858 -214.671)"/>
      <path id="Trazado_898433" data-name="Trazado 898433" d="M225.069,1.937a8.312,8.312,0,0,0,3.723.87,8.315,8.315,0,0,0,3.723-.87,1.022,1.022,0,1,0-.907-1.831,6.291,6.291,0,0,1-2.816.657,6.289,6.289,0,0,1-2.816-.657,1.022,1.022,0,1,0-.907,1.831Zm0,0" transform="translate(-193.915 0)"/>
      <path id="Trazado_898434" data-name="Trazado 898434" d="M207.227,30.936a13.891,13.891,0,0,0,12.307,0,1.022,1.022,0,0,0-.906-1.832,11.845,11.845,0,0,1-10.494,0,1.022,1.022,0,1,0-.907,1.832Zm0,0" transform="translate(-178.505 -25.048)"/>
      <path id="Trazado_898435" data-name="Trazado 898435" d="M176.118,56.909a23.464,23.464,0,0,0,20.784,0A1.022,1.022,0,0,0,196,55.077a21.418,21.418,0,0,1-18.971,0,1.022,1.022,0,0,0-.907,1.832Zm0,0" transform="translate(-151.634 -47.482)"/>
    </g>
  </g>
</svg>
