<svg xmlns="http://www.w3.org/2000/svg" xmlns:xlink="http://www.w3.org/1999/xlink" width="150" height="150" viewBox="0 0 150 150">
  <defs>
    <clipPath id="clip-path">
      <circle id="Elipse_11688" data-name="Elipse 11688" cx="65" cy="65" r="65" fill="#fdc2bd"/>
    </clipPath>
  </defs>
  <g id="Grupo_1106640" data-name="Grupo 1106640" transform="translate(-1257.051 -2627)">
    <circle id="Elipse_11683" data-name="Elipse 11683" cx="75" cy="75" r="75" transform="translate(1257.051 2627)" fill="#dceeb6"/>
    <g id="Enmascarar_grupo_1098807" data-name="Enmascarar grupo 1098807" transform="translate(1267.051 2637)" clip-path="url(#clip-path)">
      <g id="Grupo_1106407" data-name="Grupo 1106407" transform="translate(-36 -48)">
        <circle id="Elipse_11685" data-name="Elipse 11685" cx="72" cy="72" r="72" fill="#fdc2bd"/>
        <circle id="Elipse_11686" data-name="Elipse 11686" cx="26" cy="26" r="26" transform="translate(36 126)" fill="#fdc2bd"/>
        <circle id="Elipse_11689" data-name="Elipse 11689" cx="26" cy="26" r="26" transform="translate(106 158)" fill="#fdc2bd"/>
        <circle id="Elipse_11687" data-name="Elipse 11687" cx="14" cy="14" r="14" transform="translate(147 112)" fill="#fdc2bd"/>
      </g>
    </g>
    <g id="Grupo_1106643" data-name="Grupo 1106643" transform="translate(1241.278 2635.131)">
      <ellipse id="Elipse_11716" data-name="Elipse 11716" cx="19.349" cy="8.43" rx="19.349" ry="8.43" transform="matrix(0.5, -0.866, 0.866, 0.5, 82.805, 76.292)" fill="#97c662"/>
      <ellipse id="Elipse_11717" data-name="Elipse 11717" cx="8.43" cy="19.349" rx="8.43" ry="19.349" transform="matrix(0.866, -0.5, 0.5, 0.866, 64.551, 50.604)" fill="#97c662"/>
      <g id="Grupo_1106642" data-name="Grupo 1106642" transform="translate(48.092 18.015)">
        <path id="Trazado_898480" data-name="Trazado 898480" d="M239.036,453.234v4.407a2.323,2.323,0,0,1-2.316,2.316h-8.345a2.323,2.323,0,0,1-2.316-2.316v-4.407Z" transform="translate(-189.525 -363.89)" fill="#a4d4ff" fill-rule="evenodd"/>
        <path id="Trazado_898481" data-name="Trazado 898481" d="M207.4,383.709v7.3a7.322,7.322,0,0,1-7.305,7.305H179.7a7.322,7.322,0,0,1-7.305-7.305v-7.3a1.642,1.642,0,0,1,1.642-1.642h31.727A1.642,1.642,0,0,1,207.4,383.709Z" transform="translate(-146.875 -307.333)" fill="#cab4ef" fill-rule="evenodd"/>
        <path id="Trazado_898482" data-name="Trazado 898482" d="M91.114,96.034H76.893V101.7a4.037,4.037,0,0,0,4.02,4.02h20.4a4.037,4.037,0,0,0,4.02-4.02V96.034ZM129.39,75.789a1.638,1.638,0,0,1-1.642,2.836l-4.576-2.642a1.638,1.638,0,1,1,1.642-2.835Zm2-32.539a1.64,1.64,0,0,1,.847,3.169l-5.1,1.368a1.64,1.64,0,0,1-.847-3.169ZM55.8,80.911a1.638,1.638,0,1,1-1.642-2.835l4.576-2.642a1.638,1.638,0,0,1,1.642,2.836ZM49.309,48.969a1.64,1.64,0,1,1,.847-3.169l5.1,1.368a1.64,1.64,0,0,1-.847,3.169Zm18-27.177a1.638,1.638,0,1,1,2.836-1.642l2.642,4.576a1.638,1.638,0,1,1-2.836,1.642ZM109.8,18.835a1.635,1.635,0,1,1,2.836,1.629l-2.642,4.577a1.635,1.635,0,1,1-2.836-1.629l2.642-4.576Zm-2.915,58.621a1.642,1.642,0,1,1,3.285,0v3.776c.445-.614.9-1.227,1.37-1.849,3.721-4.969,7.917-10.572,7.917-22.278a28.339,28.339,0,1,0-56.678,0c0,20.639,13.049,22.344,14.057,35.643H88.464V81.085c-6.5-1.645-12.148-6.832-15.656-12.909a30.261,30.261,0,0,1-3.934-11.62A20.461,20.461,0,0,1,70.363,45.7h0a1.636,1.636,0,0,1,1.627-.944A20.479,20.479,0,0,1,82.149,48.9a30.572,30.572,0,0,1,8.669,10.25l.246-.436,0,0a30.242,30.242,0,0,1,8.095-9.21,20.48,20.48,0,0,1,10.156-4.14,1.636,1.636,0,0,1,1.627.944h0a20.459,20.459,0,0,1,1.489,10.853A31.3,31.3,0,0,1,100.4,78a21.309,21.309,0,0,1-8.655,3.933V92.749h15.23a1.642,1.642,0,0,1,1.642,1.642v7.3a7.322,7.322,0,0,1-7.3,7.305h-2.07v2.764a3.966,3.966,0,0,1-3.958,3.958H86.942a3.966,3.966,0,0,1-3.959-3.958V109h-2.07a7.322,7.322,0,0,1-7.3-7.305v-7.3c0-13.092-14.118-14.781-14.118-37.286a31.624,31.624,0,1,1,63.247,0c0,12.778-4.549,18.853-8.584,24.241-.677.9-1.338,1.786-1.954,2.677l5.156-1.858a1.635,1.635,0,1,1,1.1,3.079l-9.237,3.33a1.639,1.639,0,0,1-2.34-1.487v-9.63ZM96.6,67.28a1.635,1.635,0,1,1,2.836,1.63l-5.1,8.833C102.24,74.4,108.21,65.3,109.173,56.8a18.03,18.03,0,0,0-.756-8.015c-5.975,1.1-11.336,6.058-14.519,11.571l0,0c-2.977,5.157-4.522,11.572-3.144,17.057Zm-9.418,8.936L82.964,68.91A1.635,1.635,0,1,1,85.8,67.28l1.407,2.437a29.171,29.171,0,0,1,1.8-6.759q-.276-.648-.6-1.327a27.454,27.454,0,0,0-8.205-10.1,18.016,18.016,0,0,0-7.308-3.349c-2.031,5.717-.434,12.843,2.754,18.365,2.74,4.746,6.919,8.863,11.724,10.754q-.107-.536-.185-1.086Zm8.778,35.55V109H86.268v2.764a.68.68,0,0,0,.674.674h8.345a.68.68,0,0,0,.674-.674Z" transform="translate(-48.092 -18.015)" fill="#0b3238" fill-rule="evenodd"/>
      </g>
    </g>
  </g>
</svg>
