<svg xmlns="http://www.w3.org/2000/svg" width="112.068" height="112.068" viewBox="0 0 112.068 112.068">
  <g id="Grupo_1103990" data-name="Grupo 1103990" transform="translate(-955.333 -165)">
    <g id="Trazado_874102" data-name="Trazado 874102" transform="translate(955.333 165)" fill="#f3d02c">
      <path d="M 56.03418731689453 109.5683670043945 C 48.8060188293457 109.5683670043945 41.79538726806641 108.1532897949219 35.19703674316406 105.362419128418 C 32.02545547485352 104.0209503173828 28.96627044677734 102.3604507446289 26.10445404052734 100.4270553588867 C 23.26918792724609 98.51158905029297 20.60295486450195 96.31172180175781 18.1798038482666 93.88857269287109 C 15.75665378570557 91.46542358398438 13.55678749084473 88.79917144775391 11.64132022857666 85.96390533447266 C 9.707921028137207 83.10210418701172 8.047420501708984 80.04292297363281 6.705954074859619 76.871337890625 C 3.915087223052979 70.27298736572266 2.500004053115845 63.26235580444336 2.500004053115845 56.03418731689453 C 2.500004053115845 48.8060188293457 3.915087223052979 41.79538726806641 6.705954074859619 35.19703674316406 C 8.047420501708984 32.02545547485352 9.707921028137207 28.96627044677734 11.64132022857666 26.10445404052734 C 13.55678749084473 23.26918792724609 15.75665378570557 20.60295486450195 18.1798038482666 18.1798038482666 C 20.60295486450195 15.75665378570557 23.26918792724609 13.55678749084473 26.10445404052734 11.64132022857666 C 28.96627044677734 9.707921028137207 32.02545547485352 8.047420501708984 35.19703674316406 6.705954074859619 C 41.79538726806641 3.915087223052979 48.8060188293457 2.500004053115845 56.03418731689453 2.500004053115845 C 63.26235580444336 2.500004053115845 70.27298736572266 3.915087223052979 76.871337890625 6.705954074859619 C 80.04292297363281 8.047420501708984 83.10210418701172 9.707921028137207 85.96390533447266 11.64132022857666 C 88.79917144775391 13.55678749084473 91.46542358398438 15.75665378570557 93.88857269287109 18.1798038482666 C 96.31172180175781 20.60295486450195 98.51158905029297 23.26918792724609 100.4270553588867 26.10445404052734 C 102.3604507446289 28.96627044677734 104.0209503173828 32.02545547485352 105.362419128418 35.19703674316406 C 108.1532897949219 41.79538726806641 109.5683670043945 48.8060188293457 109.5683670043945 56.03418731689453 C 109.5683670043945 63.26235580444336 108.1532897949219 70.27298736572266 105.362419128418 76.871337890625 C 104.0209503173828 80.04292297363281 102.3604507446289 83.10210418701172 100.4270553588867 85.96390533447266 C 98.51158905029297 88.79917144775391 96.31172180175781 91.46542358398438 93.88857269287109 93.88857269287109 C 91.46542358398438 96.31172180175781 88.79917144775391 98.51158905029297 85.96390533447266 100.4270553588867 C 83.10210418701172 102.3604507446289 80.04292297363281 104.0209503173828 76.871337890625 105.362419128418 C 70.27298736572266 108.1532897949219 63.26235580444336 109.5683670043945 56.03418731689453 109.5683670043945 Z" stroke="none"/>
      <path d="M 56.03418731689453 5.000007629394531 C 49.14240646362305 5.000007629394531 42.45942687988281 6.348648071289062 36.17090606689453 9.008468627929688 C 30.09439086914062 11.57862854003906 24.63607025146484 15.25906372070312 19.94757080078125 19.94757080078125 C 15.25906372070312 24.63607025146484 11.57862854003906 30.09439086914062 9.008468627929688 36.17090606689453 C 6.348648071289062 42.45942687988281 5.000007629394531 49.14240646362305 5.000007629394531 56.03418731689453 C 5.000007629394531 62.92596817016602 6.348648071289062 69.60893249511719 9.008468627929688 75.89746856689453 C 11.57862854003906 81.97396850585938 15.25906372070312 87.43228912353516 19.94757080078125 92.12080383300781 C 24.63607025146484 96.80931091308594 30.09439086914062 100.48974609375 36.17090606689453 103.0599060058594 C 42.45944976806641 105.7197265625 49.14240646362305 107.0683670043945 56.03418731689453 107.0683670043945 C 62.92596817016602 107.0683670043945 69.60893249511719 105.7197265625 75.89744567871094 103.0599060058594 C 81.97396850585938 100.48974609375 87.43228912353516 96.80931091308594 92.12080383300781 92.12080383300781 C 96.80931091308594 87.43228912353516 100.48974609375 81.97396850585938 103.0599060058594 75.89744567871094 C 105.7197265625 69.60893249511719 107.0683670043945 62.92596817016602 107.0683670043945 56.03418731689453 C 107.0683670043945 49.14240646362305 105.7197265625 42.45944976806641 103.0599060058594 36.17090606689453 C 100.48974609375 30.09439086914062 96.80931091308594 24.63607025146484 92.12080383300781 19.94757080078125 C 87.43228912353516 15.25906372070312 81.97396850585938 11.57862854003906 75.89746856689453 9.008468627929688 C 69.60893249511719 6.348648071289062 62.92596817016602 5.000007629394531 56.03418731689453 5.000007629394531 M 56.03418731689453 7.62939453125e-06 C 86.98100280761719 7.62939453125e-06 112.0683670043945 25.08734893798828 112.0683670043945 56.03418731689453 C 112.0683670043945 86.98100280761719 86.98100280761719 112.0683670043945 56.03418731689453 112.0683670043945 C 25.08734893798828 112.0683670043945 7.62939453125e-06 86.98100280761719 7.62939453125e-06 56.03418731689453 C 7.62939453125e-06 25.08734893798828 25.08734893798828 7.62939453125e-06 56.03418731689453 7.62939453125e-06 Z" stroke="none" fill="#fff"/>
    </g>
    <g id="vegetales" transform="translate(978.457 186.484)">
      <g id="Grupo_1105335" data-name="Grupo 1105335" transform="translate(0.968 13.501)">
        <path id="Trazado_895254" data-name="Trazado 895254" d="M32.394,113.2a7.793,7.793,0,0,0-7.745-5.115,7.792,7.792,0,0,0-14.012,5.1,7.79,7.79,0,0,0-.331,12.2,7.789,7.789,0,0,0,10.336,8.674l9.761-3.553a7.789,7.789,0,0,0,2.342-13.288A7.751,7.751,0,0,0,32.394,113.2Z" transform="translate(-7.519 -104.969)" fill="#a2e62e"/>
        <path id="Trazado_895255" data-name="Trazado 895255" d="M62.362,135.619a7.751,7.751,0,0,0-2.314-3.3,7.79,7.79,0,0,0-8.1-9.133,7.739,7.739,0,0,0-.782-.89,16.266,16.266,0,0,1-12.32,23.945,7.794,7.794,0,0,0,9.095,2.919l9.761-3.553A7.791,7.791,0,0,0,62.362,135.619Z" transform="translate(-34.823 -120.066)" fill="#97d729"/>
      </g>
      <path id="Trazado_895256" data-name="Trazado 895256" d="M343.438,19.2h-3.9V9.458a1.948,1.948,0,0,1,3.9,0V19.2Z" transform="translate(-295.898 -6.536)" fill="#a2e62e"/>
      <path id="Trazado_895257" data-name="Trazado 895257" d="M262.5,65.465a6.783,6.783,0,0,0-13.565,0c-.036,6.354-5.864,4.906-7.536,12.629-1.233,5.7,4.724,10.551,10.551,10.551A10.551,10.551,0,0,0,262.5,78.094C262.5,75.336,262.5,67.718,262.5,65.465Z" transform="translate(-210.223 -51.13)" fill="#b854f3"/>
      <path id="Trazado_895258" data-name="Trazado 895258" d="M262.5,138.367v-9.381a9.013,9.013,0,0,0-6.846,3.724,15.6,15.6,0,0,0-7-4.864c-1.19,4.025-5.8,3.8-7.253,10.521-1.233,5.7,4.724,10.551,10.551,10.551A10.551,10.551,0,0,0,262.5,138.367Z" transform="translate(-210.224 -111.404)" fill="#8e3dbd"/>
      <g id="Grupo_1105336" data-name="Grupo 1105336" transform="translate(21.223 14.218)">
        <ellipse id="Elipse_11655" data-name="Elipse 11655" cx="11.686" cy="10.387" rx="11.686" ry="10.387" transform="translate(0 5.194)" fill="#fc5d44"/>
        <path id="Trazado_895259" data-name="Trazado 895259" d="M185.391,175.673c.018.237.028.476.028.718,0,5.737-5.232,10.387-11.686,10.387a12.394,12.394,0,0,1-8.412-3.177c.415,5.4,5.475,9.67,11.658,9.67,6.454,0,11.686-4.651,11.686-10.387A9.786,9.786,0,0,0,185.391,175.673Z" transform="translate(-165.294 -167.302)" fill="#f74b30"/>
        <path id="Trazado_895260" data-name="Trazado 895260" d="M207.385,114.738l.1-3.118a1.039,1.039,0,0,0-1.038-1.073H204.7a1.039,1.039,0,0,0-1.038,1.073l.1,3.118a1.3,1.3,0,0,1-1.014,1.309,12.243,12.243,0,0,0-4.618,2.07l4.2.507a1.948,1.948,0,0,1,1.019.442l.972.816a1.948,1.948,0,0,0,2.5,0l.972-.816a1.948,1.948,0,0,1,1.019-.442l4.2-.507a12.243,12.243,0,0,0-4.618-2.07A1.3,1.3,0,0,1,207.385,114.738Z" transform="translate(-193.891 -110.546)" fill="#a2e62e"/>
      </g>
      <g id="Grupo_1105337" data-name="Grupo 1105337" transform="translate(39.335 12.828)">
        <path id="Trazado_895261" data-name="Trazado 895261" d="M419.18,111.278s6.049,1.347,8.078-2.209a3.7,3.7,0,0,0-.256-4.058,3.7,3.7,0,0,0-6.408-3.656,3.7,3.7,0,0,0-3.623,1.845C414.942,106.756,419.18,111.278,419.18,111.278Z" transform="translate(-402.229 -99.733)" fill="#a2e62e"/>
        <path id="Trazado_895262" data-name="Trazado 895262" d="M432.269,115.171a3.7,3.7,0,0,0-.373-3.78,8.507,8.507,0,0,1-9.431,7.105,13.12,13.12,0,0,0,1.982,2.941s6.049,1.347,8.078-2.209A3.7,3.7,0,0,0,432.269,115.171Z" transform="translate(-407.496 -109.893)" fill="#97d729"/>
        <path id="Trazado_895263" data-name="Trazado 895263" d="M314.671,170.087l-8.326,20.021a4.412,4.412,0,0,0,7.606,4.339l13-17.356a5.143,5.143,0,0,0-1.568-7.55l-3.413-1.947A5.143,5.143,0,0,0,314.671,170.087Z" transform="translate(-306.006 -158.281)" fill="#fe860a"/>
        <path id="Trazado_895264" data-name="Trazado 895264" d="M326.214,183.544l-.98-.559a5.132,5.132,0,0,1-.714,4.848l-13,17.356a4.413,4.413,0,0,1-4.56,1.646,4.412,4.412,0,0,0,7.822,1.616l13-17.356A5.143,5.143,0,0,0,326.214,183.544Z" transform="translate(-306.838 -172.284)" fill="#e87c0c"/>
      </g>
      <path id="Trazado_895265" data-name="Trazado 895265" d="M70.1,304.061H8.815a1.3,1.3,0,0,1-1.3-1.3v-9.089a1.3,1.3,0,0,1,1.3-1.3H70.1a1.3,1.3,0,0,1,1.3,1.3v9.089A1.3,1.3,0,0,1,70.1,304.061Z" transform="translate(-6.549 -254.785)" fill="#e8ad8c"/>
      <path id="Trazado_895266" data-name="Trazado 895266" d="M70.1,425.281H8.815a1.3,1.3,0,0,1-1.3-1.3v-9.089a1.3,1.3,0,0,1,1.3-1.3H70.1a1.3,1.3,0,0,1,1.3,1.3v9.089A1.3,1.3,0,0,1,70.1,425.281Z" transform="translate(-6.549 -360.424)" fill="#e8ad8c"/>
      <path id="Trazado_895267" data-name="Trazado 895267" d="M475.049,304.061h-2.857V292.375h2.857a1.3,1.3,0,0,1,1.3,1.3v9.089A1.3,1.3,0,0,1,475.049,304.061Z" transform="translate(-411.496 -254.785)" fill="#e19974"/>
      <path id="Trazado_895268" data-name="Trazado 895268" d="M475.049,425.281h-2.857V413.6h2.857a1.3,1.3,0,0,1,1.3,1.3v9.089A1.3,1.3,0,0,1,475.049,425.281Z" transform="translate(-411.496 -360.424)" fill="#e19974"/>
      <path id="Trazado_895269" data-name="Trazado 895269" d="M23.68,383.29H83.408v3.9H23.68Z" transform="translate(-20.635 -334.014)" fill="#d77f4a"/>
      <g id="Grupo_1105338" data-name="Grupo 1105338" transform="translate(0.002 0.01)">
        <path id="Trazado_895270" data-name="Trazado 895270" d="M63.552,36.626H57.747l3.3-4.409a6.1,6.1,0,0,0,.288-6.9A5.753,5.753,0,0,0,65.2,22.642,4.661,4.661,0,0,0,65.188,18a4.664,4.664,0,0,0-7.943-4.532,4.663,4.663,0,0,0-4.005,2.354l0,0V14.334a7.771,7.771,0,0,0-.212-1.8.964.964,0,1,0-1.875.448,5.847,5.847,0,0,1,.159,1.355v6.341c-.18.044-.359.094-.536.154a6.11,6.11,0,0,0-3.665,3.434l-1.665,4a11.075,11.075,0,0,0-4.52-7.253l0,0a13.038,13.038,0,0,0-3.08-1.665,6.915,6.915,0,0,0,1.831-5.006,5.829,5.829,0,0,1,7.515-5.575A.963.963,0,0,0,47.3,8.8a5.785,5.785,0,0,1,1.786.957.964.964,0,1,0,1.192-1.516A7.761,7.761,0,0,0,48.5,7.194V2.922a2.911,2.911,0,1,0-5.823,0v4.2a7.811,7.811,0,0,0-4.938,7.207A5.171,5.171,0,0,1,35.77,18.68a.333.333,0,0,1-.089-.238l.1-3.118a2,2,0,0,0-2-2.07H32.036a2,2,0,0,0-2,2.07l.1,3.118a.331.331,0,0,1-.258.336,13.485,13.485,0,0,0-3.688,1.4,8.724,8.724,0,0,0-7.641-4.539,8.84,8.84,0,0,0-4.134-2.722,8.754,8.754,0,0,0-9.891,3.6,8.842,8.842,0,0,0-1.417,4.744A8.848,8.848,0,0,0,.387,25.4a8.749,8.749,0,0,0,2.34,8.894,8.772,8.772,0,0,0,.052,2.334H2.266A2.265,2.265,0,0,0,0,38.889v9.089A2.264,2.264,0,0,0,2.081,50.23v1.987A2.264,2.264,0,0,0,0,54.47v9.089a2.265,2.265,0,0,0,2.262,2.262H51.277a.964.964,0,1,0,0-1.928H2.266a.335.335,0,0,1-.334-.334V54.47a.335.335,0,0,1,.334-.334H63.552a.335.335,0,0,1,.334.334v9.089a.335.335,0,0,1-.334.334H55.776a.964.964,0,1,0,0,1.928h7.776a2.265,2.265,0,0,0,2.262-2.262V54.47a2.264,2.264,0,0,0-2.078-2.253V50.23a2.264,2.264,0,0,0,2.078-2.253V38.889a2.265,2.265,0,0,0-2.262-2.262ZM44.61,2.922a.984.984,0,0,1,1.967,0V6.663a7.888,7.888,0,0,0-1.087-.076,7.724,7.724,0,0,0-.88.052V2.922ZM54.915,16.773a2.735,2.735,0,0,1,2.679-1.364.963.963,0,0,0,.9-.418,2.736,2.736,0,0,1,4.738,2.7.964.964,0,0,0,.1.991,2.735,2.735,0,0,1,.189,3c-.642,1.125-1.909,1.774-3.768,1.934a6.074,6.074,0,0,0-.57-.37l-.869-.5,2.1-3.673a.964.964,0,0,0-1.675-.956l-2.1,3.673-.87-.5a6.1,6.1,0,0,0-.608-.3c-.808-1.681-.893-3.1-.251-4.228ZM48.89,25a4.169,4.169,0,0,1,3.466-2.555l.028,0a4.179,4.179,0,0,1,2.435.531l3.414,1.948a4.179,4.179,0,0,1,1.273,6.135l-4.167,5.565H44.057ZM43.631,29.8A8.932,8.932,0,0,1,40.3,36.626H25.523a8.668,8.668,0,0,1,.221-13.834l3.807.46a.983.983,0,0,1,.515.223l.972.816a2.907,2.907,0,0,0,3.745,0l.972-.816a.983.983,0,0,1,.515-.223l3.807-.46A8.941,8.941,0,0,1,43.631,29.8ZM30.295,20.661a2.259,2.259,0,0,0,1.77-2.283l-.1-3.118a.075.075,0,0,1,.075-.077h1.747a.075.075,0,0,1,.075.077l-.1,3.118a2.259,2.259,0,0,0,1.77,2.283,11.659,11.659,0,0,1,1.743.53l-1.23.149A2.906,2.906,0,0,0,34.513,22l-.972.816a.982.982,0,0,1-1.265,0L31.3,22a2.906,2.906,0,0,0-1.523-.661l-1.23-.149a11.6,11.6,0,0,1,1.743-.53ZM61.809,50.24v1.968H4.009V50.24Zm2.078-2.262a.335.335,0,0,1-.334.334H2.266a.335.335,0,0,1-.334-.334V38.889a.335.335,0,0,1,.334-.334H8.248a.964.964,0,0,0,0-1.928H4.736A6.711,6.711,0,0,1,4.7,34.087a.964.964,0,0,0-.33-.909,6.825,6.825,0,0,1,.29-10.689.964.964,0,0,0,.384-.824A6.828,6.828,0,0,1,17.326,17.2a.968.968,0,0,0,.824.384,6.8,6.8,0,0,1,6.43,3.674A10.853,10.853,0,0,0,20.259,29.8,10.612,10.612,0,0,0,22.8,36.626H19.379l-.593-1.471v-8.63a.964.964,0,1,0-1.928,0v3.851l-1.327-3.288V20.71a.964.964,0,0,0-1.928,0v1.6l-1.524-3.778a.964.964,0,0,0-1.788.721l2.874,7.124-1.612-1.53a.964.964,0,1,0-1.328,1.4L14.9,30.686l1.28,3.172L12.429,30.31a.964.964,0,1,0-1.324,1.4l5.2,4.916H12.747a.964.964,0,1,0,0,1.928H63.552a.335.335,0,0,1,.334.334Z" transform="translate(-0.002 -0.01)"/>
        <circle id="Elipse_11656" data-name="Elipse 11656" cx="0.964" cy="0.964" r="0.964" transform="translate(59.99 40.511)"/>
        <circle id="Elipse_11657" data-name="Elipse 11657" cx="0.964" cy="0.964" r="0.964" transform="translate(59.99 44.406)"/>
        <circle id="Elipse_11658" data-name="Elipse 11658" cx="0.964" cy="0.964" r="0.964" transform="translate(3.897 40.511)"/>
        <circle id="Elipse_11659" data-name="Elipse 11659" cx="0.964" cy="0.964" r="0.964" transform="translate(3.897 44.406)"/>
        <circle id="Elipse_11660" data-name="Elipse 11660" cx="0.964" cy="0.964" r="0.964" transform="translate(59.99 56.093)"/>
        <circle id="Elipse_11661" data-name="Elipse 11661" cx="0.964" cy="0.964" r="0.964" transform="translate(59.99 59.988)"/>
        <circle id="Elipse_11662" data-name="Elipse 11662" cx="0.964" cy="0.964" r="0.964" transform="translate(3.897 56.093)"/>
        <circle id="Elipse_11663" data-name="Elipse 11663" cx="0.964" cy="0.964" r="0.964" transform="translate(3.897 59.988)"/>
      </g>
    </g>
  </g>
</svg>
