<svg xmlns="http://www.w3.org/2000/svg" width="110" height="110" viewBox="0 0 110 110">
  <g id="Grupo_1106529" data-name="Grupo 1106529" transform="translate(0 0)">
    <rect id="Rectángulo_402591" data-name="Rectángulo 402591" width="110" height="110" rx="55" transform="translate(0 0)" fill="#fff"/>
    <g id="Grupo_1106531" data-name="Grupo 1106531" transform="translate(17.979 22.322)">
      <g id="Grupo_1106538" data-name="Grupo 1106538" transform="translate(1.472 1.081)">
        <path id="Trazado_898160" data-name="Trazado 898160" d="M107.075,126.533c-15.858-3.347-24.9-12.367-24.9-26.728,0-4.222-.092-7.483,1.694-11.008a26,26,0,1,1,23.211,37.736Z" transform="translate(-71.527 -64.932)" fill="#f8f6fa"/>
        <path id="Trazado_898161" data-name="Trazado 898161" d="M108.654,164.612a26,26,0,0,1-25.782-41.894,26.007,26.007,0,0,0,25.913,43.756A8.631,8.631,0,0,1,108.654,164.612Z" transform="translate(-64.968 -106.218)" fill="#f3ecfb"/>
        <path id="Trazado_898162" data-name="Trazado 898162" d="M140.633,114.528l2.592,11.752-2.592,8.591-8.9,2.2L121.423,134.8a24.74,24.74,0,0,1,3.847-13.128A20.235,20.235,0,0,1,140.633,114.528Z" transform="translate(-105.157 -99.201)" fill="#ffd846"/>
        <path id="Trazado_898163" data-name="Trazado 898163" d="M275.857,134.8v.072l-11.8,2.937-8.546-2.937V114.528h.072A20.3,20.3,0,0,1,275.857,134.8Z" transform="translate(-220.038 -99.201)" fill="#ff819c"/>
        <path id="Trazado_898164" data-name="Trazado 898164" d="M163.154,256.528a20.3,20.3,0,0,1-20.272,20.2c-12.122-3.32-18.879-9.056-18.918-20.2Z" transform="translate(-107.334 -220.858)" fill="#c1ea84"/>
        <path id="Trazado_898165" data-name="Trazado 898165" d="M117.952,160.952a20.4,20.4,0,0,0,.383,3.94l-1.415,1.751-2.406-1.751v-.072a20.231,20.231,0,0,1,6.933-15.252A20.186,20.186,0,0,0,117.952,160.952Z" transform="translate(-99.238 -129.221)" fill="#ffca3d"/>
        <path id="Trazado_898166" data-name="Trazado 898166" d="M142.353,272.439a20.3,20.3,0,0,1-24.018-15.911h-3.821a20.271,20.271,0,0,0,28.212,18.58A7.5,7.5,0,0,1,142.353,272.439Z" transform="translate(-99.238 -220.858)" fill="#a2e499"/>
        <circle id="Elipse_11700" data-name="Elipse 11700" cx="13.538" cy="13.538" r="13.538" transform="translate(22.01 44.123)" fill="#877587"/>
        <g id="Grupo_1106536" data-name="Grupo 1106536" transform="translate(27.647 49.776)">
          <path id="Trazado_898167" data-name="Trazado 898167" d="M208.1,356.334l-.089-.089a4.211,4.211,0,0,0-5.853-.143,4.155,4.155,0,0,0-.084,5.957l.132.132a8.329,8.329,0,0,1,2.284,4.087,6.447,6.447,0,1,0,7.8-7.652A8.762,8.762,0,0,1,208.1,356.334Z" transform="translate(-200.862 -354.988)" fill="#c1ea84"/>
          <circle id="Elipse_11701" data-name="Elipse 11701" cx="2.292" cy="2.292" r="2.292" transform="translate(7.637 7.615)" fill="#c38678"/>
        </g>
        <circle id="Elipse_11702" data-name="Elipse 11702" cx="13.538" cy="13.538" r="13.538" transform="translate(44.02)" fill="#877587"/>
        <path id="Trazado_898168" data-name="Trazado 898168" d="M359.363,43.844a4.41,4.41,0,0,0-.55,6.113c2.579,3.152.386,5.066,3.147,8.166,2.3,2.579,6.764,2.58,9.345,0a6.608,6.608,0,0,0,0-9.345l-4.934-4.934a4.956,4.956,0,0,0-7.009,0Z" transform="translate(-307.684 -37.4)" fill="#ff819c"/>
        <circle id="Elipse_11703" data-name="Elipse 11703" cx="13.538" cy="13.538" r="13.538" transform="translate(0)" fill="#877587"/>
        <g id="Grupo_1106537" data-name="Grupo 1106537" transform="translate(5.575 5.575)">
          <path id="Trazado_898169" data-name="Trazado 898169" d="M56.453,54.414a3.861,3.861,0,0,0-3.861-3.861H51.2a.309.309,0,0,0-.309.309v1.39a3.861,3.861,0,0,0,3.861,3.861l2.9,1.184Z" transform="translate(-50.306 -49.966)" fill="#fdbc3d"/>
          <path id="Trazado_898170" data-name="Trazado 898170" d="M89.269,83.825s8.238,5.24,6.35,8.933c-5.5.863-8.512-6.35-8.512-6.35Z" transform="translate(-81.333 -78.472)" fill="#fdbc3d"/>
          <path id="Trazado_898171" data-name="Trazado 898171" d="M54.532,86.5l-1.2,1.2a3.861,3.861,0,0,1-5.46,0l-.983-.983a.309.309,0,0,1,0-.437l.983-.983a3.861,3.861,0,0,1,5.46,0Z" transform="translate(-46.798 -78.766)" fill="#ffd846"/>
          <path id="Trazado_898172" data-name="Trazado 898172" d="M88.04,52.992l-1.2,1.2-1.2-1.2a3.861,3.861,0,0,1,0-5.46l.983-.983a.309.309,0,0,1,.437,0l.983.983A3.861,3.861,0,0,1,88.04,52.992Z" transform="translate(-79.105 -46.458)" fill="#ffca3d"/>
          <path id="Trazado_898173" data-name="Trazado 898173" d="M77.4,109.368l-1.2,1.2a3.861,3.861,0,0,1-5.46,0l-.983-.983a.309.309,0,0,1,0-.437l.983-.983a3.861,3.861,0,0,1,5.46,0Z" transform="translate(-66.388 -98.357)" fill="#ffca3d"/>
          <path id="Trazado_898174" data-name="Trazado 898174" d="M110.907,75.859l-1.2,1.2-1.2-1.2a3.861,3.861,0,0,1,0-5.46l.983-.983a.309.309,0,0,1,.437,0l.983.983A3.861,3.861,0,0,1,110.907,75.859Z" transform="translate(-98.696 -66.049)" fill="#ffd846"/>
          <path id="Trazado_898175" data-name="Trazado 898175" d="M100.266,132.235l-1.2,1.2a3.861,3.861,0,0,1-5.46,0l-.983-.983a.309.309,0,0,1,0-.437l.983-.983a3.861,3.861,0,0,1,5.46,0Z" transform="translate(-85.979 -117.948)" fill="#ffd846"/>
          <path id="Trazado_898176" data-name="Trazado 898176" d="M133.775,98.726l-1.2,1.2-1.2-1.2a3.861,3.861,0,0,1,0-5.46l.983-.983a.309.309,0,0,1,.437,0l.983.983A3.861,3.861,0,0,1,133.775,98.726Z" transform="translate(-118.287 -85.64)" fill="#ffca3d"/>
        </g>
        <circle id="Elipse_11704" data-name="Elipse 11704" cx="2.579" cy="2.579" r="2.579" transform="translate(56.37 13.471)" fill="#fedecf"/>
      </g>
      <g id="Grupo_1106539" data-name="Grupo 1106539" transform="translate(0.4 0)">
        <path id="Trazado_898177" data-name="Trazado 898177" d="M206.116,351.208a8,8,0,0,1-3.767-2.1,5.306,5.306,0,0,0-7.351-.162,5.228,5.228,0,0,0-.106,7.5,7.613,7.613,0,0,1,2.125,3.686,7.48,7.48,0,0,0,2.322,3.987,7.389,7.389,0,0,0,2.08,1.32,1.074,1.074,0,0,0,.833-1.981,5.242,5.242,0,0,1-1.475-.937,5.345,5.345,0,0,1-1.659-2.848,9.7,9.7,0,0,0-2.705-4.748,3.079,3.079,0,0,1,.064-4.417,3.143,3.143,0,0,1,4.354.122,10.115,10.115,0,0,0,4.789,2.668,5.365,5.365,0,0,1,.82,10.174,1.075,1.075,0,1,0,.823,1.985,7.518,7.518,0,0,0-1.145-14.249Z" transform="translate(-165.716 -297.757)"/>
        <path id="Trazado_898178" data-name="Trazado 898178" d="M253.935,403.553a3.079,3.079,0,1,0,0,4.357A3.083,3.083,0,0,0,253.935,403.553Zm-1.519,2.837a.931.931,0,1,1,0-1.317A.93.93,0,0,1,252.416,406.39Z" transform="translate(-213.11 -344.967)"/>
        <path id="Trazado_898179" data-name="Trazado 898179" d="M71.686,7.313a14.612,14.612,0,0,0-26.755,3.466,27.193,27.193,0,0,0-15.822,0A14.612,14.612,0,1,0,11.137,28.71,27.07,27.07,0,0,0,22.426,59.487a14.613,14.613,0,0,0,29.189,0A27.106,27.106,0,0,0,62.9,28.71a14.615,14.615,0,0,0,8.782-21.4ZM29.523,12.9a25.063,25.063,0,0,1,14.994,0,14.424,14.424,0,0,0,.043,3.809,21.11,21.11,0,0,0-7.54-1.375,21.631,21.631,0,0,0-7.54,1.377,14.435,14.435,0,0,0,.043-3.811Zm-.662,6.391a19.913,19.913,0,0,1,7.013-1.774v18.16H17.849A18.977,18.977,0,0,1,19.6,28.612a.9.9,0,0,0,.054-.146A14.613,14.613,0,0,0,24.6,25.644l3.844,3.844a1.074,1.074,0,0,0,1.52-1.519l-3.851-3.851a14.461,14.461,0,0,0,1.552-2.192,14.786,14.786,0,0,0,1.2-2.636ZM8.779,25.413A12.463,12.463,0,1,1,25.8,20.852,12.478,12.478,0,0,1,8.779,25.413ZM37.02,71.206A12.464,12.464,0,1,1,49.484,58.742,12.478,12.478,0,0,1,37.02,71.206Zm1-27.043v-3.4a1.074,1.074,0,1,0-2.149,0v3.411A14.634,14.634,0,0,0,24.5,51.215a19.209,19.209,0,0,1-3.424-3.857,1.075,1.075,0,0,0-1.785,1.2,21.42,21.42,0,0,0,4.216,4.63,14.5,14.5,0,0,0-.99,3.769,24.96,24.96,0,0,1-9.258-27.83,14.563,14.563,0,0,0,1.728.1,14.719,14.719,0,0,0,2.087-.152,21.133,21.133,0,0,0-1.4,7.6v.072c0,.006,0,.013,0,.019a21.229,21.229,0,0,0,1.2,6.973,1.075,1.075,0,0,0,2.027-.713,18.993,18.993,0,0,1-1.044-5.2H41.1a1.074,1.074,0,1,0,0-2.149h-3.08V17.508a18.926,18.926,0,0,1,7.162,1.8,14.744,14.744,0,0,0,2.835,4.918l-3.842,3.842a1.074,1.074,0,1,0,1.519,1.52l3.852-3.851a14.614,14.614,0,0,0,4.837,2.728,19.9,19.9,0,0,1,1.807,7.21H46.118a1.074,1.074,0,1,0,0,2.149H56.183a19.05,19.05,0,0,1-6.64,13.392,14.632,14.632,0,0,0-11.52-7.054Zm13.5,12.792a14.518,14.518,0,0,0-.987-3.765,21.329,21.329,0,0,0,6.43-24.113,14.378,14.378,0,0,0,3.815.047,24.96,24.96,0,0,1-9.258,27.83ZM65.262,25.413A12.464,12.464,0,1,1,69.825,8.388a12.387,12.387,0,0,1-4.563,17.025Z" transform="translate(-0.4 0)"/>
        <path id="Trazado_898180" data-name="Trazado 898180" d="M365.636,41.589,360.7,36.655a6.038,6.038,0,0,0-6.438-1.362,1.075,1.075,0,1,0,.774,2.006,3.885,3.885,0,0,1,4.145.877l1.758,1.758a6.5,6.5,0,0,1-.347,3.86,3.38,3.38,0,0,0-2.692.927,3.236,3.236,0,0,0-.878,1.623,6.6,6.6,0,0,1-2.3-.51,7.035,7.035,0,0,0-1.506-2.984,3.025,3.025,0,0,1-.723-2.4,1.075,1.075,0,0,0-2.129-.3,5.165,5.165,0,0,0,1.189,4.059,5.448,5.448,0,0,1,1.261,3.448,7.226,7.226,0,0,0,1.915,4.752,7.134,7.134,0,0,0,5.139,2.291,8.018,8.018,0,0,0,5.768-2.246A7.69,7.69,0,0,0,365.636,41.589ZM360.2,45.915a1.105,1.105,0,1,1-1.1,1.106A1.1,1.1,0,0,1,360.2,45.915Zm-.274,6.636a4.99,4.99,0,0,1-3.6-1.573,4.73,4.73,0,0,1-1.3-2.782,7.972,7.972,0,0,0,2.266.288,3.244,3.244,0,0,0,2.905,1.792,3.308,3.308,0,0,0,.842-.113l1.467,1.874a5.868,5.868,0,0,1-2.584.514Zm4.331-1.769-1.437-1.835a3.257,3.257,0,0,0-.3-4.208,6.815,6.815,0,0,0,.662-2.562l.931.931A5.539,5.539,0,0,1,364.261,50.782Z" transform="translate(-300.184 -29.89)"/>
        <path id="Trazado_898181" data-name="Trazado 898181" d="M58.987,49.835,57.872,48.72A1.218,1.218,0,0,0,57,48.412a4.669,4.669,0,0,0-1.05-1.617l-1.115-1.113a1.075,1.075,0,0,0-.872-.309,4.623,4.623,0,0,0-1.053-1.616l-1.115-1.115a1.076,1.076,0,0,0-1.519,0c-.566.582-.823.79-1.365,1.388a4.642,4.642,0,0,0-2.93-1.04H44.4a1.074,1.074,0,0,0-1.074,1.074V45.64a4.644,4.644,0,0,0,1.037,2.933c-.025-.007-1.3,1.283-1.385,1.362a1.075,1.075,0,0,0,0,1.52l1.113,1.115a4.638,4.638,0,0,0,1.617,1.049,1.069,1.069,0,0,0,.308.875l1.115,1.115a4.647,4.647,0,0,0,1.616,1.049,1.077,1.077,0,0,0,.308.877l1.115,1.115a4.662,4.662,0,0,0,6.584,0l2.229-2.229a4.655,4.655,0,0,0,0-6.584Zm-5.268-1.52.354-.354.355.354a2.507,2.507,0,0,1,.726,1.609,4.607,4.607,0,0,0-1.17,2.2l-.265-.265A2.511,2.511,0,0,1,53.719,48.315ZM50.68,45.276l.354-.355.355.355a2.49,2.49,0,0,1,.726,1.607,4.615,4.615,0,0,0-1.169,2.2l-.266-.266a2.506,2.506,0,0,1,0-3.546Zm-5.2-.138h.5a2.508,2.508,0,0,1,1.927.905,4.679,4.679,0,0,0-.11,1c0,.145.007.289.02.431a4.723,4.723,0,0,0-1.433.09,2.5,2.5,0,0,1-.905-1.93Zm.136,5.911-.354-.354.354-.355a2.509,2.509,0,0,1,3.544,0l.266.265a4.614,4.614,0,0,0-2.2,1.172A2.517,2.517,0,0,1,45.615,51.05Zm3.039,3.04-.354-.355.354-.354a2.508,2.508,0,0,1,3.546,0l.268.268a4.633,4.633,0,0,0-2.208,1.17A2.481,2.481,0,0,1,48.653,54.09Zm6.586,3.039a2.511,2.511,0,0,1-3.546,0l-.355-.355.355-.354a2.511,2.511,0,0,1,3.546,0l.354.354ZM57.467,54.9l-.354.355-.355-.355a2.509,2.509,0,0,1,0-3.546c.111-.111.071-.07.355-.354l.354.354a2.506,2.506,0,0,1,0,3.546Z" transform="translate(-36.611 -36.264)"/>
      </g>
    </g>
  </g>
</svg>
