<svg xmlns="http://www.w3.org/2000/svg" width="42.31" height="42.309" viewBox="0 0 42.31 42.309">
  <path id="Trazado_898496" data-name="Trazado 898496" d="M16.722,44.96l.5.88v0a1.642,1.642,0,0,1-.619,2.228L14.785,49.1h0a1.642,1.642,0,0,1-2.228-.62L7.212,39.04a1.639,1.639,0,0,1,.616-2.23l1.819-1.03h0a1.643,1.643,0,0,1,2.228.617v0l.4.708L17,34.372a5.424,5.424,0,0,1,4.494-.86,46.751,46.751,0,0,0,6.57,2.024.678.678,0,0,1,.089.022A2.55,2.55,0,0,1,29.9,38.628a2.905,2.905,0,0,1-.178.489,3.51,3.51,0,0,0,.724-.321l6.478-3.773c2.36-1.375,3.934-1.22,4.824-.623a2.726,2.726,0,0,1-.023,4.4L29.968,46.041a4.972,4.972,0,0,1-4.024.572h0L17.689,44.4Zm-.691,1.551L10.69,37.073a.274.274,0,0,0-.371-.1L8.5,38h0a.271.271,0,0,0-.1.369h0l5.343,9.44h0a.273.273,0,0,0,.371.1l1.815-1.029h0a.273.273,0,0,0,.1-.371Zm.018-2.739,1.2-.694a.682.682,0,0,1,.518-.068L26.3,45.295a3.651,3.651,0,0,0,2.956-.415h0l11.755-7.237a1.347,1.347,0,0,0-.215-2.211c-.668-.278-1.694-.1-3.183.772L31.13,39.975a4.861,4.861,0,0,1-3.34.589h0l-.8-.131s-2.849-.747-4.354-1.152a.682.682,0,0,1,.354-1.318c1.468.395,2.792.827,4.217,1.122a1.15,1.15,0,0,0,1.376-.811h0a1.187,1.187,0,0,0-.806-1.4,48.783,48.783,0,0,1-6.7-2.06h0a4.122,4.122,0,0,0-3.389.743L12.95,38.295Zm-6.008-5.725A.754.754,0,1,1,9.4,38.9.754.754,0,0,1,10.042,38.046Zm4.1-22.2A7.141,7.141,0,1,1,7,22.983a7.14,7.14,0,0,1,7.141-7.141Zm4.815,10.332a5.776,5.776,0,1,0-9.631,0A5.213,5.213,0,0,1,12.01,23.38a2.963,2.963,0,1,1,4.261,0A5.212,5.212,0,0,1,18.956,26.174Zm-8.569,1.2a5.777,5.777,0,0,0,7.508,0,3.827,3.827,0,0,0-7.508,0Zm3.754-4.449a1.6,1.6,0,1,0-1.6-1.6A1.6,1.6,0,0,0,14.141,22.924ZM29.954,8.186a6.167,6.167,0,0,1,1.14.473l.732-.325a.682.682,0,0,1,.76.141l1.235,1.235a.682.682,0,0,1,.141.759l-.324.732a6.154,6.154,0,0,1,.473,1.143l.746.287a.682.682,0,0,1,.437.637v1.747a.682.682,0,0,1-.437.637l-.747.287a6.225,6.225,0,0,1-.473,1.14l.325.733a.682.682,0,0,1-.141.759l-1.235,1.235a.682.682,0,0,1-.759.141l-.732-.324a6.151,6.151,0,0,1-1.142.473l-.287.746a.682.682,0,0,1-.637.437H27.282a.682.682,0,0,1-.637-.437l-.287-.746a6.211,6.211,0,0,1-1.142-.473l-.733.325a.682.682,0,0,1-.759-.141l-1.235-1.235a.682.682,0,0,1-.141-.76l.325-.731a6.213,6.213,0,0,1-.473-1.141l-.747-.288a.682.682,0,0,1-.437-.637V13.267a.682.682,0,0,1,.437-.637l.747-.287a6.217,6.217,0,0,1,.474-1.142l-.325-.732a.682.682,0,0,1,.141-.76l1.235-1.235a.682.682,0,0,1,.76-.141l.732.325a6.168,6.168,0,0,1,1.141-.473l.289-.749A.682.682,0,0,1,27.282,7h1.747a.682.682,0,0,1,.637.438ZM28.8,9l-.244-.634h-.81L27.505,9a.683.683,0,0,1-.479.418A4.812,4.812,0,0,0,25.613,10a.682.682,0,0,1-.635.043l-.62-.276-.572.572.276.62a.682.682,0,0,1-.043.635,4.855,4.855,0,0,0-.588,1.416.683.683,0,0,1-.418.478l-.633.243v.81l.633.243a.682.682,0,0,1,.418.477,4.843,4.843,0,0,0,.587,1.414.683.683,0,0,1,.043.636l-.276.62.573.573.621-.275a.683.683,0,0,1,.633.042,4.848,4.848,0,0,0,1.416.586.683.683,0,0,1,.48.419l.243.633h.81l.243-.633a.682.682,0,0,1,.479-.419,4.792,4.792,0,0,0,1.412-.585.683.683,0,0,1,.635-.044l.621.275.573-.573-.275-.621a.683.683,0,0,1,.042-.633,4.858,4.858,0,0,0,.587-1.415.682.682,0,0,1,.419-.479l.633-.243v-.81l-.633-.243a.683.683,0,0,1-.419-.48,4.8,4.8,0,0,0-.586-1.415.683.683,0,0,1-.043-.634l.275-.621-.573-.573-.62.276A.682.682,0,0,1,30.7,10a4.812,4.812,0,0,0-1.413-.586A.683.683,0,0,1,28.8,9Zm-.649,1.411a3.731,3.731,0,1,1-3.73,3.73,3.73,3.73,0,0,1,3.73-3.73Zm0,1.365a2.366,2.366,0,1,0,2.367,2.365,2.364,2.364,0,0,0-2.367-2.365ZM42.17,30.124a7.14,7.14,0,1,1,7.14-7.14A7.154,7.154,0,0,1,42.17,30.124Zm0-1.365a5.775,5.775,0,1,0-5.775-5.775,5.786,5.786,0,0,0,5.775,5.775Zm-.682-9.546V18.9a.682.682,0,1,1,1.365,0v.306A2.592,2.592,0,0,1,44.7,20.759a.682.682,0,1,1-1.258.528,1.392,1.392,0,0,0-1.828-.687.86.86,0,0,0-.618.832v0a.719.719,0,0,0,.471.617,2.979,2.979,0,0,0,.818.236h0c1.172.193,2.452.734,2.62,2.127a2.214,2.214,0,0,1-2.055,2.362v.295a.682.682,0,1,1-1.365,0v-.3a2.578,2.578,0,0,1-2.05-1.879.682.682,0,0,1,1.324-.33,1.374,1.374,0,0,0,1.475.917h0a1.936,1.936,0,0,0,1.026-.291.614.614,0,0,0,.288-.605h0a.878.878,0,0,0-.587-.7,3.614,3.614,0,0,0-.9-.247c-1.15-.187-2.369-.773-2.433-2.136a2.182,2.182,0,0,1,1.482-2.168,2.816,2.816,0,0,1,.372-.117Zm-12.65,9.136a.682.682,0,0,1-1.365,0V23.707a.682.682,0,1,1,1.365,0Zm1.8,2.54a.682.682,0,0,1-.847-1.07l3.989-3.156a.682.682,0,0,1,.847,1.07Zm-4.113-1.07a.682.682,0,0,1-.847,1.07l-3.989-3.156a.682.682,0,1,1,.847-1.07Z" transform="translate(-7 -7)" fill="#65802c" fill-rule="evenodd"/>
</svg>
