<svg xmlns="http://www.w3.org/2000/svg" width="120" height="120" viewBox="0 0 120 120">
  <g id="Grupo_1105339" data-name="Grupo 1105339" transform="translate(-955.333 -165)">
    <g id="Trazado_874102" data-name="Trazado 874102" transform="translate(955.333 165)" fill="#f3d02c">
      <path d="M 60.00000762939453 117.5000228881836 C 52.2364616394043 117.5000228881836 44.70646286010742 115.9800796508789 37.61917114257812 112.9824066162109 C 34.21260833740234 111.5415496826172 30.92677116394043 109.7580261230469 27.85295295715332 107.6814041137695 C 24.80769920349121 105.6240615844727 21.94397163391113 103.2612609863281 19.34137153625488 100.6586456298828 C 16.7387523651123 98.05604553222656 14.37595272064209 95.19231414794922 12.31862545013428 92.14706420898438 C 10.24198913574219 89.0732421875 8.458479881286621 85.78740692138672 7.017607688903809 82.38082885742188 C 4.01995325088501 75.29355621337891 2.500007629394531 67.7635498046875 2.500007629394531 60.00000762939453 C 2.500007629394531 52.2364616394043 4.01995325088501 44.70646286010742 7.017607688903809 37.61917114257812 C 8.458479881286621 34.21260833740234 10.24198913574219 30.92677116394043 12.31862545013428 27.85295295715332 C 14.37595272064209 24.80769920349121 16.7387523651123 21.94397163391113 19.34137153625488 19.34137153625488 C 21.94397163391113 16.7387523651123 24.80769920349121 14.37595272064209 27.85295295715332 12.31862545013428 C 30.92677116394043 10.24198913574219 34.21260833740234 8.458479881286621 37.61917114257812 7.017607688903809 C 44.70646286010742 4.01995325088501 52.2364616394043 2.500007629394531 60.00000762939453 2.500007629394531 C 67.7635498046875 2.500007629394531 75.29355621337891 4.01995325088501 82.38082885742188 7.017607688903809 C 85.78740692138672 8.458479881286621 89.0732421875 10.24198913574219 92.14706420898438 12.31862545013428 C 95.19231414794922 14.37595272064209 98.05604553222656 16.7387523651123 100.6586456298828 19.34137153625488 C 103.2612609863281 21.94397163391113 105.6240615844727 24.80769920349121 107.6814041137695 27.85295295715332 C 109.7580261230469 30.92677116394043 111.5415496826172 34.21260833740234 112.9824066162109 37.61917114257812 C 115.9800796508789 44.70646286010742 117.5000228881836 52.2364616394043 117.5000228881836 60.00000762939453 C 117.5000228881836 67.7635498046875 115.9800796508789 75.29355621337891 112.9824066162109 82.38082885742188 C 111.5415496826172 85.78740692138672 109.7580261230469 89.0732421875 107.6814041137695 92.14706420898438 C 105.6240615844727 95.19231414794922 103.2612609863281 98.05604553222656 100.6586456298828 100.6586456298828 C 98.05604553222656 103.2612609863281 95.19231414794922 105.6240615844727 92.14706420898438 107.6814041137695 C 89.0732421875 109.7580261230469 85.78740692138672 111.5415496826172 82.38082885742188 112.9824066162109 C 75.29355621337891 115.9800796508789 67.7635498046875 117.5000228881836 60.00000762939453 117.5000228881836 Z" stroke="none"/>
      <path d="M 60.00000762939453 4.999984741210938 C 52.57284545898438 4.999984741210938 45.37050628662109 6.4534912109375 38.59304809570312 9.320106506347656 C 35.33514404296875 10.69808959960938 32.19252777099609 12.40390777587891 29.25246429443359 14.39016723632812 C 26.33905029296875 16.35842895507812 23.59922790527344 18.61901092529297 21.109130859375 21.109130859375 C 18.61901092529297 23.59922790527344 16.35842895507812 26.33905029296875 14.39016723632812 29.25246429443359 C 12.40390777587891 32.19252777099609 10.69808959960938 35.33514404296875 9.320106506347656 38.59304809570312 C 6.4534912109375 45.37050628662109 4.999984741210938 52.57284545898438 4.999984741210938 60.00000762939453 C 4.999984741210938 67.42716979980469 6.4534912109375 74.62950897216797 9.320106506347656 81.40695190429688 C 10.69808959960938 84.66484832763672 12.40388488769531 87.80748748779297 14.39016723632812 90.74754333496094 C 16.35842895507812 93.66096496582031 18.61901092529297 96.40077209472656 21.109130859375 98.89088439941406 C 23.59922790527344 101.380989074707 26.33905029296875 103.6415710449219 29.25246429443359 105.6098251342773 C 32.19252777099609 107.5961074829102 35.33514404296875 109.3019104003906 38.59304809570312 110.6798858642578 C 45.37050628662109 113.5465087890625 52.57284545898438 115.0000076293945 60.00000762939453 115.0000076293945 C 67.42716979980469 115.0000076293945 74.62950897216797 113.5465087890625 81.40695190429688 110.6798858642578 C 84.66484832763672 109.3019104003906 87.80748748779297 107.5961074829102 90.74754333496094 105.6098251342773 C 93.66096496582031 103.6415710449219 96.40077209472656 101.380989074707 98.89088439941406 98.89088439941406 C 101.380989074707 96.40077209472656 103.6415710449219 93.66096496582031 105.6098251342773 90.74754333496094 C 107.5961074829102 87.80748748779297 109.3019104003906 84.66484832763672 110.6798858642578 81.40695190429688 C 113.5465087890625 74.62950897216797 115.0000076293945 67.42716979980469 115.0000076293945 60.00000762939453 C 115.0000076293945 52.57284545898438 113.5465087890625 45.37050628662109 110.6798858642578 38.59304809570312 C 109.3019104003906 35.33514404296875 107.5961074829102 32.19252777099609 105.6098251342773 29.25246429443359 C 103.6415710449219 26.33905029296875 101.380989074707 23.59922790527344 98.89088439941406 21.109130859375 C 96.40077209472656 18.61901092529297 93.66096496582031 16.35842895507812 90.74754333496094 14.39016723632812 C 87.80748748779297 12.40388488769531 84.66484832763672 10.69808959960938 81.40695190429688 9.320106506347656 C 74.62950897216797 6.4534912109375 67.42716979980469 4.999984741210938 60.00000762939453 4.999984741210938 M 60.00000762939453 -1.52587890625e-05 C 93.1370849609375 -1.52587890625e-05 120.0000076293945 26.86290740966797 120.0000076293945 60.00000762939453 C 120.0000076293945 93.1370849609375 93.1370849609375 120.0000076293945 60.00000762939453 120.0000076293945 C 26.86290740966797 120.0000076293945 -1.52587890625e-05 93.1370849609375 -1.52587890625e-05 60.00000762939453 C -1.52587890625e-05 26.86290740966797 26.86290740966797 -1.52587890625e-05 60.00000762939453 -1.52587890625e-05 Z" stroke="none" fill="#fff"/>
    </g>
    <g id="Grupo_1106480" data-name="Grupo 1106480" transform="translate(978.675 187.239)">
      <g id="Grupo_1106467" data-name="Grupo 1106467" transform="translate(2.73 3.921)">
        <path id="Trazado_898076" data-name="Trazado 898076" d="M70.454,40.924a4.708,4.708,0,0,1-2.246,4.022,4.7,4.7,0,0,0-2.258,4.022,4.792,4.792,0,0,0,.353,1.788,4.806,4.806,0,0,1,.376,1.811,4.693,4.693,0,0,1-4.1,4.645,4.768,4.768,0,0,0-2.881,1.517,4.637,4.637,0,0,0-1.2,3.034A4.714,4.714,0,0,1,53.8,66.35a4.564,4.564,0,0,1-1.352-.212,4.725,4.725,0,0,0-5.586,2.5,4.66,4.66,0,0,1-4.245,2.67,4.6,4.6,0,0,1-3.046-1.129,4.705,4.705,0,0,0-6.115,0,4.6,4.6,0,0,1-3.046,1.129,4.667,4.667,0,0,1-4.245-2.67,4.7,4.7,0,0,0-4.245-2.693,4.792,4.792,0,0,0-1.341.188,4.51,4.51,0,0,1-1.376.235,4.7,4.7,0,0,1-4.681-4.587,4.7,4.7,0,0,0-1.2-3.034,4.766,4.766,0,0,0-2.893-1.517A4.721,4.721,0,0,1,6.7,50.768a4.9,4.9,0,0,0,.353-1.8,4.681,4.681,0,0,0-2.246-4.01,4.691,4.691,0,0,1-.788-7.421,4.644,4.644,0,0,0,1.47-3.4,4.6,4.6,0,0,0-.835-2.67,4.669,4.669,0,0,1-.835-2.658,4.724,4.724,0,0,1,3.152-4.445,4.632,4.632,0,0,0,3.046-5.316,4.3,4.3,0,0,1-.071-.859,4.713,4.713,0,0,1,5.08-4.681c.129.012.27.012.388.012a4.708,4.708,0,0,0,4.563-3.61A4.7,4.7,0,0,1,24.554,6.3a4.63,4.63,0,0,1,2.246.576,4.572,4.572,0,0,0,2.234.564A4.671,4.671,0,0,0,32.774,5.6,4.7,4.7,0,0,1,36.5,3.75,4.631,4.631,0,0,1,40.23,5.6a4.72,4.72,0,0,0,5.986,1.282A4.6,4.6,0,0,1,48.462,6.3a4.7,4.7,0,0,1,4.575,3.61,4.675,4.675,0,0,0,4.551,3.61c.129,0,.27,0,.4-.012s.27-.012.388-.012a4.706,4.706,0,0,1,4.61,5.563,4.4,4.4,0,0,0-.094.882,4.716,4.716,0,0,0,3.152,4.434,4.7,4.7,0,0,1,2.305,7.1,4.689,4.689,0,0,0,.635,6.08,4.5,4.5,0,0,1,1.47,3.363Z" transform="translate(-2.55 -3.75)" fill="#81efbb"/>
      </g>
      <g id="Grupo_1106468" data-name="Grupo 1106468" transform="translate(12.996 14.023)">
        <circle id="Elipse_11692" data-name="Elipse 11692" cx="23.685" cy="23.685" r="23.685" fill="#ffeba8"/>
      </g>
      <g id="Grupo_1106469" data-name="Grupo 1106469" transform="translate(34.351 30.404)">
        <path id="Trazado_898077" data-name="Trazado 898077" d="M31.1,44.016S26.63,36.69,32.357,30.751a16.506,16.506,0,0,1,16.606-3.634A5.392,5.392,0,0,0,46.74,32.35c0-.012,1.47,14.054-15.641,11.666Z" transform="translate(-29.439 -26.269)" fill="#81efbb"/>
      </g>
      <g id="Grupo_1106470" data-name="Grupo 1106470" transform="translate(19.488 30.404)">
        <path id="Trazado_898078" data-name="Trazado 898078" d="M33.994,31.421q-.282-.335-.6-.67A16.491,16.491,0,0,0,16.8,27.117a5.382,5.382,0,0,1,2.223,5.222S17.588,46.028,33.982,44.1h.012Z" transform="translate(-16.8 -26.269)" fill="#81efbb"/>
      </g>
      <g id="Grupo_1106471" data-name="Grupo 1106471" transform="translate(1.53 2.78)">
        <path id="Trazado_898079" data-name="Trazado 898079" d="M42.785,72.742a5.826,5.826,0,0,1-3.822-1.423,3.616,3.616,0,0,0-4.587,0,5.876,5.876,0,0,1-9.126-1.94A3.538,3.538,0,0,0,21.064,67.5a5.833,5.833,0,0,1-7.55-5.48,3.508,3.508,0,0,0-3.069-3.41,5.886,5.886,0,0,1-5.116-5.833,5.815,5.815,0,0,1,.447-2.258,3.488,3.488,0,0,0,.259-1.341,3.527,3.527,0,0,0-1.682-3.011,5.881,5.881,0,0,1-.988-9.291A3.452,3.452,0,0,0,4.47,34.321a3.416,3.416,0,0,0-.623-2A5.872,5.872,0,0,1,6.74,23.431a3.51,3.51,0,0,0,2.352-3.316,3.2,3.2,0,0,0-.071-.647,5.193,5.193,0,0,1-.094-1.094,5.932,5.932,0,0,1,1.893-4.316,5.8,5.8,0,0,1,4.457-1.541,2.883,2.883,0,0,0,.294.012,3.539,3.539,0,0,0,3.422-2.717,5.845,5.845,0,0,1,5.716-4.5,5.757,5.757,0,0,1,2.811.729,3.474,3.474,0,0,0,1.658.423,3.521,3.521,0,0,0,2.811-1.376,5.881,5.881,0,0,1,9.338,0,3.517,3.517,0,0,0,4.492.953,5.7,5.7,0,0,1,2.8-.717,5.843,5.843,0,0,1,5.716,4.516,3.543,3.543,0,0,0,3.493,2.7,1.076,1.076,0,0,0,.188-.012,3.9,3.9,0,0,1,.517-.024,5.873,5.873,0,0,1,5.763,6.95,3.4,3.4,0,0,0-.071.659,3.521,3.521,0,0,0,2.364,3.316A5.9,5.9,0,0,1,70.5,28.982,5.821,5.821,0,0,1,69.469,32.3a3.522,3.522,0,0,0,.482,4.563,5.8,5.8,0,0,1,1.835,4.257,5.874,5.874,0,0,1-2.8,5.033,3.5,3.5,0,0,0-1.705,3.022,3.59,3.59,0,0,0,.27,1.341,5.853,5.853,0,0,1-4.669,8.079,3.529,3.529,0,0,0-2.164,1.141A3.475,3.475,0,0,0,59.826,62a5.906,5.906,0,0,1-5.868,5.739,5.8,5.8,0,0,1-1.682-.259,3.587,3.587,0,0,0-4.2,1.87A5.741,5.741,0,0,1,42.785,72.742Zm-6.1-4.61a5.908,5.908,0,0,1,3.834,1.411,3.451,3.451,0,0,0,2.282.847,3.5,3.5,0,0,0,3.187-2,5.932,5.932,0,0,1,5.327-3.363,5.664,5.664,0,0,1,1.658.247,3.583,3.583,0,0,0,1.011.153A3.535,3.535,0,0,0,57.5,61.981,5.921,5.921,0,0,1,59,58.183a5.848,5.848,0,0,1,3.6-1.893,3.525,3.525,0,0,0,3.081-3.481,3.36,3.36,0,0,0-.282-1.352,5.756,5.756,0,0,1-.447-2.246,5.922,5.922,0,0,1,2.822-5.033,3.532,3.532,0,0,0,1.682-3.022A3.452,3.452,0,0,0,68.352,38.6a5.847,5.847,0,0,1-1.846-4.269A5.948,5.948,0,0,1,67.541,31a3.523,3.523,0,0,0,.623-2,3.472,3.472,0,0,0-2.352-3.328,5.88,5.88,0,0,1-3.94-5.539,5.959,5.959,0,0,1,.106-1.105,3.532,3.532,0,0,0-3.528-4.151.89.89,0,0,0-.176.012,3.985,3.985,0,0,1-.529.024A5.846,5.846,0,0,1,52.052,10.4a3.56,3.56,0,0,0-3.434-2.7,3.416,3.416,0,0,0-1.682.435,5.882,5.882,0,0,1-7.491-1.588,3.465,3.465,0,0,0-2.8-1.376,3.509,3.509,0,0,0-2.8,1.388A5.854,5.854,0,0,1,29.167,8.86a5.885,5.885,0,0,1-2.8-.706,3.467,3.467,0,0,0-1.67-.435,3.56,3.56,0,0,0-3.434,2.7,5.879,5.879,0,0,1-5.7,4.516,3.9,3.9,0,0,1-.517-.024,3.4,3.4,0,0,0-2.634.929,3.519,3.519,0,0,0-1.141,2.587,3.332,3.332,0,0,0,.047.635,5.794,5.794,0,0,1-3.8,6.645,3.536,3.536,0,0,0-2.364,3.328,3.433,3.433,0,0,0,.623,1.987,5.76,5.76,0,0,1,1.035,3.34,5.783,5.783,0,0,1-1.846,4.257A3.524,3.524,0,0,0,5.552,44.2a5.834,5.834,0,0,1,2.811,5.01,6.188,6.188,0,0,1-.435,2.234,3.364,3.364,0,0,0-.27,1.364,3.547,3.547,0,0,0,3.058,3.5,5.906,5.906,0,0,1,3.622,1.893,5.829,5.829,0,0,1,1.505,3.787,3.532,3.532,0,0,0,3.5,3.446,3.363,3.363,0,0,0,1.023-.165,6.031,6.031,0,0,1,1.67-.235A5.854,5.854,0,0,1,27.356,68.4a3.506,3.506,0,0,0,3.187,2.011,3.409,3.409,0,0,0,2.282-.847,5.913,5.913,0,0,1,3.857-1.435Z" transform="translate(-1.53 -2.78)"/>
      </g>
      <g id="Grupo_1106472" data-name="Grupo 1106472" transform="translate(11.82 12.917)">
        <path id="Trazado_898080" data-name="Trazado 898080" d="M35.141,61.123A24.861,24.861,0,1,1,60,36.261,24.884,24.884,0,0,1,35.141,61.123Zm0-47.371A22.509,22.509,0,1,0,57.651,36.261,22.541,22.541,0,0,0,35.141,13.752Z" transform="translate(-10.28 -11.4)"/>
      </g>
      <g id="Grupo_1106473" data-name="Grupo 1106473" transform="translate(33.192 29.271)">
        <path id="Trazado_898081" data-name="Trazado 898081" d="M34.965,45.7a28.254,28.254,0,0,1-3.857-.282,1.169,1.169,0,0,1-.847-.553c-.047-.082-4.857-8.173,1.411-14.7a17.553,17.553,0,0,1,17.805-3.94,1.2,1.2,0,0,1,.811.988,1.154,1.154,0,0,1-.564,1.141,4.239,4.239,0,0,0-1.658,4.1c.024.247.588,6.045-3.446,9.937-2.27,2.2-5.516,3.3-9.655,3.3Zm-2.94-2.54c4.963.588,8.644-.235,10.961-2.458,3.211-3.081,2.764-7.962,2.752-8.009a6.709,6.709,0,0,1,1.129-4.728,15.33,15.33,0,0,0-13.489,3.822c-4.245,4.422-2.14,9.773-1.352,11.372Z" transform="translate(-28.453 -25.305)"/>
      </g>
      <g id="Grupo_1106474" data-name="Grupo 1106474" transform="translate(34.78 37.737)">
        <path id="Trazado_898082" data-name="Trazado 898082" d="M30.975,44.06a1.128,1.128,0,0,1-.682-.223,1.183,1.183,0,0,1-.27-1.646,35.48,35.48,0,0,1,9.408-9.5,1.178,1.178,0,0,1,1.247,2,33.881,33.881,0,0,0-8.75,8.879A1.171,1.171,0,0,1,30.975,44.06Z" transform="translate(-29.803 -32.505)"/>
      </g>
      <g id="Grupo_1106475" data-name="Grupo 1106475" transform="translate(18.306 29.281)">
        <path id="Trazado_898083" data-name="Trazado 898083" d="M31.148,45.7c-4.2,0-7.468-1.141-9.761-3.4C17.447,38.41,18,32.695,18.024,32.46a4.19,4.19,0,0,0-1.658-4.093,1.175,1.175,0,0,1,.247-2.129,17.536,17.536,0,0,1,17.805,3.94c.176.176.341.376.517.564l.129.153A1.175,1.175,0,1,1,33.3,32.448l-.141-.165c-.129-.153-.259-.306-.412-.459a15.347,15.347,0,0,0-13.5-3.846,6.709,6.709,0,0,1,1.129,4.728c0,.047-.447,4.857,2.693,7.938,2.305,2.258,5.986,3.116,10.961,2.528a1.176,1.176,0,1,1,.223,2.34,26.134,26.134,0,0,1-3.1.188Z" transform="translate(-15.794 -25.314)"/>
      </g>
      <g id="Grupo_1106476" data-name="Grupo 1106476" transform="translate(27.143 37.743)">
        <path id="Trazado_898084" data-name="Trazado 898084" d="M30.825,40.578a1.185,1.185,0,0,1-.894-.412,27.93,27.93,0,0,0-6.068-5.48,1.178,1.178,0,0,1,1.247-2,30.015,30.015,0,0,1,6.6,5.927,1.184,1.184,0,0,1-.118,1.658A1.1,1.1,0,0,1,30.825,40.578Z" transform="translate(-23.309 -32.509)"/>
      </g>
    </g>
  </g>
</svg>
