<svg xmlns="http://www.w3.org/2000/svg" width="60" height="60" viewBox="0 0 60 60">
  <g id="Grupo_1106213" data-name="Grupo 1106213" transform="translate(-205 -602)">
    <rect id="Rectángulo_402770" data-name="Rectángulo 402770" width="60" height="60" transform="translate(205 602)" fill="#ecdb9f"/>
    <g id="AdobeStock_869049184" transform="translate(151 542.457)">
      <path id="Trazado_897585" data-name="Trazado 897585" d="M531.565,91.543h-.056a.733.733,0,0,1-.676-.786,17.4,17.4,0,0,1,.81-4.195.059.059,0,0,1,.006-.018,10.167,10.167,0,0,1,3.541-5.176,8.318,8.318,0,0,1,.76-7.018c3.29-5.285,12.35-6.652,13.367-6.788a.736.736,0,0,1,.89.863c-.116.874-1.454,10.036-6.789,13.359a8.42,8.42,0,0,1-7.269.7,8.488,8.488,0,0,0-3.1,4.511.058.058,0,0,1-.006.017,15.9,15.9,0,0,0-.743,3.855A.733.733,0,0,1,531.565,91.543ZM536.64,81.1a7.008,7.008,0,0,0,6-.56c2.514-1.568,4.033-4.776,4.866-7.191a29.559,29.559,0,0,0,1.094-4.187,29.681,29.681,0,0,0-4.2,1.094c-2.422.831-5.638,2.351-7.2,4.867A6.979,6.979,0,0,0,536.64,81.1Z" transform="translate(-445.223)" fill="#87ab3a"/>
      <path id="Trazado_897586" data-name="Trazado 897586" d="M296.309,160.662a.733.733,0,0,1-.718-.584,5.266,5.266,0,0,0-2.731-3.413,6.683,6.683,0,0,1-5.754-.573c-4.159-2.6-5.222-9.6-5.337-10.459a.733.733,0,0,1,.856-.882c.742.1,7.885,1.14,10.506,5.342a6.549,6.549,0,0,1,.662,5.41,6.6,6.6,0,0,1,3.233,4.275.733.733,0,0,1-.719.883Zm-12.926-14.3c.4,2.039,1.605,6.677,4.5,8.485a5.18,5.18,0,0,0,4.443.445,5.154,5.154,0,0,0-.441-4.427c-1.814-2.9-6.464-4.1-8.507-4.5Z" transform="translate(-209.19 -73.151)" fill="#87ab3a"/>
      <path id="Trazado_897587" data-name="Trazado 897587" d="M173.169,554.823H173a22.262,22.262,0,0,1-7.826-1.449c-1.822-.7-3.529-1.232-4.639-1.558a.734.734,0,0,1,.416-1.408c1.137.334,2.883.881,4.75,1.6a22.6,22.6,0,0,0,13.553.573,25.635,25.635,0,0,0,6.032-2.323l13.12-9.8a.536.536,0,0,1,.052-.036,1.859,1.859,0,0,0-1.953-3.162l-2.6,1.606-9.024,5.573a.733.733,0,1,1-.77-1.248l11.624-7.18a3.326,3.326,0,1,1,3.524,5.641l-13.133,9.805q-.031.023-.065.044a27.738,27.738,0,0,1-12.9,3.325Z" transform="translate(-93.826 -443.45)" fill="#87ab3a"/>
      <path id="Trazado_897588" data-name="Trazado 897588" d="M188.326,605.8h-5.469a.733.733,0,1,1,0-1.466h5.469a1.756,1.756,0,0,0,1.769-1.676,1.719,1.719,0,0,0-1.719-1.762H180.12a7.179,7.179,0,0,1-3.448-.874h0l-.026-.014a.732.732,0,0,1-.167-.131c-1.575-1.655-5.709-1.446-8.8-.288a.733.733,0,0,1-.515-1.373c3.525-1.322,8.157-1.541,10.289.563a5.723,5.723,0,0,0,2.665.652h8.255a3.185,3.185,0,0,1,3.185,3.264A3.233,3.233,0,0,1,188.326,605.8Z" transform="translate(-100.155 -501.92)" fill="#87ab3a"/>
      <path id="Trazado_897589" data-name="Trazado 897589" d="M65.609,548.437H62.972A1.973,1.973,0,0,1,61,546.466V529.182a1.974,1.974,0,0,1,1.972-1.972h2.637a1.974,1.974,0,0,1,1.972,1.972v17.284A1.974,1.974,0,0,1,65.609,548.437Zm-2.637-19.761a.506.506,0,0,0-.505.505v17.284a.505.505,0,0,0,.505.5h2.637a.505.505,0,0,0,.505-.5V529.182a.506.506,0,0,0-.505-.505Z" transform="translate(0 -435.592)" fill="#87ab3a"/>
      <path id="Trazado_897590" data-name="Trazado 897590" d="M271.825,531.1H271.8a.733.733,0,0,1-.708-.758,4.28,4.28,0,0,1,1.692-3.2,5.981,5.981,0,0,1,3.733-1.253,5.585,5.585,0,0,1,4.842,2.507.733.733,0,1,1-1.268.733,4.186,4.186,0,0,0-3.574-1.777c-2.126,0-3.9,1.362-3.96,3.038A.733.733,0,0,1,271.825,531.1Z" transform="translate(-199.088 -434.341)" fill="#87ab3a"/>
      <path id="Trazado_897591" data-name="Trazado 897591" d="M451.217,502.942a.733.733,0,0,1-.733-.712,2.846,2.846,0,0,0-1.146-2.095,4.51,4.51,0,0,0-2.814-.93c-2.1,0-3.833,1.289-3.954,2.937a.734.734,0,0,1-1.466-.046v-.052c.172-2.414,2.552-4.3,5.417-4.3a5.979,5.979,0,0,1,3.728,1.25,4.287,4.287,0,0,1,1.7,3.19v.027A.733.733,0,0,1,451.217,502.942Z" transform="translate(-360.195 -407.665)" fill="#87ab3a"/>
      <path id="Trazado_897592" data-name="Trazado 897592" d="M622.386,534.285a.733.733,0,0,1-.386-1.358l6.584-4.068a4.279,4.279,0,0,0-3.4-1.527,4.117,4.117,0,0,0-3.628,1.871.733.733,0,0,1-1.382-.341h0a.734.734,0,0,1,.091-.355,5.592,5.592,0,0,1,4.919-2.64,6.128,6.128,0,0,1,3.074.8,4.777,4.777,0,0,1,1.993,2.134.733.733,0,0,1-.282.927l-7.193,4.445A.728.728,0,0,1,622.386,534.285Z" transform="translate(-529.884 -434.319)" fill="#87ab3a"/>
    </g>
  </g>
</svg>
