<svg xmlns="http://www.w3.org/2000/svg" width="42.31" height="51.194" viewBox="0 0 42.31 51.194">
  <g id="Grupo_1106645" data-name="Grupo 1106645" transform="translate(-41.648)">
    <path id="Trazado_898488" data-name="Trazado 898488" d="M155.575,55.42a.853.853,0,0,0,.949-.745,11.305,11.305,0,1,0-1.934,5.076.853.853,0,1,0-1.4-.974,9.6,9.6,0,1,1,1.641-4.307A.853.853,0,0,0,155.575,55.42Z" transform="translate(-82.499 -37.52)" fill="#65802c"/>
    <path id="Trazado_898489" data-name="Trazado 898489" d="M112.944,39.246h-.182V30.767a15.794,15.794,0,1,0-5.451.8.853.853,0,0,0,.05-1.706,14.065,14.065,0,1,1,4.312-.539.853.853,0,0,0-.618.82V40.1a.853.853,0,0,0,.853.853h1.035a.486.486,0,0,1,.4.76l-5.164,7.564a.486.486,0,0,1-.8,0l-5.164-7.564a.485.485,0,0,1,.4-.76h1.035a.853.853,0,0,0,.853-.853V34.787a.853.853,0,0,0-1.706,0v4.459h-.182a2.193,2.193,0,0,0-1.811,3.428l5.164,7.564a2.193,2.193,0,0,0,3.621,0l5.164-7.564a2.193,2.193,0,0,0-1.811-3.428Z" transform="translate(-44.977)" fill="#65802c"/>
    <path id="Trazado_898490" data-name="Trazado 898490" d="M51.147,214.172v-5.208a.853.853,0,0,0-1.706,0v5.982a.853.853,0,0,0,.853.853h.274a.426.426,0,0,1,.352.667l-3.392,4.969a.426.426,0,0,1-.7,0l-3.392-4.969a.426.426,0,0,1,.352-.667h.274a.853.853,0,0,0,.853-.853V200.853a.853.853,0,0,0-1.706,0v13.319a2.134,2.134,0,0,0-1.182,3.256l3.392,4.969a2.134,2.134,0,0,0,3.523,0l3.392-4.969A2.134,2.134,0,0,0,51.147,214.172Z" transform="translate(0 -178.669)" fill="#65802c"/>
    <path id="Trazado_898491" data-name="Trazado 898491" d="M344.2,214.172V200.853a.853.853,0,1,0-1.706,0v14.093a.853.853,0,0,0,.853.853h.274a.426.426,0,0,1,.352.667l-3.392,4.969a.426.426,0,0,1-.7,0l-3.392-4.969a.426.426,0,0,1,.352-.667h.274a.853.853,0,0,0,.853-.853v-5.982a.853.853,0,1,0-1.706,0v5.208a2.134,2.134,0,0,0-1.182,3.256l3.392,4.969a2.134,2.134,0,0,0,3.523,0l3.392-4.969A2.134,2.134,0,0,0,344.2,214.172Z" transform="translate(-261.801 -178.669)" fill="#65802c"/>
    <path id="Trazado_898492" data-name="Trazado 898492" d="M205.156,92.678a.853.853,0,0,0,.853-.853V90.683a3.644,3.644,0,0,0,3.3-3.312c0-2.56-2.3-3.027-3.986-3.368-2-.4-2.618-.692-2.618-1.7,0-.91,1.121-1.678,2.449-1.678a2.749,2.749,0,0,1,2.172.917.853.853,0,0,0,1.354-1.038,4.21,4.21,0,0,0-2.669-1.513V77.853a.853.853,0,1,0-1.706,0v1.141A3.646,3.646,0,0,0,201,82.307c0,2.56,2.3,3.027,3.986,3.368,2,.4,2.618.692,2.618,1.7,0,.91-1.121,1.678-2.449,1.678a2.749,2.749,0,0,1-2.172-.917.853.853,0,0,0-1.354,1.038,4.213,4.213,0,0,0,2.677,1.514v1.14A.853.853,0,0,0,205.156,92.678Z" transform="translate(-142.353 -68.788)" fill="#65802c"/>
  </g>
</svg>
