<svg xmlns="http://www.w3.org/2000/svg" width="42.447" height="40.909" viewBox="0 0 42.447 40.909">
  <g id="Grupo_1106647" data-name="Grupo 1106647" transform="translate(0.001 -9.278)">
    <g id="Grupo_1106646" data-name="Grupo 1106646" transform="translate(-0.001 9.278)">
      <path id="Trazado_898493" data-name="Trazado 898493" d="M95.965,19.812a9.376,9.376,0,0,1,4.9,2.215,13.574,13.574,0,0,0,8.348,3.335q.283.012.566.012a13.538,13.538,0,0,0,10.67-5.21A16.964,16.964,0,0,1,122.7,22.62a.829.829,0,1,0,1.329-.992,18.659,18.659,0,0,0-3-3.158,13.59,13.59,0,0,0-1.982-3.77,13.349,13.349,0,0,0-7.062-4.891,13.69,13.69,0,0,0-8.439.288.829.829,0,1,0,.569,1.557,12.019,12.019,0,0,1,7.41-.252,11.7,11.7,0,0,1,6.192,4.288c.218.293.42.594.609.9-.236-.134-.473-.265-.715-.389a18.3,18.3,0,0,0-7.711-2.016l-1.886-1.663a.829.829,0,1,0-1.1,1.244l.546.481a18.458,18.458,0,0,0-3.706.725.829.829,0,0,0,.483,1.586,17.014,17.014,0,0,1,9.182-.191L111.428,18a.829.829,0,1,0,1.051,1.282l2.815-2.308a16.66,16.66,0,0,1,3.874,2.14A11.883,11.883,0,0,1,101.96,20.78a10.951,10.951,0,0,0-4.774-2.427A11.792,11.792,0,0,1,98.6,15.8a.829.829,0,1,0-1.34-.976,13.492,13.492,0,0,0-1.972,3.92.829.829,0,0,0,.676,1.069Z" transform="translate(-87.355 -9.278)" fill="#65802c"/>
      <path id="Trazado_898494" data-name="Trazado 898494" d="M16.539,191.726A13.546,13.546,0,0,0,5.133,175.695a16.96,16.96,0,0,1,1-3.169.829.829,0,1,0-1.523-.655,18.662,18.662,0,0,0-1.236,4.174,13.592,13.592,0,0,0-2.274,3.6,13.548,13.548,0,0,0,12.414,18.881,13.582,13.582,0,0,0,2.965-.33.829.829,0,0,0,.588-1.12A9.378,9.378,0,0,1,16.539,191.726Zm-7.631,4.2A11.894,11.894,0,0,1,2.627,180.3c.145-.335.3-.661.477-.978,0,.271.007.543.02.813a18.294,18.294,0,0,0,2.11,7.686l-.5,2.465a.829.829,0,1,0,1.625.328l.144-.713a18.46,18.46,0,0,0,2.481,2.847.829.829,0,0,0,1.132-1.212,17.014,17.014,0,0,1-4.756-7.857l2.412.909a.829.829,0,0,0,.584-1.551l-3.406-1.283a16.658,16.658,0,0,1-.084-4.425A11.883,11.883,0,0,1,14.913,191.4a10.95,10.95,0,0,0,.285,5.348,11.722,11.722,0,0,1-6.29-.827Z" transform="translate(0.001 -157.933)" fill="#65802c"/>
      <path id="Trazado_898495" data-name="Trazado 898495" d="M275.694,224.446a13.391,13.391,0,0,0-3.463-7.5.829.829,0,0,0-1.264.051,9.377,9.377,0,0,1-4.37,3.138,13.546,13.546,0,0,0-8.181,17.893,16.955,16.955,0,0,1-3.247.714.829.829,0,0,0,.1,1.652.846.846,0,0,0,.1-.006,18.659,18.659,0,0,0,4.235-1.017,13.469,13.469,0,0,0,2.647.263,13.865,13.865,0,0,0,1.608-.094,13.552,13.552,0,0,0,11.84-15.094Zm-4.118,9.01a11.748,11.748,0,0,1-7.914,4.437c-.363.042-.725.066-1.086.076.234-.137.466-.277.694-.424a18.294,18.294,0,0,0,5.6-5.67l2.383-.8a.829.829,0,1,0-.529-1.571l-.689.232a18.457,18.457,0,0,0,1.225-3.572.829.829,0,1,0-1.615-.374,17.013,17.013,0,0,1-4.426,8.047l-.419-2.543a.829.829,0,1,0-1.636.269l.592,3.592a16.659,16.659,0,0,1-3.79,2.285,11.883,11.883,0,0,1,7.164-15.734,10.95,10.95,0,0,0,4.489-2.921,11.719,11.719,0,0,1,2.428,5.861A11.849,11.849,0,0,1,271.576,233.456Z" transform="translate(-233.347 -199.485)" fill="#65802c"/>
      <circle id="Elipse_11719" data-name="Elipse 11719" cx="0.829" cy="0.829" r="0.829" transform="translate(12.366 2.55)" fill="#65802c"/>
    </g>
  </g>
</svg>
