<svg xmlns="http://www.w3.org/2000/svg" width="120" height="120" viewBox="0 0 120 120">
  <g id="Grupo_1106859" data-name="Grupo 1106859" transform="translate(-955.333 -165)">
    <g id="Trazado_874102" data-name="Trazado 874102" transform="translate(955.333 165)" fill="#f3d02c">
      <path d="M 60.00000762939453 117.5000228881836 C 52.2364616394043 117.5000228881836 44.70646286010742 115.9800796508789 37.61917114257812 112.9824066162109 C 34.21260833740234 111.5415496826172 30.92677116394043 109.7580261230469 27.85295295715332 107.6814041137695 C 24.80769920349121 105.6240615844727 21.94397163391113 103.2612609863281 19.34137153625488 100.6586456298828 C 16.7387523651123 98.05604553222656 14.37595272064209 95.19231414794922 12.31862545013428 92.14706420898438 C 10.24198913574219 89.0732421875 8.458479881286621 85.78740692138672 7.017607688903809 82.38082885742188 C 4.01995325088501 75.29355621337891 2.500007629394531 67.7635498046875 2.500007629394531 60.00000762939453 C 2.500007629394531 52.2364616394043 4.01995325088501 44.70646286010742 7.017607688903809 37.61917114257812 C 8.458479881286621 34.21260833740234 10.24198913574219 30.92677116394043 12.31862545013428 27.85295295715332 C 14.37595272064209 24.80769920349121 16.7387523651123 21.94397163391113 19.34137153625488 19.34137153625488 C 21.94397163391113 16.7387523651123 24.80769920349121 14.37595272064209 27.85295295715332 12.31862545013428 C 30.92677116394043 10.24198913574219 34.21260833740234 8.458479881286621 37.61917114257812 7.017607688903809 C 44.70646286010742 4.01995325088501 52.2364616394043 2.500007629394531 60.00000762939453 2.500007629394531 C 67.7635498046875 2.500007629394531 75.29355621337891 4.01995325088501 82.38082885742188 7.017607688903809 C 85.78740692138672 8.458479881286621 89.0732421875 10.24198913574219 92.14706420898438 12.31862545013428 C 95.19231414794922 14.37595272064209 98.05604553222656 16.7387523651123 100.6586456298828 19.34137153625488 C 103.2612609863281 21.94397163391113 105.6240615844727 24.80769920349121 107.6814041137695 27.85295295715332 C 109.7580261230469 30.92677116394043 111.5415496826172 34.21260833740234 112.9824066162109 37.61917114257812 C 115.9800796508789 44.70646286010742 117.5000228881836 52.2364616394043 117.5000228881836 60.00000762939453 C 117.5000228881836 67.7635498046875 115.9800796508789 75.29355621337891 112.9824066162109 82.38082885742188 C 111.5415496826172 85.78740692138672 109.7580261230469 89.0732421875 107.6814041137695 92.14706420898438 C 105.6240615844727 95.19231414794922 103.2612609863281 98.05604553222656 100.6586456298828 100.6586456298828 C 98.05604553222656 103.2612609863281 95.19231414794922 105.6240615844727 92.14706420898438 107.6814041137695 C 89.0732421875 109.7580261230469 85.78740692138672 111.5415496826172 82.38082885742188 112.9824066162109 C 75.29355621337891 115.9800796508789 67.7635498046875 117.5000228881836 60.00000762939453 117.5000228881836 Z" stroke="none"/>
      <path d="M 60.00000762939453 4.999984741210938 C 52.57284545898438 4.999984741210938 45.37050628662109 6.4534912109375 38.59304809570312 9.320106506347656 C 35.33514404296875 10.69808959960938 32.19252777099609 12.40390777587891 29.25246429443359 14.39016723632812 C 26.33905029296875 16.35842895507812 23.59922790527344 18.61901092529297 21.109130859375 21.109130859375 C 18.61901092529297 23.59922790527344 16.35842895507812 26.33905029296875 14.39016723632812 29.25246429443359 C 12.40390777587891 32.19252777099609 10.69808959960938 35.33514404296875 9.320106506347656 38.59304809570312 C 6.4534912109375 45.37050628662109 4.999984741210938 52.57284545898438 4.999984741210938 60.00000762939453 C 4.999984741210938 67.42716979980469 6.4534912109375 74.62950897216797 9.320106506347656 81.40695190429688 C 10.69808959960938 84.66484832763672 12.40388488769531 87.80748748779297 14.39016723632812 90.74754333496094 C 16.35842895507812 93.66096496582031 18.61901092529297 96.40077209472656 21.109130859375 98.89088439941406 C 23.59922790527344 101.380989074707 26.33905029296875 103.6415710449219 29.25246429443359 105.6098251342773 C 32.19252777099609 107.5961074829102 35.33514404296875 109.3019104003906 38.59304809570312 110.6798858642578 C 45.37050628662109 113.5465087890625 52.57284545898438 115.0000076293945 60.00000762939453 115.0000076293945 C 67.42716979980469 115.0000076293945 74.62950897216797 113.5465087890625 81.40695190429688 110.6798858642578 C 84.66484832763672 109.3019104003906 87.80748748779297 107.5961074829102 90.74754333496094 105.6098251342773 C 93.66096496582031 103.6415710449219 96.40077209472656 101.380989074707 98.89088439941406 98.89088439941406 C 101.380989074707 96.40077209472656 103.6415710449219 93.66096496582031 105.6098251342773 90.74754333496094 C 107.5961074829102 87.80748748779297 109.3019104003906 84.66484832763672 110.6798858642578 81.40695190429688 C 113.5465087890625 74.62950897216797 115.0000076293945 67.42716979980469 115.0000076293945 60.00000762939453 C 115.0000076293945 52.57284545898438 113.5465087890625 45.37050628662109 110.6798858642578 38.59304809570312 C 109.3019104003906 35.33514404296875 107.5961074829102 32.19252777099609 105.6098251342773 29.25246429443359 C 103.6415710449219 26.33905029296875 101.380989074707 23.59922790527344 98.89088439941406 21.109130859375 C 96.40077209472656 18.61901092529297 93.66096496582031 16.35842895507812 90.74754333496094 14.39016723632812 C 87.80748748779297 12.40388488769531 84.66484832763672 10.69808959960938 81.40695190429688 9.320106506347656 C 74.62950897216797 6.4534912109375 67.42716979980469 4.999984741210938 60.00000762939453 4.999984741210938 M 60.00000762939453 -1.52587890625e-05 C 93.1370849609375 -1.52587890625e-05 120.0000076293945 26.86290740966797 120.0000076293945 60.00000762939453 C 120.0000076293945 93.1370849609375 93.1370849609375 120.0000076293945 60.00000762939453 120.0000076293945 C 26.86290740966797 120.0000076293945 -1.52587890625e-05 93.1370849609375 -1.52587890625e-05 60.00000762939453 C -1.52587890625e-05 26.86290740966797 26.86290740966797 -1.52587890625e-05 60.00000762939453 -1.52587890625e-05 Z" stroke="none" fill="#fff"/>
    </g>
    <g id="Grupo_1106863" data-name="Grupo 1106863" transform="translate(978.641 188.306)">
      <path id="Trazado_898758" data-name="Trazado 898758" d="M157.007,18.247a5.582,5.582,0,0,0-1.849-2.717,2.124,2.124,0,0,1-.795-1.667V8.575A1.075,1.075,0,0,0,153.288,7.5h-2.15a1.075,1.075,0,0,0-1.075,1.075v4.484a2.135,2.135,0,0,1-1.138,1.9,5.568,5.568,0,0,0-2.46,2.578c-2.4,5.033-6.668,15.453-15.427,24.2-8.743,8.76-19.163,13.024-24.2,15.427a5.687,5.687,0,0,0,.713,10.541,29.316,29.316,0,0,0,9.4,1.293c9.743-.176,19.991-5.64,27.847-13.5s13.321-18.1,13.5-27.847a29.332,29.332,0,0,0-1.293-9.4Zm0,0" transform="translate(-88.764 -6.424)" fill="#ffcf5d"/>
      <path id="Trazado_898759" data-name="Trazado 898759" d="M206.566,18.9a1.3,1.3,0,0,1,.424.654,24.915,24.915,0,0,1,1.091,8.018c-.146,8.065-4.721,17.367-12.238,24.884s-16.82,12.092-24.885,12.238a4.3,4.3,0,0,0-4.216,4.093,31.944,31.944,0,0,0,4.294.207c9.743-.176,19.991-5.64,27.847-13.5s13.32-18.1,13.5-27.848a29.331,29.331,0,0,0-1.293-9.4,5.582,5.582,0,0,0-1.849-2.717,2.124,2.124,0,0,1-.794-1.667V8.575A1.075,1.075,0,0,0,207.368,7.5h-2.15a1.075,1.075,0,0,0-1.075,1.075v5.287a6.389,6.389,0,0,0,2.422,5.036Zm0,0" transform="translate(-142.843 -6.424)" fill="#ffb545"/>
      <path id="Trazado_898760" data-name="Trazado 898760" d="M63.292,212.478l-3.616-2.289a1.159,1.159,0,0,0-1.737,1.3L59,214.938a12.034,12.034,0,0,0,4.649,6.343l3.553,2.338c0-4.186-.162-8.768-3.91-11.141Zm0,0" transform="translate(-49.59 -179.901)" fill="#28d05b"/>
      <path id="Trazado_898761" data-name="Trazado 898761" d="M29.985,294.07a11.3,11.3,0,0,0-5.947,1.494,11.3,11.3,0,0,0-5.946-1.494A10.722,10.722,0,0,0,8.927,299.6c-1.678,3.059-1.892,6.791-.554,10.908,2.046,6.279,7.477,11.9,12.637,12.2a8.545,8.545,0,0,0,1.484-.027,14.842,14.842,0,0,1,3.09,0,8.545,8.545,0,0,0,1.484.027c5.159-.295,10.59-5.919,12.637-12.2,1.338-4.117,1.123-7.849-.554-10.908a10.722,10.722,0,0,0-9.166-5.533Zm0,0" transform="translate(-6.426 -251.913)" fill="#ff5368"/>
      <path id="Trazado_898762" data-name="Trazado 898762" d="M80.447,310.234a10.681,10.681,0,0,0-3.479-3.761q.234.354.44.722c1.678,3.059,1.893,6.79.554,10.908a20.436,20.436,0,0,1-7.593,10.347,11.177,11.177,0,0,1-6.2,1.85H55.707a11.456,11.456,0,0,0,6.6,3.039,8.552,8.552,0,0,0,1.485-.027,14.706,14.706,0,0,1,3.091,0,8.588,8.588,0,0,0,1.483.027c5.159-.295,10.59-5.919,12.637-12.2,1.338-4.117,1.123-7.849-.555-10.908Zm0,0" transform="translate(-47.723 -262.544)" fill="#d9435b"/>
      <path id="Trazado_898763" data-name="Trazado 898763" d="M323.7,288.8a4.3,4.3,0,0,0-8.362,0,14.334,14.334,0,1,0,8.362,0Zm0,0" transform="translate(-261.442 -244.578)" fill="#ff983b"/>
      <path id="Trazado_898764" data-name="Trazado 898764" d="M344.709,323.66A14.334,14.334,0,0,1,324.668,343.7a14.334,14.334,0,1,0,20.042-20.042Zm0,0" transform="translate(-278.133 -277.268)" fill="#ff7e40"/>
      <path id="Trazado_898765" data-name="Trazado 898765" d="M406.947,246.7l-1.061-3.446a12.029,12.029,0,0,0-4.649-6.343l-1.4-.923a1.387,1.387,0,0,0-2.15,1.159v1.527a8.163,8.163,0,0,0,3.91,7.041l3.616,2.29A1.159,1.159,0,0,0,406.947,246.7Zm0,0" transform="translate(-340.683 -201.968)" fill="#28d05b"/>
      <path id="Trazado_898766" data-name="Trazado 898766" d="M298.546,102.8a1.106,1.106,0,0,0-1.433-.535l-.6.25.461-.461a1.105,1.105,0,0,0,.055-1.529,1.076,1.076,0,0,0-1.544-.024l-.493.493.267-.644a1.075,1.075,0,1,0-1.987-.822l-.583,1.409a1.067,1.067,0,0,0,.074.969,1.189,1.189,0,0,1-.15,1.467,1.1,1.1,0,0,0-.054,1.528,1.075,1.075,0,0,0,1.543.024l.021-.021a1.214,1.214,0,0,1,1.488-.155,1.07,1.07,0,0,0,.959.068l1.409-.583a1.075,1.075,0,0,0,.569-1.434Zm0,0" transform="translate(-250.383 -84.688)" fill="#28d05b"/>
      <path id="Trazado_898767" data-name="Trazado 898767" d="M242.726,128.074a2.147,2.147,0,0,0-2.139.622l-3.527-1.1-2.61,2.74-1.108,4.133-.038-.011a2.15,2.15,0,1,0,1.519,2.634,2.125,2.125,0,0,0,.031-1,2.152,2.152,0,0,0,4.134-1.186,2.15,2.15,0,1,0,2.649-2.666,2.15,2.15,0,0,0,1.088-4.161Zm0,0" transform="translate(-197.545 -109.305)" fill="#d9435b"/>
      <path id="Trazado_898768" data-name="Trazado 898768" d="M246.351,109.289a2.152,2.152,0,0,0-2.633,2.633,2.149,2.149,0,1,0-2.584,2.648,2.151,2.151,0,1,0,1.471,1.508,2.151,2.151,0,0,0,2.077,1.592h.01A2.153,2.153,0,0,0,246.2,114a2.126,2.126,0,0,0-.954-.555,2.15,2.15,0,0,0,1.1-4.156Zm0,0" transform="translate(-204.211 -93.559)" fill="#ff5368"/>
      <path id="Trazado_898769" data-name="Trazado 898769" d="M260.087,3.966a1.076,1.076,0,0,0-1.4-.582l-.644.267.493-.493a1.075,1.075,0,0,0-1.52-1.52l-.493.493.267-.644A1.075,1.075,0,0,0,254.8.665l-.583,1.409L258.1,5.955l1.409-.583a1.075,1.075,0,0,0,.582-1.4Zm0,0" transform="translate(-217.779 0)" fill="#28d05b"/>
      <path id="Trazado_898770" data-name="Trazado 898770" d="M197.483,13.166c2.239-2.239,5.565-1.935,7.8.3s2.543,5.565.3,7.8-8.2,4.57-10.439,2.331.092-8.2,2.331-10.439Zm0,0" transform="translate(-166.402 -9.963)" fill="#ff5368"/>
      <path id="Trazado_898771" data-name="Trazado 898771" d="M205.43,16.881a6.54,6.54,0,0,0-1.771-1.268,5.138,5.138,0,0,1-.964,6.033c-1.7,1.7-5.551,3.453-8.285,3.215a3.378,3.378,0,0,0,.885,2.154c2.239,2.239,8.2-.092,10.439-2.331s1.935-5.565-.3-7.8Zm0,0" transform="translate(-166.546 -13.375)" fill="#d9435b"/>
      <path id="Trazado_898772" data-name="Trazado 898772" d="M106.333,110.921a7.167,7.167,0,1,1-7.167-7.167A7.166,7.166,0,0,1,106.333,110.921Zm0,0" transform="translate(-78.814 -88.882)" fill="#5c87bd"/>
      <path id="Trazado_898773" data-name="Trazado 898773" d="M107.34,109.426a7.166,7.166,0,0,1-9.668,9.668,7.166,7.166,0,1,0,9.668-9.668Zm0,0" transform="translate(-83.673 -93.741)" fill="#456ea2"/>
      <path id="Trazado_898774" data-name="Trazado 898774" d="M67.236,45.642a2.217,2.217,0,0,0-.035-1.19L66.141,41a13.179,13.179,0,0,0-5.058-6.915l-.022-.015-1.4-.924a2.461,2.461,0,0,0-3.811,2.058v1.529a9.456,9.456,0,0,0,.607,3.363,5.346,5.346,0,0,0-3.5,3.3,15.532,15.532,0,0,0-7.265,5.31,15.294,15.294,0,0,0-3.077,8.9,36.968,36.968,0,0,1-9.1,3.293c2.394-5.475,2.446-11.733-1.636-16.086,1.741-1.086,3.4-2.221,4.945-3.385a57.883,57.883,0,0,0,6.149-5.337c7.135-7.139,11.239-15.071,14.777-22.71.849-1.833,1.242-3.056,2.825-3.888a3.207,3.207,0,0,0,1.713-2.852V2.156h2.147v5.29a3.189,3.189,0,0,0,1.2,2.511,4.528,4.528,0,0,1,1.492,2.2c2.377,7.482,1.21,15.38-2.14,22.478a1.073,1.073,0,1,0,1.939.92h0a39.7,39.7,0,0,0,2.581-7.091,31.148,31.148,0,0,0-.336-16.959,6.657,6.657,0,0,0-2.2-3.236,1.054,1.054,0,0,1-.387-.826V2.156A2.152,2.152,0,0,0,64.438,0H62.291a2.153,2.153,0,0,0-2.147,2.151V6.642a1.068,1.068,0,0,1-.56.943c-2.239,1.169-2.848,2.882-3.778,4.887-2.813,6.077-6.894,14.644-14.348,22.1a59.28,59.28,0,0,1-11.269,8.761,12.165,12.165,0,0,0-6.625-2.219,11.821,11.821,0,0,0-4.12.583,16.137,16.137,0,0,1,8.865-8.171A1.078,1.078,0,1,0,29.92,32.1l-.572-.574a1.073,1.073,0,0,0-1.1-.26,18.141,18.141,0,0,0-9.8,7.841c-.371-2.82-1.389-5.635-4.192-7.414L10.644,29.4a2.232,2.232,0,0,0-3.336,2.53l1.06,3.448a13.161,13.161,0,0,0,3.592,5.727,11.807,11.807,0,0,0-10.408,6.1C-.276,50.546-.495,54.614.919,58.972A22.245,22.245,0,0,0,6.33,67.753a13.174,13.174,0,0,0,8.157,4.165,9.685,9.685,0,0,0,1.668-.03,13.608,13.608,0,0,1,2.861,0,9.488,9.488,0,0,0,1.009.053c.217,0,.433-.007.647-.022a13.182,13.182,0,0,0,8.2-4.2,22.068,22.068,0,0,0,3.405-4.4,37.569,37.569,0,0,0,10.455-3.366,15.391,15.391,0,1,0,24.5-14.307ZM10.42,34.746,9.361,31.3c-.008-.026-.013-.044.026-.074.086-.066-.177-.186,3.719,2.286h0c2.66,1.687,3.256,4.675,3.377,8.225l-1.845-1.217a11.013,11.013,0,0,1-4.219-5.773Zm21.791,23.56C30.351,64.025,25.319,69.5,20.539,69.772a7.529,7.529,0,0,1-1.3-.023,15.564,15.564,0,0,0-1.656-.087,15.734,15.734,0,0,0-1.657.087,7.577,7.577,0,0,1-1.308.022,11.083,11.083,0,0,1-6.784-3.549,20.056,20.056,0,0,1-4.877-7.915c-1.226-3.779-1.062-7.26.471-10.06a9.671,9.671,0,0,1,8.254-4.984,10,10,0,0,1,4.862,1.09l.448.3a1.067,1.067,0,0,0,1.372-.165,10.09,10.09,0,0,1,5.111-1.221c6.683.286,11.521,6.447,8.732,15.043ZM58,35.209a.311.311,0,0,1,.484-.261,12.532,12.532,0,0,1,4.392,4.058,1.077,1.077,0,0,0,.441.761,10.811,10.811,0,0,1,.775,1.869l1.06,3.448c.008.026.013.044-.027.074a.081.081,0,0,1-.108.006L61.4,42.873C57.728,40.542,58,37.151,58,35.209ZM58,71.24a13.274,13.274,0,0,1-5.34-25.412,5.354,5.354,0,0,0,.744,2.207,1.074,1.074,0,1,0,1.838-1.114,3.233,3.233,0,0,1,1.685-4.711v3a1.1,1.1,0,0,0,1.041,1.12,1.074,1.074,0,0,0,1.107-1.075V43.812A15.813,15.813,0,0,0,61.215,45.3a3.223,3.223,0,0,1-.459,1.62,1.074,1.074,0,1,0,1.838,1.114,5.352,5.352,0,0,0,.61-1.473l.662.42a2.234,2.234,0,0,0,1.2.353,2.2,2.2,0,0,0,.69-.111A13.271,13.271,0,0,1,58,71.24Zm0,0" transform="translate(0 -0.003)"/>
      <path id="Trazado_898775" data-name="Trazado 898775" d="M92.6,112.811a8.247,8.247,0,1,0-8.231-8.247A8.248,8.248,0,0,0,92.6,112.811Zm0-14.342a6.1,6.1,0,1,1-6.084,6.1A6.1,6.1,0,0,1,92.6,98.468Zm0,0" transform="translate(-72.275 -82.511)"/>
      <path id="Trazado_898776" data-name="Trazado 898776" d="M124.862,125.322a1.073,1.073,0,0,0,1.518,0l.314-.315.315.315a1.075,1.075,0,1,0,1.518-1.521l-.315-.315.315-.315a1.075,1.075,0,1,0-1.518-1.521l-.315.315-.314-.315a1.075,1.075,0,0,0-1.518,1.521l.314.315-.314.315a1.077,1.077,0,0,0,0,1.521Zm0,0" transform="translate(-106.697 -103.942)"/>
      <path id="Trazado_898777" data-name="Trazado 898777" d="M199.673,12.079a6.211,6.211,0,0,0,1.46-6.573l.316-.131a1.075,1.075,0,0,0-.822-1.987l-.519.215-.031-.042.4-.4a1.075,1.075,0,1,0-1.518-1.521l-.4.4-.041-.031.216-.521a1.074,1.074,0,1,0-1.984-.824l-.13.315a6.154,6.154,0,0,0-6.561,1.464c-2.507,2.512-5.153,9.136-2.328,11.967,2.842,2.848,9.467.149,11.944-2.333ZM189.007,8.722a11.942,11.942,0,0,1,2.568-4.756c1.821-1.825,4.469-1.506,6.275.3,1.906,1.91,2.034,4.554.3,6.288a11.91,11.91,0,0,1-4.747,2.573c-1.911.544-3.467.455-4.161-.24s-.783-2.252-.239-4.168Zm0,0" transform="translate(-159.779 0)"/>
      <path id="Trazado_898778" data-name="Trazado 898778" d="M233.44,50.694a1.075,1.075,0,1,0-1.518,0A1.077,1.077,0,0,0,233.44,50.694Zm0,0" transform="translate(-198.411 -41.854)"/>
      <path id="Trazado_898779" data-name="Trazado 898779" d="M212.254,71.92a1.075,1.075,0,1,0-1.518,0A1.077,1.077,0,0,0,212.254,71.92Zm0,0" transform="translate(-180.262 -60.038)"/>
      <path id="Trazado_898780" data-name="Trazado 898780" d="M212.254,50.694a1.075,1.075,0,1,0-1.518,0A1.077,1.077,0,0,0,212.254,50.694Zm0,0" transform="translate(-180.262 -41.854)"/>
      <path id="Trazado_898781" data-name="Trazado 898781" d="M233.44,71.92a1.075,1.075,0,1,0-1.518,0A1.077,1.077,0,0,0,233.44,71.92Zm0,0" transform="translate(-198.411 -60.038)"/>
      <path id="Trazado_898782" data-name="Trazado 898782" d="M254.626,50.694a1.074,1.074,0,1,0-1.518,0A1.077,1.077,0,0,0,254.626,50.694Zm0,0" transform="translate(-216.561 -41.854)"/>
      <path id="Trazado_898783" data-name="Trazado 898783" d="M233.44,29.467a1.075,1.075,0,1,0-1.518,0A1.077,1.077,0,0,0,233.44,29.467Zm0,0" transform="translate(-198.411 -23.67)"/>
      <path id="Trazado_898784" data-name="Trazado 898784" d="M230.719,99.795a3.264,3.264,0,0,0-1.041,1,3.23,3.23,0,0,0-4.326,4.345,3.225,3.225,0,0,0-1.109,4.155,3.226,3.226,0,1,0,4.457,4.471,3.2,3.2,0,0,0,3.1-.11,3.267,3.267,0,0,0,1.046-1.008,3.222,3.222,0,0,0,4.327-4.33,3.217,3.217,0,0,0,1.178-4,1.075,1.075,0,0,0-.738-2.019l-.633.221.424-.424a1.075,1.075,0,1,0-1.518-1.521l-.424.424.22-.634a1.073,1.073,0,0,0-2.012-.747,3.207,3.207,0,0,0-2.952.181Zm2.694,3.051a1.087,1.087,0,0,0-.035.237l-.39.391a1.077,1.077,0,1,0,1.6,1.436,1.077,1.077,0,1,1,1.062,1.748,1.361,1.361,0,0,0-.62,2.319,1.1,1.1,0,0,1,.339.78,1.077,1.077,0,0,1-1.862.742,1.358,1.358,0,0,0-2.31.621,1.076,1.076,0,0,1-1.834.494,1.358,1.358,0,0,0-2.311.626,1.077,1.077,0,1,1-1.621-1.16,1.194,1.194,0,0,1,1-.09,3.113,3.113,0,0,0,3.31-1.426c.1.052.2.1.3.141,2.26.932,4.708-1.007,3.5-2.221a1.073,1.073,0,0,0-1.518,0,1.078,1.078,0,0,1-1.826-.634,1.08,1.08,0,1,0-2.153-.092c.011.9.215,1.468-.349,1.931a.935.935,0,0,1-.838.19,1.076,1.076,0,0,1,.018-2.091,1.362,1.362,0,0,0,.621-2.317,1.1,1.1,0,0,1-.342-.782,1.084,1.084,0,0,1,1.861-.757,1.357,1.357,0,0,0,2.308-.619,1.079,1.079,0,1,1,2.091.531Zm0,0" transform="translate(-190.849 -84.75)"/>
      <path id="Trazado_898785" data-name="Trazado 898785" d="M352.834,348.075A1.075,1.075,0,1,1,351.759,347,1.075,1.075,0,0,1,352.834,348.075Zm0,0" transform="translate(-300.42 -297.263)"/>
      <path id="Trazado_898786" data-name="Trazado 898786" d="M372.834,376.079A1.075,1.075,0,1,1,371.759,375,1.075,1.075,0,0,1,372.834,376.079Zm0,0" transform="translate(-317.553 -321.253)"/>
      <path id="Trazado_898787" data-name="Trazado 898787" d="M332.83,398.079A1.075,1.075,0,1,1,331.755,397,1.075,1.075,0,0,1,332.83,398.079Zm0,0" transform="translate(-283.283 -340.099)"/>
    </g>
  </g>
</svg>
