<svg xmlns="http://www.w3.org/2000/svg" xmlns:xlink="http://www.w3.org/1999/xlink" width="150" height="150" viewBox="0 0 150 150">
  <defs>
    <clipPath id="clip-path">
      <circle id="Elipse_11688" data-name="Elipse 11688" cx="65" cy="65" r="65" transform="translate(1020.051 2645)" fill="#fdc2bd"/>
    </clipPath>
  </defs>
  <g id="Grupo_1106408" data-name="Grupo 1106408" transform="translate(-1257.051 -2627)">
    <circle id="Elipse_11683" data-name="Elipse 11683" cx="75" cy="75" r="75" transform="translate(1257.051 2627)" fill="#dceeb6"/>
    <g id="Enmascarar_grupo_1098807" data-name="Enmascarar grupo 1098807" transform="translate(247 -8)" clip-path="url(#clip-path)">
      <g id="Grupo_1106407" data-name="Grupo 1106407">
        <circle id="Elipse_11685" data-name="Elipse 11685" cx="72" cy="72" r="72" transform="translate(1042.051 2597)" fill="#fdc2bd"/>
        <circle id="Elipse_11686" data-name="Elipse 11686" cx="26" cy="26" r="26" transform="translate(1098.051 2723)" fill="#fdc2bd"/>
        <circle id="Elipse_11689" data-name="Elipse 11689" cx="26" cy="26" r="26" transform="translate(1028.051 2755)" fill="#fdc2bd"/>
        <circle id="Elipse_11687" data-name="Elipse 11687" cx="10" cy="10" r="10" transform="translate(1018.051 2682)" fill="#fdc2bd"/>
      </g>
    </g>
    <g id="Grupo_1106409" data-name="Grupo 1106409" transform="translate(1289.862 2659.309)">
      <path id="Trazado_898017" data-name="Trazado 898017" d="M105,216.164h37.314v18.229H105Zm0,0" transform="translate(-87.691 -180.109)" fill="#fea02c"/>
      <path id="Trazado_898018" data-name="Trazado 898018" d="M146.254,255.566V250H139v3.2Zm0,0" transform="translate(-116.086 -208.363)" fill="#ff5d5d"/>
      <path id="Trazado_898019" data-name="Trazado 898019" d="M26.168,293.044A76.019,76.019,0,0,1,49.949,268.7l.365-.512A76.055,76.055,0,0,0,10,256.625V297.16H23.656Zm0,0" transform="translate(-8.353 -213.9)" fill="#62cd4d"/>
      <path id="Trazado_898020" data-name="Trazado 898020" d="M92.832,297.019l2.512-4.115a76.083,76.083,0,0,1,64.944-36.447v40.562Zm0,0" transform="translate(-77.529 -213.759)" fill="#a0e557"/>
      <path id="Trazado_898021" data-name="Trazado 898021" d="M105,169.119l9.232-9.287,9.232,9.287Zm0,0" transform="translate(-87.691 -133.064)" fill="#fe8f8d"/>
      <path id="Trazado_898022" data-name="Trazado 898022" d="M189.082,169.119l-9.232-9.287H161l9.232,9.287Zm0,0" transform="translate(-134.459 -133.064)" fill="#ff5d5d"/>
      <g id="Grupo_1106443" data-name="Grupo 1106443" transform="translate(1.647 2.149)">
        <path id="Trazado_898023" data-name="Trazado 898023" d="M360.642,46.334c-12.307-9.9-12.307-25.939,0-35.834C372.948,20.395,372.948,36.439,360.642,46.334Zm0,0" transform="translate(-295.126 -10.5)" fill="#a0e557"/>
        <path id="Trazado_898024" data-name="Trazado 898024" d="M28.65,73.424c-9.3-7.481-9.3-19.611,0-27.092C37.954,53.813,37.954,65.943,28.65,73.424Zm0,0" transform="translate(-19.748 -40.425)" fill="#a0e557"/>
        <path id="Trazado_898025" data-name="Trazado 898025" d="M39.713,338.53A63.759,63.759,0,0,0,10,331.125V344.4a50.364,50.364,0,0,1,20.584,4.429" transform="translate(-10 -278.267)" fill="#a0e557"/>
      </g>
      <path id="Trazado_898026" data-name="Trazado 898026" d="M180.547,359.237a64.218,64.218,0,0,1,52.995-28.28v13.271a50.873,50.873,0,0,0-35.907,15.009Zm0,0" transform="translate(-150.783 -275.977)" fill="#62cd4d"/>
      <path id="Trazado_898027" data-name="Trazado 898027" d="M311.753,401.457a52.68,52.68,0,0,0-37.076,15.495,1.649,1.649,0,0,0,2.338,2.325,49.36,49.36,0,0,1,34.738-14.523,1.649,1.649,0,0,0,0-3.3Zm0,0" transform="translate(-228.994 -334.854)"/>
      <path id="Trazado_898028" data-name="Trazado 898028" d="M190.809,388.517a1.648,1.648,0,0,0-2.289-.443,65.072,65.072,0,0,0-17.7,17.708,1.649,1.649,0,1,0,2.738,1.839,61.774,61.774,0,0,1,16.8-16.815,1.649,1.649,0,0,0,.443-2.289Zm0,0" transform="translate(-142.429 -323.442)"/>
      <path id="Trazado_898029" data-name="Trazado 898029" d="M386.6,320.957a64.837,64.837,0,0,0-21.682,3.742,1.648,1.648,0,1,0,1.1,3.108,61.551,61.551,0,0,1,20.583-3.553,1.649,1.649,0,1,0,0-3.3Zm0,0" transform="translate(-303.837 -267.626)"/>
      <path id="Trazado_898030" data-name="Trazado 898030" d="M23.619,73.6A75.141,75.141,0,0,1,67.49,45.956l.009,0a73.478,73.478,0,0,1,15.259-1.608,1.648,1.648,0,1,0,0-3.3,77.579,77.579,0,0,0-13.947,1.268V38.759c5.959-5.044,9.23-11.654,9.23-18.693,0-7.278-3.5-14.1-9.845-19.2a1.65,1.65,0,0,0-2.067,0c-6.348,5.1-9.845,11.924-9.845,19.2,0,7.039,3.271,13.649,9.23,18.693v4.233a78.061,78.061,0,0,0-9.242,2.716V36.055a1.643,1.643,0,0,0-.479-1.162h0l-9.232-9.287a1.65,1.65,0,0,0-1.169-.486H26.541a1.649,1.649,0,0,0-1.169.486L16.14,34.893h0a1.644,1.644,0,0,0-.48,1.162v6.3q-1.723-.316-3.462-.554V35.92A18.816,18.816,0,0,0,19.176,21.6c0-5.627-2.7-10.893-7.594-14.831a1.649,1.649,0,0,0-2.066,0c-4.9,3.937-7.594,9.2-7.594,14.831A18.815,18.815,0,0,0,8.9,35.919v5.5q-3.606-.337-7.254-.341a1.649,1.649,0,0,0,0,3.3,74.357,74.357,0,0,1,37.443,10.1A77.826,77.826,0,0,0,31.3,60.527,65.589,65.589,0,0,0,1.647,53.359a1.649,1.649,0,0,0,0,3.3,62.238,62.238,0,0,1,27.065,6.265A77.914,77.914,0,0,0,21.7,70.682,51.57,51.57,0,0,0,1.647,66.63a1.649,1.649,0,1,0,0,3.3,48.249,48.249,0,0,1,18,3.48q-1.709,2.374-3.24,4.878L13.9,82.4a1.648,1.648,0,1,0,2.814,1.718L19.222,80a73.189,73.189,0,0,1,4.234-6.195,1.561,1.561,0,0,0,.163-.213Zm35.962-53.53c0-5.86,2.681-11.41,7.581-15.76,4.9,4.349,7.581,9.9,7.581,15.76a20.523,20.523,0,0,1-5.932,14.161V21.6a1.649,1.649,0,1,0-3.3,0V34.228a20.52,20.52,0,0,1-5.932-14.161ZM5.22,21.6A15.427,15.427,0,0,1,10.55,10.23,15.426,15.426,0,0,1,15.879,21.6,14.9,14.9,0,0,1,12.2,31.254V20.284a1.649,1.649,0,0,0-3.3,0v10.97A14.9,14.9,0,0,1,5.22,21.6Zm45.439,12.8h-14.2L30.5,28.417H44.7Zm-24.118-5.3,5.269,5.3H21.273Zm-7.584,8.6H34.125V48.188q-1.147-.527-2.308-1.018V41.633a1.649,1.649,0,0,0-1.649-1.649H22.914a1.649,1.649,0,0,0-1.649,1.649v1.96q-1.15-.3-2.308-.565Zm9.562,8.165q-1.961-.723-3.957-1.339V43.281H28.52Zm8.9,3.932V37.7H52.974v9.284a77.374,77.374,0,0,0-8.258,4.008q-1.283.72-2.535,1.49-2.338-1.428-4.758-2.683Zm0,0" transform="translate(0)"/>
      <path id="Trazado_898031" data-name="Trazado 898031" d="M399.047,83.8a1.651,1.651,0,1,0-1.165-.484A1.66,1.66,0,0,0,399.047,83.8Zm0,0" transform="translate(-331.884 -66.811)"/>
      <path id="Trazado_898032" data-name="Trazado 898032" d="M318.151,363.32a1.647,1.647,0,1,0,1.166-.484A1.663,1.663,0,0,0,318.151,363.32Zm0,0" transform="translate(-265.299 -302.601)"/>
    </g>
  </g>
</svg>
