<svg xmlns="http://www.w3.org/2000/svg" width="58.52" height="57.835" viewBox="0 0 58.52 57.835">
  <g id="Grupo_1106614" data-name="Grupo 1106614" transform="translate(-0.001)">
    <path id="Trazado_898396" data-name="Trazado 898396" d="M54.217,62.033H54.18c-.006-2.349-1.326-2.724-3.323-3.29l-.04-.012c-.637-.182-1.277-.335-1.94-.466.009-.162.014-.328.014-.5a7.727,7.727,0,0,0-2.227-5.649,8.481,8.481,0,0,0-6.058-2.3,8.461,8.461,0,0,0-6.055,2.3,7.729,7.729,0,0,0-2.227,5.65c0,.282.013.551.037.81a14.347,14.347,0,0,0-3.1,1.024c-2.036-1-5.544-1.661-10.205-1.914a.864.864,0,1,0-.094,1.725c5.54.3,8.206,1.114,9.435,1.691V93.086a32.479,32.479,0,0,0-9.722-1.639,34.614,34.614,0,0,0-12.6,1.7V62.049c0-.778.166-.909.265-.988a6.439,6.439,0,0,1,1.8-.656l.043-.013a28.925,28.925,0,0,1,6.63-.975.864.864,0,0,0-.094-1.725A30.5,30.5,0,0,0,7.7,58.731l-.043.012c-1.994.566-3.312.941-3.318,3.29H4.3a4.306,4.306,0,0,0-4.3,4.3V96.4a5.461,5.461,0,0,0,5.751,5.529l23.507.029h0l9.462-.01a.864.864,0,0,0,0-1.727h0l-8.6.008V97.6H51.535a2.671,2.671,0,0,0,2.645-2.69V63.761h.037a2.579,2.579,0,0,1,2.577,2.575V96.4a3.75,3.75,0,0,1-4.025,3.8l-10.045.013a.864.864,0,0,0,0,1.727h0l10.044-.013A5.461,5.461,0,0,0,58.521,96.4V66.335a4.308,4.308,0,0,0-4.3-4.3ZM35.763,53.349a6.732,6.732,0,0,1,4.83-1.8h.026a6.735,6.735,0,0,1,4.834,1.8,6.041,6.041,0,0,1,1.711,4.42c0,2.245-.981,3.43-2.119,4.8A8.524,8.524,0,0,0,42.7,67.2H41.47V61.213h1.356a.864.864,0,0,0,0-1.727H38.3a.864.864,0,1,0,0,1.727h1.443V67.2H38.518a8.524,8.524,0,0,0-2.347-4.626c-1.139-1.372-2.122-2.557-2.119-4.8a6.041,6.041,0,0,1,1.711-4.42Zm2.148,15.576H43.3a1.255,1.255,0,1,1,0,2.511H37.911a1.255,1.255,0,1,1,0-2.511Zm-3.069-5.25A6.852,6.852,0,0,1,36.8,67.412a2.982,2.982,0,0,0,1.108,5.751H43.3a2.982,2.982,0,0,0,1.108-5.751,6.853,6.853,0,0,1,1.961-3.737,10.113,10.113,0,0,0,2.219-3.7c.6.119,1.177.257,1.752.422l.042.012a6.453,6.453,0,0,1,1.8.657c.1.078.265.209.265.987V93.144a34.638,34.638,0,0,0-12.607-1.7,32.505,32.505,0,0,0-9.723,1.639V61.1a12.924,12.924,0,0,1,2.594-.835,10.585,10.585,0,0,0,2.125,3.407ZM28.4,94.96v.911H6.983A.935.935,0,0,1,6.073,95c7.149-2.989,18.485-1.852,22.322-.04ZM1.728,96.4V66.336A2.577,2.577,0,0,1,4.3,63.761h.04V94.909A2.669,2.669,0,0,0,6.983,97.6H28.4v2.633L5.753,100.2a3.75,3.75,0,0,1-4.025-3.8Zm49.807-.53H30.123V94.96C33.962,93.148,45.3,92.012,52.448,95a.95.95,0,0,1-.913.872Zm0,0" transform="translate(0 -44.125)" fill="#65802c"/>
    <path id="Trazado_898397" data-name="Trazado 898397" d="M93,292.587a17,17,0,0,0-7.02-1.443,20.686,20.686,0,0,0-8.766,1.406.864.864,0,1,0,.722,1.569c4.517-2.077,12.116-1.246,14.2-.038A.864.864,0,1,0,93,292.587Zm0,0" transform="translate(-67.946 -257.852)" fill="#65802c"/>
    <path id="Trazado_898398" data-name="Trazado 898398" d="M93,348.051a17,17,0,0,0-7.02-1.443,20.679,20.679,0,0,0-8.766,1.406.864.864,0,1,0,.722,1.569c4.517-2.077,12.116-1.246,14.2-.038A.864.864,0,1,0,93,348.051Zm0,0" transform="translate(-67.946 -306.976)" fill="#65802c"/>
    <path id="Trazado_898399" data-name="Trazado 898399" d="M93,237.113a16.991,16.991,0,0,0-7.02-1.444,20.645,20.645,0,0,0-8.766,1.407.864.864,0,0,0,.723,1.569c4.514-2.08,12.113-1.247,14.2-.038A.864.864,0,1,0,93,237.113Zm0,0" transform="translate(-67.947 -208.718)" fill="#65802c"/>
    <path id="Trazado_898400" data-name="Trazado 898400" d="M290.309,294.083c2.079-1.209,9.675-2.041,14.193.038a.864.864,0,1,0,.722-1.569,20.662,20.662,0,0,0-8.764-1.406,16.961,16.961,0,0,0-7.019,1.443.864.864,0,1,0,.868,1.493Zm0,0" transform="translate(-255.977 -257.854)" fill="#65802c"/>
    <path id="Trazado_898401" data-name="Trazado 898401" d="M305.222,348.013a20.67,20.67,0,0,0-8.764-1.406,16.969,16.969,0,0,0-7.019,1.444.864.864,0,1,0,.868,1.493c2.079-1.209,9.675-2.041,14.193.038a.864.864,0,0,0,.722-1.569Zm0,0" transform="translate(-255.976 -306.977)" fill="#65802c"/>
    <path id="Trazado_898402" data-name="Trazado 898402" d="M348.625,3.994a.864.864,0,0,0,.864-.863V.864a.864.864,0,1,0-1.727,0V3.13A.864.864,0,0,0,348.625,3.994Zm0,0" transform="translate(-308.013)" fill="#65802c"/>
    <path id="Trazado_898403" data-name="Trazado 898403" d="M271.259,26.537a.864.864,0,1,0,1.221-1.222l-1.606-1.606a.864.864,0,0,0-1.222,1.222Zm0,0" transform="translate(-238.606 -20.776)" fill="#65802c"/>
    <path id="Trazado_898404" data-name="Trazado 898404" d="M412.928,26.79a.86.86,0,0,0,.611-.254l1.6-1.606a.864.864,0,1,0-1.222-1.22l-1.6,1.606a.864.864,0,0,0,.611,1.474Zm0,0" transform="translate(-364.965 -20.775)" fill="#65802c"/>
    <path id="Trazado_898405" data-name="Trazado 898405" d="M76.793,182.747a.864.864,0,0,0,1.146.424c4.513-2.076,12.113-1.244,14.2-.038A.864.864,0,1,0,93,181.639a17.023,17.023,0,0,0-7.019-1.442,20.685,20.685,0,0,0-8.766,1.4.864.864,0,0,0-.424,1.146Zm0,0" transform="translate(-67.946 -159.587)" fill="#65802c"/>
  </g>
</svg>
