<svg xmlns="http://www.w3.org/2000/svg" width="60" height="60" viewBox="0 0 60 60">
  <g id="Grupo_1107182" data-name="Grupo 1107182" transform="translate(-205 -602)">
    <rect id="Rectángulo_402770" data-name="Rectángulo 402770" width="60" height="60" transform="translate(205 602)" fill="#ecdb9f"/>
    <g id="Grupo_1107187" data-name="Grupo 1107187" transform="translate(213.918 594.819)">
      <g id="Grupo_1107186" data-name="Grupo 1107186" transform="translate(0 17.544)">
        <path id="Trazado_899724" data-name="Trazado 899724" d="M41.134,53.352H39.487V41.216a.618.618,0,1,0-1.235,0V53.352H36.275V39.411a1.03,1.03,0,0,0-1.029-1.029H26.613a1.03,1.03,0,0,0-1.029,1.029V53.352H23.84V39.411a1.03,1.03,0,0,0-1.029-1.029H3.912V36.3a2.949,2.949,0,0,0,3.15-1.034,2.951,2.951,0,0,0,4.673,0,2.951,2.951,0,0,0,4.673,0,2.951,2.951,0,0,0,4.673,0,2.951,2.951,0,0,0,4.673,0,2.951,2.951,0,0,0,4.673,0,2.951,2.951,0,0,0,4.673,0,2.949,2.949,0,0,0,3.15,1.034v2.032a.618.618,0,0,0,1.235,0V35.588a2.945,2.945,0,0,0,.906-2.126v-2.1a.616.616,0,0,0-.049-.242l-2.435-5.73a1.439,1.439,0,0,0-1.326-.877H34.16v-.946a3.014,3.014,0,0,0-.214-6.021H20.133a3.015,3.015,0,0,0-.321,6.012v.954h-3.35a5.438,5.438,0,1,0-10.437,0H5.581a1.439,1.439,0,0,0-1.326.877L1.82,31.118a.618.618,0,0,0-.049.242v2.1a2.945,2.945,0,0,0,.906,2.126v9.986a2.164,2.164,0,0,0-.909,1.762v.554H1a1,1,0,0,0-1,1v6.923a1,1,0,0,0,1,1H41.134a1.03,1.03,0,0,0,1.029-1.029V54.382a1.031,1.031,0,0,0-1.029-1.029ZM10.66,46.664a.928.928,0,0,1,1.572.672v.554h-4v-.554a.928.928,0,0,1,1.572-.671.618.618,0,0,0,.853,0Zm-1.2-1.474a2.158,2.158,0,0,0-1.841.633,2.156,2.156,0,0,0-2.152-.566.928.928,0,0,1,1.572-.67.617.617,0,0,0,.853,0,.928.928,0,0,1,1.568.6Zm-.139-5.573v3.625a2.148,2.148,0,0,0-1.238-.1v-.018a.618.618,0,0,0-1.235,0v.018a2.162,2.162,0,0,0-2.615,2.05,2.172,2.172,0,0,0-.3-.021H3.912V39.617H9.319Zm1.8-6.155a1.719,1.719,0,0,1-3.438,0V31.977h3.438Zm4.673,0a1.719,1.719,0,0,1-3.438,0V31.977h3.438Zm4.673,0a1.719,1.719,0,0,1-3.438,0V31.977h3.438Zm4.673,0a1.719,1.719,0,0,1-3.438,0V31.977h3.438Zm4.673,0a1.719,1.719,0,0,1-3.438,0V31.977h3.438Zm4.673,0a1.719,1.719,0,0,1-3.438,0V31.977h3.438Zm4.673,0a1.719,1.719,0,0,1-3.438,0V31.977h3.438Zm-20.8-12.9a1.781,1.781,0,0,1,1.779-1.779H33.946a1.779,1.779,0,0,1,0,3.559H20.133A1.781,1.781,0,0,1,18.354,20.559Zm14.571,3.015v.937H32.1v-.937Zm-11.053,0v.937h-.823v-.937ZM11.244,18.779a4.2,4.2,0,1,1-4.2,4.2A4.208,4.208,0,0,1,11.244,18.779ZM5.392,25.871a.206.206,0,0,1,.189-.125h.982a5.434,5.434,0,0,0,9.363,0h11.5a.618.618,0,0,0,0-1.235H23.107v-.937h7.759v.937H30.3a.618.618,0,1,0,0,1.235h6.277a.206.206,0,0,1,.189.125l2.07,4.87H3.322ZM3.006,31.977H6.444v1.485a1.719,1.719,0,0,1-3.438,0ZM3,47.336a.928.928,0,0,1,1.572-.672.617.617,0,0,0,.853,0A.928.928,0,0,1,7,47.336v.554H3Zm11,8.246H1.235V52.971H14Zm0-3.846H1.235V49.125H14ZM22.6,55.582h-7.37v-4.6H22.6Zm0-5.833H17.2v-2.11a.618.618,0,1,0-1.235,0v2.11h-.727v-.857a1,1,0,0,0-1-1h-.765v-.554a2.163,2.163,0,0,0-2.77-2.079,2.152,2.152,0,0,0-.143-.77v-4.87h5.408v5.14a.618.618,0,1,0,1.235,0v-5.14H22.6Zm2.979,5.833H23.84v-.995h1.744Zm9.456,0H26.819V39.617H35.04Zm5.888,0H36.275v-.995h4.653Z" transform="translate(0 -17.544)" fill="#87ab3a"/>
        <path id="Trazado_899725" data-name="Trazado 899725" d="M101.3,52.216h1.007a2.617,2.617,0,0,0,2.614-2.614v-.264A2.129,2.129,0,0,0,103,47.213a2.086,2.086,0,0,0-.581.033v-.088a.618.618,0,0,0-1.235,0v.088a2.085,2.085,0,0,0-.581-.033,2.129,2.129,0,0,0-1.918,2.125V49.6A2.617,2.617,0,0,0,101.3,52.216Zm-1.378-2.877a.886.886,0,0,1,.787-.895c.025,0,.05,0,.075,0a.851.851,0,0,1,.593.24.618.618,0,0,0,.853,0,.851.851,0,0,1,.668-.237.886.886,0,0,1,.787.895V49.6a1.38,1.38,0,0,1-1.378,1.378H101.3A1.38,1.38,0,0,1,99.921,49.6v-.263Z" transform="translate(-90.559 -44.153)" fill="#87ab3a"/>
        <path id="Trazado_899726" data-name="Trazado 899726" d="M336.332,306.444h4.576a1.031,1.031,0,0,0,1.029-1.029v-9.175a1.031,1.031,0,0,0-1.029-1.029h-4.576a1.031,1.031,0,0,0-1.029,1.029v9.175A1.031,1.031,0,0,0,336.332,306.444Zm.206-10H340.7v8.763h-4.164Z" transform="translate(-307.691 -272.344)" fill="#87ab3a"/>
        <path id="Trazado_899727" data-name="Trazado 899727" d="M335.921,447.861h5.4a.618.618,0,0,0,0-1.235h-5.4a.618.618,0,0,0,0,1.235Z" transform="translate(-307.691 -411.291)" fill="#87ab3a"/>
        <path id="Trazado_899728" data-name="Trazado 899728" d="M251.472,47.887H263a.618.618,0,0,0,0-1.235H251.472a.618.618,0,0,0,0,1.235Z" transform="translate(-230.196 -44.255)" fill="#87ab3a"/>
      </g>
    </g>
  </g>
</svg>
