<svg xmlns="http://www.w3.org/2000/svg" width="50.592" height="70" viewBox="0 0 50.592 70">
  <g id="Grupo_1106243" data-name="Grupo 1106243" transform="translate(-8.8 0.1)">
    <g id="Grupo_1106242" data-name="Grupo 1106242" transform="translate(8.8 -0.1)">
      <g id="Grupo_1106229" data-name="Grupo 1106229" transform="translate(6.869 61.823)">
        <path id="Trazado_897608" data-name="Trazado 897608" d="M37.016,58.781H16.19a1.093,1.093,0,0,1-1.09-1.09,1.173,1.173,0,0,1,1.09-1.09H37.016a1.09,1.09,0,1,1,0,2.181Z" transform="translate(-15.1 -56.6)" fill="#65802c"/>
      </g>
      <g id="Grupo_1106230" data-name="Grupo 1106230" transform="translate(6.869 37.726)">
        <path id="Trazado_897609" data-name="Trazado 897609" d="M26.331,36.681H16.19a1.093,1.093,0,0,1-1.09-1.09,1.173,1.173,0,0,1,1.09-1.09h10.14a1.09,1.09,0,1,1,0,2.181Z" transform="translate(-15.1 -34.5)" fill="#65802c"/>
      </g>
      <g id="Grupo_1106231" data-name="Grupo 1106231" transform="translate(6.869 28.131)">
        <path id="Trazado_897610" data-name="Trazado 897610" d="M29.275,27.881H16.19a1.093,1.093,0,0,1-1.09-1.09,1.173,1.173,0,0,1,1.09-1.09H29.275a1.09,1.09,0,1,1,0,2.181Z" transform="translate(-15.1 -25.7)" fill="#65802c"/>
      </g>
      <g id="Grupo_1106232" data-name="Grupo 1106232" transform="translate(6.869 5.343)">
        <path id="Trazado_897611" data-name="Trazado 897611" d="M37.016,6.981H16.19A1.093,1.093,0,0,1,15.1,5.89,1.173,1.173,0,0,1,16.19,4.8H37.016a1.09,1.09,0,0,1,0,2.181Z" transform="translate(-15.1 -4.8)" fill="#65802c"/>
      </g>
      <g id="Grupo_1106233" data-name="Grupo 1106233" transform="translate(23.368 49.645)">
        <path id="Trazado_897612" data-name="Trazado 897612" d="M31.4,48.014a1.3,1.3,0,0,1-.981-.545,1.072,1.072,0,0,1,.327-1.526l.436-.327a1.1,1.1,0,0,1,1.2,1.854l-.436.327A.833.833,0,0,1,31.4,48.014Z" transform="translate(-30.231 -45.431)" fill="#65802c"/>
      </g>
      <g id="Grupo_1106234" data-name="Grupo 1106234" transform="translate(0.162 50.002)">
        <path id="Trazado_897613" data-name="Trazado 897613" d="M12.6,65.648a3.807,3.807,0,0,1-2.617-1.09A3.508,3.508,0,0,1,9,61.5c.763-6,4.907-11.449,11.667-15.592a1.123,1.123,0,0,1,1.09,1.963c-6.215,3.707-9.922,8.614-10.576,13.956a1.3,1.3,0,0,0,.436,1.2,1.4,1.4,0,0,0,1.09.436h.327a1.4,1.4,0,0,0,1.308-1.308c.654-5.125,5.016-9.813,12.1-13.084a1.254,1.254,0,0,1,1.526.545,1.145,1.145,0,0,1-.545,1.526c-6.324,2.944-10.249,7.087-10.794,11.34a3.707,3.707,0,0,1-3.271,3.271h-.327a.824.824,0,0,0-.436-.109Z" transform="translate(-8.949 -45.759)" fill="#65802c"/>
      </g>
      <g id="Grupo_1106235" data-name="Grupo 1106235" transform="translate(17.253 45.532)">
        <path id="Trazado_897614" data-name="Trazado 897614" d="M25.688,45.411a.954.954,0,0,1-.981-.654,1.254,1.254,0,0,1,.545-1.526c.981-.436,1.963-.981,2.835-1.417a1.123,1.123,0,0,1,1.09,1.963c-.981.545-2.072,1.09-3.053,1.526-.109.109-.218.109-.436.109Z" transform="translate(-24.623 -41.659)" fill="#65802c"/>
      </g>
      <g id="Grupo_1106236" data-name="Grupo 1106236" transform="translate(0.261)">
        <path id="Trazado_897615" data-name="Trazado 897615" d="M31.785,24.542a1.55,1.55,0,0,1-.654-.218,28.4,28.4,0,0,0-5.452-2.944C16.3,17.455,10.414,11.458,9.105,4.37a3.76,3.76,0,0,1,.872-3.162A3.671,3.671,0,0,1,12.813-.1h.327a3.689,3.689,0,0,1,3.489,2.944c.872,4.361,5.234,8.5,11.994,11.449a36.5,36.5,0,0,1,9.7,5.888A1.159,1.159,0,1,1,36.8,21.925a31.048,31.048,0,0,0-9.159-5.561C20.336,13.311,15.43,8.514,14.448,3.389a1.394,1.394,0,0,0-1.308-1.2H12.7a1.937,1.937,0,0,0-1.09.436,1.359,1.359,0,0,0-.327,1.308c1.2,6.215,6.542,11.776,15.156,15.374A37.4,37.4,0,0,1,32.33,22.47,1.091,1.091,0,0,1,32.657,24a.9.9,0,0,1-.872.545Z" transform="translate(-9.039 0.1)" fill="#65802c"/>
      </g>
      <g id="Grupo_1106237" data-name="Grupo 1106237" transform="translate(0.261 0)">
        <path id="Trazado_897616" data-name="Trazado 897616" d="M31.785,24.542a1.55,1.55,0,0,1-.654-.218,28.384,28.384,0,0,0-4.47-2.508h-.218c-.218-.109-.545-.218-.763-.327a37.667,37.667,0,0,1-5.125-2.617C14.121,15.056,10.2,10.04,9.105,4.37a3.76,3.76,0,0,1,.872-3.162A3.671,3.671,0,0,1,12.813-.1h.436a3.689,3.689,0,0,1,3.489,2.944c.872,4.143,4.8,8.069,11.013,10.9l.218.109c.218.109.545.218.763.327A32.223,32.223,0,0,1,33.856,16.8a29.27,29.27,0,0,1,4.579,3.38,1.159,1.159,0,0,1-1.526,1.745,43.043,43.043,0,0,0-4.252-3.162,39.335,39.335,0,0,0-4.8-2.4c-.327-.109-.545-.218-.872-.327l-.218-.109C19.9,12.766,15.539,8.3,14.557,3.389a1.394,1.394,0,0,0-1.308-1.2h-.436a1.937,1.937,0,0,0-1.09.436,1.23,1.23,0,0,0-.327,1.2c.981,5.016,4.47,9.486,10.358,12.975a39.38,39.38,0,0,0,4.8,2.4c.327.109.545.218.872.327l.218.109a32.705,32.705,0,0,1,4.8,2.726,1.091,1.091,0,0,1,.327,1.526,1.075,1.075,0,0,1-.981.654Z" transform="translate(-9.039 0.1)" fill="#65802c"/>
      </g>
      <g id="Grupo_1106238" data-name="Grupo 1106238" transform="translate(17.228 0.109)">
        <path id="Trazado_897617" data-name="Trazado 897617" d="M31.687,18.972a.817.817,0,0,1-.545-.109,32.759,32.759,0,0,0-4.8-2.4,7.512,7.512,0,0,0-.872-.327l-.218-.109a1.048,1.048,0,0,1-.654-.981.954.954,0,0,1,.654-.981c6.106-2.835,10.14-6.869,11.013-10.9A3.5,3.5,0,0,1,39.647,0h.436a3.373,3.373,0,0,1,2.835,1.308,3.445,3.445,0,0,1,.872,3.053c-1.09,5.67-5.016,10.685-11.449,14.5A1.383,1.383,0,0,1,31.687,18.972Zm-3.271-4.143a32.856,32.856,0,0,1,3.38,1.745c5.561-3.489,8.941-7.851,9.813-12.648a1.23,1.23,0,0,0-.327-1.2,1.342,1.342,0,0,0-1.09-.545h-.436a1.394,1.394,0,0,0-1.308,1.2c-.872,4.361-4.361,8.4-10.031,11.449Z" transform="translate(-24.6 0)" fill="#65802c"/>
      </g>
      <g id="Grupo_1106239" data-name="Grupo 1106239" transform="translate(0 16.846)">
        <path id="Trazado_897618" data-name="Trazado 897618" d="M41.729,68.4h-.654a3.817,3.817,0,0,1-3.38-3.271c-.545-4.47-4.8-8.723-11.558-11.667l-2.181-.981C14.361,47.9,8.8,40.81,8.8,33.068c0-6.76,4.143-12.975,11.776-17.555a1.177,1.177,0,0,1,1.2,0,39.381,39.381,0,0,0,4.8,2.4c.327.109.545.218.872.327l.218.109a1.048,1.048,0,0,1,.654.981.954.954,0,0,1-.654.981c-7.087,3.271-11.122,7.851-11.122,12.539,0,5.016,4.47,9.7,12.212,13.084l1.636.763c8.832,4.252,14.175,10.358,15.047,17.446a4.108,4.108,0,0,1-.872,2.944A3.839,3.839,0,0,1,41.729,68.4ZM21.23,17.8C14.688,21.838,11.2,27.289,11.2,33.068c0,6.869,5.016,13.193,13.847,17.337l2.072.981c7.523,3.271,12.212,8.178,12.866,13.52a1.4,1.4,0,0,0,1.308,1.308h.436a1.937,1.937,0,0,0,1.09-.436,1.23,1.23,0,0,0,.327-1.2c-.763-6.106-5.779-11.885-13.738-15.592l-1.636-.763c-8.614-3.707-13.52-9.159-13.52-15.156,0-5.125,3.707-9.922,10.249-13.52A31.079,31.079,0,0,1,21.23,17.8Z" transform="translate(-8.8 -15.35)" fill="#65802c"/>
      </g>
      <g id="Grupo_1106240" data-name="Grupo 1106240" transform="translate(21.262 21.262)">
        <path id="Trazado_897619" data-name="Trazado 897619" d="M43.674,49.385H42.256A2.561,2.561,0,0,1,39.749,47.2l-.327-2.181a.235.235,0,0,0-.218-.218,3.873,3.873,0,0,1-.981-.436H38L36.26,45.677a2.493,2.493,0,0,1-3.271-.218l-.981-1.09a2.484,2.484,0,0,1-.218-3.271L33.1,39.353a.2.2,0,0,0,0-.327c-.109-.327-.327-.654-.436-.981,0-.109-.109-.109-.218-.218L30.372,37.5A2.481,2.481,0,0,1,28.3,34.992V33.465a2.567,2.567,0,0,1,2.072-2.508l2.072-.327c.109,0,.109-.109.218-.109a3.873,3.873,0,0,1,.436-.981v-.218l-1.308-1.636a2.493,2.493,0,0,1,.218-3.271l.981-1.09a2.493,2.493,0,0,1,3.271-.218L38,24.416c.109,0,.218.109.218,0,.327-.109.654-.327.981-.436.109,0,.109-.109.109-.218l.327-2.181A2.576,2.576,0,0,1,42.147,19.4h1.417a2.561,2.561,0,0,1,2.508,2.181l.327,2.181a.235.235,0,0,0,.218.218,3.873,3.873,0,0,1,.981.436c.109,0,.218.109.327,0l1.745-1.308a2.493,2.493,0,0,1,3.271.218l.981,1.09a2.484,2.484,0,0,1,.218,3.271l-1.308,1.745c0,.109-.109.218,0,.327.109.327.327.654.436.981,0,.109.109.109.218.218l2.072.327a2.481,2.481,0,0,1,2.072,2.508v1.526a2.567,2.567,0,0,1-2.072,2.508l-2.072.327c-.109,0-.109.109-.218.218a3.873,3.873,0,0,1-.436.981v.218l1.308,1.745a2.493,2.493,0,0,1-.218,3.271l-.981,1.09a2.493,2.493,0,0,1-3.271.218l-1.745-1.308c-.109,0-.109-.109-.218,0-.327.109-.654.327-.981.436-.109,0-.109.109-.218.218l-.327,2.181a2.709,2.709,0,0,1-2.508,1.963Zm-5.452-7.2a3.874,3.874,0,0,1,1.09.218c.218.109.545.218.763.327A2.5,2.5,0,0,1,41.711,44.7l.327,2.181a.235.235,0,0,0,.218.218h1.417a.235.235,0,0,0,.218-.218l.327-2.181a2.5,2.5,0,0,1,1.636-1.963c.218-.109.545-.218.763-.327a2.325,2.325,0,0,1,2.508.218l1.745,1.308a.2.2,0,0,0,.327,0l.981-1.09a.2.2,0,0,0,0-.327l-1.2-1.745a2.343,2.343,0,0,1-.218-2.508c.109-.218.218-.545.327-.763a2.5,2.5,0,0,1,1.963-1.636l2.181-.327a.235.235,0,0,0,.218-.218V33.793a.235.235,0,0,0-.218-.218l-2.181-.436A2.5,2.5,0,0,1,51.088,31.5c-.109-.218-.218-.545-.327-.763a2.3,2.3,0,0,1,.218-2.508l1.308-1.745a.2.2,0,0,0,0-.327l-.981-1.09a.2.2,0,0,0-.327,0l-1.745,1.308a2.514,2.514,0,0,1-2.617.218c-.218-.109-.545-.218-.763-.327a2.5,2.5,0,0,1-1.636-1.963l-.327-2.181a.235.235,0,0,0-.218-.218H42.256a.235.235,0,0,0-.218.218l-.327,2.181a2.5,2.5,0,0,1-1.636,1.963,5.316,5.316,0,0,0-.763.327,2.3,2.3,0,0,1-2.508-.218L35.06,25.07a.2.2,0,0,0-.327,0l-.981,1.09a.2.2,0,0,0,0,.327l1.308,1.745a2.343,2.343,0,0,1,.218,2.508c-.109.218-.218.545-.327.763a2.5,2.5,0,0,1-1.963,1.636l-2.072.327a.235.235,0,0,0-.218.218V35.21a.235.235,0,0,0,.218.218l2.072.327a2.5,2.5,0,0,1,1.963,1.636c.109.218.218.545.327.763a2.3,2.3,0,0,1-.218,2.508l-1.308,1.745a.2.2,0,0,0,0,.327l.981,1.09a.2.2,0,0,0,.327,0L36.8,42.515A2.728,2.728,0,0,1,38.222,42.188Z" transform="translate(-28.3 -19.4)" fill="#65802c"/>
      </g>
      <g id="Grupo_1106241" data-name="Grupo 1106241" transform="translate(29.767 30.094)">
        <path id="Trazado_897620" data-name="Trazado 897620" d="M42.206,39.93A6.12,6.12,0,0,1,36.1,33.715,6.19,6.19,0,0,1,42.206,27.5a6.216,6.216,0,0,1,0,12.43Zm0-10.14a3.925,3.925,0,1,0,3.925,3.925,3.909,3.909,0,0,0-3.925-3.925Z" transform="translate(-36.1 -27.5)" fill="#65802c"/>
      </g>
    </g>
  </g>
</svg>
