<svg xmlns="http://www.w3.org/2000/svg" width="60" height="60" viewBox="0 0 60 60">
  <g id="Grupo_1106898" data-name="Grupo 1106898" transform="translate(-205 -602)">
    <rect id="Rectángulo_402770" data-name="Rectángulo 402770" width="60" height="60" transform="translate(205 602)" fill="#ecdb9f"/>
    <path id="Trazado_898870" data-name="Trazado 898870" d="M9.809,5.39a.69.69,0,0,1,.173-.96A22.042,22.042,0,0,1,37.5,6.354l-.2-2.518a.69.69,0,1,1,1.375-.11l.349,4.358a.69.69,0,0,1-.689.745l-.055,0-4.358-.349a.69.69,0,0,1,.11-1.375l2.456.2A20.661,20.661,0,0,0,10.77,5.563a.691.691,0,0,1-.961-.173ZM1.881,22.545A20.555,20.555,0,0,1,7.3,8.6l-.2,2.456a.69.69,0,0,0,.632.743l.056,0a.691.691,0,0,0,.688-.635l.349-4.358a.691.691,0,0,0-.744-.744l-4.358.349a.69.69,0,0,0,.11,1.375l2.518-.2A22.045,22.045,0,0,0,4.429,35.108a.69.69,0,0,0,1.135-.787A20.54,20.54,0,0,1,1.881,22.545Zm41.6,6.926A10.433,10.433,0,0,1,29.47,43.478,22.061,22.061,0,0,1,7.586,38.736l.2,2.518A.69.69,0,0,1,7.156,42L7.1,42a.691.691,0,0,1-.688-.635l-.349-4.358a.691.691,0,0,1,.744-.744l4.358.349a.69.69,0,1,1-.11,1.375L8.6,37.79a20.688,20.688,0,0,0,19.307,4.715,10.5,10.5,0,0,1-3.14-3.8A16.3,16.3,0,1,1,38.7,24.764a10.507,10.507,0,0,1,3.8,3.141A20.7,20.7,0,0,0,39.527,10.77a.69.69,0,1,1,1.134-.787,22.07,22.07,0,0,1,2.817,19.488Zm-6.1-5.242c.037-.33.063-.662.079-.994H31.4q-.01.431-.033.862a10.44,10.44,0,0,1,6.012.132Zm-27.809,5.7h5.051a28.021,28.021,0,0,1-.933-6.689H7.632a14.83,14.83,0,0,0,1.939,6.689ZM35.519,15.165H30.468a28.021,28.021,0,0,1,.933,6.689h6.057A14.83,14.83,0,0,0,35.519,15.165ZM24.114,31.305h-.878v6.1a4.09,4.09,0,0,0,.911-.29c-.009-.029-.016-.059-.024-.088l-.031-.111c-.027-.1-.053-.2-.077-.3-.012-.051-.025-.1-.036-.153s-.023-.106-.035-.16-.024-.12-.036-.18-.019-.1-.028-.147c-.016-.092-.031-.185-.045-.277l-.018-.127c-.01-.073-.019-.147-.028-.22,0-.036-.009-.072-.012-.109-.011-.105-.021-.211-.028-.318l-.005-.084c-.006-.086-.01-.173-.014-.261,0-.032,0-.065,0-.1,0-.112-.006-.223-.006-.337s0-.236.007-.354c0-.032,0-.063,0-.095q.006-.158.018-.316l.005-.065c.008-.1.017-.2.028-.3l.016-.135c.009-.073.019-.146.029-.218s.024-.16.037-.241c.009-.052.017-.1.027-.155q.018-.1.039-.2L23.946,32c.047-.235.1-.467.168-.7Zm.5-1.381A10.484,10.484,0,0,1,29.956,24.6c.032-.452.053-.908.063-1.363H23.235v6.689h1.375Zm4.425-14.759h-5.8v6.689H30.02A26.278,26.278,0,0,0,29.035,15.165Zm-.455-1.381a16.878,16.878,0,0,0-.868-1.965C26.466,9.437,24.9,8,23.235,7.681v6.1Zm-11.2-1.965a16.959,16.959,0,0,0-.868,1.965h5.346v-6.1c-1.661.314-3.23,1.756-4.478,4.139Zm-1.322,3.345a26.278,26.278,0,0,0-.984,6.689h6.784V15.165Zm-1.432,0H9.572a14.82,14.82,0,0,0-1.94,6.689H13.69A27.928,27.928,0,0,1,14.623,15.165Zm1.432,14.759h5.8V23.235H15.071A26.278,26.278,0,0,0,16.055,29.925Zm.455,1.381a16.877,16.877,0,0,0,.868,1.965c1.248,2.383,2.816,3.825,4.478,4.139v-6.1ZM26.866,8.254a12.24,12.24,0,0,1,2.07,2.927,18.776,18.776,0,0,1,1.109,2.6h4.582A14.982,14.982,0,0,0,26.866,8.254Zm-16.4,5.531h4.582a18.57,18.57,0,0,1,1.109-2.6,12.235,12.235,0,0,1,2.071-2.927,14.98,14.98,0,0,0-7.761,5.531Zm7.76,23.051a12.283,12.283,0,0,1-2.071-2.927,18.776,18.776,0,0,1-1.109-2.6H10.463A14.987,14.987,0,0,0,18.224,36.836ZM43.21,34.154a9.056,9.056,0,0,0-18.035-1.173c0,.01,0,.02,0,.03-.008.061-.015.123-.022.185s-.01.109-.016.162-.009.1-.012.154c-.005.081-.01.161-.014.243,0,.03,0,.06,0,.091,0,.1-.006.2-.006.307,0,.118,0,.236.008.353l0,.067c.005.11.012.22.022.33l.008.083c.009.108.021.215.035.322l.01.076c.012.087.025.173.04.26.006.035.011.069.017.1.016.094.035.187.055.28.009.045.019.09.029.134q.03.129.062.259c.013.051.028.1.041.153s.029.1.045.156c.026.087.053.173.081.259l.036.109a9.056,9.056,0,0,0,17.62-2.942Zm-1.259,0a7.8,7.8,0,1,1-7.8-7.8,7.805,7.805,0,0,1,7.8,7.8Zm-1.381,0a6.416,6.416,0,1,0-6.416,6.416,6.423,6.423,0,0,0,6.416-6.416Zm-6.246-.69h-.341a.833.833,0,1,1,0-1.665h.48a.838.838,0,0,1,.676.349.69.69,0,1,0,1.118-.809,2.226,2.226,0,0,0-1.412-.886v-.341a.69.69,0,1,0-1.381,0v.369a2.213,2.213,0,0,0,.52,4.364h.341a.833.833,0,1,1,0,1.665h-.48a.838.838,0,0,1-.676-.349.69.69,0,1,0-1.118.809,2.226,2.226,0,0,0,1.412.886V38.2a.69.69,0,0,0,1.381,0v-.369a2.213,2.213,0,0,0-.52-4.364Z" transform="translate(212.455 609.455)" fill="#87ab3a"/>
  </g>
</svg>
