<svg xmlns="http://www.w3.org/2000/svg" width="120" height="120" viewBox="0 0 120 120">
  <g id="Grupo_1106448" data-name="Grupo 1106448" transform="translate(-955.333 -165)">
    <g id="Trazado_874102" data-name="Trazado 874102" transform="translate(955.333 165)" fill="#f3d02c">
      <path d="M 60.00000762939453 117.5000228881836 C 52.2364616394043 117.5000228881836 44.70646286010742 115.9800796508789 37.61917114257812 112.9824066162109 C 34.21260833740234 111.5415496826172 30.92677116394043 109.7580261230469 27.85295295715332 107.6814041137695 C 24.80769920349121 105.6240615844727 21.94397163391113 103.2612609863281 19.34137153625488 100.6586456298828 C 16.7387523651123 98.05604553222656 14.37595272064209 95.19231414794922 12.31862545013428 92.14706420898438 C 10.24198913574219 89.0732421875 8.458479881286621 85.78740692138672 7.017607688903809 82.38082885742188 C 4.01995325088501 75.29355621337891 2.500007629394531 67.7635498046875 2.500007629394531 60.00000762939453 C 2.500007629394531 52.2364616394043 4.01995325088501 44.70646286010742 7.017607688903809 37.61917114257812 C 8.458479881286621 34.21260833740234 10.24198913574219 30.92677116394043 12.31862545013428 27.85295295715332 C 14.37595272064209 24.80769920349121 16.7387523651123 21.94397163391113 19.34137153625488 19.34137153625488 C 21.94397163391113 16.7387523651123 24.80769920349121 14.37595272064209 27.85295295715332 12.31862545013428 C 30.92677116394043 10.24198913574219 34.21260833740234 8.458479881286621 37.61917114257812 7.017607688903809 C 44.70646286010742 4.01995325088501 52.2364616394043 2.500007629394531 60.00000762939453 2.500007629394531 C 67.7635498046875 2.500007629394531 75.29355621337891 4.01995325088501 82.38082885742188 7.017607688903809 C 85.78740692138672 8.458479881286621 89.0732421875 10.24198913574219 92.14706420898438 12.31862545013428 C 95.19231414794922 14.37595272064209 98.05604553222656 16.7387523651123 100.6586456298828 19.34137153625488 C 103.2612609863281 21.94397163391113 105.6240615844727 24.80769920349121 107.6814041137695 27.85295295715332 C 109.7580261230469 30.92677116394043 111.5415496826172 34.21260833740234 112.9824066162109 37.61917114257812 C 115.9800796508789 44.70646286010742 117.5000228881836 52.2364616394043 117.5000228881836 60.00000762939453 C 117.5000228881836 67.7635498046875 115.9800796508789 75.29355621337891 112.9824066162109 82.38082885742188 C 111.5415496826172 85.78740692138672 109.7580261230469 89.0732421875 107.6814041137695 92.14706420898438 C 105.6240615844727 95.19231414794922 103.2612609863281 98.05604553222656 100.6586456298828 100.6586456298828 C 98.05604553222656 103.2612609863281 95.19231414794922 105.6240615844727 92.14706420898438 107.6814041137695 C 89.0732421875 109.7580261230469 85.78740692138672 111.5415496826172 82.38082885742188 112.9824066162109 C 75.29355621337891 115.9800796508789 67.7635498046875 117.5000228881836 60.00000762939453 117.5000228881836 Z" stroke="none"/>
      <path d="M 60.00000762939453 4.999984741210938 C 52.57284545898438 4.999984741210938 45.37050628662109 6.4534912109375 38.59304809570312 9.320106506347656 C 35.33514404296875 10.69808959960938 32.19252777099609 12.40390777587891 29.25246429443359 14.39016723632812 C 26.33905029296875 16.35842895507812 23.59922790527344 18.61901092529297 21.109130859375 21.109130859375 C 18.61901092529297 23.59922790527344 16.35842895507812 26.33905029296875 14.39016723632812 29.25246429443359 C 12.40390777587891 32.19252777099609 10.69808959960938 35.33514404296875 9.320106506347656 38.59304809570312 C 6.4534912109375 45.37050628662109 4.999984741210938 52.57284545898438 4.999984741210938 60.00000762939453 C 4.999984741210938 67.42716979980469 6.4534912109375 74.62950897216797 9.320106506347656 81.40695190429688 C 10.69808959960938 84.66484832763672 12.40388488769531 87.80748748779297 14.39016723632812 90.74754333496094 C 16.35842895507812 93.66096496582031 18.61901092529297 96.40077209472656 21.109130859375 98.89088439941406 C 23.59922790527344 101.380989074707 26.33905029296875 103.6415710449219 29.25246429443359 105.6098251342773 C 32.19252777099609 107.5961074829102 35.33514404296875 109.3019104003906 38.59304809570312 110.6798858642578 C 45.37050628662109 113.5465087890625 52.57284545898438 115.0000076293945 60.00000762939453 115.0000076293945 C 67.42716979980469 115.0000076293945 74.62950897216797 113.5465087890625 81.40695190429688 110.6798858642578 C 84.66484832763672 109.3019104003906 87.80748748779297 107.5961074829102 90.74754333496094 105.6098251342773 C 93.66096496582031 103.6415710449219 96.40077209472656 101.380989074707 98.89088439941406 98.89088439941406 C 101.380989074707 96.40077209472656 103.6415710449219 93.66096496582031 105.6098251342773 90.74754333496094 C 107.5961074829102 87.80748748779297 109.3019104003906 84.66484832763672 110.6798858642578 81.40695190429688 C 113.5465087890625 74.62950897216797 115.0000076293945 67.42716979980469 115.0000076293945 60.00000762939453 C 115.0000076293945 52.57284545898438 113.5465087890625 45.37050628662109 110.6798858642578 38.59304809570312 C 109.3019104003906 35.33514404296875 107.5961074829102 32.19252777099609 105.6098251342773 29.25246429443359 C 103.6415710449219 26.33905029296875 101.380989074707 23.59922790527344 98.89088439941406 21.109130859375 C 96.40077209472656 18.61901092529297 93.66096496582031 16.35842895507812 90.74754333496094 14.39016723632812 C 87.80748748779297 12.40388488769531 84.66484832763672 10.69808959960938 81.40695190429688 9.320106506347656 C 74.62950897216797 6.4534912109375 67.42716979980469 4.999984741210938 60.00000762939453 4.999984741210938 M 60.00000762939453 -1.52587890625e-05 C 93.1370849609375 -1.52587890625e-05 120.0000076293945 26.86290740966797 120.0000076293945 60.00000762939453 C 120.0000076293945 93.1370849609375 93.1370849609375 120.0000076293945 60.00000762939453 120.0000076293945 C 26.86290740966797 120.0000076293945 -1.52587890625e-05 93.1370849609375 -1.52587890625e-05 60.00000762939453 C -1.52587890625e-05 26.86290740966797 26.86290740966797 -1.52587890625e-05 60.00000762939453 -1.52587890625e-05 Z" stroke="none" fill="#fff"/>
    </g>
    <g id="Grupo_1106481" data-name="Grupo 1106481" transform="translate(983.333 192.988)">
      <path id="Trazado_898085" data-name="Trazado 898085" d="M3,61V14.87L14.83,3H49V61Z" fill="#c2dff6"/>
      <path id="Trazado_898086" data-name="Trazado 898086" d="M15,3V9a6,6,0,0,1-6,6H3Z" fill="#48a3d2"/>
      <path id="Trazado_898087" data-name="Trazado 898087" d="M12,53,9.5,57,7,53V28.5a2.5,2.5,0,0,1,5,0Z" fill="#c0ab91"/>
      <path id="Trazado_898088" data-name="Trazado 898088" d="M12,31H7V28.5a2.5,2.5,0,0,1,5,0Z" fill="#63d9ae"/>
      <path id="Trazado_898089" data-name="Trazado 898089" d="M12,52H7v1l2.5,4L12,53Z" fill="#57565c"/>
      <path id="Trazado_898090" data-name="Trazado 898090" d="M44,23h2a8,8,0,0,0,8-8H52a8,8,0,0,0-8,8Z" fill="#c2fb3b"/>
      <circle id="Elipse_11693" data-name="Elipse 11693" cx="17" cy="17" r="17" transform="translate(27 27)" fill="#2488ff"/>
      <g id="Grupo_1106478" data-name="Grupo 1106478">
        <path id="Trazado_898091" data-name="Trazado 898091" d="M28.11,37.94l.01-.01L32,36l4-1,4,1h3l5,1,2-3,3-1a27.268,27.268,0,0,1,1.4-2.44,16.991,16.991,0,0,0-26.28,7.37Z" fill="#91dc5a"/>
        <path id="Trazado_898092" data-name="Trazado 898092" d="M38,59.91V58l-2-3,1-3,3-3,1-4-1-3-3-2H31l-3.77,1.26A15.511,15.511,0,0,0,27,44,16.994,16.994,0,0,0,38,59.91Z" fill="#91dc5a"/>
        <path id="Trazado_898093" data-name="Trazado 898093" d="M51.34,59.34,48,56l-6-1-1,2,.77,3.85A16.376,16.376,0,0,0,44,61a17,17,0,0,0,7.34-1.66Z" fill="#91dc5a"/>
        <path id="Trazado_898094" data-name="Trazado 898094" d="M57.85,34.15,57,35l-2,2-1,2-3,1-5,2-1,2v5l3,3,3,2h2l1.63,3.26a16.982,16.982,0,0,0,3.22-23.11Z" fill="#91dc5a"/>
        <path id="Trazado_898095" data-name="Trazado 898095" d="M44,21H42a8,8,0,0,1-8-8h2A8,8,0,0,1,44,21Z" fill="#91dc5a"/>
      </g>
      <path id="Trazado_898096" data-name="Trazado 898096" d="M4,16H9a7.008,7.008,0,0,0,7-7V4H48v9h2V3a1,1,0,0,0-1-1H14.83a1,1,0,0,0-.708.294L2.292,14.164A1,1,0,0,0,2,14.87V61a1,1,0,0,0,1,1H34V60H4ZM14,9a5.006,5.006,0,0,1-5,5H5.414L14,5.414Z"/>
      <path id="Trazado_898097" data-name="Trazado 898097" d="M6,28.5V53a1,1,0,0,0,.152.53l2.5,4a1,1,0,0,0,1.7,0l2.5-4A1,1,0,0,0,13,53V28.5a3.5,3.5,0,0,0-7,0ZM8,32h3V51H8Zm.179,21h2.642L9.5,55.113ZM11,28.5V30H8V28.5a1.5,1.5,0,0,1,3,0Z"/>
      <path id="Trazado_898098" data-name="Trazado 898098" d="M45,26.051V24h1a9.01,9.01,0,0,0,9-9,1,1,0,0,0-1-1H52a8.994,8.994,0,0,0-7.507,4.048A9.009,9.009,0,0,0,36,12H34a1,1,0,0,0-1,1,9.01,9.01,0,0,0,9,9h1v4.051a18,18,0,1,0,2,0Zm11.52,8.015-2.227,2.227a1,1,0,0,0-.188.26l-.814,1.63-2.662.888-5,2a1,1,0,0,0-.524.482l-1,2A1,1,0,0,0,44,44v5a1,1,0,0,0,.293.707l3,3a1,1,0,0,0,.152.125l3,2A1.006,1.006,0,0,0,51,55h1.382l.975,1.951a15.942,15.942,0,0,1-1.831,1.161l-2.819-2.819a1,1,0,0,0-.543-.279l-6-1a1.009,1.009,0,0,0-1.059.539l-1,2a1,1,0,0,0-.085.643l.48,2.4q-.765-.171-1.5-.413V58a1.006,1.006,0,0,0-.168-.555L37.1,54.853l.77-2.313L40.7,49.707a1,1,0,0,0,.263-.465l1-4a.982.982,0,0,0-.022-.558l-1-3a1,1,0,0,0-.393-.516l-3-2A1.006,1.006,0,0,0,37,39H31a1,1,0,0,0-.317.052l-2.092.7c.1-.378.223-.749.354-1.115l3.4-1.693L36,36.031l3.758.939A.984.984,0,0,0,40,37h2.9l4.9.98a1,1,0,0,0,1.028-.425l1.81-2.715,2.674-.892a1,1,0,0,0,.579-.5c0-.009.318-.632.743-1.365a16.194,16.194,0,0,1,1.886,1.983ZM52,16h.929A7.011,7.011,0,0,1,46,22h-.929A7.011,7.011,0,0,1,52,16ZM42,20a7.011,7.011,0,0,1-6.929-6H36a7.011,7.011,0,0,1,6.929,6Zm2,8a15.9,15.9,0,0,1,9.058,2.825c-.316.531-.59,1.032-.76,1.355l-2.614.872a1,1,0,0,0-.516.393l-1.629,2.443L43.2,35.02A1,1,0,0,0,43,35H40.123l-3.881-.97a.968.968,0,0,0-.484,0l-4,1a1.017,1.017,0,0,0-.2.074l-1.212.6A15.991,15.991,0,0,1,44,28ZM28,44a16.111,16.111,0,0,1,.137-1.989L31.163,41H36.7l2.463,1.642.8,2.4L39.1,48.488l-2.8,2.805a1,1,0,0,0-.241.391l-1,3a1,1,0,0,0,.116.871L37,58.3v.062A16,16,0,0,1,28,44ZM42.6,59.929l-.557-2.788.516-1.034,4.956.827,2.047,2.047A15.882,15.882,0,0,1,44,60c-.471,0-.934-.031-1.4-.071Zm12.34-4.286-1.04-2.09A1,1,0,0,0,53,53H51.3l-2.666-1.777L46,48.586v-4.35l.725-1.449,4.591-1.839,3-1a1,1,0,0,0,.579-.5l.927-1.854,1.854-1.855a15.9,15.9,0,0,1-2.736,19.9Z"/>
      <path id="Trazado_898099" data-name="Trazado 898099" d="M15,16H32v2H15Z"/>
      <path id="Trazado_898100" data-name="Trazado 898100" d="M10,21H29v2H10Z"/>
      <path id="Trazado_898101" data-name="Trazado 898101" d="M31,21h6v2H31Z"/>
      <path id="Trazado_898102" data-name="Trazado 898102" d="M15,26h8v2H15Z"/>
      <path id="Trazado_898103" data-name="Trazado 898103" d="M25,26h8v2H25Z"/>
      <path id="Trazado_898104" data-name="Trazado 898104" d="M15,31H27v2H15Z"/>
      <path id="Trazado_898105" data-name="Trazado 898105" d="M15,36h8v2H15Z"/>
      <path id="Trazado_898106" data-name="Trazado 898106" d="M15,41h9v2H15Z"/>
      <path id="Trazado_898107" data-name="Trazado 898107" d="M15,46h9v2H15Z"/>
    </g>
  </g>
</svg>
