<svg xmlns="http://www.w3.org/2000/svg" width="70" height="69.971" viewBox="0 0 70 69.971">
  <g id="Grupo_1106244" data-name="Grupo 1106244" transform="translate(0 -0.108)">
    <path id="Trazado_897621" data-name="Trazado 897621" d="M60.652,14.458h10.43a4.531,4.531,0,0,0,.56-9.027,5.795,5.795,0,0,0-11.551,0,4.531,4.531,0,0,0,.561,9.027Zm0-6.894c1.277,0,1.589-.43,1.589-1.662,0-4.666,7.253-4.7,7.253,0,0,1.233.312,1.662,1.589,1.662,3.033,0,3.037,4.725,0,4.725H60.652c-3.033,0-3.037-4.725,0-4.725Z" transform="translate(-48.009)" fill="#65802c"/>
    <path id="Trazado_897622" data-name="Trazado 897622" d="M53.162,204.663h3.129l11.926,13.453c.917,1.035,2.392-.472,1.5-1.483L59.1,204.663h4.087l5.136,4.346c.994.841,2.357-.782,1.281-1.693l-3.135-2.653h2.495a1.088,1.088,0,0,0,0-2.168H32.384c10.385-8.3,23.943-10.915,36.218-6,1.24.5,1.966-1.531.726-2.028a36.449,36.449,0,0,0-25.447-.723c-8.807-6.663-20.542-9.863-31.247-7.966-1.307.232-.969,2.369.339,2.138,9.826-1.741,20.188,1.087,28.508,6.734a40.674,40.674,0,0,0-12.345,7.841H1.035a1.088,1.088,0,0,0,0,2.168H3.53L.394,207.315c-1.077.911.286,2.535,1.281,1.693l5.136-4.346h3.4l-9.926,11.2c-.9,1.011.579,2.517,1.5,1.483l11.24-12.679h3.129L.207,227.789c-.738,1.071.831,2.474,1.657,1.277l16.827-24.4h2.559L8.325,230.9c-.587,1.191,1.191,2.276,1.818,1L23.56,204.663h2.617L18.37,231.08c-.37,1.251,1.537,2.067,1.957.647l8-27.064c.921.06,1.819-.071,2.742,0l-2.623,26.629a1.026,1.026,0,1,0,2.039.225l2.645-26.853H36.05l2.645,26.853a1.026,1.026,0,1,0,2.039-.225l-2.623-26.629h2.742l8,27.064a1.03,1.03,0,1,0,1.957-.647L43,204.663h2.617l7.979,16.2c.6,1.209,2.429.239,1.818-1l-7.486-15.2h2.7l17.513,25.4c.825,1.2,2.395-.207,1.657-1.277Z" transform="translate(0 -162.398)" fill="#65802c"/>
    <path id="Trazado_897623" data-name="Trazado 897623" d="M410.4,454.272a1.085,1.085,0,0,0-1.923,1l3.275,6.288a1.085,1.085,0,0,0,1.923-1Z" transform="translate(-353.346 -392.055)" fill="#65802c"/>
    <path id="Trazado_897624" data-name="Trazado 897624" d="M281.694,67.5a4.594,4.594,0,0,0,4.442,5.42h10.43a4.531,4.531,0,0,0,.56-9.027,5.795,5.795,0,0,0-11.551,0,4.526,4.526,0,0,0-2.851,1.519,5.069,5.069,0,1,1,3.921-8.336,1.085,1.085,0,0,0,1.656-1.4A7.237,7.237,0,1,0,281.694,67.5Zm4.442-1.474c1.277,0,1.589-.43,1.589-1.662a3.626,3.626,0,0,1,7.253,0c0,1.233.312,1.662,1.589,1.662a2.363,2.363,0,0,1,0,4.725h-10.43a2.363,2.363,0,1,1,0-4.725Z" transform="translate(-239.733 -45.341)" fill="#65802c"/>
    <path id="Trazado_897625" data-name="Trazado 897625" d="M1.231,203.768a1.08,1.08,0,0,0,.513-.13,40.692,40.692,0,0,1,6.507-2.81,1.085,1.085,0,0,0-.679-2.059,42.871,42.871,0,0,0-6.855,2.96,1.091,1.091,0,0,0,.514,2.039Z" transform="translate(-0.136 -171.57)" fill="#65802c"/>
  </g>
</svg>
