<svg xmlns="http://www.w3.org/2000/svg" width="120" height="120" viewBox="0 0 120 120">
  <g id="Grupo_1106609" data-name="Grupo 1106609" transform="translate(-955.333 -165)">
    <g id="Trazado_874102" data-name="Trazado 874102" transform="translate(955.333 165)" fill="#f3d02c">
      <path d="M 60.00000762939453 117.5000228881836 C 52.2364616394043 117.5000228881836 44.70646286010742 115.9800796508789 37.61917114257812 112.9824066162109 C 34.21260833740234 111.5415496826172 30.92677116394043 109.7580261230469 27.85295295715332 107.6814041137695 C 24.80769920349121 105.6240615844727 21.94397163391113 103.2612609863281 19.34137153625488 100.6586456298828 C 16.7387523651123 98.05604553222656 14.37595272064209 95.19231414794922 12.31862545013428 92.14706420898438 C 10.24198913574219 89.0732421875 8.458479881286621 85.78740692138672 7.017607688903809 82.38082885742188 C 4.01995325088501 75.29355621337891 2.500007629394531 67.7635498046875 2.500007629394531 60.00000762939453 C 2.500007629394531 52.2364616394043 4.01995325088501 44.70646286010742 7.017607688903809 37.61917114257812 C 8.458479881286621 34.21260833740234 10.24198913574219 30.92677116394043 12.31862545013428 27.85295295715332 C 14.37595272064209 24.80769920349121 16.7387523651123 21.94397163391113 19.34137153625488 19.34137153625488 C 21.94397163391113 16.7387523651123 24.80769920349121 14.37595272064209 27.85295295715332 12.31862545013428 C 30.92677116394043 10.24198913574219 34.21260833740234 8.458479881286621 37.61917114257812 7.017607688903809 C 44.70646286010742 4.01995325088501 52.2364616394043 2.500007629394531 60.00000762939453 2.500007629394531 C 67.7635498046875 2.500007629394531 75.29355621337891 4.01995325088501 82.38082885742188 7.017607688903809 C 85.78740692138672 8.458479881286621 89.0732421875 10.24198913574219 92.14706420898438 12.31862545013428 C 95.19231414794922 14.37595272064209 98.05604553222656 16.7387523651123 100.6586456298828 19.34137153625488 C 103.2612609863281 21.94397163391113 105.6240615844727 24.80769920349121 107.6814041137695 27.85295295715332 C 109.7580261230469 30.92677116394043 111.5415496826172 34.21260833740234 112.9824066162109 37.61917114257812 C 115.9800796508789 44.70646286010742 117.5000228881836 52.2364616394043 117.5000228881836 60.00000762939453 C 117.5000228881836 67.7635498046875 115.9800796508789 75.29355621337891 112.9824066162109 82.38082885742188 C 111.5415496826172 85.78740692138672 109.7580261230469 89.0732421875 107.6814041137695 92.14706420898438 C 105.6240615844727 95.19231414794922 103.2612609863281 98.05604553222656 100.6586456298828 100.6586456298828 C 98.05604553222656 103.2612609863281 95.19231414794922 105.6240615844727 92.14706420898438 107.6814041137695 C 89.0732421875 109.7580261230469 85.78740692138672 111.5415496826172 82.38082885742188 112.9824066162109 C 75.29355621337891 115.9800796508789 67.7635498046875 117.5000228881836 60.00000762939453 117.5000228881836 Z" stroke="none"/>
      <path d="M 60.00000762939453 4.999984741210938 C 52.57284545898438 4.999984741210938 45.37050628662109 6.4534912109375 38.59304809570312 9.320106506347656 C 35.33514404296875 10.69808959960938 32.19252777099609 12.40390777587891 29.25246429443359 14.39016723632812 C 26.33905029296875 16.35842895507812 23.59922790527344 18.61901092529297 21.109130859375 21.109130859375 C 18.61901092529297 23.59922790527344 16.35842895507812 26.33905029296875 14.39016723632812 29.25246429443359 C 12.40390777587891 32.19252777099609 10.69808959960938 35.33514404296875 9.320106506347656 38.59304809570312 C 6.4534912109375 45.37050628662109 4.999984741210938 52.57284545898438 4.999984741210938 60.00000762939453 C 4.999984741210938 67.42716979980469 6.4534912109375 74.62950897216797 9.320106506347656 81.40695190429688 C 10.69808959960938 84.66484832763672 12.40388488769531 87.80748748779297 14.39016723632812 90.74754333496094 C 16.35842895507812 93.66096496582031 18.61901092529297 96.40077209472656 21.109130859375 98.89088439941406 C 23.59922790527344 101.380989074707 26.33905029296875 103.6415710449219 29.25246429443359 105.6098251342773 C 32.19252777099609 107.5961074829102 35.33514404296875 109.3019104003906 38.59304809570312 110.6798858642578 C 45.37050628662109 113.5465087890625 52.57284545898438 115.0000076293945 60.00000762939453 115.0000076293945 C 67.42716979980469 115.0000076293945 74.62950897216797 113.5465087890625 81.40695190429688 110.6798858642578 C 84.66484832763672 109.3019104003906 87.80748748779297 107.5961074829102 90.74754333496094 105.6098251342773 C 93.66096496582031 103.6415710449219 96.40077209472656 101.380989074707 98.89088439941406 98.89088439941406 C 101.380989074707 96.40077209472656 103.6415710449219 93.66096496582031 105.6098251342773 90.74754333496094 C 107.5961074829102 87.80748748779297 109.3019104003906 84.66484832763672 110.6798858642578 81.40695190429688 C 113.5465087890625 74.62950897216797 115.0000076293945 67.42716979980469 115.0000076293945 60.00000762939453 C 115.0000076293945 52.57284545898438 113.5465087890625 45.37050628662109 110.6798858642578 38.59304809570312 C 109.3019104003906 35.33514404296875 107.5961074829102 32.19252777099609 105.6098251342773 29.25246429443359 C 103.6415710449219 26.33905029296875 101.380989074707 23.59922790527344 98.89088439941406 21.109130859375 C 96.40077209472656 18.61901092529297 93.66096496582031 16.35842895507812 90.74754333496094 14.39016723632812 C 87.80748748779297 12.40388488769531 84.66484832763672 10.69808959960938 81.40695190429688 9.320106506347656 C 74.62950897216797 6.4534912109375 67.42716979980469 4.999984741210938 60.00000762939453 4.999984741210938 M 60.00000762939453 -1.52587890625e-05 C 93.1370849609375 -1.52587890625e-05 120.0000076293945 26.86290740966797 120.0000076293945 60.00000762939453 C 120.0000076293945 93.1370849609375 93.1370849609375 120.0000076293945 60.00000762939453 120.0000076293945 C 26.86290740966797 120.0000076293945 -1.52587890625e-05 93.1370849609375 -1.52587890625e-05 60.00000762939453 C -1.52587890625e-05 26.86290740966797 26.86290740966797 -1.52587890625e-05 60.00000762939453 -1.52587890625e-05 Z" stroke="none" fill="#fff"/>
    </g>
    <g id="Grupo_1106611" data-name="Grupo 1106611" transform="translate(983.358 193.203)">
      <path id="Trazado_898308" data-name="Trazado 898308" d="M63,31.89V32a30.826,30.826,0,0,1-4.28,15.72V33.3a3.2,3.2,0,0,0-.32-1.41Z" fill="#61993c"/>
      <path id="Trazado_898309" data-name="Trazado 898309" d="M63,26v5.89H58.4A3.277,3.277,0,0,0,55.42,30h-3.3a3.277,3.277,0,0,0-2.98,1.89H28.05a5.055,5.055,0,0,0,0,10.11H31.5a2.5,2.5,0,0,1,1.77,4.27,1.059,1.059,0,0,1-.12.1A1.964,1.964,0,0,0,31.98,46h-.96A2.014,2.014,0,0,0,29,48.02V49a2.006,2.006,0,0,1-2,2,2.015,2.015,0,0,1-2-2v-.98A2.014,2.014,0,0,0,22.98,46h-.96A2.014,2.014,0,0,0,20,48.02V49a2.006,2.006,0,0,1-2,2H17a2.006,2.006,0,0,1-2-2v-.98A2.014,2.014,0,0,0,12.98,46h-.96A2.014,2.014,0,0,0,10,48.02V49a2.006,2.006,0,0,1-2,2H7.5a31.051,31.051,0,0,1-4.85-9H13a2.015,2.015,0,0,0,2-2,2.006,2.006,0,0,0-2-2H11a2.015,2.015,0,0,1-2-2,2.006,2.006,0,0,1,2-2h6a2.015,2.015,0,0,0,2-2,2.006,2.006,0,0,0-2-2H1V26H63Z" fill="#5fb8d3"/>
      <path id="Trazado_898310" data-name="Trazado 898310" d="M58.72,50.04A7.432,7.432,0,1,1,47.94,51a6.685,6.685,0,0,1,.88-.96V33.3a3.2,3.2,0,0,1,.32-1.41A3.277,3.277,0,0,1,52.12,30h3.3a3.277,3.277,0,0,1,2.98,1.89,3.2,3.2,0,0,1,.32,1.41V50.04Zm-.88,6.27a4.15,4.15,0,0,0-2.42-4.52V36.6a1.65,1.65,0,1,0-3.3,0V51.79a4.131,4.131,0,1,0,5.72,4.52Z" fill="#f5be59"/>
      <path id="Trazado_898311" data-name="Trazado 898311" d="M58.72,50.04V33.3a3.2,3.2,0,0,0-.32-1.41A3.277,3.277,0,0,0,55.42,30h-3.3a3.283,3.283,0,0,0-2.2.84.615.615,0,0,1,.19-.02h3.3a3.277,3.277,0,0,1,2.98,1.89,3.2,3.2,0,0,1,.32,1.41V50.86a7.418,7.418,0,0,1-1.17,11.93,7.421,7.421,0,0,0,3.18-12.75Z" fill="#cc8c37"/>
      <path id="Trazado_898312" data-name="Trazado 898312" d="M58,9a4,4,0,0,1,0,8c0,2.21-1.79,3-4,3a3.657,3.657,0,0,1-1-.13V17a2.015,2.015,0,0,0-2-2,2.006,2.006,0,0,0-2,2v2.46A3.89,3.89,0,0,1,47,20c-2.21,0-4-3-4-3a4,4,0,0,1,0-8,4,4,0,0,1,7.5-1.93A4,4,0,0,1,58,9Z" fill="#81cc50"/>
      <path id="Trazado_898313" data-name="Trazado 898313" d="M62,13a4,4,0,0,1-4,4c0,2.21-1.79,3-4,3a3.657,3.657,0,0,1-1-.13v-.79A2.644,2.644,0,0,0,53.85,17a4,4,0,0,0,1.174-7.825,2.01,2.01,0,0,1-1.345-1.339A4.011,4.011,0,0,0,51.93,5.58,3.93,3.93,0,0,1,54,5a4,4,0,0,1,4,4,4,4,0,0,1,4,4Z" fill="#61993c"/>
      <path id="Trazado_898314" data-name="Trazado 898314" d="M55.42,51.79a4.12,4.12,0,1,1-3.3,0V36.6a1.65,1.65,0,1,1,3.3,0Z" fill="#e63946"/>
      <path id="Trazado_898315" data-name="Trazado 898315" d="M57.84,56.31a4.152,4.152,0,0,1-3.18,3.3,4.308,4.308,0,0,1-1.38.06,4.127,4.127,0,0,0,.3-7.69V36.79a1.628,1.628,0,0,0-.87-1.45,1.646,1.646,0,0,1,2.71,1.26V51.79a4.15,4.15,0,0,1,2.42,4.52Z" fill="#ad2b35"/>
      <path id="Trazado_898316" data-name="Trazado 898316" d="M53,19.87V26H49V17a2.006,2.006,0,0,1,2-2,2.015,2.015,0,0,1,2,2Z" fill="#d9ab82"/>
      <path id="Trazado_898317" data-name="Trazado 898317" d="M53,17v9H51V17a1.955,1.955,0,0,0-.59-1.41,1.813,1.813,0,0,0-.41-.32A2,2,0,0,1,51,15a2.015,2.015,0,0,1,2,2Z" fill="#a38062"/>
      <path id="Trazado_898318" data-name="Trazado 898318" d="M28.05,31.89H49.14a3.2,3.2,0,0,0-.32,1.41V50.04a6.685,6.685,0,0,0-.88.96H46a2.006,2.006,0,0,1-2-2v-.98A2.014,2.014,0,0,0,41.98,46h-.96A2.014,2.014,0,0,0,39,48.02V49a2.006,2.006,0,0,1-2,2H36a2.006,2.006,0,0,1-2-2v-.98a2.013,2.013,0,0,0-.85-1.65,1.059,1.059,0,0,0,.12-.1A2.5,2.5,0,0,0,31.5,42H28.05a5.055,5.055,0,0,1,0-10.11Z" fill="#81cc50"/>
      <path id="Trazado_898319" data-name="Trazado 898319" d="M46,51h1.94a7.389,7.389,0,0,0-.74,8.02A31.012,31.012,0,0,1,7.5,51H8a2.006,2.006,0,0,0,2-2v-.98A2.014,2.014,0,0,1,12.02,46h.96A2.014,2.014,0,0,1,15,48.02V49a2.006,2.006,0,0,0,2,2h1a2.006,2.006,0,0,0,2-2v-.98A2.014,2.014,0,0,1,22.02,46h.96A2.014,2.014,0,0,1,25,48.02V49a2.015,2.015,0,0,0,2,2,2.006,2.006,0,0,0,2-2v-.98A2.014,2.014,0,0,1,31.02,46h.96a1.964,1.964,0,0,1,1.17.37A2.013,2.013,0,0,1,34,48.02V49a2.006,2.006,0,0,0,2,2h1a2.006,2.006,0,0,0,2-2v-.98A2.014,2.014,0,0,1,41.02,46h.96A2.014,2.014,0,0,1,44,48.02V49a2.006,2.006,0,0,0,2,2Z" fill="#e63946"/>
      <path id="Trazado_898320" data-name="Trazado 898320" d="M53,26H51.054c.028,1.372.053,2.761.055,4.161A3.313,3.313,0,0,1,52.12,30h3.3a3.277,3.277,0,0,1,2.98,1.89H63V26Z" fill="#34889b"/>
      <path id="Trazado_898321" data-name="Trazado 898321" d="M48,47a22.793,22.793,0,0,1-2.6,3.9,1.96,1.96,0,0,0,.6.1h1.94a6.685,6.685,0,0,1,.88-.96V45.156c-.249.619-.516,1.235-.82,1.844Z" fill="#61993c"/>
      <path id="Trazado_898322" data-name="Trazado 898322" d="M14.477,57.563A30.983,30.983,0,0,0,47.2,59.02,7.389,7.389,0,0,1,47.94,51H46a1.96,1.96,0,0,1-.6-.1c-7.317,8.831-19.742,9.394-30.918,6.667Z" fill="#ad2b35"/>
      <path id="Trazado_898323" data-name="Trazado 898323" d="M39,20H30l-6.07-6.94L24,13h8Z" fill="#b0d7ed"/>
      <path id="Trazado_898324" data-name="Trazado 898324" d="M37,20v6H29V20h8Z" fill="#b88f43"/>
      <path id="Trazado_898325" data-name="Trazado 898325" d="M23.93,13.06,30,20H16Z" fill="#cee4f2"/>
      <path id="Trazado_898326" data-name="Trazado 898326" d="M30,4.57a1.977,1.977,0,0,1-.49,1.16.706.706,0,0,1-.56.27h-7.9a.706.706,0,0,1-.56-.27A1.977,1.977,0,0,1,20,4.57a2.151,2.151,0,0,1,2.86-2.02l.08.04a2.131,2.131,0,0,1,4.12-.01,2.367,2.367,0,0,1,.8-.15A2.142,2.142,0,0,1,30,4.57Z" fill="#b0d7ed"/>
      <path id="Trazado_898327" data-name="Trazado 898327" d="M18,20H29v6H18Z" fill="#f5be59"/>
      <path id="Trazado_898328" data-name="Trazado 898328" d="M17,30a2.006,2.006,0,0,1,2,2,2.015,2.015,0,0,1-2,2H11a2.006,2.006,0,0,0-2,2,2.015,2.015,0,0,0,2,2h2a2.006,2.006,0,0,1,2,2,2.015,2.015,0,0,1-2,2H2.65A30.931,30.931,0,0,1,1,32V30H17Z" fill="#81cc50"/>
      <path id="Trazado_898329" data-name="Trazado 898329" d="M16,7a2.763,2.763,0,0,1-.68,1.62,1,1,0,0,1-.79.38H3.47a1,1,0,0,1-.79-.38A2.763,2.763,0,0,1,2,7,3,3,0,0,1,6,4.17l.11.05a2.993,2.993,0,0,1,5.78-.01A3.129,3.129,0,0,1,13,4a3,3,0,0,1,3,3Z" fill="#cee4f2"/>
      <g id="Grupo_1106610" data-name="Grupo 1106610">
        <path id="Trazado_898330" data-name="Trazado 898330" d="M63,25H54V21c2.727,0,4.5-1.135,4.908-3.083a5,5,0,0,0,.008-9.833A5,5,0,0,0,50.5,5.431a5,5,0,0,0-8.416,2.653,5,5,0,0,0,.354,9.885C43.113,18.936,44.808,21,47,21a5.055,5.055,0,0,0,1-.111V25H38V21h1a1,1,0,0,0,.707-1.707l-7-7A1,1,0,0,0,32,12H24a1,1,0,0,0-.659.247l-8,7A1,1,0,0,0,16,21h1v4H1a1,1,0,0,0-1,1v6A31.977,31.977,0,0,0,46.834,60.339,8.417,8.417,0,0,0,53.775,64a8.645,8.645,0,0,0,1.761-.183A8.427,8.427,0,0,0,59.725,49.61V47.964A31.938,31.938,0,0,0,64,32V26A1,1,0,0,0,63,25ZM47,19c-1.33,0-2.75-1.861-3.142-2.514A1,1,0,0,0,43,16a3,3,0,0,1,0-6,1,1,0,0,0,1-1,3,3,0,0,1,5.623-1.449,1.04,1.04,0,0,0,1.754,0A3,3,0,0,1,57,9a1,1,0,0,0,1,1,3,3,0,0,1,0,6,1,1,0,0,0-1,1c0,.5,0,2-3,2V17a3.017,3.017,0,0,0-3-3,3,3,0,0,0-3,3v1.806A2.906,2.906,0,0,1,47,19Zm3-2a1,1,0,0,1,1-1,.978.978,0,0,1,.712.306A.957.957,0,0,1,52,17v8H50ZM36,25H30V21h6Zm.586-6H30.454l-4.373-5h5.505ZM23.837,14.472,27.8,19H18.662ZM19,21h9v4H19ZM2,31H17a1,1,0,0,1,1,1,.978.978,0,0,1-.306.713A.965.965,0,0,1,17,33H11a3,3,0,0,0-3,3,3.017,3.017,0,0,0,3,3h2a1,1,0,0,1,1,1,.978.978,0,0,1-.306.713A.965.965,0,0,1,13,41H3.388A29.983,29.983,0,0,1,2,32ZM4.1,43H13a3.015,3.015,0,0,0,3-3,3,3,0,0,0-3-3H11a.978.978,0,0,1-.712-.306A.957.957,0,0,1,10,36a1,1,0,0,1,1-1h6a3.015,3.015,0,0,0,3-3,3,3,0,0,0-3-3H2V27H62v3.89H58.983A4.3,4.3,0,0,0,55.425,29h-3.3a4.3,4.3,0,0,0-3.558,1.89H28.05A6.062,6.062,0,0,0,22,36.951,6.053,6.053,0,0,0,28.05,43H31.5A1.5,1.5,0,0,1,33,44.5a1.524,1.524,0,0,1-.142.631A3.048,3.048,0,0,0,31.98,45h-.96A3.023,3.023,0,0,0,28,48.02V49a1,1,0,0,1-1,1,.978.978,0,0,1-.712-.306A.957.957,0,0,1,26,49v-.98A3.024,3.024,0,0,0,22.98,45h-.96A3.023,3.023,0,0,0,19,48.02V49a1,1,0,0,1-1,1H17a1,1,0,0,1-1-1v-.98A3.024,3.024,0,0,0,12.98,45h-.96A3.023,3.023,0,0,0,9,48.02V49a1,1,0,0,1-.987,1A29.943,29.943,0,0,1,4.1,43Zm43.726-9.7V49.612c-.124.124-.236.257-.351.388H46a1,1,0,0,1-1-1v-.98A3.024,3.024,0,0,0,41.98,45h-.96A3.023,3.023,0,0,0,38,48.02V49a1,1,0,0,1-1,1H36a1,1,0,0,1-1-1v-.98a3.014,3.014,0,0,0-.533-1.679A3.488,3.488,0,0,0,31.5,41H28.05A4.053,4.053,0,0,1,24,36.95a4.06,4.06,0,0,1,4.05-4.061H47.866c-.013.138-.041.27-.041.411ZM32,62A29.807,29.807,0,0,1,9.344,51.668,2.992,2.992,0,0,0,11,49v-.98A1.01,1.01,0,0,1,12.02,47h.96A1.009,1.009,0,0,1,14,48.02V49a3,3,0,0,0,3,3h1a3,3,0,0,0,3-3v-.98A1.01,1.01,0,0,1,22.02,47h.96A1.009,1.009,0,0,1,24,48.02V49a3.017,3.017,0,0,0,3,3,3,3,0,0,0,3-3v-.98A1.01,1.01,0,0,1,31.02,47h.96a.979.979,0,0,1,.59.185,1.013,1.013,0,0,1,.43.835V49a3,3,0,0,0,3,3h1a3,3,0,0,0,3-3v-.98A1.01,1.01,0,0,1,41.02,47h.96A1.009,1.009,0,0,1,43,48.02V49a3,3,0,0,0,3,3h.16a8.291,8.291,0,0,0-.251,6.567A29.94,29.94,0,0,1,32,62Zm28.1-5.3a6.421,6.421,0,0,1-4.974,5.157,6.64,6.64,0,0,1-1.353.14,6.424,6.424,0,0,1-4.282-11.214,1,1,0,0,0,.332-.744V33.3a2.3,2.3,0,0,1,2.3-2.3h3.3a2.3,2.3,0,0,1,2.3,2.3V50.04a1,1,0,0,0,.332.744A6.427,6.427,0,0,1,60.1,56.7ZM59.684,32.89h2.287a30.014,30.014,0,0,1-2.245,10.563V33.3C59.725,33.159,59.7,33.027,59.684,32.89Z"/>
        <path id="Trazado_898331" data-name="Trazado 898331" d="M17,7a4.01,4.01,0,0,0-4.516-3.966,4,4,0,0,0-6.963,0A4.083,4.083,0,0,0,5,3,4,4,0,0,0,1,7a3.638,3.638,0,0,0,.891,2.234A1.986,1.986,0,0,0,3.468,10H14.531a1.986,1.986,0,0,0,1.578-.767A3.633,3.633,0,0,0,17,7ZM14.532,8H3.468v.005A1.811,1.811,0,0,1,3,7,2,2,0,0,1,5,5a2.093,2.093,0,0,1,.587.081l.11.05a1,1,0,0,0,1.379-.654,1.993,1.993,0,0,1,3.848-.01,1,1,0,0,0,1.323.678A2.025,2.025,0,0,1,15,7,1.785,1.785,0,0,1,14.532,8Z"/>
        <path id="Trazado_898332" data-name="Trazado 898332" d="M30.3,6.343A2.862,2.862,0,0,0,31,4.571a3.147,3.147,0,0,0-3.36-3.135,3.14,3.14,0,0,0-5.276,0A3.174,3.174,0,0,0,19,4.571a2.857,2.857,0,0,0,.695,1.769A1.7,1.7,0,0,0,21.049,7h7.9A1.7,1.7,0,0,0,30.3,6.343ZM28.809,5H21.191A.836.836,0,0,1,21,4.571a1.145,1.145,0,0,1,1.143-1.143,1.075,1.075,0,0,1,.375.065A1,1,0,0,0,23.9,2.842a1.138,1.138,0,0,1,2.2-.007,1,1,0,0,0,1.323.677A1.162,1.162,0,0,1,29,4.571.839.839,0,0,1,28.809,5Z"/>
        <path id="Trazado_898333" data-name="Trazado 898333" d="M3,16a1,1,0,0,0-1,1v3a1,1,0,0,0,2,0V17A1,1,0,0,0,3,16Z"/>
        <path id="Trazado_898334" data-name="Trazado 898334" d="M4,13a1,1,0,0,0-2,0v1a1,1,0,0,0,2,0Z"/>
        <path id="Trazado_898335" data-name="Trazado 898335" d="M7,18a1,1,0,0,0-1,1v1a1,1,0,0,0,2,0V19A1,1,0,0,0,7,18Z"/>
        <path id="Trazado_898336" data-name="Trazado 898336" d="M8,13a1,1,0,0,0-2,0v3a1,1,0,0,0,2,0Z"/>
        <path id="Trazado_898337" data-name="Trazado 898337" d="M11,17a1,1,0,0,0-1,1v2a1,1,0,0,0,2,0V18A1,1,0,0,0,11,17Z"/>
        <path id="Trazado_898338" data-name="Trazado 898338" d="M12,13a1,1,0,0,0-2,0v2a1,1,0,0,0,2,0Z"/>
        <path id="Trazado_898339" data-name="Trazado 898339" d="M15,12a1,1,0,0,0-1,1v2a1,1,0,0,0,2,0V13A1,1,0,0,0,15,12Z"/>
        <path id="Trazado_898340" data-name="Trazado 898340" d="M20,9v1a1,1,0,0,0,2,0V9a1,1,0,0,0-2,0Z"/>
        <path id="Trazado_898341" data-name="Trazado 898341" d="M24,9v1a1,1,0,0,0,2,0V9a1,1,0,0,0-2,0Z"/>
        <path id="Trazado_898342" data-name="Trazado 898342" d="M28,9v1a1,1,0,0,0,2,0V9a1,1,0,0,0-2,0Z"/>
        <path id="Trazado_898343" data-name="Trazado 898343" d="M56.425,51.185V36.6a2.65,2.65,0,0,0-5.3,0V51.185A5.126,5.126,0,0,0,53.783,60.7a5.3,5.3,0,0,0,1.081-.112,5.11,5.11,0,0,0,3.958-4.106A5.162,5.162,0,0,0,56.425,51.185Zm.426,4.954a3.136,3.136,0,0,1-2.4,2.49,3.131,3.131,0,0,1-3.806-3.054A3.151,3.151,0,0,1,52.53,52.7a1,1,0,0,0,.6-.914V36.6a.65.65,0,0,1,1.3,0V51.788a1,1,0,0,0,.6.914,3.162,3.162,0,0,1,1.831,3.437Z"/>
      </g>
    </g>
  </g>
</svg>
