<svg xmlns="http://www.w3.org/2000/svg" width="110" height="110" viewBox="0 0 110 110">
  <g id="Grupo_1106545" data-name="Grupo 1106545" transform="translate(0)">
    <rect id="Rectángulo_402591" data-name="Rectángulo 402591" width="110" height="110" rx="55" transform="translate(0 0)" fill="#fff"/>
    <g id="Grupo_1106555" data-name="Grupo 1106555" transform="translate(19.044 -17.423)">
      <g id="Grupo_1106553" data-name="Grupo 1106553" transform="translate(1.053 43.481)">
        <g id="Grupo_1106552" data-name="Grupo 1106552">
          <g id="Grupo_1106551" data-name="Grupo 1106551">
            <g id="Grupo_1106550" data-name="Grupo 1106550">
              <path id="Trazado_898225" data-name="Trazado 898225" d="M32.433,246.976a1.267,1.267,0,0,1,.53-1.029l5.367-3.83.149-.279H30.624a1.4,1.4,0,0,0-.816.261l-5.231,3.734a1.4,1.4,0,0,0-.589,1.143v6.441h8.3l.14-.263v-6.179Z" transform="translate(-21.672 -214.884)" fill="#fe646f"/>
              <path id="Trazado_898226" data-name="Trazado 898226" d="M95.488,255.367v-8.392a1.4,1.4,0,0,0-.589-1.143l-5.6-3.995-5.6,3.995a1.4,1.4,0,0,0-.589,1.143v6.442a38.549,38.549,0,0,1,12.372,1.95Z" transform="translate(-72.496 -214.883)" fill="#fd4755"/>
              <g id="Grupo_1106546" data-name="Grupo 1106546" transform="translate(19.171 28.642)">
                <path id="Trazado_898227" data-name="Trazado 898227" d="M147.232,256.164,144,253.857v10.785a34.79,34.79,0,0,1,3.821,1.057v-8.392A1.4,1.4,0,0,0,147.232,256.164Z" transform="translate(-144 -253.857)" fill="#fb2b3a"/>
              </g>
              <path id="Trazado_898228" data-name="Trazado 898228" d="M116.358,288.718h-2.541a.7.7,0,0,0-.7.7v4.505a38.6,38.6,0,0,1,3.945.6v-5.1A.7.7,0,0,0,116.358,288.718Z" transform="translate(-98.281 -255.18)" fill="#fff"/>
              <g id="Grupo_1106547" data-name="Grupo 1106547" transform="translate(48.844)">
                <path id="Trazado_898229" data-name="Trazado 898229" d="M366.621,50.114a2.13,2.13,0,0,0-1.742,0,16.24,16.24,0,0,0,.225,29.747,1.638,1.638,0,0,0,1.292,0,16.24,16.24,0,0,0,.225-29.747Z" transform="translate(-355.27 -49.928)" fill="#8bc727"/>
                <path id="Trazado_898230" data-name="Trazado 898230" d="M405.545,50.114a2.13,2.13,0,0,0-1.742,0c-.284.127-.562.264-.838.407a16.233,16.233,0,0,1-2.411,27.3,16.233,16.233,0,0,0,3.473,2.038,1.638,1.638,0,0,0,1.292,0,16.24,16.24,0,0,0,.225-29.747Z" transform="translate(-394.195 -49.928)" fill="#81b823"/>
              </g>
              <g id="Grupo_1106549" data-name="Grupo 1106549" transform="translate(13.492 4.738)">
                <path id="Trazado_898231" data-name="Trazado 898231" d="M268.382,114.8a2.094,2.094,0,0,0-1.742,0,14.189,14.189,0,0,0,.226,25.906,1.615,1.615,0,0,0,1.291,0,14.189,14.189,0,0,0,.226-25.906Z" transform="translate(-236.614 -110.264)" fill="#a2e62e"/>
                <path id="Trazado_898232" data-name="Trazado 898232" d="M307.935,114.8a2.094,2.094,0,0,0-1.742,0,14.178,14.178,0,0,0-1.823,1,14.182,14.182,0,0,1,0,23.794,14.165,14.165,0,0,0,2.048,1.107,1.615,1.615,0,0,0,1.291,0,14.189,14.189,0,0,0,.226-25.906Z" transform="translate(-276.167 -110.264)" fill="#97d729"/>
                <g id="Grupo_1106548" data-name="Grupo 1106548">
                  <circle id="Elipse_11707" data-name="Elipse 11707" cx="5.087" cy="5.087" r="5.087" fill="#fedf30"/>
                  <path id="Trazado_898233" data-name="Trazado 898233" d="M115.871,83.96a5.086,5.086,0,0,1-4.011,8.213,5.127,5.127,0,0,1-.641-.042,5.086,5.086,0,1,0,4.652-8.172Z" transform="translate(-110.143 -83.918)" fill="#fed402"/>
                </g>
              </g>
              <path id="Trazado_898234" data-name="Trazado 898234" d="M50.354,342.619H9.607A2.107,2.107,0,0,1,7.5,340.513V324.505a1.4,1.4,0,0,1,1.4-1.4h9.085C33.459,323.1,43.819,330.713,50.354,342.619Z" transform="translate(-7.5 -284.734)" fill="#a2e62e"/>
              <path id="Trazado_898235" data-name="Trazado 898235" d="M17.989,363.143H7.5v11.788a2.107,2.107,0,0,0,2.107,2.107H45.048C38.512,368.412,30.858,363.143,17.989,363.143Z" transform="translate(-7.5 -319.152)" fill="#97d729"/>
              <path id="Trazado_898236" data-name="Trazado 898236" d="M7.5,403.186v6.164a2.107,2.107,0,0,0,2.107,2.107H38.1c-6.017-5.235-10.344-8.271-20.112-8.271Z" transform="translate(-7.5 -353.571)" fill="#8bc727"/>
              <path id="Trazado_898237" data-name="Trazado 898237" d="M7.5,403.186v6.164a2.107,2.107,0,0,0,2.107,2.107H38.1c-6.017-5.235-10.344-8.271-20.112-8.271Z" transform="translate(-7.5 -353.571)" fill="#8bc727"/>
              <path id="Trazado_898238" data-name="Trazado 898238" d="M7.5,434.486v1.768a2.107,2.107,0,0,0,2.107,2.107H38.1a58.672,58.672,0,0,0-4.832-3.874Z" transform="translate(-7.5 -380.475)" fill="#81b823"/>
              <path id="Trazado_898239" data-name="Trazado 898239" d="M199.378,342.619h40.748a2.107,2.107,0,0,0,2.107-2.107V324.505a1.4,1.4,0,0,0-1.4-1.4h-9.085C216.273,323.1,205.913,330.713,199.378,342.619Z" transform="translate(-172.429 -284.734)" fill="#a2e62e"/>
              <path id="Trazado_898240" data-name="Trazado 898240" d="M240.828,323.1h-2.513v13.537a2.107,2.107,0,0,1-2.107,2.107h-34.46q-1.26,1.85-2.37,3.874h40.747a2.107,2.107,0,0,0,2.107-2.107V324.505A1.4,1.4,0,0,0,240.828,323.1Z" transform="translate(-172.429 -284.734)" fill="#97d729"/>
              <path id="Trazado_898241" data-name="Trazado 898241" d="M248.934,377.038h33.787a2.107,2.107,0,0,0,2.107-2.107V363.143H274.339C261.47,363.143,255.471,368.412,248.934,377.038Z" transform="translate(-215.025 -319.152)" fill="#97d729"/>
              <path id="Trazado_898242" data-name="Trazado 898242" d="M280.91,363.143v7.913a2.107,2.107,0,0,1-2.107,2.107H252.06c-1.049,1.2-2.081,2.494-3.127,3.874h33.788a2.107,2.107,0,0,0,2.107-2.107V363.143Z" transform="translate(-215.024 -319.152)" fill="#8bc727"/>
              <path id="Trazado_898243" data-name="Trazado 898243" d="M303.109,411.457h26.179a2.107,2.107,0,0,0,2.107-2.107v-6.164H320.905C311.137,403.186,309.126,406.222,303.109,411.457Z" transform="translate(-261.591 -353.571)" fill="#8bc727"/>
              <path id="Trazado_898244" data-name="Trazado 898244" d="M327.476,403.186v2.289a2.107,2.107,0,0,1-2.107,2.107H307.494c-1.32,1.105-2.694,2.4-4.386,3.874h26.179a2.107,2.107,0,0,0,2.107-2.107v-6.164Z" transform="translate(-261.59 -353.571)" fill="#81b823"/>
            </g>
          </g>
        </g>
      </g>
      <g id="Grupo_1106554" data-name="Grupo 1106554" transform="translate(0 42.427)">
        <path id="Trazado_898245" data-name="Trazado 898245" d="M102.2,88.445a6.14,6.14,0,1,0-6.14-6.14A6.147,6.147,0,0,0,102.2,88.445Zm0-10.174A4.034,4.034,0,1,1,98.167,82.3,4.038,4.038,0,0,1,102.2,78.271Z" transform="translate(-82.568 -71.426)"/>
        <path id="Trazado_898246" data-name="Trazado 898246" d="M133.333,45.4a1.053,1.053,0,0,0,1.053-1.053V43.48a1.053,1.053,0,1,0-2.107,0v.868A1.053,1.053,0,0,0,133.333,45.4Z" transform="translate(-113.701 -42.427)"/>
        <path id="Trazado_898247" data-name="Trazado 898247" d="M132.28,177.213v.868a1.053,1.053,0,0,0,2.107,0v-.868a1.053,1.053,0,1,0-2.107,0Z" transform="translate(-113.701 -157.377)"/>
        <path id="Trazado_898248" data-name="Trazado 898248" d="M63.377,114.491h.868a1.053,1.053,0,0,0,0-2.107h-.868a1.053,1.053,0,0,0,0,2.107Z" transform="translate(-53.571 -102.559)"/>
        <path id="Trazado_898249" data-name="Trazado 898249" d="M196.057,113.437a1.053,1.053,0,0,0,1.053,1.053h.868a1.053,1.053,0,1,0,0-2.107h-.868A1.053,1.053,0,0,0,196.057,113.437Z" transform="translate(-168.521 -102.559)"/>
        <path id="Trazado_898250" data-name="Trazado 898250" d="M97.877,54.131A1.053,1.053,0,0,0,99.7,53.078l-.434-.752a1.053,1.053,0,0,0-1.825,1.053Z" transform="translate(-83.636 -50.483)"/>
        <path id="Trazado_898251" data-name="Trazado 898251" d="M164.695,167.756a1.053,1.053,0,0,0-.386,1.439l.434.752a1.053,1.053,0,1,0,1.825-1.053l-.434-.752A1.054,1.054,0,0,0,164.695,167.756Z" transform="translate(-141.11 -150.032)"/>
        <path id="Trazado_898252" data-name="Trazado 898252" d="M72.974,144.412l-.752.434a1.053,1.053,0,1,0,1.054,1.824l.752-.434a1.053,1.053,0,1,0-1.054-1.824Z" transform="translate(-61.626 -129.967)"/>
        <path id="Trazado_898253" data-name="Trazado 898253" d="M188.566,79.945a1.049,1.049,0,0,0,.526-.141l.752-.434a1.053,1.053,0,1,0-1.054-1.824l-.752.434a1.053,1.053,0,0,0,.528,1.966Z" transform="translate(-161.176 -72.492)"/>
        <path id="Trazado_898254" data-name="Trazado 898254" d="M72.222,79.37l.752.434a1.053,1.053,0,1,0,1.054-1.824l-.752-.434a1.053,1.053,0,1,0-1.054,1.824Z" transform="translate(-61.626 -72.491)"/>
        <path id="Trazado_898255" data-name="Trazado 898255" d="M188.038,146.237l.752.434a1.053,1.053,0,0,0,1.054-1.824l-.752-.434a1.053,1.053,0,0,0-1.054,1.824Z" transform="translate(-161.175 -129.967)"/>
        <path id="Trazado_898256" data-name="Trazado 898256" d="M97.877,168.14l-.434.752a1.053,1.053,0,1,0,1.825,1.053l.434-.752a1.053,1.053,0,0,0-1.825-1.053Z" transform="translate(-83.636 -150.031)"/>
        <path id="Trazado_898257" data-name="Trazado 898257" d="M164.695,54.515a1.053,1.053,0,0,0,1.439-.386l.434-.752a1.053,1.053,0,1,0-1.825-1.053l-.434.752A1.053,1.053,0,0,0,164.695,54.515Z" transform="translate(-141.11 -50.482)"/>
        <path id="Trazado_898258" data-name="Trazado 898258" d="M69.452,80.8H61.431v-6.41l.009,0a17.293,17.293,0,0,0,.239-31.676,3.187,3.187,0,0,0-2.6,0,17.313,17.313,0,0,0-9.493,10.783A15.175,15.175,0,0,0,46.752,51.8a3.141,3.141,0,0,0-2.619,0,15.191,15.191,0,0,0-8.4,9.964,1.053,1.053,0,0,0,2.037.537,13.091,13.091,0,0,1,7.238-8.586,1.036,1.036,0,0,1,.864,0A13.135,13.135,0,0,1,46.5,77.3V73.294l3.361-3.361a1.053,1.053,0,0,0-1.49-1.49L46.5,70.315V66.7l2.588-2.588a1.053,1.053,0,1,0-1.49-1.489l-1.1,1.1V59.823a1.053,1.053,0,1,0-2.107,0v3.894l-1.1-1.1a1.053,1.053,0,0,0-1.49,1.49L44.389,66.7v3.618l-1.871-1.871a1.053,1.053,0,0,0-1.489,1.49l3.361,3.361V77.3A13.122,13.122,0,0,1,37.4,66.854a1.053,1.053,0,1,0-2.1.189,15.231,15.231,0,0,0,9.078,12.586l.014.005v4.384A33.484,33.484,0,0,0,35.946,89.5,33.6,33.6,0,0,0,25.1,83.052V75.575a2.463,2.463,0,0,0-1.03-2l-5.6-3.995a1.053,1.053,0,0,0-.614-.2H10.005a2.443,2.443,0,0,0-1.428.457L3.346,73.575a2.462,2.462,0,0,0-1.03,2V80.8A2.46,2.46,0,0,0,0,83.255V99.263a3.164,3.164,0,0,0,3.16,3.16H68.75a3.164,3.164,0,0,0,3.16-3.16V83.255A2.461,2.461,0,0,0,69.452,80.8Zm-13.8-15.137a15.121,15.121,0,0,0-.186-2.35l3.857,3.857v4.9a15.382,15.382,0,0,1-4.063-2.978,15.221,15.221,0,0,0,.391-3.425ZM51.345,55.055a15.2,15.2,0,0,1,8.592-10.423,1.078,1.078,0,0,1,.881,0,15.184,15.184,0,0,1,.613,27.432v-4.9l3.891-3.891a1.053,1.053,0,0,0-1.49-1.49l-2.4,2.4V59.617l3.007-3.006a1.053,1.053,0,0,0-1.489-1.49l-1.517,1.517V51.813a1.053,1.053,0,1,0-2.107,0v4.824L57.807,55.12a1.053,1.053,0,0,0-1.49,1.49l3.007,3.007v4.572l-2.4-2.4a1.051,1.051,0,0,0-1.7.3,15.326,15.326,0,0,0-3.878-7.035ZM46.5,79.634l.014-.005a15.247,15.247,0,0,0,8.047-8.3,17.434,17.434,0,0,0,4.759,3.056l.009,0V80.81A38.925,38.925,0,0,0,46.5,83.15ZM22.845,75.29a.352.352,0,0,1,.147.286V82.36q-1.037-.3-2.107-.547V77.724a1.758,1.758,0,0,0-1.756-1.756H16.589a1.758,1.758,0,0,0-1.756,1.756v3.193q-1.041-.076-2.107-.1V75.575a.352.352,0,0,1,.147-.286l4.986-3.558Zm-4.066,6.1q-.909-.155-1.838-.269V78.075h1.838ZM4.57,75.29,9.8,71.556a.349.349,0,0,1,.2-.065H14.57l-2.92,2.084a2.462,2.462,0,0,0-1.03,2V80.8h-6.2V75.576a.352.352,0,0,1,.147-.286ZM2.458,82.9h9.085c9.052,0,16.736,2.708,22.86,8.047q-1.077,1.073-2.09,2.257a29.16,29.16,0,0,0-9.266-5.083,1.053,1.053,0,0,0-.662,2,27.1,27.1,0,0,1,8.6,4.72q-1.063,1.384-2.048,2.9c-4.691-3.624-9.255-5.7-17.4-5.7H2.107V88.528h9.436A38.907,38.907,0,0,1,17.765,89a1.066,1.066,0,0,0,.171.014,1.053,1.053,0,0,0,.168-2.093,41,41,0,0,0-6.561-.5H2.107V83.256a.351.351,0,0,1,.351-.351ZM2.107,99.263V94.152h9.436c7.687,0,11.794,1.893,16.282,5.4q-.223.379-.441.765H3.16a1.054,1.054,0,0,1-1.053-1.053ZM60.367,82.9h9.085a.351.351,0,0,1,.351.351v3.166H61.657a1.053,1.053,0,1,0,0,2.107H69.8v3.517H60.367c-8.972,0-11.784,2.527-16.442,6.713-.557.5-1.132,1.017-1.75,1.558H37.114A35.934,35.934,0,0,1,44.746,92.8a24.176,24.176,0,0,1,12.089-4.12,1.053,1.053,0,0,0-.186-2.1c-10.4.92-16.075,5.732-22.206,13.737H29.82C36.735,88.76,47,82.9,60.367,82.9Zm8.383,17.412H45.343c4.567-4.1,6.866-6.164,15.024-6.164H69.8v5.111a1.054,1.054,0,0,1-1.053,1.053Z" transform="translate(0 -42.43)"/>
      </g>
    </g>
  </g>
</svg>
