<svg xmlns="http://www.w3.org/2000/svg" width="70" height="56.433" viewBox="0 0 70 56.433">
  <g id="_x32_4_Fields" transform="translate(0 -49.638)">
    <g id="_x32_4_Fields_2_" transform="translate(0 49.638)">
      <g id="Grupo_1106246" data-name="Grupo 1106246" transform="translate(0 0)">
        <path id="Trazado_897635" data-name="Trazado 897635" d="M20.827,277.354a1.432,1.432,0,1,0,.178,2.858c.273-.014,27.978-1.477,40.627,21.674a1.432,1.432,0,1,0,2.516-1.367c-13.524-24.724-43.02-23.178-43.321-23.165Z" transform="translate(-16.821 -246.195)" fill="#65802c"/>
        <path id="Trazado_897636" data-name="Trazado 897636" d="M20.8,331.4A1.425,1.425,0,0,0,21,334.241c.219-.014,21.182-1.285,32.819,14.427a1.428,1.428,0,1,0,2.3-1.7C43.559,330.029,21.734,331.328,20.8,331.4Z" transform="translate(-16.811 -292.826)" fill="#65802c"/>
        <path id="Trazado_897637" data-name="Trazado 897637" d="M52,73.194V70.063c2.995.082,6.3-.561,8.423-2.68,3.46-3.46,2.6-9.654,2.557-9.914a1.421,1.421,0,0,0-1.2-1.2c-.26-.041-6.3-.875-9.777,2.448A10.425,10.425,0,0,0,49.3,52.464c-3.651-3.651-10.188-2.735-10.461-2.694a1.436,1.436,0,0,0-1.2,1.2c-.041.273-.957,6.81,2.694,10.461,2.229,2.215,5.689,2.9,8.834,2.817v8.929H21.414V70.063c2.995.082,6.3-.561,8.423-2.68,3.46-3.46,2.6-9.654,2.557-9.914a1.421,1.421,0,0,0-1.2-1.2c-.26-.041-6.3-.875-9.791,2.448a10.488,10.488,0,0,0-2.694-6.249C15.056,48.813,8.519,49.729,8.246,49.77a1.421,1.421,0,0,0-1.2,1.2c-.041.273-.957,6.81,2.694,10.461,2.407,2.407,6.058,2.831,8.341,2.831h.479v8.929H1.422a1.422,1.422,0,1,0,0,2.844H3.747c.328.082,36.771-2.079,48.791,29.113a1.428,1.428,0,1,0,2.667-1.026A46.4,46.4,0,0,0,49.556,93.61a45.6,45.6,0,0,1,16.259-2.53,1.425,1.425,0,0,0,.191-2.844,47.544,47.544,0,0,0-18.283,2.995A42.321,42.321,0,0,0,44.565,87.8,51.075,51.075,0,0,1,65.8,83.614a1.432,1.432,0,0,0,.191-2.858,52.747,52.747,0,0,0-23.725,4.937,45.472,45.472,0,0,0-4.485-3.35c9.23-4.827,20.443-6.755,30.795-6.3A1.421,1.421,0,0,0,70,74.617c.014-1.955-.492-1.422-18-1.422Zm8.246-14.18c.055,1.627-.109,4.622-1.832,6.359S53.686,67.26,52.059,67.2c-.055-1.627.109-4.622,1.846-6.359,1.709-1.723,4.718-1.887,6.345-1.832Zm-17.9.41c-1.887-1.9-2.038-5.2-1.983-6.919,1.942-.082,5.128.205,6.906,1.983,1.887,1.887,2.038,5.183,1.983,6.906C47.533,61.462,44.237,61.311,42.35,59.424Zm-12.7-.41c.055,1.627-.109,4.622-1.832,6.359S23.083,67.26,21.455,67.2c-.055-1.627.109-4.622,1.832-6.359s4.745-1.887,6.359-1.832Zm-17.9.41c-1.887-1.9-2.038-5.2-1.983-6.919,1.942-.082,5.142.205,6.919,1.983,1.887,1.9,2.038,5.2,1.983,6.919-1.942.082-5.142-.205-6.919-1.983Zm13,16.765c-.15-.041-.3-.1-.451-.137H45.618a54.071,54.071,0,0,0-10.639,4.581,53.223,53.223,0,0,0-10.229-4.444Z" transform="translate(0 -49.638)" fill="#65802c"/>
      </g>
    </g>
  </g>
</svg>
