<svg xmlns="http://www.w3.org/2000/svg" width="120" height="120" viewBox="0 0 120 120">
  <g id="Grupo_1106608" data-name="Grupo 1106608" transform="translate(-955.333 -165)">
    <g id="Trazado_874102" data-name="Trazado 874102" transform="translate(955.333 165)" fill="#f3d02c">
      <path d="M 60.00000762939453 117.5000228881836 C 52.2364616394043 117.5000228881836 44.70646286010742 115.9800796508789 37.61917114257812 112.9824066162109 C 34.21260833740234 111.5415496826172 30.92677116394043 109.7580261230469 27.85295295715332 107.6814041137695 C 24.80769920349121 105.6240615844727 21.94397163391113 103.2612609863281 19.34137153625488 100.6586456298828 C 16.7387523651123 98.05604553222656 14.37595272064209 95.19231414794922 12.31862545013428 92.14706420898438 C 10.24198913574219 89.0732421875 8.458479881286621 85.78740692138672 7.017607688903809 82.38082885742188 C 4.01995325088501 75.29355621337891 2.500007629394531 67.7635498046875 2.500007629394531 60.00000762939453 C 2.500007629394531 52.2364616394043 4.01995325088501 44.70646286010742 7.017607688903809 37.61917114257812 C 8.458479881286621 34.21260833740234 10.24198913574219 30.92677116394043 12.31862545013428 27.85295295715332 C 14.37595272064209 24.80769920349121 16.7387523651123 21.94397163391113 19.34137153625488 19.34137153625488 C 21.94397163391113 16.7387523651123 24.80769920349121 14.37595272064209 27.85295295715332 12.31862545013428 C 30.92677116394043 10.24198913574219 34.21260833740234 8.458479881286621 37.61917114257812 7.017607688903809 C 44.70646286010742 4.01995325088501 52.2364616394043 2.500007629394531 60.00000762939453 2.500007629394531 C 67.7635498046875 2.500007629394531 75.29355621337891 4.01995325088501 82.38082885742188 7.017607688903809 C 85.78740692138672 8.458479881286621 89.0732421875 10.24198913574219 92.14706420898438 12.31862545013428 C 95.19231414794922 14.37595272064209 98.05604553222656 16.7387523651123 100.6586456298828 19.34137153625488 C 103.2612609863281 21.94397163391113 105.6240615844727 24.80769920349121 107.6814041137695 27.85295295715332 C 109.7580261230469 30.92677116394043 111.5415496826172 34.21260833740234 112.9824066162109 37.61917114257812 C 115.9800796508789 44.70646286010742 117.5000228881836 52.2364616394043 117.5000228881836 60.00000762939453 C 117.5000228881836 67.7635498046875 115.9800796508789 75.29355621337891 112.9824066162109 82.38082885742188 C 111.5415496826172 85.78740692138672 109.7580261230469 89.0732421875 107.6814041137695 92.14706420898438 C 105.6240615844727 95.19231414794922 103.2612609863281 98.05604553222656 100.6586456298828 100.6586456298828 C 98.05604553222656 103.2612609863281 95.19231414794922 105.6240615844727 92.14706420898438 107.6814041137695 C 89.0732421875 109.7580261230469 85.78740692138672 111.5415496826172 82.38082885742188 112.9824066162109 C 75.29355621337891 115.9800796508789 67.7635498046875 117.5000228881836 60.00000762939453 117.5000228881836 Z" stroke="none"/>
      <path d="M 60.00000762939453 4.999984741210938 C 52.57284545898438 4.999984741210938 45.37050628662109 6.4534912109375 38.59304809570312 9.320106506347656 C 35.33514404296875 10.69808959960938 32.19252777099609 12.40390777587891 29.25246429443359 14.39016723632812 C 26.33905029296875 16.35842895507812 23.59922790527344 18.61901092529297 21.109130859375 21.109130859375 C 18.61901092529297 23.59922790527344 16.35842895507812 26.33905029296875 14.39016723632812 29.25246429443359 C 12.40390777587891 32.19252777099609 10.69808959960938 35.33514404296875 9.320106506347656 38.59304809570312 C 6.4534912109375 45.37050628662109 4.999984741210938 52.57284545898438 4.999984741210938 60.00000762939453 C 4.999984741210938 67.42716979980469 6.4534912109375 74.62950897216797 9.320106506347656 81.40695190429688 C 10.69808959960938 84.66484832763672 12.40388488769531 87.80748748779297 14.39016723632812 90.74754333496094 C 16.35842895507812 93.66096496582031 18.61901092529297 96.40077209472656 21.109130859375 98.89088439941406 C 23.59922790527344 101.380989074707 26.33905029296875 103.6415710449219 29.25246429443359 105.6098251342773 C 32.19252777099609 107.5961074829102 35.33514404296875 109.3019104003906 38.59304809570312 110.6798858642578 C 45.37050628662109 113.5465087890625 52.57284545898438 115.0000076293945 60.00000762939453 115.0000076293945 C 67.42716979980469 115.0000076293945 74.62950897216797 113.5465087890625 81.40695190429688 110.6798858642578 C 84.66484832763672 109.3019104003906 87.80748748779297 107.5961074829102 90.74754333496094 105.6098251342773 C 93.66096496582031 103.6415710449219 96.40077209472656 101.380989074707 98.89088439941406 98.89088439941406 C 101.380989074707 96.40077209472656 103.6415710449219 93.66096496582031 105.6098251342773 90.74754333496094 C 107.5961074829102 87.80748748779297 109.3019104003906 84.66484832763672 110.6798858642578 81.40695190429688 C 113.5465087890625 74.62950897216797 115.0000076293945 67.42716979980469 115.0000076293945 60.00000762939453 C 115.0000076293945 52.57284545898438 113.5465087890625 45.37050628662109 110.6798858642578 38.59304809570312 C 109.3019104003906 35.33514404296875 107.5961074829102 32.19252777099609 105.6098251342773 29.25246429443359 C 103.6415710449219 26.33905029296875 101.380989074707 23.59922790527344 98.89088439941406 21.109130859375 C 96.40077209472656 18.61901092529297 93.66096496582031 16.35842895507812 90.74754333496094 14.39016723632812 C 87.80748748779297 12.40388488769531 84.66484832763672 10.69808959960938 81.40695190429688 9.320106506347656 C 74.62950897216797 6.4534912109375 67.42716979980469 4.999984741210938 60.00000762939453 4.999984741210938 M 60.00000762939453 -1.52587890625e-05 C 93.1370849609375 -1.52587890625e-05 120.0000076293945 26.86290740966797 120.0000076293945 60.00000762939453 C 120.0000076293945 93.1370849609375 93.1370849609375 120.0000076293945 60.00000762939453 120.0000076293945 C 26.86290740966797 120.0000076293945 -1.52587890625e-05 93.1370849609375 -1.52587890625e-05 60.00000762939453 C -1.52587890625e-05 26.86290740966797 26.86290740966797 -1.52587890625e-05 60.00000762939453 -1.52587890625e-05 Z" stroke="none" fill="#fff"/>
    </g>
    <g id="Fill_out_line" data-name="Fill out line" transform="translate(964.043 172.71)">
      <path id="Trazado_898358" data-name="Trazado 898358" d="M242.113,72.234H208V64h30.584Z" transform="translate(-163.768 -40.942)" fill="#ab693d"/>
      <path id="Trazado_898359" data-name="Trazado 898359" d="M208,120h34.113v11.763H208Z" transform="translate(-163.768 -88.708)" fill="#8c5428"/>
      <path id="Trazado_898360" data-name="Trazado 898360" d="M238.584,29.882H208V24h20Z" transform="translate(-163.768 -6.824)" fill="#da9065"/>
      <path id="Trazado_898361" data-name="Trazado 898361" d="M140.232,38.116,136.7,29.882,126.116,24l-10.587,5.882L112,38.116V49.879h28.232Z" transform="translate(-81.884 -6.824)" fill="#e04446"/>
      <path id="Trazado_898362" data-name="Trazado 898362" d="M152,80h2.353v2.353H152Z" transform="translate(-116.003 -54.589)" fill="#68737f"/>
      <path id="Trazado_898363" data-name="Trazado 898363" d="M248,80h2.353v2.353H248Z" transform="translate(-197.887 -54.589)" fill="#68737f"/>
      <path id="Trazado_898364" data-name="Trazado 898364" d="M176,136h4.705v9.411H176Z" transform="translate(-136.474 -102.355)" fill="#da9065"/>
      <path id="Trazado_898365" data-name="Trazado 898365" d="M200,48h2.353v2.353H200Z" transform="translate(-156.945 -27.295)" fill="#68737f"/>
      <path id="Trazado_898366" data-name="Trazado 898366" d="M324,120l7.058,4.705h-20L304,120Z" transform="translate(-245.653 -88.708)" fill="#da9065"/>
      <path id="Trazado_898367" data-name="Trazado 898367" d="M440,152h7.058v7.058H440Z" transform="translate(-361.655 -116.002)" fill="#9f764a"/>
      <path id="Trazado_898368" data-name="Trazado 898368" d="M304,120l7.058,4.705v7.058H304Z" transform="translate(-245.653 -88.708)" fill="#ba8b5d"/>
      <path id="Trazado_898369" data-name="Trazado 898369" d="M36.94,146.353H33.411V144H31.058v2.353H27.529V144H25.176v2.353H24v2.353h1.176v3.529h2.353v-3.529h3.529v3.529h2.353v-3.529H36.94Z" transform="translate(-6.824 -109.179)" fill="#da9065"/>
      <path id="Trazado_898370" data-name="Trazado 898370" d="M24,200H92.227v42.348H24Z" transform="translate(-6.824 -156.944)" fill="#7ab355"/>
      <g id="Grupo_1106613" data-name="Grupo 1106613" transform="translate(17.176 55.995)">
        <path id="Trazado_898371" data-name="Trazado 898371" d="M24,288H92.227v2.353H24Z" transform="translate(-24 -288)" fill="#699949"/>
        <path id="Trazado_898372" data-name="Trazado 898372" d="M24,336H92.227v2.353H24Z" transform="translate(-24 -328.942)" fill="#699949"/>
        <path id="Trazado_898373" data-name="Trazado 898373" d="M24,384H92.227v2.353H24Z" transform="translate(-24 -369.884)" fill="#699949"/>
      </g>
      <path id="Trazado_898374" data-name="Trazado 898374" d="M128,288h4.705l2.353,11.763H128Z" transform="translate(-95.532 -232.005)" fill="#68737f"/>
      <path id="Trazado_898375" data-name="Trazado 898375" d="M208.845,300.422l2.1,1.052" transform="translate(-164.489 -242.6)" fill="#4f5761"/>
      <path id="Trazado_898376" data-name="Trazado 898376" d="M194.949,333.474l-2.1-1.052" transform="translate(-150.842 -269.895)" fill="#4f5761"/>
      <path id="Trazado_898377" data-name="Trazado 898377" d="M136.234,332.94l-2.353-9.411L128,320v12.94Z" transform="translate(-95.532 -259.3)" fill="#ce2337"/>
      <path id="Trazado_898378" data-name="Trazado 898378" d="M172,329.176v10.587H152v-5.882h11.763V328Z" transform="translate(-116.003 -266.123)" fill="#e04446"/>
      <ellipse id="Elipse_11710" data-name="Elipse 11710" cx="6.822" cy="7.223" rx="6.822" ry="7.223" transform="translate(23.199 64.131)" fill="#68737f"/>
      <path id="Trazado_898379" data-name="Trazado 898379" d="M64.234,352.469a8.234,8.234,0,1,1,8.234-8.234A8.234,8.234,0,0,1,64.234,352.469Zm0-14.116a5.882,5.882,0,1,0,5.882,5.882A5.882,5.882,0,0,0,64.234,338.353Z" transform="translate(-34.119 -272.947)" fill="#4f5761"/>
      <circle id="Elipse_11711" data-name="Elipse 11711" cx="2.408" cy="2.408" r="2.408" transform="translate(28.015 68.946)" fill="#d4e4f0"/>
      <path id="Trazado_898380" data-name="Trazado 898380" d="M100.348,327.683,98.13,326.9a9.418,9.418,0,0,0-12.012-12.012l-.784-2.218a11.771,11.771,0,0,1,15.015,15.014Z" transform="translate(-59.139 -252.475)" fill="#d6323f"/>
      <ellipse id="Elipse_11712" data-name="Elipse 11712" cx="4.414" cy="4.815" rx="4.414" ry="4.815" transform="translate(50.487 68.946)" fill="#68737f"/>
      <path id="Trazado_898381" data-name="Trazado 898381" d="M245.882,379.763a5.882,5.882,0,1,1,5.882-5.882,5.882,5.882,0,0,1-5.882,5.882Zm0-9.411a3.529,3.529,0,1,0,3.529,3.529A3.529,3.529,0,0,0,245.882,370.353Z" transform="translate(-191.063 -300.242)" fill="#4f5761"/>
      <path id="Trazado_898382" data-name="Trazado 898382" d="M86.056,35.019l-6.767-4.511L75.9,22.595a1.176,1.176,0,0,0-.51-.565L64.8,16.148A1.176,1.176,0,0,0,64.23,16h-20a1.173,1.173,0,0,0-.571.148h0L33.074,22.03a1.176,1.176,0,0,0-.51.565l-3.529,8.234a1.176,1.176,0,0,0-.1.463v5.882H26.587V34.821H24.235v2.353H20.706V34.821H18.353v2.353H16v2.353h2.353v2.353H16v2.353H85.4a1.176,1.176,0,0,0,1.176-1.176V36a1.176,1.176,0,0,0-.524-.979ZM59.524,33.49l4.705,3.137v5.252H59.524Zm7.058,3.684H77.169v4.705H66.582Zm-.82-2.353-3.529-2.353H77.989l3.529,2.353Zm10.8-4.705H59.124L56.6,24.234H74.041ZM63.925,18.353l6.352,3.529H55.124l-6.352-3.529ZM34.568,23.891l9.664-5.369L53.9,23.891l3.275,7.643V41.879H50.114V33.645a1.176,1.176,0,0,0-1.176-1.176H39.527a1.176,1.176,0,0,0-1.176,1.176v8.234H31.293V31.534Zm10.84,10.93h2.353v7.058H45.408Zm-2.353,7.058H40.7V34.821h2.353ZM28.94,39.527v2.353H26.587V39.527Zm-8.234,0h3.529v2.353H20.706Zm58.816,2.353V37.174h4.705v4.705Z" transform="translate(0)"/>
      <path id="Trazado_898383" data-name="Trazado 898383" d="M152,80h2.353v2.353H152Z" transform="translate(-116.003 -54.589)"/>
      <path id="Trazado_898384" data-name="Trazado 898384" d="M248,80h2.353v2.353H248Z" transform="translate(-197.887 -54.589)"/>
      <path id="Trazado_898385" data-name="Trazado 898385" d="M200,48h2.353v2.353H200Z" transform="translate(-156.945 -27.295)"/>
      <path id="Trazado_898386" data-name="Trazado 898386" d="M91.529,368a3.529,3.529,0,1,0,3.529,3.529A3.529,3.529,0,0,0,91.529,368Zm0,4.705a1.176,1.176,0,1,1,1.176-1.176A1.176,1.176,0,0,1,91.529,372.705Z" transform="translate(-61.413 -300.242)"/>
      <circle id="Elipse_11713" data-name="Elipse 11713" cx="1.204" cy="1.204" r="1.204" transform="translate(53.697 72.156)"/>
      <path id="Trazado_898387" data-name="Trazado 898387" d="M60.7,298.821a5.889,5.889,0,0,0-3.529-5.389v-5.2a1.176,1.176,0,0,0-1.01-1.164l-1.343-.192v-3.349H52.466v3.013l-4.539-.648a1.175,1.175,0,0,0-.937.276c-.03.026-.057.053-.084.081l-1.158-.772.712-1.424L44.356,283,42,287.708l2.1,1.052.58-1.161,1.9,1.264v2.9H40.9a11.727,11.727,0,0,0-.663-1.291l-1.906-9.526A1.176,1.176,0,0,0,37.174,280H32.468a1.176,1.176,0,0,0-1.176,1.176v3.589c-.391-.039-.784-.06-1.176-.06a11.714,11.714,0,0,0-3.922.67l.785,2.218a9.421,9.421,0,0,1,12.011,5.737h0v0a9.46,9.46,0,0,1,.3,5.227A1.176,1.176,0,0,0,40.439,300h8.616a5.857,5.857,0,0,0,1.061,2.353H35.871a8.234,8.234,0,1,0-11.51,0H16V304.7H86.579V302.35H59.521a5.851,5.851,0,0,0,1.18-3.529Zm-36.466-2.353a5.882,5.882,0,1,1,5.882,5.882A5.882,5.882,0,0,1,24.234,296.469Zm9.411-11.22v-2.9h2.565l.94,4.7A11.815,11.815,0,0,0,33.645,285.249Zm8,8.867h6.117a1.176,1.176,0,0,0,1.176-1.176v-4.525l5.882.84v3.685a5.892,5.892,0,0,0-5.763,4.705H41.82c.039-.39.059-.783.059-1.176a11.808,11.808,0,0,0-.235-2.353Zm9.646,4.705a3.529,3.529,0,1,1,3.529,3.529A3.529,3.529,0,0,1,51.29,298.821Z" transform="translate(0 -225.181)"/>
      <path id="Trazado_898388" data-name="Trazado 898388" d="M16,480H86.579v2.353H16Z" transform="translate(0 -395.773)"/>
      <path id="Trazado_898389" data-name="Trazado 898389" d="M16,240H86.579v2.353H16Z" transform="translate(0 -191.063)"/>
      <path id="Trazado_898390" data-name="Trazado 898390" d="M296,288h29.408v2.353H296Z" transform="translate(-238.829 -232.005)"/>
      <path id="Trazado_898391" data-name="Trazado 898391" d="M16,288H28.94v2.353H16Z" transform="translate(0 -232.005)"/>
      <path id="Trazado_898392" data-name="Trazado 898392" d="M312,336h27.055v2.353H312Z" transform="translate(-252.476 -272.947)"/>
      <path id="Trazado_898393" data-name="Trazado 898393" d="M16,336h5.882v2.353H16Z" transform="translate(0 -272.947)"/>
      <path id="Trazado_898394" data-name="Trazado 898394" d="M336,384h23.526v2.353H336Z" transform="translate(-272.947 -313.889)"/>
      <path id="Trazado_898395" data-name="Trazado 898395" d="M16,384h3.529v2.353H16Z" transform="translate(0 -313.889)"/>
    </g>
  </g>
</svg>
