<svg xmlns="http://www.w3.org/2000/svg" width="120" height="120" viewBox="0 0 120 120">
  <g id="Grupo_1106618" data-name="Grupo 1106618" transform="translate(-955.333 -164.685)">
    <g id="Trazado_874102" data-name="Trazado 874102" transform="translate(955.333 164.685)" fill="#f3d02c">
      <path d="M 60.00000762939453 117.5000228881836 C 52.2364616394043 117.5000228881836 44.70646286010742 115.9800796508789 37.61917114257812 112.9824066162109 C 34.21260833740234 111.5415496826172 30.92677116394043 109.7580261230469 27.85295295715332 107.6814041137695 C 24.80769920349121 105.6240615844727 21.94397163391113 103.2612609863281 19.34137153625488 100.6586456298828 C 16.7387523651123 98.05604553222656 14.37595272064209 95.19231414794922 12.31862545013428 92.14706420898438 C 10.24198913574219 89.0732421875 8.458479881286621 85.78740692138672 7.017607688903809 82.38082885742188 C 4.01995325088501 75.29355621337891 2.500007629394531 67.7635498046875 2.500007629394531 60.00000762939453 C 2.500007629394531 52.2364616394043 4.01995325088501 44.70646286010742 7.017607688903809 37.61917114257812 C 8.458479881286621 34.21260833740234 10.24198913574219 30.92677116394043 12.31862545013428 27.85295295715332 C 14.37595272064209 24.80769920349121 16.7387523651123 21.94397163391113 19.34137153625488 19.34137153625488 C 21.94397163391113 16.7387523651123 24.80769920349121 14.37595272064209 27.85295295715332 12.31862545013428 C 30.92677116394043 10.24198913574219 34.21260833740234 8.458479881286621 37.61917114257812 7.017607688903809 C 44.70646286010742 4.01995325088501 52.2364616394043 2.500007629394531 60.00000762939453 2.500007629394531 C 67.7635498046875 2.500007629394531 75.29355621337891 4.01995325088501 82.38082885742188 7.017607688903809 C 85.78740692138672 8.458479881286621 89.0732421875 10.24198913574219 92.14706420898438 12.31862545013428 C 95.19231414794922 14.37595272064209 98.05604553222656 16.7387523651123 100.6586456298828 19.34137153625488 C 103.2612609863281 21.94397163391113 105.6240615844727 24.80769920349121 107.6814041137695 27.85295295715332 C 109.7580261230469 30.92677116394043 111.5415496826172 34.21260833740234 112.9824066162109 37.61917114257812 C 115.9800796508789 44.70646286010742 117.5000228881836 52.2364616394043 117.5000228881836 60.00000762939453 C 117.5000228881836 67.7635498046875 115.9800796508789 75.29355621337891 112.9824066162109 82.38082885742188 C 111.5415496826172 85.78740692138672 109.7580261230469 89.0732421875 107.6814041137695 92.14706420898438 C 105.6240615844727 95.19231414794922 103.2612609863281 98.05604553222656 100.6586456298828 100.6586456298828 C 98.05604553222656 103.2612609863281 95.19231414794922 105.6240615844727 92.14706420898438 107.6814041137695 C 89.0732421875 109.7580261230469 85.78740692138672 111.5415496826172 82.38082885742188 112.9824066162109 C 75.29355621337891 115.9800796508789 67.7635498046875 117.5000228881836 60.00000762939453 117.5000228881836 Z" stroke="none"/>
      <path d="M 60.00000762939453 4.999984741210938 C 52.57284545898438 4.999984741210938 45.37050628662109 6.4534912109375 38.59304809570312 9.320106506347656 C 35.33514404296875 10.69808959960938 32.19252777099609 12.40390777587891 29.25246429443359 14.39016723632812 C 26.33905029296875 16.35842895507812 23.59922790527344 18.61901092529297 21.109130859375 21.109130859375 C 18.61901092529297 23.59922790527344 16.35842895507812 26.33905029296875 14.39016723632812 29.25246429443359 C 12.40390777587891 32.19252777099609 10.69808959960938 35.33514404296875 9.320106506347656 38.59304809570312 C 6.4534912109375 45.37050628662109 4.999984741210938 52.57284545898438 4.999984741210938 60.00000762939453 C 4.999984741210938 67.42716979980469 6.4534912109375 74.62950897216797 9.320106506347656 81.40695190429688 C 10.69808959960938 84.66484832763672 12.40388488769531 87.80748748779297 14.39016723632812 90.74754333496094 C 16.35842895507812 93.66096496582031 18.61901092529297 96.40077209472656 21.109130859375 98.89088439941406 C 23.59922790527344 101.380989074707 26.33905029296875 103.6415710449219 29.25246429443359 105.6098251342773 C 32.19252777099609 107.5961074829102 35.33514404296875 109.3019104003906 38.59304809570312 110.6798858642578 C 45.37050628662109 113.5465087890625 52.57284545898438 115.0000076293945 60.00000762939453 115.0000076293945 C 67.42716979980469 115.0000076293945 74.62950897216797 113.5465087890625 81.40695190429688 110.6798858642578 C 84.66484832763672 109.3019104003906 87.80748748779297 107.5961074829102 90.74754333496094 105.6098251342773 C 93.66096496582031 103.6415710449219 96.40077209472656 101.380989074707 98.89088439941406 98.89088439941406 C 101.380989074707 96.40077209472656 103.6415710449219 93.66096496582031 105.6098251342773 90.74754333496094 C 107.5961074829102 87.80748748779297 109.3019104003906 84.66484832763672 110.6798858642578 81.40695190429688 C 113.5465087890625 74.62950897216797 115.0000076293945 67.42716979980469 115.0000076293945 60.00000762939453 C 115.0000076293945 52.57284545898438 113.5465087890625 45.37050628662109 110.6798858642578 38.59304809570312 C 109.3019104003906 35.33514404296875 107.5961074829102 32.19252777099609 105.6098251342773 29.25246429443359 C 103.6415710449219 26.33905029296875 101.380989074707 23.59922790527344 98.89088439941406 21.109130859375 C 96.40077209472656 18.61901092529297 93.66096496582031 16.35842895507812 90.74754333496094 14.39016723632812 C 87.80748748779297 12.40388488769531 84.66484832763672 10.69808959960938 81.40695190429688 9.320106506347656 C 74.62950897216797 6.4534912109375 67.42716979980469 4.999984741210938 60.00000762939453 4.999984741210938 M 60.00000762939453 -1.52587890625e-05 C 93.1370849609375 -1.52587890625e-05 120.0000076293945 26.86290740966797 120.0000076293945 60.00000762939453 C 120.0000076293945 93.1370849609375 93.1370849609375 120.0000076293945 60.00000762939453 120.0000076293945 C 26.86290740966797 120.0000076293945 -1.52587890625e-05 93.1370849609375 -1.52587890625e-05 60.00000762939453 C -1.52587890625e-05 26.86290740966797 26.86290740966797 -1.52587890625e-05 60.00000762939453 -1.52587890625e-05 Z" stroke="none" fill="#fff"/>
    </g>
    <g id="Grupo_1106637" data-name="Grupo 1106637" transform="translate(952.19 188.717)">
      <g id="Grupo_1106635" data-name="Grupo 1106635" transform="translate(32.673 1.054)">
        <g id="Grupo_1106633" data-name="Grupo 1106633" transform="translate(0)">
          <path id="Trazado_898436" data-name="Trazado 898436" d="M171.293,17.592a57.271,57.271,0,0,1,13.846,1.568,14.051,14.051,0,0,0-27.692,0A57.271,57.271,0,0,1,171.293,17.592Z" transform="translate(-140.822 -7.5)" fill="#ffd15b"/>
          <g id="Grupo_1106620" data-name="Grupo 1106620" transform="translate(27.454)">
            <path id="Trazado_898437" data-name="Trazado 898437" d="M245.116,18.024a48.493,48.493,0,0,1,6.278,1.136A14.053,14.053,0,0,0,234.531,7.827,14.068,14.068,0,0,1,245.116,18.024Z" transform="translate(-234.531 -7.5)" fill="#ffc344"/>
          </g>
          <ellipse id="Elipse_11714" data-name="Elipse 11714" cx="23.041" cy="7.827" rx="23.041" ry="7.827" transform="translate(7.43 9.951)" fill="#ffe177"/>
          <g id="Grupo_1106621" data-name="Grupo 1106621" transform="translate(44.436 12.896)">
            <path id="Trazado_898438" data-name="Trazado 898438" d="M359.444,99.289a3.3,3.3,0,0,1,.818,2.073c0,1.813-1.815,3.482-4.861,4.809a4.168,4.168,0,0,1,2.667,3.418c3.969-1.406,6.409-3.315,6.409-5.417C364.477,102.325,362.593,100.628,359.444,99.289Z" transform="translate(-355.401 -99.289)" fill="#ffd15b"/>
          </g>
          <g id="Grupo_1106624" data-name="Grupo 1106624" transform="translate(7.289 38.872)">
            <g id="Grupo_1106623" data-name="Grupo 1106623">
              <g id="Grupo_1106622" data-name="Grupo 1106622">
                <path id="Trazado_898439" data-name="Trazado 898439" d="M96.033,294.48a8.158,8.158,0,0,1,8.153,7.895l0,.136h1.835l0-.136a8.157,8.157,0,0,1,16.305,0l0,.136h1.835l0-.136a8.143,8.143,0,0,1,13.186-6.142v-3.627a8.43,8.43,0,0,0-8.43-8.43H99.43a8.43,8.43,0,0,0-8.43,8.43v3.627a8.138,8.138,0,0,1,5.033-1.753Z" transform="translate(-91 -284.176)" fill="#e2dee2"/>
              </g>
            </g>
          </g>
          <path id="Trazado_898440" data-name="Trazado 898440" d="M372.23,294.931l.1,0a4.382,4.382,0,0,1,4.279-3.443h.478a8.436,8.436,0,0,0-6.974-6.627V295.2A8.306,8.306,0,0,1,372.23,294.931Z" transform="translate(-323.611 -245.896)" fill="#cbc4cc"/>
          <g id="Grupo_1106625" data-name="Grupo 1106625" transform="translate(11.515 24.725)">
            <path id="Trazado_898441" data-name="Trazado 898441" d="M129.7,186.56l-.028-.1h-2.136a4.031,4.031,0,0,1-3.885-2.975,5.644,5.644,0,1,0,8.185,7.121A10.647,10.647,0,0,1,129.7,186.56Z" transform="translate(-121.079 -183.482)" fill="#554e56"/>
            <path id="Trazado_898442" data-name="Trazado 898442" d="M322.518,183.482a4.031,4.031,0,0,1-3.885,2.975H316.5l-.028.1a10.649,10.649,0,0,1-2.136,4.043,5.644,5.644,0,1,0,8.185-7.121Z" transform="translate(-287.182 -183.482)" fill="#554e56"/>
          </g>
          <path id="Trazado_898443" data-name="Trazado 898443" d="M228.7,255.382a10.651,10.651,0,0,1-4.463-.977v4.183l3.969,3.922a.7.7,0,0,0,.988,0l3.969-3.922V254.4A10.65,10.65,0,0,1,228.7,255.382Z" transform="translate(-198.228 -219.716)" fill="#a44f3e"/>
          <g id="Grupo_1106629" data-name="Grupo 1106629" transform="translate(4.107 45.595)">
            <g id="Grupo_1106626" data-name="Grupo 1106626">
              <path id="Trazado_898444" data-name="Trazado 898444" d="M70.357,363.631a1.815,1.815,0,0,1,1.613.982l.039.077H84.862a8.3,8.3,0,0,0-16.514-1.059Z" transform="translate(-68.348 -353.079)" fill="#fe860a"/>
              <path id="Trazado_898445" data-name="Trazado 898445" d="M113.932,356.519a8.31,8.31,0,0,0-2.107.271,8.3,8.3,0,0,1,6.191,7.9h4.215A8.3,8.3,0,0,0,113.932,356.519Z" transform="translate(-105.717 -353.079)" fill="#f46700"/>
              <path id="Trazado_898446" data-name="Trazado 898446" d="M130.529,338.016h-3.282a.421.421,0,0,1-.421-.421v-1.182a4.381,4.381,0,0,1,4.381-4.381h3.282a.421.421,0,0,1,.421.421v1.182A4.381,4.381,0,0,1,130.529,338.016Z" transform="translate(-118.61 -332.032)" fill="#0ed290"/>
              <path id="Trazado_898447" data-name="Trazado 898447" d="M134.489,332.032h-1.346a4.381,4.381,0,0,1-4.375,4.165h-1.935c0,.071-.005.143-.005.215v1.182a.421.421,0,0,0,.421.421h3.282a4.381,4.381,0,0,0,4.381-4.381v-1.182A.422.422,0,0,0,134.489,332.032Z" transform="translate(-118.61 -332.032)" fill="#00c285"/>
            </g>
            <g id="Grupo_1106627" data-name="Grupo 1106627" transform="translate(18.066)">
              <path id="Trazado_898448" data-name="Trazado 898448" d="M213.53,364.69a8.3,8.3,0,0,0-16.6,0Z" transform="translate(-196.933 -353.079)" fill="#fe860a"/>
              <path id="Trazado_898449" data-name="Trazado 898449" d="M243.107,356.519a8.31,8.31,0,0,0-2.107.271,8.3,8.3,0,0,1,6.191,7.9h4.215A8.3,8.3,0,0,0,243.107,356.519Z" transform="translate(-234.809 -353.079)" fill="#f46700"/>
              <path id="Trazado_898450" data-name="Trazado 898450" d="M259.7,338.016h-3.282a.421.421,0,0,1-.421-.421v-1.182a4.381,4.381,0,0,1,4.381-4.381h3.282a.421.421,0,0,1,.421.421v1.182A4.381,4.381,0,0,1,259.7,338.016Z" transform="translate(-247.701 -332.032)" fill="#0ed290"/>
              <path id="Trazado_898451" data-name="Trazado 898451" d="M263.663,332.032h-1.346a4.381,4.381,0,0,1-4.375,4.165h-1.935c0,.071-.005.143-.005.215v1.182a.421.421,0,0,0,.421.421H259.7a4.381,4.381,0,0,0,4.381-4.381v-1.182A.422.422,0,0,0,263.663,332.032Z" transform="translate(-247.701 -332.032)" fill="#00c285"/>
            </g>
            <g id="Grupo_1106628" data-name="Grupo 1106628" transform="translate(36.214)">
              <path id="Trazado_898452" data-name="Trazado 898452" d="M338.961,364.69l.039-.077a1.816,1.816,0,0,1,1.613-.982h2.009a8.3,8.3,0,0,0-16.514,1.059Z" transform="translate(-326.107 -353.079)" fill="#fe860a"/>
              <path id="Trazado_898453" data-name="Trazado 898453" d="M338.961,364.69l.039-.077a1.816,1.816,0,0,1,1.613-.982h2.009a8.3,8.3,0,0,0-16.514,1.059Z" transform="translate(-326.107 -353.079)" fill="#fe860a"/>
              <path id="Trazado_898454" data-name="Trazado 898454" d="M378.234,363.631h2.008a8.3,8.3,0,0,0-10.365-6.829,8.3,8.3,0,0,1,6.15,7.888h.554l.039-.077A1.816,1.816,0,0,1,378.234,363.631Z" transform="translate(-363.728 -353.079)" fill="#f46700"/>
              <path id="Trazado_898455" data-name="Trazado 898455" d="M388.878,338.016H385.6a.421.421,0,0,1-.422-.421v-1.182a4.381,4.381,0,0,1,4.381-4.381h3.282a.421.421,0,0,1,.421.421v1.182A4.381,4.381,0,0,1,388.878,338.016Z" transform="translate(-376.876 -332.032)" fill="#0ed290"/>
              <path id="Trazado_898456" data-name="Trazado 898456" d="M392.838,332.032h-1.346a4.381,4.381,0,0,1-4.375,4.165H385.18c0,.071-.005.143-.005.215v1.182a.421.421,0,0,0,.422.421h3.282a4.381,4.381,0,0,0,4.381-4.381v-1.182A.422.422,0,0,0,392.838,332.032Z" transform="translate(-376.876 -332.032)" fill="#00c285"/>
            </g>
          </g>
          <g id="Grupo_1106630" data-name="Grupo 1106630" transform="translate(13.81 19.51)">
            <path id="Trazado_898457" data-name="Trazado 898457" d="M331.623,146.364h-1.881a5.291,5.291,0,0,1,.1,1.045V151.8a10.685,10.685,0,0,1-.4,2.893h2.177a4.165,4.165,0,0,0,0-8.33Z" transform="translate(-302.467 -146.364)" fill="#a44f3e"/>
            <path id="Trazado_898458" data-name="Trazado 898458" d="M143.358,151.8v-4.393a5.29,5.29,0,0,1,.1-1.045h-1.881a4.165,4.165,0,1,0,0,8.33h2.177A10.685,10.685,0,0,1,143.358,151.8Z" transform="translate(-137.416 -146.364)" fill="#bb5d4c"/>
          </g>
          <g id="Grupo_1106631" data-name="Grupo 1106631" transform="translate(19.612 15.127)">
            <path id="Trazado_898459" data-name="Trazado 898459" d="M178.709,124.99a10.859,10.859,0,1,0,21.718,0V120.6A5.427,5.427,0,0,0,195,115.17H184.136a5.427,5.427,0,0,0-5.427,5.427Z" transform="translate(-178.709 -115.17)" fill="#c96e59"/>
          </g>
          <path id="Trazado_898460" data-name="Trazado 898460" d="M215.825,115.169h-.192v9a8.873,8.873,0,0,1-8.873,8.873h-1.987a10.926,10.926,0,0,1-1.835-.158,10.856,10.856,0,0,0,18.314-7.892V120.6A5.427,5.427,0,0,0,215.825,115.169Z" transform="translate(-179.922 -100.042)" fill="#bb5d4c"/>
          <path id="Trazado_898461" data-name="Trazado 898461" d="M131.355,426.3a1.779,1.779,0,0,1-1.794-1.687,1.746,1.746,0,0,1,.958-1.6l.249-.125-.249-.125a1.735,1.735,0,0,1,0-3.1l.249-.125-.249-.125a1.735,1.735,0,0,1,0-3.1l.249-.125-.249-.125a1.746,1.746,0,0,1-.958-1.6,1.665,1.665,0,0,1,.215-.769H84.222a1.665,1.665,0,0,1,.215.769,1.746,1.746,0,0,1-.958,1.6l-.249.125.249.125a1.735,1.735,0,0,1,0,3.1l-.249.125.249.125a1.735,1.735,0,0,1,0,3.1l-.249.125.249.125a1.746,1.746,0,0,1,.958,1.6,1.779,1.779,0,0,1-1.794,1.687v.141h48.711Z" transform="translate(-76.529 -356.614)" fill="#ffe177"/>
          <g id="Grupo_1106632" data-name="Grupo 1106632" transform="translate(0 56.007)">
            <path id="Trazado_898462" data-name="Trazado 898462" d="M47.169,411.373a1.92,1.92,0,0,1,0-3.409,1.915,1.915,0,0,0-1.934-1.824H42.493a3.374,3.374,0,0,0-3.374,3.374v7.072a3.374,3.374,0,0,0,3.374,3.374h2.741a1.916,1.916,0,0,0,1.934-1.824,1.92,1.92,0,0,1,0-3.409,1.875,1.875,0,0,1,0-3.354Z" transform="translate(-39.119 -406.141)" fill="#c96e59"/>
            <path id="Trazado_898463" data-name="Trazado 898463" d="M415.585,411.373a1.92,1.92,0,0,0,0-3.409,1.915,1.915,0,0,1,1.934-1.824h2.741a3.374,3.374,0,0,1,3.374,3.374v7.072a3.374,3.374,0,0,1-3.374,3.374H417.52a1.916,1.916,0,0,1-1.934-1.824,1.92,1.92,0,0,0,0-3.409,1.875,1.875,0,0,0,0-3.354Z" transform="translate(-362.693 -406.141)" fill="#c96e59"/>
          </g>
        </g>
        <g id="Grupo_1106634" data-name="Grupo 1106634" transform="translate(0 56.007)">
          <path id="Trazado_898464" data-name="Trazado 898464" d="M47.169,414.727a1.876,1.876,0,0,1,0-3.354,1.92,1.92,0,0,1,0-3.409,1.915,1.915,0,0,0-1.934-1.824H43.323V414.3a2.107,2.107,0,0,1-2.107,2.107h-2.1v.182a3.374,3.374,0,0,0,3.374,3.374h2.741a1.915,1.915,0,0,0,1.934-1.824,1.92,1.92,0,0,1,0-3.408Z" transform="translate(-39.119 -406.14)" fill="#bb5d4c"/>
          <path id="Trazado_898465" data-name="Trazado 898465" d="M420.824,406.481v8.108a2.108,2.108,0,0,1-2.107,2.107h-2.1a1.876,1.876,0,0,0-1.035,1.732,1.915,1.915,0,0,0,1.934,1.824h2.741a3.374,3.374,0,0,0,3.374-3.374v-7.072A3.374,3.374,0,0,0,420.824,406.481Z" transform="translate(-362.693 -406.433)" fill="#bb5d4c"/>
        </g>
      </g>
      <g id="Grupo_1106636" data-name="Grupo 1106636" transform="translate(31.619 0)">
        <path id="Trazado_898466" data-name="Trazado 898466" d="M214.608,143.668V142.01a1.054,1.054,0,0,0-2.107,0v1.659a1.054,1.054,0,0,0,2.107,0Z" transform="translate(-187.088 -121.152)"/>
        <path id="Trazado_898467" data-name="Trazado 898467" d="M285.553,140.956a1.054,1.054,0,0,0-1.054,1.054v1.659a1.054,1.054,0,0,0,2.107,0V142.01A1.054,1.054,0,0,0,285.553,140.956Z" transform="translate(-248.971 -121.152)"/>
        <path id="Trazado_898468" data-name="Trazado 898468" d="M238.18,158.718l1.166,1a1.054,1.054,0,0,0,1.372-1.6l-1.166-1a.064.064,0,0,1,0-.094l.543-.543a3.372,3.372,0,0,0,.994-2.4,1.054,1.054,0,0,0-2.107,0,1.279,1.279,0,0,1-.377.91l-.543.543a2.171,2.171,0,0,0,.122,3.184Z" transform="translate(-208.508 -131.527)"/>
        <path id="Trazado_898469" data-name="Trazado 898469" d="M231.747,209.03a3.665,3.665,0,0,1-5.177,0,1.054,1.054,0,1,0-1.49,1.49,5.775,5.775,0,0,0,8.158,0,1.054,1.054,0,1,0-1.49-1.49Z" transform="translate(-197.634 -179.397)"/>
        <path id="Trazado_898470" data-name="Trazado 898470" d="M127.125,467.479h-5.141a1.054,1.054,0,1,0,0,2.107h5.141a1.054,1.054,0,1,0,0-2.107Z" transform="translate(-108.383 -401.801)"/>
        <path id="Trazado_898471" data-name="Trazado 898471" d="M320.007,468.533a1.054,1.054,0,0,0,1.054,1.054h7.876a1.054,1.054,0,0,0,0-2.107h-7.876A1.054,1.054,0,0,0,320.007,468.533Z" transform="translate(-279.49 -401.801)"/>
        <path id="Trazado_898472" data-name="Trazado 898472" d="M153,435.7h-9.282a1.054,1.054,0,1,0,0,2.107H153a1.054,1.054,0,1,0,0-2.107Z" transform="translate(-127.063 -374.485)"/>
        <path id="Trazado_898473" data-name="Trazado 898473" d="M286.285,436.753a1.054,1.054,0,0,0-1.054-1.054H272.642a1.054,1.054,0,0,0,0,2.107h12.589A1.054,1.054,0,0,0,286.285,436.753Z" transform="translate(-237.874 -374.485)"/>
        <path id="Trazado_898474" data-name="Trazado 898474" d="M90.336,56.009a9.4,9.4,0,0,0-1.854-3.593,5.424,5.424,0,0,0,1.947-4.164V47.07A1.477,1.477,0,0,0,88.954,45.6H86.97A9.52,9.52,0,0,0,77.9,38.872H68.66V36.554a11.985,11.985,0,0,0,2.586-1.831,6.694,6.694,0,1,0,9.562-9.287c.021-.152.036-.307.043-.463,4.182-1.617,6.387-3.731,6.387-6.141,0-2.615-2.581-4.874-7.463-6.533-.611-.208-1.25-.4-1.913-.584a15.1,15.1,0,0,0-29.437,0,27.342,27.342,0,0,0-4.507,1.625c-4.025,1.917-4.869,4.044-4.869,5.491,0,2.41,2.205,4.524,6.387,6.141.007.156.022.31.043.463a6.693,6.693,0,1,0,9.562,9.287,11.985,11.985,0,0,0,2.586,1.831v2.317H54.679a1.054,1.054,0,1,0,0,2.107h3.568L61.909,44.6a1.763,1.763,0,0,0,2.469,0l3.661-3.618H77.9a7.407,7.407,0,0,1,6.872,4.693,5.452,5.452,0,0,0-4.16,3.391,9.342,9.342,0,0,0-8.388,7.065,9.226,9.226,0,0,0-1.881-3.715,5.424,5.424,0,0,0,1.943-4.16V47.07A1.477,1.477,0,0,0,70.806,45.6H67.524a5.442,5.442,0,0,0-5.064,3.468,9.346,9.346,0,0,0-8.389,7.062,9.22,9.22,0,0,0-1.881-3.712,5.424,5.424,0,0,0,1.943-4.16V47.07A1.477,1.477,0,0,0,52.658,45.6H49.376a5.442,5.442,0,0,0-5.064,3.467,9.365,9.365,0,0,0-3.3.864V48.355a7.384,7.384,0,0,1,7.376-7.376h1.371a1.054,1.054,0,1,0,0-2.107H48.391a9.494,9.494,0,0,0-9.483,9.483v2.933l-.007.006a9.374,9.374,0,0,0-2.95,4.715,4.432,4.432,0,0,0-4.332,4.425v7.072a4.432,4.432,0,0,0,4.427,4.427H90.24a4.432,4.432,0,0,0,4.427-4.427V60.434a4.432,4.432,0,0,0-4.331-4.425Zm-9.291-25.5a4.588,4.588,0,0,1-8.362,2.613,11.9,11.9,0,0,0,1.7-3.18h1.257A5.218,5.218,0,0,0,79.994,27.6a4.58,4.58,0,0,1,1.051,2.915ZM74.914,27.84A11.951,11.951,0,0,0,75.056,26V21.617h.583a3.111,3.111,0,1,1,0,6.223ZM41.156,18.832c0-2.264,4.9-5.16,14.253-6.314a1.054,1.054,0,0,0-.258-2.092c-1.543.19-3.01.434-4.388.726a13,13,0,0,1,24.761,0,60.743,60.743,0,0,0-12.38-1.2c-1,0-2,.022-2.989.064a1.054,1.054,0,0,0,.091,2.105c.954-.041,1.929-.062,2.9-.062A51.6,51.6,0,0,1,79.1,14.3c3.778,1.283,6.034,2.98,6.034,4.537,0,1.345-1.709,2.81-4.627,4.011a5.226,5.226,0,0,0-4.865-3.333h-.933a6.491,6.491,0,0,0-6.131-4.383H57.712a6.491,6.491,0,0,0-6.13,4.383h-.933a5.226,5.226,0,0,0-4.865,3.333c-2.919-1.2-4.627-2.665-4.627-4.01ZM51.373,27.84h-.725a3.111,3.111,0,1,1,0-6.223h.583V26a11.972,11.972,0,0,0,.142,1.839Zm-1.541,7.265A4.584,4.584,0,0,1,46.293,27.6a5.217,5.217,0,0,0,4.355,2.348h1.257a11.9,11.9,0,0,0,1.7,3.18A4.562,4.562,0,0,1,49.832,35.105Zm16.72,4.38-3.409,3.369-3.409-3.369V37.416a11.909,11.909,0,0,0,6.818,0Zm-3.409-3.679A9.817,9.817,0,0,1,53.338,26V21.608a4.379,4.379,0,0,1,4.374-4.374H68.575a4.379,4.379,0,0,1,4.374,4.374V26A9.816,9.816,0,0,1,63.143,35.806Zm19.2,15.223A3.331,3.331,0,0,1,85.672,47.7h2.65v.55A3.331,3.331,0,0,1,85,51.579h-2.65Zm-18.148,0A3.331,3.331,0,0,1,67.524,47.7h2.65v.55a3.331,3.331,0,0,1-3.327,3.327H64.2Zm-2.107.189v.993a1.477,1.477,0,0,0,1.475,1.475h3.282a5.413,5.413,0,0,0,1.6-.239,7.155,7.155,0,0,1,1.825,3.618H56.019A7.2,7.2,0,0,1,62.09,51.219Zm-16.041-.189A3.331,3.331,0,0,1,49.376,47.7h2.65v.55A3.331,3.331,0,0,1,48.7,51.579h-2.65ZM39.213,64.911a.822.822,0,0,1,0,1.472,1.054,1.054,0,0,0,0,1.882.819.819,0,0,1,.455.76.861.861,0,0,1-.881.8H36.046a2.323,2.323,0,0,1-2.32-2.32V60.434a2.323,2.323,0,0,1,2.32-2.32h2.741a.893.893,0,0,1,.794.471c.006.012.012.025.018.037a.761.761,0,0,1,.068.292.819.819,0,0,1-.455.761,1.054,1.054,0,0,0,0,1.882.822.822,0,0,1,0,1.472,1.054,1.054,0,0,0,0,1.882Zm-.425-8.9H38.15a7.2,7.2,0,0,1,5.791-4.788v.993a1.477,1.477,0,0,0,1.475,1.475H48.7a5.413,5.413,0,0,0,1.6-.239,7.155,7.155,0,0,1,1.825,3.618H41.076A3.015,3.015,0,0,0,38.788,56.007ZM85.21,57.066H82.02a1.054,1.054,0,0,0,0,2.107h2.5a2.941,2.941,0,0,0,.516,1.439,2.94,2.94,0,0,0,0,3.358,2.94,2.94,0,0,0,0,3.358,2.934,2.934,0,0,0-.527,1.757,2.818,2.818,0,0,0,.124.74H41.651a2.808,2.808,0,0,0,.124-.74,2.934,2.934,0,0,0-.527-1.757,2.94,2.94,0,0,0,0-3.358,2.94,2.94,0,0,0,0-3.358,2.941,2.941,0,0,0,.516-1.439H77.1a1.054,1.054,0,0,0,0-2.107H74.169a7.2,7.2,0,0,1,6.069-5.848v.993a1.477,1.477,0,0,0,1.475,1.475H85a5.417,5.417,0,0,0,1.592-.238,7.293,7.293,0,0,1,1.545,2.559H87.5a3.015,3.015,0,0,0-2.289,1.059Zm7.35,10.44a2.323,2.323,0,0,1-2.32,2.32H87.5a.861.861,0,0,1-.881-.8.819.819,0,0,1,.455-.761,1.054,1.054,0,0,0,0-1.882.822.822,0,0,1,0-1.472,1.054,1.054,0,0,0,0-1.882.822.822,0,0,1,0-1.472,1.054,1.054,0,0,0,0-1.882.819.819,0,0,1-.455-.76.861.861,0,0,1,.881-.8H90.24a2.323,2.323,0,0,1,2.32,2.32Z" transform="translate(-31.619 0)"/>
      </g>
    </g>
  </g>
</svg>
