<svg id="_4483064_2395507" data-name="4483064_2395507" xmlns="http://www.w3.org/2000/svg" xmlns:xlink="http://www.w3.org/1999/xlink" width="295.051" height="295" viewBox="0 0 295.051 295">
  <defs>
    <clipPath id="clip-path">
      <rect id="Rectángulo_402790" data-name="Rectángulo 402790" width="295" height="295" transform="translate(0.051)"/>
    </clipPath>
  </defs>
  <g id="BACKGROUND" transform="translate(0 0.295)">
    <rect id="Rectángulo_402787" data-name="Rectángulo 402787" width="295.051" height="294.461" fill="#fdf1db"/>
  </g>
  <g id="OBJECTS">
    <g id="Grupo_1106275" data-name="Grupo 1106275">
      <g id="Grupo_1106253" data-name="Grupo 1106253" clip-path="url(#clip-path)">
        <ellipse id="Elipse_11667" data-name="Elipse 11667" cx="75.382" cy="75.533" rx="75.382" ry="75.533" transform="translate(22.969 126.872)" fill="#806c0d"/>
        <g id="Grupo_1106252" data-name="Grupo 1106252" transform="translate(111.6 74.058)">
          <path id="Trazado_897641" data-name="Trazado 897641" d="M190.005,250.8a.869.869,0,0,1-.15-.013.885.885,0,0,1-.723-1.022l12.956-75.532a.885.885,0,1,1,1.745.3l-12.956,75.534A.886.886,0,0,1,190.005,250.8Z" transform="translate(-189.119 -145.175)" fill="#514201"/>
          <path id="Trazado_897642" data-name="Trazado 897642" d="M240.384,250.3a.886.886,0,0,1-.872-.735l-12.956-75.534a.885.885,0,1,1,1.745-.3l12.956,75.532a.885.885,0,0,1-.723,1.022A.814.814,0,0,1,240.384,250.3Z" transform="translate(-204.459 -144.97)" fill="#514201"/>
          <path id="Trazado_897643" data-name="Trazado 897643" d="M224.834,205.512a.884.884,0,0,1-.689-.328l-14.371-17.743a.885.885,0,1,1,1.376-1.115l14.371,17.743a.886.886,0,0,1-.13,1.245A.877.877,0,0,1,224.834,205.512Z" transform="translate(-197.505 -150.298)" fill="#514201"/>
          <path id="Trazado_897644" data-name="Trazado 897644" d="M204.217,207.846a.885.885,0,0,1-.677-1.455l15.215-18.076a.885.885,0,1,1,1.354,1.139l-15.215,18.076A.88.88,0,0,1,204.217,207.846Z" transform="translate(-194.945 -151.119)" fill="#514201"/>
          <path id="Trazado_897645" data-name="Trazado 897645" d="M227.51,252.23a.882.882,0,0,1-.631-.265l-23.035-23.46a.885.885,0,0,1,1.263-1.24l23.035,23.46a.885.885,0,0,1-.632,1.5Z" transform="translate(-195.051 -167.105)" fill="#514201"/>
          <path id="Trazado_897646" data-name="Trazado 897646" d="M195.964,252.231a.885.885,0,0,1-.618-1.518l24.034-23.46a.885.885,0,0,1,1.237,1.266l-24.034,23.46A.884.884,0,0,1,195.964,252.231Z" transform="translate(-191.562 -167.105)" fill="#514201"/>
          <path id="Trazado_897647" data-name="Trazado 897647" d="M224.562,275.77H195.493a.885.885,0,1,1,0-1.77h29.069a.885.885,0,1,1,0,1.77Z" transform="translate(-191.369 -186.37)" fill="#514201"/>
          <path id="Trazado_897648" data-name="Trazado 897648" d="M222.94,223.376H204.475a.885.885,0,1,1,0-1.77H222.94a.885.885,0,1,1,0,1.77Z" transform="translate(-195.051 -164.894)" fill="#514201"/>
          <path id="Trazado_897649" data-name="Trazado 897649" d="M224.445,174.45H200.488a.389.389,0,0,1-.389-.389v-2.172a.389.389,0,0,1,.389-.389h23.956a.389.389,0,0,1,.389.389v2.172A.389.389,0,0,1,224.445,174.45Z" transform="translate(-193.62 -144.355)" fill="#554000"/>
          <rect id="Rectángulo_402788" data-name="Rectángulo 402788" width="0.59" height="12.392" transform="translate(18.552 14.753)" fill="#554000"/>
          <rect id="Rectángulo_402789" data-name="Rectángulo 402789" width="0.59" height="20.915" transform="matrix(0.028, -1, 1, 0.028, 18.542, 12.687)" fill="#554000"/>
          <path id="Trazado_897650" data-name="Trazado 897650" d="M247.006,144.5H252.9v5.9l-5.889-2.951Z" transform="translate(-212.847 -133.288)" fill="#bc3f00"/>
          <path id="Trazado_897651" data-name="Trazado 897651" d="M214.013,149.883a9.442,9.442,0,1,1,9.423-9.442A9.443,9.443,0,0,1,214.013,149.883Zm0-18.293a8.852,8.852,0,1,0,8.833,8.852A8.852,8.852,0,0,0,214.013,131.59Z" transform="translate(-195.461 -127.754)" fill="#554000"/>
          <path id="Trazado_897652" data-name="Trazado 897652" d="M217.066,125.5h4.711l-1.178,8.261h-2.356Z" transform="translate(-200.575 -125.5)" fill="#842d07"/>
          <path id="Trazado_897653" data-name="Trazado 897653" d="M221.777,163.761h-4.711l1.178-8.261H220.6Z" transform="translate(-200.575 -137.797)" fill="#842d07"/>
          <path id="Trazado_897654" data-name="Trazado 897654" d="M230.289,129.115l3.332,3.338-6.663,5.007-1.666-1.669Z" transform="translate(-203.946 -126.982)" fill="#842d07"/>
          <path id="Trazado_897655" data-name="Trazado 897655" d="M206.041,160.088l-3.331-3.338,6.663-5.007,1.666,1.669Z" transform="translate(-194.69 -136.257)" fill="#842d07"/>
          <path id="Trazado_897656" data-name="Trazado 897656" d="M237.287,143.5v4.721l-8.245-1.18v-2.36Z" transform="translate(-205.483 -132.878)" fill="#842d07"/>
          <path id="Trazado_897657" data-name="Trazado 897657" d="M199.1,148.221V143.5l8.245,1.18v2.36Z" transform="translate(-193.211 -132.878)" fill="#842d07"/>
          <path id="Trazado_897658" data-name="Trazado 897658" d="M233.621,156.75l-3.332,3.338-5-6.676,1.666-1.669Z" transform="translate(-203.946 -136.257)" fill="#842d07"/>
          <path id="Trazado_897659" data-name="Trazado 897659" d="M202.71,132.453l3.331-3.338,5,6.676-1.666,1.669Z" transform="translate(-194.69 -126.982)" fill="#842d07"/>
          <ellipse id="Elipse_11668" data-name="Elipse 11668" cx="2.356" cy="2.36" rx="2.356" ry="2.36" transform="translate(16.491 10.032)" fill="#bc3f00"/>
        </g>
        <ellipse id="Elipse_11669" data-name="Elipse 11669" cx="121.318" cy="83.499" rx="121.318" ry="83.499" transform="translate(79.504 142.214)" fill="#c3b248"/>
        <ellipse id="Elipse_11670" data-name="Elipse 11670" cx="100.706" cy="76.418" rx="100.706" ry="76.418" transform="translate(212.307 156.672)" fill="#806c0d"/>
        <path id="Trazado_897660" data-name="Trazado 897660" d="M48.177,268.914a292.977,292.977,0,0,1,50.07,4.239l0,0,.028.008q10.448,1.817,20.292,4.363c-20.585-22.7-55.808-38.895-96.631-41.486A175.691,175.691,0,0,0-1,236.073V273A293.278,293.278,0,0,1,48.177,268.914Z" transform="translate(0.409 -96.605)" fill="#8f8c2d"/>
      </g>
      <g id="Grupo_1106257" data-name="Grupo 1106257" clip-path="url(#clip-path)">
        <g id="Grupo_1106254" data-name="Grupo 1106254" transform="translate(261.274 147.525)">
          <path id="Trazado_897661" data-name="Trazado 897661" d="M453.322,257.75a2.8,2.8,0,0,0-1.864-4.314,2.79,2.79,0,1,0-5.5-.641,2.836,2.836,0,0,0,.074.641,2.8,2.8,0,0,0-1.848,4.337,3.325,3.325,0,0,0,1.686,6.043,3.357,3.357,0,0,0,.833-.052,11.046,11.046,0,0,1,4.135,0,3.317,3.317,0,0,0,3.934-3.089A3.319,3.319,0,0,0,453.322,257.75Z" transform="translate(-442.761 -250)" fill="#8f8c2d"/>
          <path id="Trazado_897662" data-name="Trazado 897662" d="M453.474,259.894a.227.227,0,0,0-.315.056l-1.473,2.117v-3.65a.226.226,0,1,0-.452,0v5.522l-1.435-2.064a.226.226,0,1,0-.371.26l1.734,2.493a.232.232,0,0,0,.073.066v7.321a.226.226,0,1,0,.452,0v-9.23a.226.226,0,0,0,.11-.083l1.734-2.493A.227.227,0,0,0,453.474,259.894Z" transform="translate(-445.477 -253.357)" fill="#806c0d"/>
        </g>
        <g id="Grupo_1106255" data-name="Grupo 1106255" transform="translate(273.642 142.805)">
          <path id="Trazado_897663" data-name="Trazado 897663" d="M474.281,249.75a2.8,2.8,0,0,0-1.864-4.314,2.789,2.789,0,1,0-5.429,0,2.8,2.8,0,0,0-1.848,4.337,3.325,3.325,0,0,0,1.686,6.043,3.357,3.357,0,0,0,.833-.052,11.047,11.047,0,0,1,4.135,0,3.324,3.324,0,0,0,2.486-6.014Z" transform="translate(-463.721 -242)" fill="#8f8c2d"/>
          <path id="Trazado_897664" data-name="Trazado 897664" d="M474.432,251.894a.226.226,0,0,0-.315.056l-1.473,2.117v-3.65a.226.226,0,1,0-.452,0v5.522l-1.435-2.064a.226.226,0,1,0-.371.26l1.734,2.493a.232.232,0,0,0,.073.065v7.321a.226.226,0,1,0,.452,0v-9.23a.226.226,0,0,0,.11-.083l1.734-2.493A.227.227,0,0,0,474.432,251.894Z" transform="translate(-466.437 -245.357)" fill="#806c0d"/>
        </g>
        <g id="Grupo_1106256" data-name="Grupo 1106256" transform="translate(286.599 140.444)">
          <path id="Trazado_897665" data-name="Trazado 897665" d="M496.237,245.75a2.8,2.8,0,0,0-1.864-4.314,2.789,2.789,0,1,0-5.429,0,2.8,2.8,0,0,0-1.848,4.337,3.325,3.325,0,0,0,1.686,6.043,3.357,3.357,0,0,0,.833-.052,11.047,11.047,0,0,1,4.135,0,3.317,3.317,0,0,0,3.934-3.089A3.322,3.322,0,0,0,496.237,245.75Z" transform="translate(-485.677 -238)" fill="#8f8c2d"/>
          <path id="Trazado_897666" data-name="Trazado 897666" d="M496.388,247.894a.226.226,0,0,0-.315.056l-1.473,2.117v-3.65a.226.226,0,1,0-.452,0v5.522l-1.435-2.064a.226.226,0,1,0-.371.259l1.734,2.493a.232.232,0,0,0,.073.065v7.321a.226.226,0,1,0,.452,0v-9.23a.226.226,0,0,0,.11-.083l1.734-2.493A.226.226,0,0,0,496.388,247.894Z" transform="translate(-488.392 -241.357)" fill="#806c0d"/>
        </g>
      </g>
      <g id="Grupo_1106261" data-name="Grupo 1106261" clip-path="url(#clip-path)">
        <g id="Grupo_1106258" data-name="Grupo 1106258" transform="translate(28.539 125.372)">
          <path id="Trazado_897667" data-name="Trazado 897667" d="M49.658,219.371a2.495,2.495,0,0,1,1.662-3.848,2.488,2.488,0,1,1,4.842,0,2.494,2.494,0,0,1,1.648,3.869,2.963,2.963,0,0,1-2.247,5.343,9.836,9.836,0,0,0-3.688,0,2.965,2.965,0,0,1-2.218-5.363Z" transform="translate(-48.363 -212.458)" fill="#8f8c2d"/>
          <path id="Trazado_897668" data-name="Trazado 897668" d="M54.374,221.284a.2.2,0,0,1,.281.05l1.314,1.888v-3.255a.2.2,0,0,1,.4,0v4.924l1.28-1.84a.2.2,0,1,1,.331.231l-1.546,2.223a.2.2,0,0,1-.065.058v6.529a.2.2,0,0,1-.4,0v-8.232a.2.2,0,0,1-.1-.074l-1.546-2.223A.2.2,0,0,1,54.374,221.284Z" transform="translate(-50.792 -215.454)" fill="#806c0d"/>
        </g>
        <g id="Grupo_1106259" data-name="Grupo 1106259" transform="translate(15.933 123.267)">
          <path id="Trazado_897669" data-name="Trazado 897669" d="M28.3,215.8a2.495,2.495,0,0,1,1.662-3.848,2.488,2.488,0,1,1,4.842,0,2.495,2.495,0,0,1,1.648,3.869,2.963,2.963,0,0,1-2.247,5.343,9.835,9.835,0,0,0-3.688,0A2.965,2.965,0,0,1,28.3,215.8Z" transform="translate(-27.001 -208.891)" fill="#8f8c2d"/>
          <path id="Trazado_897670" data-name="Trazado 897670" d="M33.011,217.717a.2.2,0,0,1,.281.05l1.314,1.889V216.4a.2.2,0,0,1,.4,0v4.924l1.28-1.841a.2.2,0,1,1,.331.231l-1.546,2.223a.2.2,0,0,1-.064.058v6.529a.2.2,0,1,1-.4,0v-8.232a.2.2,0,0,1-.1-.074L32.961,218A.2.2,0,0,1,33.011,217.717Z" transform="translate(-29.429 -211.887)" fill="#806c0d"/>
        </g>
        <g id="Grupo_1106260" data-name="Grupo 1106260" transform="translate(3.328 122.741)">
          <path id="Trazado_897671" data-name="Trazado 897671" d="M6.934,214.912A2.495,2.495,0,0,1,8.6,211.064a2.488,2.488,0,1,1,4.842,0,2.494,2.494,0,0,1,1.648,3.869,2.963,2.963,0,0,1-2.247,5.343,9.835,9.835,0,0,0-3.688,0,2.965,2.965,0,0,1-2.218-5.363Z" transform="translate(-5.639 -207.999)" fill="#8f8c2d"/>
          <path id="Trazado_897672" data-name="Trazado 897672" d="M11.648,216.825a.2.2,0,0,1,.281.05l1.314,1.889v-3.255a.2.2,0,0,1,.4,0v4.924l1.28-1.84a.2.2,0,1,1,.331.231l-1.547,2.223a.215.215,0,0,1-.064.058v6.529a.2.2,0,0,1-.4,0V219.4a.2.2,0,0,1-.1-.074L11.6,217.106A.2.2,0,0,1,11.648,216.825Z" transform="translate(-8.067 -210.995)" fill="#806c0d"/>
        </g>
      </g>
      <g id="Grupo_1106262" data-name="Grupo 1106262" clip-path="url(#clip-path)">
        <path id="Trazado_897673" data-name="Trazado 897673" d="M170.929,250.96a.229.229,0,0,0-.057-.08.637.637,0,0,1-.105-.119l0-.006a.291.291,0,0,0-.108-.1,1.015,1.015,0,0,1,.029-.526,1.037,1.037,0,0,0-.15-1.146.646.646,0,0,0-.607-.171,2.337,2.337,0,0,0-.312-.13,1.043,1.043,0,0,0-.365-.039c-.436.031-2.149.1-2.149.1a5.135,5.135,0,0,1-.641-.05c-.022-.005-.2-.039-.316-.064a.039.039,0,0,1-.009-.073c.064-.032.141-.08.153-.164a.093.093,0,0,0-.047-.109,1.363,1.363,0,0,0-.514-.043.076.076,0,0,0-.034.011l-.008,0a1.041,1.041,0,0,1-.363-.237.058.058,0,0,0-.091.014h0a.373.373,0,0,0,.022.328.711.711,0,0,0-.082.06.719.719,0,0,0-.053.051l-.6.628h0l-.032.034c-.086.09.145.173.2.266.088.15.458.078.613,0s.254.068.323.2a5.5,5.5,0,0,0,.309.542l.472.711h0l-.059,1.16.008.163a.172.172,0,0,1-.083.156l-.236.145a.14.14,0,0,0,.005.243.062.062,0,0,0,.035.008l.345-.043a.12.12,0,0,0,.042.034l.008-.041.018,0a.4.4,0,0,0,.009.051l.574-.071a.14.14,0,0,0,.137-.171,1.472,1.472,0,0,1-.045-.228l.2-1.2a14.7,14.7,0,0,0,1.538,0l-.225,1.228.08-.015-.08.015c-.344.064-.246.443-.246.443l.574-.071a.14.14,0,0,0,.137-.171,1.472,1.472,0,0,1-.045-.228l.2-1.162a3.839,3.839,0,0,0,.268.427l.129.491.008.163a.172.172,0,0,1-.083.156l-.236.145a.14.14,0,0,0,.005.243.062.062,0,0,0,.035.008l.574-.071a.139.139,0,0,0,.137-.171,1.478,1.478,0,0,1-.045-.228l.2-.889,0,0s0-.009,0-.013l.006-.026a.71.71,0,0,0,0-.334,3.976,3.976,0,0,1-.091-.9,2.531,2.531,0,0,0,.084-.389h0c0-.01.117-.509-.153-.69.084.012.607.125.349,1.058a.861.861,0,0,0,.034.6.223.223,0,0,0,0,.269.282.282,0,0,0,.02.031.267.267,0,0,0,.055.161.167.167,0,0,0,.153.081.084.084,0,0,0,.044-.025.145.145,0,0,1,.093-.053.066.066,0,0,0,.038-.018A.14.14,0,0,0,170.929,250.96Zm-4.187,1.324h0l.079-.015Zm0,0v0h0Zm.114-.021.018,0Zm-.085-.14,0-.038.184-1.07.021,0Zm2.022.14.018,0Z" transform="translate(-67.415 -101.655)" fill="#3d3204"/>
        <path id="Trazado_897674" data-name="Trazado 897674" d="M171.927,236.96a.229.229,0,0,0-.057-.08.637.637,0,0,1-.105-.119l0-.006a.291.291,0,0,0-.108-.1,1.015,1.015,0,0,1,.029-.526,1.037,1.037,0,0,0-.15-1.146.646.646,0,0,0-.607-.171,2.335,2.335,0,0,0-.312-.13,1.042,1.042,0,0,0-.365-.039c-.435.031-2.149.1-2.149.1a5.132,5.132,0,0,1-.641-.05c-.022-.005-.2-.039-.316-.064a.039.039,0,0,1-.009-.073c.064-.032.141-.08.153-.164a.093.093,0,0,0-.047-.109,1.365,1.365,0,0,0-.514-.043.076.076,0,0,0-.034.011l-.008,0a1.04,1.04,0,0,1-.363-.237.058.058,0,0,0-.091.014h0a.373.373,0,0,0,.022.328.675.675,0,0,0-.135.111l-.6.628h0l-.032.034c-.086.09.145.173.2.266.088.15.458.078.613,0s.254.068.323.2a5.509,5.509,0,0,0,.309.542l.472.711h0l-.059,1.16.008.163a.172.172,0,0,1-.083.156l-.236.145a.14.14,0,0,0,.005.243.063.063,0,0,0,.035.008l.345-.043a.12.12,0,0,0,.042.034l.008-.041.018,0a.394.394,0,0,0,.009.051l.574-.071a.139.139,0,0,0,.137-.171,1.583,1.583,0,0,1-.046-.228l.2-1.2a14.7,14.7,0,0,0,1.538,0l-.225,1.228.08-.015-.08.015c-.344.064-.246.443-.246.443l.574-.071a.139.139,0,0,0,.137-.171,1.476,1.476,0,0,1-.045-.228l.2-1.163a3.839,3.839,0,0,0,.268.427l.129.491.008.163a.172.172,0,0,1-.083.156l-.236.145a.14.14,0,0,0,.005.243.063.063,0,0,0,.035.008l.574-.071a.139.139,0,0,0,.137-.171,1.476,1.476,0,0,1-.045-.228l.2-.889,0,0s0-.009,0-.013l.006-.026a.71.71,0,0,0,0-.334,3.976,3.976,0,0,1-.091-.9,2.532,2.532,0,0,0,.084-.389h0c0-.01.117-.509-.153-.69.084.012.607.125.349,1.058a.861.861,0,0,0,.034.6.223.223,0,0,0,0,.269.28.28,0,0,0,.02.031.267.267,0,0,0,.055.161.167.167,0,0,0,.153.081.084.084,0,0,0,.044-.025.145.145,0,0,1,.093-.053.066.066,0,0,0,.038-.018A.139.139,0,0,0,171.927,236.96Zm-4.187,1.324h0l.079-.015Zm0,0v0h0Zm.114-.021.018,0Zm-.085-.14,0-.038.184-1.07.021,0Zm2.022.14.018,0Z" transform="translate(-67.825 -95.917)" fill="#3d3204"/>
        <path id="Trazado_897675" data-name="Trazado 897675" d="M141.042,241.612a.066.066,0,0,0,.038.018.145.145,0,0,1,.093.053.084.084,0,0,0,.044.025.167.167,0,0,0,.153-.081.267.267,0,0,0,.055-.161l.02-.031a.225.225,0,0,0,0-.269.858.858,0,0,0,.034-.6c-.258-.933.265-1.046.349-1.058-.271.181-.155.68-.153.69h0a2.532,2.532,0,0,0,.084.389,3.976,3.976,0,0,1-.091.9.718.718,0,0,0,0,.334l.006.026s0,.009,0,.013l0,0,.2.889a1.657,1.657,0,0,1-.045.228.14.14,0,0,0,.137.171l.574.071a.061.061,0,0,0,.035-.008.14.14,0,0,0,.005-.243l-.236-.145a.174.174,0,0,1-.083-.156l.008-.163.129-.491a3.836,3.836,0,0,0,.268-.427l.2,1.163a1.658,1.658,0,0,1-.045.228.14.14,0,0,0,.137.171l.574.071s.1-.378-.246-.443l-.079-.015.079.015-.225-1.228a15.034,15.034,0,0,0,1.538,0l.2,1.2a1.657,1.657,0,0,1-.045.228.14.14,0,0,0,.137.171l.574.071s0-.02.009-.051l.018,0,.008.041a.135.135,0,0,0,.042-.034l.345.043a.062.062,0,0,0,.035-.008.14.14,0,0,0,.005-.243l-.236-.145a.174.174,0,0,1-.083-.156l.008-.163-.059-1.16h0l.472-.711a5.638,5.638,0,0,0,.309-.542c.07-.136.18-.276.323-.2s.525.15.613,0c.054-.092.286-.175.2-.266l-.032-.034h0l-.6-.628c-.017-.018-.035-.035-.053-.051a.624.624,0,0,0-.082-.06.373.373,0,0,0,.022-.328h0a.058.058,0,0,0-.091-.014,1.041,1.041,0,0,1-.363.237l-.008,0a.084.084,0,0,0-.034-.011,1.376,1.376,0,0,0-.514.043.093.093,0,0,0-.047.109.242.242,0,0,0,.153.164.039.039,0,0,1-.009.073c-.114.025-.294.059-.316.064a5.131,5.131,0,0,1-.641.05s-1.714-.072-2.149-.1a1.042,1.042,0,0,0-.365.039,2.336,2.336,0,0,0-.312.13.647.647,0,0,0-.607.171,1.037,1.037,0,0,0-.15,1.146,1.015,1.015,0,0,1,.029.526.3.3,0,0,0-.108.1l0,.006a.6.6,0,0,1-.105.119.237.237,0,0,0-.057.08A.136.136,0,0,0,141.042,241.612Zm4.1,1.158.079.015h0Zm.079.011h0v0Zm-.132-.021.018,0Zm-.1-1.242.021,0,.184,1.07,0,.038Zm-1.836,1.242.018,0Z" transform="translate(-57.802 -97.762)" fill="#3d3204"/>
        <path id="Trazado_897676" data-name="Trazado 897676" d="M149.026,223.612a.066.066,0,0,0,.038.018.145.145,0,0,1,.093.053.084.084,0,0,0,.044.025.167.167,0,0,0,.153-.081.267.267,0,0,0,.055-.161l.02-.031a.225.225,0,0,0,0-.269.861.861,0,0,0,.034-.6c-.258-.933.265-1.046.349-1.058-.271.181-.155.68-.153.69h0a2.532,2.532,0,0,0,.084.389,3.976,3.976,0,0,1-.091.9.71.71,0,0,0,0,.334l.006.026s0,.009,0,.013l0,0,.2.889a1.66,1.66,0,0,1-.045.228.14.14,0,0,0,.137.171l.574.071a.062.062,0,0,0,.035-.008.14.14,0,0,0,.005-.243l-.236-.145a.174.174,0,0,1-.083-.156l.008-.163.129-.491a3.836,3.836,0,0,0,.268-.427l.2,1.163a1.658,1.658,0,0,1-.045.228.14.14,0,0,0,.137.171l.574.071s.1-.378-.246-.443l-.079-.015.079.015-.225-1.228a15.028,15.028,0,0,0,1.538,0l.2,1.2a1.656,1.656,0,0,1-.045.228.14.14,0,0,0,.137.171l.574.071s0-.02.009-.051l.018,0,.008.041a.142.142,0,0,0,.042-.034l.345.043a.061.061,0,0,0,.035-.008.14.14,0,0,0,.005-.243l-.236-.145a.174.174,0,0,1-.083-.156l.008-.163-.059-1.16h0l.472-.711a5.644,5.644,0,0,0,.309-.542c.07-.136.18-.276.323-.2s.525.15.613,0c.054-.092.285-.175.2-.266l-.032-.034h0l-.6-.628c-.017-.018-.035-.035-.053-.051a.625.625,0,0,0-.082-.06.373.373,0,0,0,.022-.328h0a.058.058,0,0,0-.091-.014,1.041,1.041,0,0,1-.363.237l-.008,0a.084.084,0,0,0-.034-.011,1.377,1.377,0,0,0-.514.043c-.041.013-.054.062-.047.109a.242.242,0,0,0,.153.164.039.039,0,0,1-.009.073c-.114.025-.294.059-.316.064a5.131,5.131,0,0,1-.641.05s-1.714-.072-2.149-.1a1.043,1.043,0,0,0-.365.039,2.337,2.337,0,0,0-.312.13.647.647,0,0,0-.607.171,1.037,1.037,0,0,0-.15,1.146,1.015,1.015,0,0,1,.029.526.3.3,0,0,0-.108.1l0,.006a.6.6,0,0,1-.105.119.237.237,0,0,0-.057.08A.137.137,0,0,0,149.026,223.612Zm4.1,1.158.079.015h0Zm.079.011h0v0Zm-.132-.021.018,0Zm-.1-1.242.021,0,.184,1.07,0,.038Zm-1.836,1.242.018,0Z" transform="translate(-61.075 -90.384)" fill="#3d3204"/>
      </g>
      <g id="Grupo_1106263" data-name="Grupo 1106263" clip-path="url(#clip-path)">
        <path id="Trazado_897677" data-name="Trazado 897677" d="M374.783,305.284a.489.489,0,0,0-.122-.17,1.266,1.266,0,0,1-.223-.253l-.009-.013a.62.62,0,0,0-.229-.205,2.146,2.146,0,0,1,.061-1.116,2.2,2.2,0,0,0-.319-2.434,1.374,1.374,0,0,0-1.288-.363,4.974,4.974,0,0,0-.661-.276,2.2,2.2,0,0,0-.774-.083c-.924.067-4.563.219-4.564.219a10.969,10.969,0,0,1-1.362-.107c-.047-.012-.429-.083-.672-.137a.083.083,0,0,1-.02-.155c.136-.069.3-.171.324-.349a.2.2,0,0,0-.1-.231,2.9,2.9,0,0,0-1.091-.091.162.162,0,0,0-.073.023l-.017-.008a2.23,2.23,0,0,1-.771-.5.124.124,0,0,0-.193.028h0a.794.794,0,0,0,.047.7,1.325,1.325,0,0,0-.174.127,1.507,1.507,0,0,0-.113.108l-1.267,1.334h0l-.067.071c-.183.192.309.369.423.564.186.319.972.166,1.3,0,.3-.153.538.144.686.432a11.836,11.836,0,0,0,.655,1.151l1,1.511h0l-.126,2.462.017.346a.366.366,0,0,1-.175.33l-.5.307a.3.3,0,0,0,.011.515.136.136,0,0,0,.074.018l.732-.091a.264.264,0,0,0,.089.073l.017-.086.038,0a1.047,1.047,0,0,0,.019.109l1.219-.152a.3.3,0,0,0,.292-.362,3.38,3.38,0,0,1-.1-.483l.435-2.542a31.424,31.424,0,0,0,3.267-.008L370,308.1l.169-.032L370,308.1c-.731.137-.522.939-.522.939l1.219-.152a.3.3,0,0,0,.292-.362,3.386,3.386,0,0,1-.1-.483l.423-2.468a8.1,8.1,0,0,0,.569.906l.274,1.042.017.346a.366.366,0,0,1-.175.33l-.5.307a.3.3,0,0,0,.011.515.136.136,0,0,0,.074.018l1.219-.152a.3.3,0,0,0,.292-.362,3.38,3.38,0,0,1-.1-.483l.431-1.888.009-.005c0-.009,0-.018,0-.028l.012-.055a1.522,1.522,0,0,0-.008-.709,8.438,8.438,0,0,1-.194-1.917,5.362,5.362,0,0,0,.178-.826v0c0-.021.25-1.08-.326-1.465.178.027,1.289.266.741,2.247a1.824,1.824,0,0,0,.072,1.265.476.476,0,0,0,0,.572.752.752,0,0,0,.042.067.565.565,0,0,0,.118.342.357.357,0,0,0,.325.174.169.169,0,0,0,.093-.054.3.3,0,0,1,.2-.112.135.135,0,0,0,.081-.038A.293.293,0,0,0,374.783,305.284ZM365.89,308.1h0l.168-.031Zm0,0s0,0,0,0l0,0Zm.243-.045.038-.007Zm-.179-.3,0-.082.389-2.272.045.007Zm4.293.3.038-.007Z" transform="translate(-148 -122.559)" fill="#3d3204"/>
        <path id="Trazado_897678" data-name="Trazado 897678" d="M329.182,298.675a.135.135,0,0,0,.081.037.308.308,0,0,1,.2.111.169.169,0,0,0,.092.054.355.355,0,0,0,.323-.172.562.562,0,0,0,.117-.34.748.748,0,0,0,.042-.067.474.474,0,0,0,0-.568,1.809,1.809,0,0,0,.071-1.256c-.545-1.969.559-2.206.736-2.232-.572.383-.326,1.435-.324,1.456v0a5.38,5.38,0,0,0,.176.821,8.365,8.365,0,0,1-.192,1.9,1.51,1.51,0,0,0-.007.7l.012.055c0,.009,0,.018,0,.028l.009.005.428,1.875a3.31,3.31,0,0,1-.1.48.3.3,0,0,0,.289.36l1.211.15a.135.135,0,0,0,.074-.018.294.294,0,0,0,.011-.512l-.5-.305a.366.366,0,0,1-.174-.329l.016-.344.272-1.036a8.108,8.108,0,0,0,.565-.9l.42,2.452a3.3,3.3,0,0,1-.1.48.3.3,0,0,0,.289.36l1.211.15s.207-.8-.519-.933l-.168-.031.168.031-.476-2.59a31.335,31.335,0,0,0,3.245.008l.433,2.524a3.316,3.316,0,0,1-.1.48.3.3,0,0,0,.289.36l1.211.15a1.007,1.007,0,0,0,.019-.108l.038,0,.017.086a.274.274,0,0,0,.088-.073l.726.09a.135.135,0,0,0,.074-.018.294.294,0,0,0,.011-.512l-.5-.305a.367.367,0,0,1-.174-.329l.016-.344-.125-2.447h0l1-1.5a11.877,11.877,0,0,0,.651-1.144c.147-.286.379-.582.682-.429.327.165,1.108.317,1.293,0,.113-.194.6-.369.42-.561l-.067-.07h0l-1.259-1.325c-.036-.038-.074-.074-.113-.107a1.4,1.4,0,0,0-.172-.126.787.787,0,0,0,.046-.692h0a.123.123,0,0,0-.192-.028,2.206,2.206,0,0,1-.765.5l-.017.008a.159.159,0,0,0-.072-.023,2.883,2.883,0,0,0-1.084.091.2.2,0,0,0-.1.229c.025.177.187.277.322.346a.083.083,0,0,1-.019.154c-.242.054-.621.125-.668.136a10.8,10.8,0,0,1-1.353.106s-3.616-.152-4.533-.218a2.171,2.171,0,0,0-.769.083,4.893,4.893,0,0,0-.657.274,1.365,1.365,0,0,0-1.28.361,2.188,2.188,0,0,0-.317,2.417,2.137,2.137,0,0,1,.061,1.109.623.623,0,0,0-.228.2l-.009.013a1.282,1.282,0,0,1-.222.251.488.488,0,0,0-.12.169A.3.3,0,0,0,329.182,298.675Zm8.649,2.443.167.031h0Zm.166.024,0,0s0,0,0,0Zm-.278-.045.038.007Zm-.212-2.62.045-.007.387,2.257,0,.081Zm-3.874,2.62.038.007Z" transform="translate(-134.909 -119.736)" fill="#3d3204"/>
      </g>
      <g id="Grupo_1106264" data-name="Grupo 1106264" clip-path="url(#clip-path)">
        <path id="Trazado_897679" data-name="Trazado 897679" d="M375.109,312.849l-55.948-1.18c-53.045,0-123.117-19.3-123.819-19.495l.315-1.138c.7.195,70.62,19.452,123.517,19.452l55.961,1.18Z" transform="translate(-80.071 -119.295)" fill="#f4ecce"/>
        <path id="Trazado_897680" data-name="Trazado 897680" d="M197.186,297.02H194.98c-.2,0-.369-.232-.369-.519v-11.12a.679.679,0,0,1,.067-.3l1.1-2.21a.318.318,0,0,1,.605,0l1.1,2.21a.671.671,0,0,1,.067.3V296.5C197.556,296.788,197.39,297.02,197.186,297.02Z" transform="translate(-79.771 -115.859)" fill="#f4ecce"/>
        <path id="Trazado_897681" data-name="Trazado 897681" d="M208.164,300.02h-2.206c-.2,0-.369-.232-.369-.519v-11.12a.679.679,0,0,1,.067-.3l1.1-2.21a.318.318,0,0,1,.605,0l1.1,2.21a.671.671,0,0,1,.067.3V299.5C208.534,299.788,208.368,300.02,208.164,300.02Z" transform="translate(-84.271 -117.088)" fill="#f4ecce"/>
        <path id="Trazado_897682" data-name="Trazado 897682" d="M220.141,303.02h-2.205c-.2,0-.369-.232-.369-.519v-11.12a.679.679,0,0,1,.067-.3l1.1-2.21a.318.318,0,0,1,.605,0l1.1,2.21a.671.671,0,0,1,.067.3V302.5C220.51,302.788,220.344,303.02,220.141,303.02Z" transform="translate(-89.18 -118.318)" fill="#f4ecce"/>
        <path id="Trazado_897683" data-name="Trazado 897683" d="M233.114,306.02h-2.206c-.2,0-.369-.232-.369-.519v-11.12a.679.679,0,0,1,.067-.3l1.1-2.21a.318.318,0,0,1,.605,0l1.1,2.21a.671.671,0,0,1,.067.3V305.5C233.484,305.788,233.318,306.02,233.114,306.02Z" transform="translate(-94.498 -119.548)" fill="#f4ecce"/>
        <path id="Trazado_897684" data-name="Trazado 897684" d="M247.086,309.02H244.88c-.2,0-.369-.232-.369-.519v-11.12a.671.671,0,0,1,.067-.3l1.1-2.21a.318.318,0,0,1,.605,0l1.1,2.21a.671.671,0,0,1,.067.3V308.5C247.456,308.788,247.29,309.02,247.086,309.02Z" transform="translate(-100.225 -120.777)" fill="#f4ecce"/>
        <path id="Trazado_897685" data-name="Trazado 897685" d="M260.061,311.02h-2.205c-.2,0-.369-.232-.369-.519v-11.12a.679.679,0,0,1,.067-.3l1.1-2.21a.318.318,0,0,1,.605,0l1.1,2.21a.671.671,0,0,1,.067.3V310.5C260.43,310.788,260.265,311.02,260.061,311.02Z" transform="translate(-105.543 -121.597)" fill="#f4ecce"/>
        <path id="Trazado_897686" data-name="Trazado 897686" d="M271.039,314.02h-2.205c-.2,0-.369-.232-.369-.519v-11.12a.671.671,0,0,1,.067-.3l1.1-2.21a.318.318,0,0,1,.605,0l1.1,2.21a.671.671,0,0,1,.067.3V313.5C271.408,313.788,271.243,314.02,271.039,314.02Z" transform="translate(-110.043 -122.827)" fill="#f4ecce"/>
        <path id="Trazado_897687" data-name="Trazado 897687" d="M283.015,317.02h-2.205c-.2,0-.369-.232-.369-.519v-11.12a.679.679,0,0,1,.067-.3l1.1-2.21a.318.318,0,0,1,.605,0l1.1,2.21a.671.671,0,0,1,.067.3V316.5C283.384,316.788,283.219,317.02,283.015,317.02Z" transform="translate(-114.952 -124.057)" fill="#f4ecce"/>
        <path id="Trazado_897688" data-name="Trazado 897688" d="M295.989,320.02h-2.205c-.2,0-.369-.232-.369-.519v-11.12a.679.679,0,0,1,.067-.3l1.1-2.21a.318.318,0,0,1,.605,0l1.1,2.21a.671.671,0,0,1,.067.3V319.5C296.358,319.788,296.193,320.02,295.989,320.02Z" transform="translate(-120.27 -125.286)" fill="#f4ecce"/>
        <path id="Trazado_897689" data-name="Trazado 897689" d="M309.961,322.02h-2.205c-.2,0-.369-.232-.369-.519v-11.12a.679.679,0,0,1,.067-.3l1.1-2.21a.318.318,0,0,1,.605,0l1.1,2.21a.671.671,0,0,1,.067.3V321.5C310.33,321.788,310.165,322.02,309.961,322.02Z" transform="translate(-125.997 -126.106)" fill="#f4ecce"/>
        <path id="Trazado_897690" data-name="Trazado 897690" d="M324.93,324.02h-2.206c-.2,0-.369-.232-.369-.519v-11.12a.679.679,0,0,1,.067-.3l1.1-2.21a.318.318,0,0,1,.605,0l1.1,2.21a.671.671,0,0,1,.067.3V323.5C325.3,323.788,325.134,324.02,324.93,324.02Z" transform="translate(-132.133 -126.926)" fill="#f4ecce"/>
        <path id="Trazado_897691" data-name="Trazado 897691" d="M338.9,325.02H336.7c-.2,0-.369-.232-.369-.519v-11.12a.679.679,0,0,1,.067-.3l1.1-2.21a.318.318,0,0,1,.605,0l1.1,2.21a.671.671,0,0,1,.067.3V324.5C339.272,324.788,339.106,325.02,338.9,325.02Z" transform="translate(-137.86 -127.336)" fill="#f4ecce"/>
        <path id="Trazado_897692" data-name="Trazado 897692" d="M355.868,327.02h-2.206c-.2,0-.369-.232-.369-.519v-11.12a.671.671,0,0,1,.067-.3l1.1-2.21a.318.318,0,0,1,.605,0l1.1,2.21a.671.671,0,0,1,.067.3V326.5C356.238,326.788,356.072,327.02,355.868,327.02Z" transform="translate(-144.814 -128.156)" fill="#f4ecce"/>
        <path id="Trazado_897693" data-name="Trazado 897693" d="M372.834,328.02h-2.206c-.2,0-.369-.232-.369-.519v-11.12a.679.679,0,0,1,.067-.3l1.1-2.21a.318.318,0,0,1,.605,0l1.1,2.21a.671.671,0,0,1,.067.3V327.5C373.2,327.788,373.038,328.02,372.834,328.02Z" transform="translate(-151.769 -128.565)" fill="#f4ecce"/>
        <path id="Trazado_897694" data-name="Trazado 897694" d="M389.8,330.02h-2.206c-.2,0-.369-.232-.369-.519v-11.12a.679.679,0,0,1,.067-.3l1.1-2.21a.318.318,0,0,1,.605,0l1.1,2.21a.671.671,0,0,1,.067.3V329.5C390.17,329.788,390,330.02,389.8,330.02Z" transform="translate(-158.723 -129.385)" fill="#f4ecce"/>
        <path id="Trazado_897695" data-name="Trazado 897695" d="M406.767,331.02h-2.205c-.2,0-.369-.232-.369-.519v-11.12a.671.671,0,0,1,.067-.3l1.1-2.21a.318.318,0,0,1,.605,0l1.1,2.21a.671.671,0,0,1,.067.3V330.5C407.137,330.788,406.971,331.02,406.767,331.02Z" transform="translate(-165.678 -129.795)" fill="#f4ecce"/>
        <path id="Trazado_897696" data-name="Trazado 897696" d="M422.734,332.02h-2.206c-.2,0-.369-.232-.369-.519v-11.12a.671.671,0,0,1,.067-.3l1.1-2.21a.318.318,0,0,1,.605,0l1.1,2.21a.671.671,0,0,1,.067.3V331.5C423.1,331.788,422.938,332.02,422.734,332.02Z" transform="translate(-172.223 -130.205)" fill="#f4ecce"/>
        <path id="Trazado_897697" data-name="Trazado 897697" d="M439.7,333.02H437.5c-.2,0-.369-.232-.369-.519v-11.12a.679.679,0,0,1,.067-.3l1.1-2.21a.318.318,0,0,1,.605,0l1.1,2.21a.671.671,0,0,1,.067.3V332.5C440.071,332.788,439.905,333.02,439.7,333.02Z" transform="translate(-179.178 -130.615)" fill="#f4ecce"/>
        <path id="Trazado_897698" data-name="Trazado 897698" d="M455.67,333.02h-2.205c-.2,0-.369-.232-.369-.519v-11.12a.679.679,0,0,1,.067-.3l1.1-2.21a.318.318,0,0,1,.605,0l1.1,2.21a.671.671,0,0,1,.067.3V332.5C456.039,332.788,455.873,333.02,455.67,333.02Z" transform="translate(-185.723 -130.615)" fill="#f4ecce"/>
        <path id="Trazado_897699" data-name="Trazado 897699" d="M471.637,333.02h-2.206c-.2,0-.369-.232-.369-.519v-11.12a.671.671,0,0,1,.067-.3l1.1-2.21a.318.318,0,0,1,.605,0l1.1,2.21a.671.671,0,0,1,.067.3V332.5C472.007,332.788,471.841,333.02,471.637,333.02Z" transform="translate(-192.268 -130.615)" fill="#f4ecce"/>
        <path id="Trazado_897700" data-name="Trazado 897700" d="M487.606,334.02H485.4c-.2,0-.369-.232-.369-.519v-11.12a.679.679,0,0,1,.067-.3l1.1-2.21a.318.318,0,0,1,.605,0l1.1,2.21a.671.671,0,0,1,.067.3V333.5C487.975,333.788,487.81,334.02,487.606,334.02Z" transform="translate(-198.813 -131.025)" fill="#f4ecce"/>
      </g>
      <g id="Grupo_1106267" data-name="Grupo 1106267" clip-path="url(#clip-path)">
        <g id="Grupo_1106265" data-name="Grupo 1106265" transform="translate(-0.589 172.31)">
          <path id="Trazado_897701" data-name="Trazado 897701" d="M294.347,322.1s-83.863-1.125-161.883-17.48q-6.76-2.18-13.895-4.007-9.835-2.529-20.292-4.363l-.028-.008,0,0A292.974,292.974,0,0,0,48.177,292,293.281,293.281,0,0,0-1,296.089V414.742h295.61Z" transform="translate(0.998 -292.001)" fill="#e9c553"/>
        </g>
        <path id="Trazado_897702" data-name="Trazado 897702" d="M287.329,353.036c-21.536,0-90.913-.972-155.872-12.49l-.151-.035a251.519,251.519,0,0,0-34.176-7.251l-.083-.011a291.388,291.388,0,0,0-49.924-2.664A292.4,292.4,0,0,0-1.1,336.056l-.579-2.893a295.419,295.419,0,0,1,48.708-5.525A294.863,294.863,0,0,1,96.565,330.2l.06-.085.938.225a254.356,254.356,0,0,1,34.486,7.313c77.433,13.719,161.151,12.41,161.988,12.391l.052,2.951C293.951,353,291.563,353.036,287.329,353.036Z" transform="translate(0.687 -134.237)" fill="#fdf1db" opacity="0.45"/>
        <path id="Trazado_897703" data-name="Trazado 897703" d="M288.688,397.015c-21.541,0-90.912-.973-155.867-12.489l-.151-.035a251.3,251.3,0,0,0-34.178-7.251l-.08-.011a291.54,291.54,0,0,0-49.924-2.664,292.311,292.311,0,0,0-48.22,5.47l-.58-2.893A295.331,295.331,0,0,1,48.4,371.616a294.851,294.851,0,0,1,49.533,2.566l.06-.084.938.225a254.348,254.348,0,0,1,34.486,7.313c77.434,13.719,161.151,12.408,161.988,12.39l.052,2.951C295.315,396.977,292.925,397.015,288.688,397.015Z" transform="translate(0.128 -152.264)" fill="#fdf1db" opacity="0.45"/>
        <g id="Grupo_1106266" data-name="Grupo 1106266" transform="translate(-0.294 241.352)">
          <rect id="Rectángulo_402796" data-name="Rectángulo 402796" width="295.051" height="22.719" fill="#806c0d"/>
          <path id="Trazado_897704" data-name="Trazado 897704" d="M101.75,422.506h-52.1a.746.746,0,0,1-.744-.744h0a.746.746,0,0,1,.744-.744h52.1a.746.746,0,0,1,.744.744h0A.746.746,0,0,1,101.75,422.506Z" transform="translate(-19.75 -413.926)" fill="#f4ecce"/>
          <path id="Trazado_897705" data-name="Trazado 897705" d="M256.94,422.506h-52.1a.746.746,0,0,1-.744-.744h0a.746.746,0,0,1,.744-.744h52.1a.746.746,0,0,1,.744.744h0A.746.746,0,0,1,256.94,422.506Z" transform="translate(-83.363 -413.926)" fill="#f4ecce"/>
          <path id="Trazado_897706" data-name="Trazado 897706" d="M415.124,422.506h-52.1a.746.746,0,0,1-.744-.744h0a.746.746,0,0,1,.744-.744h52.1a.747.747,0,0,1,.744.744h0A.747.747,0,0,1,415.124,422.506Z" transform="translate(-148.202 -413.926)" fill="#f4ecce"/>
        </g>
      </g>
      <g id="Grupo_1106269" data-name="Grupo 1106269" clip-path="url(#clip-path)">
        <path id="Trazado_897707" data-name="Trazado 897707" d="M389.773,180.743h-3.752a16.228,16.228,0,0,0-22.8-10.048,22.523,22.523,0,0,0-43.453,8.369c0,.565.028,1.124.068,1.679h-9.006A10.468,10.468,0,0,0,300.4,191.191h0a10.468,10.468,0,0,0,10.427,10.448h78.947A10.468,10.468,0,0,0,400.2,191.191h0A10.468,10.468,0,0,0,389.773,180.743Z" transform="translate(-123.133 -64.145)" fill="#fbddc3"/>
        <path id="Trazado_897708" data-name="Trazado 897708" d="M301.973,99.488h-1.616a6.991,6.991,0,0,0-9.823-4.328,9.7,9.7,0,0,0-18.719,3.6c0,.244.012.484.03.723h-3.879a4.51,4.51,0,0,0-4.492,4.5h0a4.509,4.509,0,0,0,4.492,4.5h34.008a4.51,4.51,0,0,0,4.492-4.5h0A4.51,4.51,0,0,0,301.973,99.488Z" transform="translate(-107.997 -36.497)" fill="#fbddc3"/>
        <g id="Grupo_1106268" data-name="Grupo 1106268" transform="translate(28.268 33.046)">
          <ellipse id="Elipse_11671" data-name="Elipse 11671" cx="13.84" cy="13.867" rx="13.84" ry="13.867" transform="translate(42.403)" fill="#e9c553"/>
          <path id="Trazado_897709" data-name="Trazado 897709" d="M114.356,86.242h-2.789a12.066,12.066,0,0,0-16.955-7.471A16.746,16.746,0,0,0,62.3,84.994c0,.42.021.836.051,1.249h-6.7A7.783,7.783,0,0,0,47.9,94.011h0a7.783,7.783,0,0,0,7.753,7.768h58.7a7.783,7.783,0,0,0,7.753-7.768h0A7.783,7.783,0,0,0,114.356,86.242Z" transform="translate(-47.904 -61.004)" fill="#fbddc3"/>
        </g>
      </g>
      <g id="Grupo_1106274" data-name="Grupo 1106274" clip-path="url(#clip-path)">
        <path id="Trazado_897710" data-name="Trazado 897710" d="M281.609,246.94a6.849,6.849,0,0,0-9.216-5.237,6.862,6.862,0,0,0-8.018-6.591,6.833,6.833,0,0,0-4.687,3.2,8.048,8.048,0,0,0-14.364,5.276,6.865,6.865,0,1,0-.859,13.679c.07.12.148.233.222.349a4.4,4.4,0,0,0,4.357,5.123h20.023a4.421,4.421,0,0,0,4.417-4.426,4.48,4.48,0,0,0-.038-.552,11.263,11.263,0,0,0,1.413-2.785,6.853,6.853,0,0,0,6.75-8.036Z" transform="translate(-97.396 -96.33)" fill="#8f8c2d"/>
        <path id="Trazado_897711" data-name="Trazado 897711" d="M406.36,246.94a6.849,6.849,0,0,0-9.216-5.237,6.929,6.929,0,0,0-.1-1,6.847,6.847,0,0,0-12.608-2.393,8.048,8.048,0,0,0-14.364,5.276,6.865,6.865,0,1,0-.859,13.679c.07.12.148.233.222.349a4.4,4.4,0,0,0,4.357,5.123h20.023a4.421,4.421,0,0,0,4.417-4.426,4.48,4.48,0,0,0-.038-.552,11.264,11.264,0,0,0,1.413-2.785,6.853,6.853,0,0,0,6.75-8.036Z" transform="translate(-148.531 -96.33)" fill="#8f8c2d"/>
        <g id="Grupo_1106273" data-name="Grupo 1106273" transform="translate(162.248 126.206)">
          <path id="Trazado_897712" data-name="Trazado 897712" d="M304.126,225.5l-6.987-5.924-9.674,7.809-5.912,11.04v18.31h29.291v-18.31Z" transform="translate(-277.657 -216.21)" fill="#bc3f00"/>
          <rect id="Rectángulo_402799" data-name="Rectángulo 402799" width="42.189" height="18.041" transform="translate(33.053 22.348)" fill="#842d07"/>
          <path id="Trazado_897713" data-name="Trazado 897713" d="M304.693,239.85H300V235a2.421,2.421,0,0,1,2.418-2.424h0A2.421,2.421,0,0,1,304.832,235v4.707A.139.139,0,0,1,304.693,239.85Z" transform="translate(-285.216 -221.54)" fill="#3d3204"/>
          <path id="Trazado_897714" data-name="Trazado 897714" d="M303.935,243.778h-5.609a.152.152,0,0,1-.152-.152v-1.312a.152.152,0,0,1,.152-.152h5.609a.152.152,0,0,1,.152.152v1.312A.152.152,0,0,1,303.935,243.778Z" transform="translate(-284.469 -225.468)" fill="#f4ecce"/>
          <path id="Trazado_897715" data-name="Trazado 897715" d="M345.221,266.771h0a2.421,2.421,0,0,0,2.418-2.424v-2.424a2.421,2.421,0,0,0-2.418-2.424h0a2.421,2.421,0,0,0-2.418,2.424v2.424A2.42,2.42,0,0,0,345.221,266.771Z" transform="translate(-302.763 -232.575)" fill="#3d3204"/>
          <rect id="Rectángulo_402800" data-name="Rectángulo 402800" width="5.912" height="1.616" transform="translate(40.04 32.58)" fill="#f4ecce"/>
          <g id="Grupo_1106270" data-name="Grupo 1106270" transform="translate(64.813 26.925)">
            <path id="Trazado_897716" data-name="Trazado 897716" d="M387.2,266.771h0a2.421,2.421,0,0,0,2.418-2.424v-2.424A2.421,2.421,0,0,0,387.2,259.5h0a2.422,2.422,0,0,0-2.419,2.424v2.424A2.422,2.422,0,0,0,387.2,266.771Z" transform="translate(-384.784 -259.5)" fill="#3d3204"/>
            <rect id="Rectángulo_402801" data-name="Rectángulo 402801" width="5.912" height="1.616" transform="translate(0.001 5.655)" fill="#f4ecce"/>
          </g>
          <g id="Grupo_1106271" data-name="Grupo 1106271" transform="translate(53.035 26.925)">
            <path id="Trazado_897717" data-name="Trazado 897717" d="M367.243,266.771h0a2.421,2.421,0,0,0,2.418-2.424v-2.424a2.421,2.421,0,0,0-2.418-2.424h0a2.421,2.421,0,0,0-2.419,2.424v2.424A2.421,2.421,0,0,0,367.243,266.771Z" transform="translate(-364.824 -259.5)" fill="#3d3204"/>
            <rect id="Rectángulo_402802" data-name="Rectángulo 402802" width="5.912" height="1.616" transform="translate(0 5.655)" fill="#f4ecce"/>
          </g>
          <g id="Grupo_1106272" data-name="Grupo 1106272" transform="translate(9.271 27.329)">
            <path id="Trazado_897718" data-name="Trazado 897718" d="M305.709,273.648H290.661V260.185h15.048Zm-14.242-.808H304.9V260.993H291.467Z" transform="translate(-290.661 -260.185)" fill="#f4ecce"/>
            <rect id="Rectángulo_402803" data-name="Rectángulo 402803" width="14.242" height="12.655" transform="translate(0.403 0.404)" fill="#f4ecce" opacity="0.58"/>
            <path id="Trazado_897719" data-name="Trazado 897719" d="M305.866,274.022a.4.4,0,0,1-.27-.1L292.16,261.8a.4.4,0,0,1,.539-.6l13.436,12.117a.405.405,0,0,1,.03.571A.4.4,0,0,1,305.866,274.022Z" transform="translate(-291.221 -260.559)" fill="#f4ecce"/>
            <path id="Trazado_897720" data-name="Trazado 897720" d="M292.43,273.483a.4.4,0,0,1-.269-.705l12.9-11.578a.4.4,0,0,1,.538.6l-12.9,11.578A.4.4,0,0,1,292.43,273.483Z" transform="translate(-291.221 -260.558)" fill="#f4ecce"/>
            <path id="Trazado_897721" data-name="Trazado 897721" d="M303.815,273.484a.4.4,0,0,1-.4-.4V261.5a.4.4,0,1,1,.806,0V273.08A.4.4,0,0,1,303.815,273.484Z" transform="translate(-295.888 -260.559)" fill="#f4ecce"/>
          </g>
          <path id="Trazado_897722" data-name="Trazado 897722" d="M344.549,223.3l-12.63-9.424H292.148l-.135.135L281.4,222.488,274.95,236.22l3.9.4,5.778-11.438,9.749-7.657,6.912,5.772L308,236.22h43.8Z" transform="translate(-274.95 -213.872)" fill="#f4ecce"/>
          <path id="Trazado_897723" data-name="Trazado 897723" d="M322.31,229.842h41.652l6.607,11.769H327.953Z" transform="translate(-294.363 -220.418)" fill="#806c0d" opacity="0.22"/>
          <path id="Trazado_897724" data-name="Trazado 897724" d="M308.421,215.012l8.331,7.809h38.7l-9.943-7.809Z" transform="translate(-288.67 -214.339)" fill="#806c0d" opacity="0.08"/>
          <path id="Trazado_897725" data-name="Trazado 897725" d="M291.7,214.645l1.209,1.563-9.943,8.077L276.9,236.727l-1.724-.055,6.449-14Z" transform="translate(-275.043 -214.189)" fill="#806c0d" opacity="0.08"/>
        </g>
      </g>
    </g>
  </g>
</svg>
